<svg width="12" height="12" viewBox="0 0 12 12" fill="none" xmlns="http://www.w3.org/2000/svg">
<g clip-path="url(#clip0)">
<path d="M10.441 9.11513L10.4415 9.11561L7.32577 5.99993L10.4356 2.89011C10.6915 2.63417 10.6983 2.21294 10.4424 1.957L10.0437 1.55833C9.78782 1.30246 9.36569 1.30833 9.10975 1.56427L5.99993 4.67409L2.88432 1.55847C2.62851 1.30267 2.21329 1.30136 1.95728 1.55737L1.55633 1.95831C1.30053 2.21411 1.30267 2.62838 1.55854 2.88424L4.67423 5.99993L1.55316 9.121C1.29736 9.3768 1.3026 9.78768 1.55854 10.0436L1.95721 10.4423C2.21315 10.6982 2.62327 10.7026 2.879 10.4468L6.00007 7.32577L9.1152 10.4409C9.37114 10.6968 9.78588 10.6993 10.0416 10.4436L10.4426 10.0426C10.6986 9.78664 10.6969 9.37107 10.441 9.11513Z" fill="#1E1E1E"/>
</g>
<defs>
<clipPath id="clip0">
<rect width="12" height="12" fill="white"/>
</clipPath>
</defs>
</svg>
