<svg width="130" height="130" viewBox="0 0 130 130" fill="none" xmlns="http://www.w3.org/2000/svg">
<path d="M93.2366 84.6816L78.7128 119.768C78.3167 120.56 78.1846 121.483 78.1846 122.406L78.0526 125.308H20.8815C18.901 125.308 17.3165 123.593 17.4486 121.615L19.2971 102.884C19.6932 98.7954 16.7884 95.102 12.6954 94.5744L2.13257 93.2554L4.77327 76.1079C7.41396 58.9603 15.204 58.4327 20.3534 55.9266C22.862 54.7394 25.7668 53.5523 28.2755 52.497C29.5958 51.9694 30.9162 51.5737 31.7084 51.178C32.6327 50.7823 33.6889 50.6504 34.7452 50.6504C36.5937 50.7823 39.7625 51.0461 44.5157 52.1013C47.4205 52.7609 50.9854 53.4204 54.4184 54.0799C55.2106 54.2118 56.1348 54.3437 56.9271 54.6075C63.0007 55.7946 68.6782 58.4327 73.4314 62.2579L90.86 76.2398C93.5007 77.9545 94.425 81.5159 93.2366 84.6816Z" fill="#DB1E32"/>
<path d="M127.697 65.8194V124.385C127.697 125.044 127.565 125.704 127.301 126.231C127.169 126.363 127.037 126.627 126.905 126.891L126.641 127.155C125.981 127.814 124.925 128.342 123.736 128.342H105.78L102.347 61.8623H123.868C125.981 61.9942 127.697 63.5771 127.697 65.8194Z" fill="#BA971A"/>
<path d="M105.911 65.5556V128.342H48.0802C45.8356 128.342 44.1191 126.627 44.1191 124.385V65.8194C44.1191 63.709 45.8356 61.8623 48.0802 61.8623H102.611C104.195 61.9942 105.911 63.4452 105.911 65.5556Z" fill="#F5CB35"/>
<path d="M81.3532 61.9942V84.1541C81.3532 84.5498 81.0891 84.9455 80.693 85.2093L78.1843 86.2646C77.9202 86.3965 77.5242 86.3965 77.2601 86.1327L73.5631 83.2308C73.299 83.0989 72.903 82.9669 72.6389 83.0989L70.7904 84.1541C70.3943 84.4179 69.7341 84.0222 69.7341 83.6265V61.8623L81.3532 61.9942Z" fill="#BA971A"/>
<path d="M123.868 61.8623H47.9484C45.8358 61.8623 43.9873 63.709 43.9873 65.8194V124.385C43.9873 126.627 45.7038 128.342 47.9484 128.342H105.78H123.736C125.189 128.342 125.981 127.814 126.905 127.023C127.565 126.363 127.829 125.308 127.829 124.517V70.9637" stroke="#1E1E1E" stroke-miterlimit="10" stroke-linecap="round" stroke-linejoin="round"/>
<path d="M83.9936 110.93C83.8615 111.194 83.7295 111.59 83.7295 111.854C83.7295 112.645 84.3897 113.305 85.1819 113.305H87.4265V120.691C87.4265 120.955 87.5586 121.087 87.8226 121.087H94.0282C94.2923 121.087 94.4244 120.955 94.4244 120.691V113.436H96.5369C96.801 113.436 97.1971 113.305 97.4612 113.173C98.1213 112.777 98.2534 111.722 97.7252 111.062L91.9157 103.676C91.7836 103.544 91.7836 103.412 91.6516 103.412C90.9914 103.016 90.0672 103.148 89.5391 103.676L83.9936 110.93Z" fill="#1E1E1E"/>
<path d="M52.1738 44.8473V53.2892C52.1738 58.961 47.4205 63.5777 41.479 63.5777C38.5742 63.5777 35.8015 62.3906 33.953 60.5439C31.9724 58.6972 30.7842 56.0592 30.7842 53.2892V28.4912L52.1738 44.8473Z" fill="#F1EEE9"/>
<path d="M59.4355 15.4327C59.5675 28.4912 61.2839 41.4178 58.2471 43.7921C55.2103 46.1663 48.4765 48.4087 41.7427 44.4516C35.009 40.4945 34.2167 37.9883 34.2167 37.9883L30.5198 34.295L31.0479 19.126L41.7427 11.4756L59.4355 15.4327Z" fill="#F1EEE9"/>
<path d="M58.3791 43.7918C55.3423 46.1661 48.6086 48.4085 41.8748 44.4514C40.4224 43.6599 39.3661 42.8685 38.4419 42.209" stroke="#1E1E1E" stroke-miterlimit="10" stroke-linecap="round" stroke-linejoin="round"/>
<path d="M55.0783 19.3899C49.4008 19.258 42.535 17.4113 39.6303 16.8837C36.7255 16.2242 35.009 19.5218 35.009 19.5218C35.009 20.0494 35.009 20.577 35.009 21.1046C35.009 21.8961 35.009 22.8194 35.009 23.6108C35.009 24.4022 35.009 25.1937 34.877 26.117C34.877 26.5127 34.745 27.0403 34.745 27.436C34.745 27.9637 33.9527 28.3594 33.5566 27.9637C32.7644 27.3041 31.8402 27.0403 30.9159 27.0403C30.2557 27.0403 29.7276 27.3041 29.1995 27.6999C29.0674 27.436 29.0675 27.1722 29.0675 26.9084C28.9354 23.8746 29.0675 22.9513 29.0675 22.9513L35.273 17.0156C35.273 17.0156 43.4592 13.8499 43.8553 13.5861C44.2514 13.3223 52.7017 11.3438 52.7017 11.3438C52.7017 11.3438 58.5112 11.6076 59.0393 12.399C59.3034 12.7947 59.4355 13.718 59.5675 14.3775C59.5675 14.9052 59.6995 15.4328 59.6995 15.4328C59.6995 15.4328 60.7558 19.5218 55.0783 19.3899Z" fill="#1E1E1E"/>
<path d="M31.9002 35.1552C33.9314 34.9465 35.3905 32.9561 35.1592 30.7096C34.928 28.463 33.0939 26.811 31.0627 27.0196C29.0316 27.2283 27.5725 29.2187 27.8037 31.4652C28.035 33.7118 29.869 35.3638 31.9002 35.1552Z" fill="#F1EEE9"/>
<path d="M59.699 17.4109C59.567 17.4109 59.567 17.4109 59.435 17.5428C56.9263 14.2452 52.8332 12.3986 45.1752 15.1685H45.0432C44.7791 15.3004 44.383 15.4323 43.9869 15.5643C43.5908 15.6962 43.1947 15.8281 42.7985 16.0919C40.9501 16.8833 38.0453 18.4661 35.4046 20.3128C32.1038 22.5552 29.199 25.4571 29.067 27.8313C28.2748 24.6656 27.8787 21.4999 27.7466 18.3342C27.6146 12.3986 35.0085 6.19907 42.4025 5.27574C46.3635 4.74812 49.5323 5.93526 52.3051 7.91382C54.6817 9.62857 56.7942 12.1347 58.6427 14.6409L59.699 17.4109Z" fill="#DB1E32"/>
<path d="M68.5458 10.1568C67.8856 13.4544 62.7363 16.0925 59.4354 17.4115C53.6259 9.893 42.1388 15.5649 35.405 20.3134C35.5371 20.1815 35.6691 19.3901 35.8011 19.2582C39.8942 9.23348 70.3942 0.395907 68.5458 10.1568Z" fill="#DB1E32"/>
<path d="M37.2537 17.0157C44.3835 8.04623 70.3944 1.18722 68.546 10.1567" stroke="#1E1E1E" stroke-miterlimit="10" stroke-linecap="round" stroke-linejoin="round"/>
<path d="M55.7382 28.7546C56.6132 28.7546 57.3226 28.0459 57.3226 27.1717C57.3226 26.2975 56.6132 25.5889 55.7382 25.5889C54.8631 25.5889 54.1538 26.2975 54.1538 27.1717C54.1538 28.0459 54.8631 28.7546 55.7382 28.7546Z" fill="#1E1E1E"/>
<path d="M44.3838 28.7546C45.2588 28.7546 45.9682 28.0459 45.9682 27.1717C45.9682 26.2975 45.2588 25.5889 44.3838 25.5889C43.5087 25.5889 42.7993 26.2975 42.7993 27.1717C42.7993 28.0459 43.5087 28.7546 44.3838 28.7546Z" fill="#1E1E1E"/>
<path d="M18.9006 106.182L21.4092 82.7031L23.7859 107.897" fill="#1E1E1E"/>
<path d="M71.7142 113.042C71.8463 113.965 71.054 114.756 70.2618 114.888L68.8095 115.02C68.8095 115.02 63.7921 114.229 63.5281 117.79C63.264 120.692 64.7164 121.747 68.6775 126.628C69.6017 127.815 68.8095 129.53 67.3571 129.662C57.4545 130.453 57.0584 130.453 49.2683 122.802C48.212 121.747 46.7596 121.088 45.3073 121.088L25.1059 120.956L7.14914 120.692C4.11234 119.241 2.26385 116.207 2.52792 112.778L3.58418 92.9922L20.0885 95.1027L19.1644 104.072L47.2878 109.744C47.2878 109.744 54.4177 111.195 60.0952 110.931C64.3203 110.799 67.8852 111.063 70.2618 111.195C71.054 111.591 71.7142 112.25 71.7142 113.042Z" fill="#F1EEE9"/>
<path d="M73.4308 61.7308C68.6776 57.9056 63.0001 55.2675 56.9265 54.0804C55.8702 53.8166 53.3615 53.4208 52.0412 53.157V46.298C54.6819 45.9023 56.9265 44.8471 58.2468 43.6599C61.1516 41.2857 59.6993 29.5462 59.4352 17.2791C59.4352 17.2791 59.5672 17.2791 59.5672 17.1472C62.8681 15.8282 67.8854 13.0582 68.4135 9.89252C69.4698 4.61635 60.8876 4.74826 52.1733 7.65015C49.4005 5.67159 46.2317 4.48445 42.2706 5.01207C34.8767 5.93539 27.6147 12.1349 27.6147 18.0706C27.6147 21.2363 28.0108 24.402 28.9351 27.5677C28.0108 28.3591 27.4827 29.6781 27.6147 31.1291C27.7468 32.9757 29.0671 34.2948 30.5195 34.6905V50.9147C29.8593 51.1785 29.0671 51.4423 28.1429 51.838C25.6342 52.7613 22.7295 54.0804 20.2208 55.2675C15.0714 57.7737 7.2814 58.3013 4.6407 75.4488L2 92.5963L12.5628 93.9154C12.6948 93.9154 12.6948 93.9154 12.8268 93.9154L3.45235 92.7282L2.39609 112.514C2.26405 115.416 3.71642 118.318 6.09305 119.9C6.62119 120.296 7.2814 120.428 7.94157 120.428L17.5801 120.56V121.088C17.316 123.066 18.9004 124.781 21.013 124.781H44.2512M29.0672 27.8315C29.0672 27.6996 29.0671 27.5677 29.1992 27.4357C29.1992 27.5677 29.1991 27.5677 29.3312 27.6996C29.1991 27.8315 29.1992 27.8315 29.0672 27.8315Z" stroke="#1E1E1E" stroke-miterlimit="10" stroke-linecap="round" stroke-linejoin="round"/>
<path d="M106.572 6.59473H101.687V9.76042H106.572V6.59473Z" fill="#D3CDC3"/>
<path d="M106.572 6.59473H101.687V8.04567H106.572V6.59473Z" fill="#D3CDC3"/>
<path d="M87.8228 13.1904L85.1821 15.8285L87.1627 17.8071L89.8034 15.169L87.8228 13.1904Z" fill="#D3CDC3"/>
<path d="M119.115 14.9052L121.756 17.5433L123.472 15.8285L120.832 13.1904L119.115 14.9052Z" fill="#D3CDC3"/>
<path d="M104.327 56.9827C117.399 56.9827 128.093 46.2984 128.093 33.108C128.093 19.9176 117.399 9.2334 104.327 9.2334C91.2556 9.2334 80.5608 19.9176 80.5608 33.108C80.6928 46.2984 91.2556 56.9827 104.327 56.9827Z" fill="#F1EEE9"/>
<path d="M95.3486 11.0801C94.6884 11.3439 93.8963 11.7396 93.2361 12.1353" stroke="#1E1E1E" stroke-miterlimit="10" stroke-linecap="round" stroke-linejoin="round"/>
<path d="M123.472 47.3537C126.377 43.3965 128.094 38.5161 128.094 33.108C128.094 19.9176 117.399 9.2334 104.327 9.2334C102.083 9.2334 99.97 9.49721 97.9895 10.1567" stroke="#1E1E1E" stroke-miterlimit="10" stroke-linecap="round" stroke-linejoin="round"/>
<path d="M89.2748 14.7734C83.9934 19.1263 80.5605 25.7215 80.5605 33.24C80.5605 46.4304 91.2554 57.1146 104.327 57.1146C108.948 57.1146 113.173 55.7956 116.87 53.5532" stroke="#1E1E1E" stroke-miterlimit="10" stroke-linecap="round" stroke-linejoin="round"/>
<path d="M122.944 33.1082C122.944 33.372 122.944 33.5039 122.944 33.7678C122.68 43.6606 114.362 51.7067 104.459 51.7067C94.5564 51.7067 86.2382 43.6606 85.9741 33.7678C85.9741 33.5039 85.9741 33.372 85.9741 33.1082C85.9741 23.0835 93.8962 14.7736 103.931 14.5098C104.195 14.5098 104.327 14.5098 104.591 14.5098C114.758 14.5098 122.944 22.6878 123.076 32.8444C122.944 32.9763 122.944 32.9763 122.944 33.1082Z" fill="#F1EEE9"/>
<path d="M122.944 33.7671C122.68 43.6599 114.362 51.706 104.459 51.706C94.5564 51.706 86.2382 43.6599 85.9741 33.7671C86.2382 23.8743 94.5564 15.8281 104.459 15.8281C114.494 15.8281 122.548 23.7424 122.944 33.7671Z" fill="#FDFBF9"/>
<path d="M120.435 34.1631H117.398C116.87 34.1631 116.474 33.7674 116.474 33.2397C116.474 32.7121 116.87 32.3164 117.398 32.3164H120.435C120.963 32.3164 121.359 32.7121 121.359 33.2397C121.491 33.6354 120.963 34.1631 120.435 34.1631Z" fill="#D3CDC3"/>
<path d="M90.4637 34.1631H87.2949C86.7667 34.1631 86.3706 33.7674 86.3706 33.2397C86.3706 32.7121 86.7667 32.3164 87.2949 32.3164H90.3317C90.8598 32.3164 91.2559 32.7121 91.2559 33.2397C91.3879 33.6354 90.9919 34.1631 90.4637 34.1631Z" fill="#D3CDC3"/>
<path d="M103.931 50.651C103.403 50.651 103.007 50.2553 103.007 49.7277V46.562C103.007 46.0344 103.403 45.6387 103.931 45.6387C104.459 45.6387 104.855 46.0344 104.855 46.562V49.7277C104.855 50.3872 104.327 50.651 103.931 50.651Z" fill="#D3CDC3"/>
<path d="M103.931 20.5767C103.403 20.5767 103.007 20.181 103.007 19.6534V16.6196C103.007 16.092 103.403 15.6963 103.931 15.6963C104.459 15.6963 104.855 16.092 104.855 16.6196V19.7853C104.855 20.181 104.327 20.5767 103.931 20.5767Z" fill="#D3CDC3"/>
<path d="M104.196 35.746C105.78 35.746 106.968 34.427 106.968 32.976C106.968 31.3932 105.648 30.2061 104.196 30.2061C102.611 30.2061 101.423 31.5251 101.423 32.976C101.423 34.427 102.611 35.746 104.196 35.746Z" fill="#F1EEE9"/>
<path d="M116.078 21.7643C115.814 21.5005 115.286 21.5005 114.89 21.7643L104.987 32.1847C104.855 32.1847 104.855 32.1847 104.855 32.1847C104.063 32.1847 103.535 32.7123 103.535 33.5037C103.535 33.6356 103.535 33.6356 103.535 33.7675L101.95 35.4823C101.686 35.7461 101.686 36.2737 101.95 36.6694C102.215 36.9332 102.215 36.9332 102.479 36.9332C102.743 36.9332 102.875 36.8013 103.007 36.6694L104.591 34.9547C104.723 34.9547 104.723 34.9547 104.723 34.9547C105.515 34.9547 106.044 34.427 106.044 33.6356C106.044 33.5037 106.044 33.5037 106.044 33.3718L115.946 22.9514C116.474 22.5557 116.474 22.0281 116.078 21.7643Z" fill="#D3CDC3"/>
<path d="M115.418 21.1051C115.154 20.8413 114.626 20.8413 114.23 21.1051L104.327 31.5255C104.195 31.5255 104.195 31.5255 104.195 31.5255C103.403 31.5255 102.875 32.0531 102.875 32.8445C102.875 32.9764 102.875 32.9764 102.875 33.1083L101.29 34.8231C101.026 35.0869 101.026 35.6145 101.29 36.0102C101.554 36.274 101.554 36.274 101.819 36.274C102.083 36.274 102.215 36.1421 102.347 36.0102L103.931 34.2955C104.063 34.2955 104.063 34.2955 104.063 34.2955C104.855 34.2955 105.383 33.7679 105.383 32.9764C105.383 32.8445 105.383 32.8445 105.383 32.7126L115.286 22.2922C115.682 21.8965 115.682 21.3689 115.418 21.1051Z" fill="#DB1E32"/>
<path d="M115.022 21.368L101.554 35.4818C101.422 35.4818 101.422 35.4818 101.29 35.4818C101.158 35.218 101.158 35.086 101.422 34.9541L114.362 21.2361C114.626 20.9723 114.758 20.9723 115.022 21.1042C115.022 21.1042 115.022 21.2361 115.022 21.368Z" fill="#DB1E32"/>
<path d="M108.816 2.11046V5.27616C108.816 6.4633 107.892 7.38663 106.704 7.38663H101.422C100.234 7.38663 99.3096 6.4633 99.3096 5.27616V2.11046C99.3096 0.923328 100.234 0 101.422 0H106.704C107.892 0 108.816 0.923328 108.816 2.11046Z" fill="#1E1E1E"/>
<path d="M88.3506 13.3219L85.4458 16.2238C84.7857 16.8834 83.7294 16.8834 83.0692 16.2238L81.3528 14.5091C80.6926 13.8496 80.6926 12.7943 81.3528 12.1348L84.2576 9.23292C84.9178 8.5734 85.974 8.5734 86.6342 9.23292L88.3506 10.9477C88.8788 11.6072 88.8788 12.6624 88.3506 13.3219Z" fill="#1E1E1E"/>
<path d="M120.304 13.3219L123.208 16.2238C123.869 16.8833 124.925 16.8833 125.585 16.2238L127.301 14.509C127.962 13.8495 127.962 12.7943 127.301 12.1347L124.265 9.36476C123.604 8.70524 122.548 8.70524 121.888 9.36476L120.304 10.9476C119.775 11.6071 119.775 12.6624 120.304 13.3219Z" fill="#1E1E1E"/>
<path d="M104.195 33.1077C104.327 33.1077 104.459 32.9758 104.459 32.8439C104.459 32.712 104.327 32.5801 104.195 32.5801C104.063 32.5801 103.931 32.712 103.931 32.8439C103.931 32.9758 104.063 33.1077 104.195 33.1077Z" fill="#1E1E1E"/>
<path opacity="0.4" d="M122.944 32.8444H103.799V14.5098C104.063 14.5098 104.195 14.5098 104.459 14.5098C114.626 14.5098 122.812 22.8197 122.944 32.8444Z" fill="url(#paint0_linear)"/>
<path d="M20.089 95.3662L19.1648 104.336L49.5328 110.403" stroke="#1E1E1E" stroke-miterlimit="10" stroke-linecap="round" stroke-linejoin="round"/>
<path d="M17.5803 120.824L45.3077 120.956" stroke="#1E1E1E" stroke-miterlimit="10" stroke-linecap="round" stroke-linejoin="round"/>
<path d="M105.912 66.3477V122.011" stroke="#1E1E1E" stroke-miterlimit="10" stroke-linecap="round" stroke-linejoin="round"/>
<path d="M68.9417 128.342C68.9417 128.342 69.2058 127.419 68.4136 126.364C67.0933 124.649 65.7729 122.934 64.4526 121.219C64.0565 120.692 63.7923 120.164 63.6603 119.505C63.5283 118.845 63.5283 118.186 63.6603 117.526C63.9244 116.207 65.1127 115.416 66.301 115.02C66.6971 114.888 67.2252 114.888 67.6214 115.02" stroke="#1E1E1E" stroke-miterlimit="10" stroke-linecap="round" stroke-linejoin="round"/>
<defs>
<linearGradient id="paint0_linear" x1="102.435" y1="18.2425" x2="119.62" y2="35.376" gradientUnits="userSpaceOnUse">
<stop stop-color="#DB1E32"/>
<stop offset="1" stop-color="#DB1E32" stop-opacity="0"/>
</linearGradient>
</defs>
</svg>
