<svg width="130" height="130" viewBox="0 0 130 130" fill="none" xmlns="http://www.w3.org/2000/svg">
<g clip-path="url(#clip0)">
<path d="M14.8643 126.125H130" stroke="#1E1E1E" stroke-miterlimit="10" stroke-linecap="round" stroke-linejoin="round"/>
<path d="M5.4624 126.125H10.3803" stroke="#1E1E1E" stroke-miterlimit="10" stroke-linecap="round" stroke-linejoin="round"/>
<path d="M34.1016 38.9759L30.9195 22.4998H4.88375C3.72661 22.4998 2.85871 22.0663 2.1355 21.3436L0.255154 19.3202C-0.323419 18.7421 0.110528 17.2969 1.26767 17.2969H33.0892C34.2463 17.2969 35.4034 18.3086 35.5481 19.3202L39.1642 37.8197L34.1016 38.9759Z" fill="#D3CDC3"/>
<path d="M15.7319 19.1758L10.814 20.1875L14.43 38.8314L19.3479 37.8197L15.7319 19.1758Z" fill="#D3CDC3"/>
<path d="M110.039 125.836C114.957 125.836 119.007 121.79 119.007 116.876C119.007 111.962 114.957 107.915 110.039 107.915C104.977 107.915 101.071 111.962 101.071 116.876C101.071 121.645 105.121 125.836 110.039 125.836Z" fill="#1E1E1E"/>
<path d="M46.5406 125.836C51.4585 125.836 55.5085 121.79 55.5085 116.876C55.5085 111.962 51.4585 107.915 46.5406 107.915C41.4781 107.915 37.5728 111.962 37.5728 116.876C37.5728 121.645 41.6228 125.836 46.5406 125.836Z" fill="#1E1E1E"/>
<path d="M68.0926 16.2852H35.5479V55.8855H68.0926V16.2852Z" fill="#BA971A"/>
<path d="M61.2944 16.2852H35.5479V55.8855H61.2944V16.2852Z" fill="#F5CB35"/>
<path d="M97.5999 4H65.0552V43.6004H97.5999V4Z" fill="#BA971A"/>
<path d="M90.9462 4H65.1997V43.6004H90.9462V4Z" fill="#F5CB35"/>
<path d="M119.007 25.8232H93.2605V57.6192H119.007V25.8232Z" fill="#DB1E32"/>
<path d="M113.8 25.8232H93.2605V57.6192H113.8V25.8232Z" fill="#DB1E32"/>
<path d="M61.2944 16.2852H35.5479V33.1948" stroke="#1E1E1E" stroke-miterlimit="10" stroke-linecap="round" stroke-linejoin="round"/>
<path d="M61.2944 16.2852H35.5479V55.8855H61.2944" stroke="#1E1E1E" stroke-miterlimit="10" stroke-linecap="round" stroke-linejoin="round"/>
<path d="M97.5998 19.898V4H90.657" stroke="#1E1E1E" stroke-miterlimit="10" stroke-linecap="round" stroke-linejoin="round"/>
<path d="M90.9462 28.136V4H65.1997V33.1944" stroke="#1E1E1E" stroke-miterlimit="10" stroke-linecap="round" stroke-linejoin="round"/>
<path d="M119.007 37.0963V25.8232H93.2605V31.8934" stroke="#1E1E1E" stroke-miterlimit="10" stroke-linecap="round" stroke-linejoin="round"/>
<path d="M113.8 34.4949V25.8232" stroke="#1E1E1E" stroke-miterlimit="10" stroke-linecap="round" stroke-linejoin="round"/>
<path d="M109.894 119.333H31.9315C30.7744 119.333 29.6173 118.321 29.4726 117.309L23.9762 90.4273C23.8315 88.9821 24.5547 87.6814 26.0012 87.3923C27.4476 87.1032 28.7494 87.9704 29.0387 89.4157L34.1012 114.13H110.183C111.63 114.13 112.642 115.286 112.642 116.587C112.642 118.177 111.485 119.333 109.894 119.333Z" fill="#D3CDC3"/>
<path d="M45.8178 95.3408L40.8999 96.3525L45.0945 117.309L50.0124 116.297L45.8178 95.3408Z" fill="#D3CDC3"/>
<path d="M31.3536 125.836C36.2715 125.836 40.3215 121.79 40.3215 116.876C40.3215 111.962 36.2715 107.915 31.3536 107.915C26.2911 107.915 22.3857 111.962 22.3857 116.876C22.3857 121.645 26.4358 125.836 31.3536 125.836Z" fill="#5D6063"/>
<path d="M31.3535 121.212C33.6677 121.212 35.6927 119.188 35.6927 116.731C35.6927 114.419 33.6677 112.396 31.3535 112.396C29.0392 112.396 27.0142 114.419 27.0142 116.731C27.0142 119.188 28.8945 121.212 31.3535 121.212Z" fill="#1E1E1E"/>
<path d="M94.8514 125.836C99.7693 125.836 103.819 121.79 103.819 116.876C103.819 111.962 99.7693 107.915 94.8514 107.915C89.7889 107.915 85.8835 111.962 85.8835 116.876C85.8835 121.645 89.9335 125.836 94.8514 125.836Z" fill="#5D6063"/>
<path d="M94.8515 121.212C97.1658 121.212 99.1908 119.188 99.1908 116.731C99.1908 114.419 97.1658 112.396 94.8515 112.396C92.5372 112.396 90.5122 114.419 90.5122 116.731C90.3676 119.188 92.5372 121.212 94.8515 121.212Z" fill="#1E1E1E"/>
<path d="M128.553 37.0967L119.152 91.4388C118.573 94.9074 115.68 97.2199 112.209 97.2199H30.9193C27.4479 97.2199 24.6996 94.9074 23.9764 91.4388L13.4175 37.0967H128.553Z" fill="#FDFBF9"/>
<path d="M61.5836 89.9938C62.7407 89.9938 63.8979 88.9821 63.8979 87.6813V47.2138C63.8979 46.0576 62.8854 44.9014 61.5836 44.9014C60.4264 44.9014 59.2693 45.9131 59.2693 47.2138V87.6813C59.2693 88.9821 60.2818 89.9938 61.5836 89.9938Z" fill="#D3CDC3"/>
<path d="M73.4445 89.9938C74.6017 90.1384 75.7588 89.4157 75.9034 87.9705L79.8088 47.6475C79.9535 46.4912 79.2303 45.335 77.7838 45.1905C76.6267 45.046 75.4695 45.9131 75.3249 47.2139L71.4195 87.5369C71.2749 88.6931 71.9981 89.5603 73.4445 89.9938Z" fill="#D3CDC3"/>
<path d="M85.4498 89.5602C86.6069 89.7048 87.7641 88.8376 87.9087 87.6814L95.2855 47.9365C95.4302 46.7803 94.7069 45.6241 93.4052 45.4795C92.248 45.1905 91.0909 46.0576 90.9463 47.3584L83.8587 87.1033C83.2801 88.2595 84.2926 89.4157 85.4498 89.5602Z" fill="#D3CDC3"/>
<path d="M49.5783 89.9938C48.4211 90.1384 47.2639 89.4157 47.1193 87.9705L43.214 47.6475C43.0693 46.4912 43.7925 45.335 45.239 45.1905C46.3961 45.046 47.5532 45.9131 47.6979 47.2139L51.6032 87.5369C51.7479 88.6931 51.0247 89.5603 49.5783 89.9938Z" fill="#D3CDC3"/>
<path d="M37.5727 89.5602C36.4156 89.7048 35.2585 88.8376 35.1138 87.6814L27.737 47.9365C27.5924 46.7803 28.3156 45.6241 29.6173 45.4795C30.7745 45.1905 31.9317 46.0576 32.0763 47.3584L39.1638 87.1033C39.5977 88.2595 38.7299 89.4157 37.5727 89.5602Z" fill="#D3CDC3"/>
<path d="M128.554 37.0967L119.152 91.4388C118.573 94.9075 115.68 97.2199 112.209 97.2199H90.8018C94.7071 97.2199 97.8893 94.4739 98.6125 90.7162L108.593 36.9521L128.554 37.0967Z" fill="#F1EEE9"/>
<path d="M108.592 37.0967H128.698V37.2412L119.296 91.5833C118.717 95.052 115.825 97.3644 112.353 97.3644H90.946C94.8514 97.3644 98.0335 94.6184 98.7568 90.8607L106.423 49.526" stroke="#1E1E1E" stroke-miterlimit="10" stroke-linecap="round" stroke-linejoin="round"/>
<path d="M128.554 37.0967H108.448V37.2412H13.2729L23.8319 91.5833C24.5551 95.052 27.3033 97.3644 30.7748 97.3644H90.5124H111.92C115.391 97.3644 118.139 95.052 118.862 91.5833L128.554 37.0967Z" stroke="#1E1E1E" stroke-miterlimit="10" stroke-linecap="round" stroke-linejoin="round"/>
</g>
<defs>
<clipPath id="clip0">
<rect width="130" height="130" fill="white"/>
</clipPath>
</defs>
</svg>
