<svg width="130" height="130" viewBox="0 0 130 130" fill="none" xmlns="http://www.w3.org/2000/svg">
<g clip-path="url(#clip0)">
<path d="M87.7754 110.938C79.8221 111.083 70.1336 110.938 63.3371 110.792C56.6853 110.938 46.9968 111.083 38.8989 110.938C46.8522 106.421 49.4551 97.9703 49.8889 92.4336H76.4962C77.2192 97.9703 79.8221 106.567 87.7754 110.938Z" fill="#F1EEE9"/>
<path d="M39.0435 110.938C46.9967 106.421 49.5996 97.9703 50.0334 92.4336H76.6407C77.0745 96.2218 78.376 101.467 81.8465 105.838" stroke="#1E1E1E" stroke-miterlimit="10" stroke-linecap="round" stroke-linejoin="round"/>
<path d="M113.515 21.914V91.5594C113.515 93.3078 112.069 94.4734 110.623 94.4734H16.6294C15.0387 94.4734 13.7373 93.0164 13.7373 91.5594V21.914C13.7373 20.3113 15.1834 19 16.6294 19H110.623C112.358 19 113.515 20.457 113.515 21.914Z" fill="#FDFBF9"/>
<path d="M113.515 44.6436V91.5594C113.515 93.3079 112.069 94.4735 110.623 94.4735H16.6294C15.0387 94.4735 13.7373 93.0165 13.7373 91.5594" stroke="#1E1E1E" stroke-miterlimit="10" stroke-linecap="round" stroke-linejoin="round"/>
<path d="M13.593 83.6915V21.914C13.593 20.3113 15.0391 19 16.4851 19H110.478C112.214 19 113.37 20.457 113.37 21.914V36.9213" stroke="#1E1E1E" stroke-miterlimit="10" stroke-linecap="round" stroke-linejoin="round"/>
<path d="M109.755 22.7881H17.0635V78.4461H109.755V22.7881Z" fill="#FDFBF9"/>
<path d="M63.3371 88.6449C64.6385 88.6449 65.6508 87.625 65.6508 86.3136C65.6508 85.0023 64.4939 83.9824 63.3371 83.9824C62.1803 83.9824 61.0234 85.0023 61.0234 86.3136C61.0234 87.4793 62.0357 88.6449 63.3371 88.6449Z" fill="#D3CDC3"/>
<path d="M104.549 75.5323H90.2335C89.0767 75.5323 88.0645 74.5123 88.0645 73.3467V27.7422C88.0645 26.5766 89.0767 25.5566 90.2335 25.5566H104.549C105.706 25.5566 106.718 26.5766 106.718 27.7422V73.3467C106.718 74.5123 105.851 75.5323 104.549 75.5323Z" fill="#F1EEE9"/>
<path d="M102.236 29.0533H92.6919C92.4027 29.0533 92.1135 28.7619 92.1135 28.4705C92.1135 28.1791 92.4027 27.8877 92.6919 27.8877H102.236C102.525 27.8877 102.814 28.1791 102.814 28.4705C102.814 28.7619 102.525 29.0533 102.236 29.0533Z" fill="#D3CDC3"/>
<path d="M103.827 33.8619H91.1014C90.8122 33.8619 90.5229 33.7162 90.5229 33.2791C90.5229 32.9877 90.6675 32.6963 91.1014 32.6963H103.827C104.116 32.6963 104.405 32.842 104.405 33.2791C104.405 33.7162 104.116 33.8619 103.827 33.8619Z" fill="#D3CDC3"/>
<path d="M103.827 36.9215H91.1014C90.8122 36.9215 90.5229 36.7758 90.5229 36.3387C90.5229 36.0473 90.6675 35.7559 91.1014 35.7559H103.827C104.116 35.7559 104.405 35.9016 104.405 36.3387C104.405 36.7758 104.116 36.9215 103.827 36.9215Z" fill="#D3CDC3"/>
<path d="M103.827 39.8355H91.1014C90.8122 39.8355 90.5229 39.6898 90.5229 39.2527C90.5229 38.9613 90.6675 38.6699 91.1014 38.6699H103.827C104.116 38.6699 104.405 38.8156 104.405 39.2527C104.405 39.6898 104.116 39.8355 103.827 39.8355Z" fill="#D3CDC3"/>
<path d="M103.827 42.8951H91.1014C90.8122 42.8951 90.5229 42.7494 90.5229 42.3123C90.5229 42.0209 90.6675 41.7295 91.1014 41.7295H103.827C104.116 41.7295 104.405 41.8752 104.405 42.3123C104.405 42.6037 104.116 42.8951 103.827 42.8951Z" fill="#D3CDC3"/>
<path d="M103.827 45.8092H91.1014C90.8122 45.8092 90.5229 45.6635 90.5229 45.2264C90.5229 44.935 90.6675 44.6436 91.1014 44.6436H103.827C104.116 44.6436 104.405 44.7893 104.405 45.2264C104.405 45.5178 104.116 45.8092 103.827 45.8092Z" fill="#F1EEE9"/>
<path d="M103.827 48.8687H91.1014C90.8122 48.8687 90.5229 48.723 90.5229 48.2859C90.5229 47.9945 90.6675 47.7031 91.1014 47.7031H103.827C104.116 47.7031 104.405 47.8488 104.405 48.2859C104.405 48.5773 104.116 48.8687 103.827 48.8687Z" fill="#F1EEE9"/>
<path d="M103.827 51.7828H91.1014C90.8122 51.7828 90.5229 51.6371 90.5229 51.2C90.5229 50.7629 90.6675 50.6172 91.1014 50.6172H103.827C104.116 50.6172 104.405 50.7629 104.405 51.2C104.405 51.4914 104.116 51.7828 103.827 51.7828Z" fill="#F1EEE9"/>
<path d="M103.827 54.6969H91.1014C90.8122 54.6969 90.5229 54.5512 90.5229 54.1141C90.5229 53.6769 90.6675 53.5312 91.1014 53.5312H103.827C104.116 53.5312 104.405 53.6769 104.405 54.1141C104.405 54.4055 104.116 54.6969 103.827 54.6969Z" fill="#F1EEE9"/>
<path d="M103.827 57.7564H91.1014C90.8122 57.7564 90.5229 57.6107 90.5229 57.1736C90.5229 56.7365 90.6675 56.5908 91.1014 56.5908H103.827C104.116 56.5908 104.405 56.7365 104.405 57.1736C104.405 57.465 104.116 57.7564 103.827 57.7564Z" fill="#F1EEE9"/>
<path d="M25.1612 54.6966H48.5872C49.5994 54.6966 50.467 53.8224 50.467 52.8024V28.4703C50.467 27.4504 49.5994 26.5762 48.5872 26.5762H25.0166C24.0044 26.5762 23.1367 27.4504 23.1367 28.4703V52.9481C23.2813 53.8224 24.149 54.6966 25.1612 54.6966Z" fill="#F1EEE9"/>
<path d="M36.8745 42.7497C40.2004 42.7497 43.0925 39.9813 43.0925 36.6302C43.0925 33.2791 40.345 30.5107 36.8745 30.5107C33.5486 30.5107 30.6565 33.2791 30.6565 36.6302C30.6565 39.9813 33.404 42.7497 36.8745 42.7497Z" fill="#F1EEE9"/>
<path d="M45.4061 47.1201H28.632C28.1981 47.1201 27.9089 46.8287 27.9089 46.3916C27.9089 45.9545 28.1981 45.6631 28.632 45.6631H45.4061C45.8399 45.6631 46.1292 45.9545 46.1292 46.3916C45.9845 46.8287 45.6953 47.1201 45.4061 47.1201Z" fill="#F1EEE9"/>
<path d="M40.3448 50.4717H33.693C33.2592 50.4717 32.97 50.1803 32.97 49.7432C32.97 49.3061 33.2592 49.0146 33.693 49.0146H40.3448C40.7786 49.0146 41.0678 49.3061 41.0678 49.7432C41.0678 50.0346 40.7786 50.4717 40.3448 50.4717Z" fill="#F1EEE9"/>
<path d="M56.8298 54.6966H80.4004C81.4126 54.6966 82.2803 53.8224 82.2803 52.8024V28.4703C82.2803 27.4504 81.4126 26.5762 80.4004 26.5762H56.8298C55.8176 26.5762 54.95 27.4504 54.95 28.4703V52.9481C55.0946 53.8224 55.9622 54.6966 56.8298 54.6966Z" fill="#F1EEE9"/>
<path d="M68.6877 42.7497C72.0136 42.7497 74.9057 39.9813 74.9057 36.6302C74.9057 33.2791 72.1582 30.5107 68.6877 30.5107C65.3618 30.5107 62.4697 33.2791 62.4697 36.6302C62.4697 39.9813 65.3618 42.7497 68.6877 42.7497Z" fill="#D3CDC3"/>
<path d="M77.2194 47.1201H60.3007C59.8668 47.1201 59.5776 46.8287 59.5776 46.3916C59.5776 45.9545 59.8668 45.6631 60.3007 45.6631H77.0748C77.5086 45.6631 77.7978 45.9545 77.7978 46.3916C77.9424 46.8287 77.6532 47.1201 77.2194 47.1201Z" fill="#D3CDC3"/>
<path d="M72.0135 50.4717H65.3617C64.9279 50.4717 64.6387 50.1803 64.6387 49.7432C64.6387 49.3061 64.9279 49.0146 65.3617 49.0146H72.0135C72.4473 49.0146 72.7365 49.3061 72.7365 49.7432C72.8811 50.0346 72.4473 50.4717 72.0135 50.4717Z" fill="#D3CDC3"/>
<path d="M50.467 60.3795V78.5922H23.1367V60.3795C23.1367 59.3596 24.0044 58.4854 25.0166 58.4854H48.5872C49.744 58.4854 50.467 59.3596 50.467 60.3795Z" fill="#F1EEE9"/>
<path d="M36.8745 74.6579C40.2004 74.6579 43.0925 71.8895 43.0925 68.5384C43.0925 65.1873 40.345 62.4189 36.8745 62.4189C33.5486 62.4189 30.6565 65.1873 30.6565 68.5384C30.8011 71.8895 33.404 74.6579 36.8745 74.6579Z" fill="#F1EEE9"/>
<path d="M45.9844 78.3008V78.4465H27.6196V78.3008C27.6196 77.8637 27.9088 77.5723 28.3427 77.5723H45.1168C45.6952 77.5723 45.9844 77.8637 45.9844 78.3008Z" fill="#F1EEE9"/>
<path d="M82.4248 60.3795V78.5922H55.0945V60.3795C55.0945 59.3596 55.9621 58.4854 56.9743 58.4854H80.4003C81.5572 58.4854 82.4248 59.3596 82.4248 60.3795Z" fill="#F1EEE9"/>
<path d="M68.6877 74.6579C72.0136 74.6579 74.9057 71.8895 74.9057 68.5384C74.9057 65.1873 72.1582 62.4189 68.6877 62.4189C65.3618 62.4189 62.4697 65.1873 62.4697 68.5384C62.4697 71.8895 65.3618 74.6579 68.6877 74.6579Z" fill="#D3CDC3"/>
<path d="M77.9424 78.3008V78.4465H59.5776V78.3008C59.5776 77.8637 59.8668 77.5723 60.4453 77.5723H77.2194C77.6532 77.5723 77.9424 77.8637 77.9424 78.3008Z" fill="#D3CDC3"/>
<path d="M44.2491 87.4795H4.19355C1.87988 87.4795 0 85.5853 0 83.3998V34.2984C0 31.9672 2.02448 30.2188 4.19355 30.2188H44.2491C46.5628 30.2188 48.4426 32.1129 48.4426 34.2984V83.2541C48.298 85.5853 46.4182 87.4795 44.2491 87.4795Z" fill="#FDFBF9"/>
<path d="M33.1144 71.4521H6.94092C6.2179 71.4521 5.49487 70.7236 5.49487 69.9951C5.49487 69.2666 6.07329 68.5381 6.94092 68.5381H33.1144C33.8374 68.5381 34.5604 69.2666 34.5604 69.9951C34.5604 70.7236 33.8374 71.4521 33.1144 71.4521Z" fill="#D3CDC3"/>
<path d="M18.654 79.4658H7.23023C6.5072 79.4658 5.78418 78.7373 5.78418 78.0088C5.78418 77.2803 6.3626 76.5518 7.23023 76.5518H18.654C19.377 76.5518 20.1001 77.2803 20.1001 78.0088C19.9555 78.7373 19.377 79.4658 18.654 79.4658Z" fill="#D3CDC3"/>
<path d="M38.8986 53.9686C38.754 53.8229 39.0432 53.0944 38.8986 52.9487C38.4648 52.3659 37.8864 52.2202 36.7295 51.9288C35.1389 51.4916 34.4158 50.9088 33.1144 50.7631C32.8252 50.7631 32.536 50.6174 32.2468 50.6174C29.0655 50.326 26.1734 49.7432 20.2446 42.3125C19.6661 41.5839 19.2323 40.8554 18.6539 40.1269C18.0755 39.5441 16.9186 40.2726 15.6172 40.564C15.328 40.7097 15.0388 40.7097 14.7496 40.7097C13.7374 40.7097 12.4359 40.564 11.2791 40.564C9.68841 40.4183 10.7006 39.5441 8.82078 51.6373C8.67618 52.6573 8.67618 53.5315 8.53158 54.4057C8.38697 55.1342 8.38696 56.0084 8.38696 56.7369C8.38696 57.0283 8.53157 57.6111 8.82078 57.6111C13.882 58.1939 17.2079 57.9025 25.1611 57.7568C29.2101 57.7568 33.1144 57.7568 37.1633 57.0283L38.1756 56.8826C39.0432 56.7369 39.9108 56.4455 39.9108 55.8627C39.9108 55.1342 39.0432 54.6971 38.8986 53.9686Z" fill="#DB1E32"/>
<path d="M33.4037 50.7631L32.3915 53.3858C27.1857 53.2401 21.8354 49.8889 19.2325 45.6636C18.2202 44.2066 17.4972 42.6039 16.485 41.2925C16.485 41.2925 16.1958 40.8554 15.762 40.564C17.208 40.2726 18.0756 39.5441 18.7987 40.1269C19.3771 40.7097 19.5217 41.1468 19.9555 41.5839C20.1001 41.7297 20.1001 41.8754 20.2447 42.1668C20.2447 42.3125 20.2447 42.0211 20.3893 42.3125C20.5339 42.4582 21.5462 43.7695 21.8354 44.0609C21.98 44.2066 22.9922 45.3722 23.426 45.8093C23.8598 46.2464 23.8598 46.3921 24.2936 46.6835C24.4382 46.8292 24.5828 46.9749 25.0167 47.2663C25.4505 47.5577 25.8843 47.9948 26.1735 48.2862C28.4872 49.7432 28.3426 50.0346 32.2469 50.6174C32.8253 50.6174 32.9699 50.6174 33.4037 50.7631Z" fill="#DB1E32"/>
<path d="M39.9108 56.0086C39.9108 56.5914 38.8986 56.8828 38.1756 57.0285L37.1633 57.1742C33.259 57.9027 29.2101 57.9027 25.1611 57.9027C17.2079 57.9027 14.0266 58.0484 8.82078 57.757C8.38697 57.757 8.38696 57.1742 8.38696 56.8828C8.38696 56.0086 8.38697 55.2801 8.53158 54.5515C11.2791 54.6972 23.4259 55.4258 32.536 54.4058C34.9942 54.1144 37.4525 53.823 39.1878 53.2402L39.477 53.823C39.7662 54.2601 39.9108 55.1344 39.9108 56.0086Z" fill="#F1EEE9"/>
<path d="M39.4771 53.6769C37.4526 54.2597 35.7173 54.6968 33.6929 54.8425C33.4037 54.8425 33.1145 54.8425 32.8253 54.6968C32.536 54.5511 32.536 54.4054 32.3914 54.114V53.8226C32.2468 52.8027 32.2468 51.6371 32.2468 50.6172C33.6929 50.7629 34.9943 50.7629 36.8742 51.4914C38.031 51.7828 38.754 52.3656 39.0432 53.0941C39.3325 53.2398 39.4771 53.3855 39.4771 53.6769Z" fill="#F1EEE9"/>
<path d="M20.1003 42.0211L18.6542 43.041C18.5096 43.041 18.5096 43.1867 18.5096 43.1867C18.5096 43.1867 18.365 43.1867 18.365 43.041C18.2204 42.8953 18.2204 42.7496 18.5096 42.6039L19.9556 41.584H20.1003C19.9557 41.7297 19.9557 42.0211 20.1003 42.0211Z" fill="#F1EEE9"/>
<path d="M21.6907 43.9154C21.6907 44.0611 21.6907 44.0611 21.5461 44.0611C21.1122 44.4982 20.6784 44.9353 20.1 45.3724C19.9554 45.3724 19.9554 45.5181 19.9554 45.5181C19.9554 45.5181 19.8108 45.5181 19.8108 45.3724C19.6662 45.2267 19.6662 45.081 19.9554 44.9353C20.3892 44.6439 20.823 44.2068 21.2569 43.7697C21.4015 43.624 21.4014 43.624 21.4014 43.624C21.2568 43.7697 21.546 43.7697 21.6907 43.9154Z" fill="#F1EEE9"/>
<path d="M22.9925 45.5172C22.9925 45.6629 22.9925 45.6629 22.8479 45.6629L21.4018 47.1199C21.2572 47.2656 21.2572 47.2656 21.2572 47.2656C21.2572 47.2656 21.1126 47.2656 21.1126 47.1199C20.968 46.9742 20.968 46.8285 21.1126 46.6828L22.5587 45.2258C22.7033 45.0801 22.7033 45.0801 22.7033 45.0801C22.8479 45.3715 22.9925 45.5172 22.9925 45.5172Z" fill="#F1EEE9"/>
<path d="M24.7277 47.1207C24.7277 47.2664 24.7277 47.2664 24.5831 47.2664C24.0046 47.7035 23.5708 48.2863 23.137 48.7234C22.9924 48.8691 22.9924 48.8691 22.9924 48.8691C22.9924 48.8691 22.8478 48.8691 22.8478 48.7234C22.8478 48.5777 22.5586 48.5777 22.5586 48.432C22.9924 47.8492 23.5708 47.4121 24.1493 46.8293C24.1493 46.8293 24.2938 46.8293 24.2938 46.6836L24.7277 47.1207Z" fill="#F1EEE9"/>
<path d="M26.1737 48.4312C25.8845 49.0141 25.5953 49.7426 25.1614 50.3254C25.0168 50.4711 25.0168 50.4711 24.8722 50.4711H24.7276C24.583 50.3254 24.583 50.1797 24.583 50.034C24.8722 49.4512 25.1614 48.7227 25.5953 48.1398L25.7399 47.9941C25.8845 48.1398 26.0291 48.2855 26.1737 48.4312Z" fill="#F1EEE9"/>
<path d="M27.6196 49.4518L27.3304 51.3459C27.3304 51.4916 27.1858 51.6373 27.0412 51.6373C26.8966 51.6373 26.752 51.4916 26.752 51.2002L27.0412 49.1604C27.0412 49.0147 27.0412 49.0146 27.1858 49.0146C27.3304 49.1603 27.3304 49.3061 27.6196 49.4518Z" fill="#F1EEE9"/>
<path d="M29.7889 50.1803C29.6443 50.7631 29.6443 51.3459 29.4997 51.9287C29.4997 52.0744 29.3551 52.0744 29.2105 52.0744H29.0658C28.9212 52.0744 28.7766 51.9287 28.9212 51.6373C29.0658 51.0545 29.0658 50.4717 29.2105 49.8889V49.7432C29.3551 50.0346 29.4997 50.1803 29.7889 50.1803Z" fill="#F1EEE9"/>
<path d="M14.027 48.5773C15.473 48.5773 16.6298 47.4117 16.6298 45.9547C16.6298 44.4976 15.473 43.332 14.027 43.332C12.5809 43.332 11.4241 44.4976 11.4241 45.9547C11.4241 47.266 12.5809 48.5773 14.027 48.5773Z" fill="#FDFBF9"/>
<path d="M14.0267 46.8289C14.6051 46.8289 15.1835 46.3918 15.1835 45.809C15.1835 45.2262 14.7497 44.7891 14.0267 44.7891C13.4482 44.7891 13.0144 45.2262 13.0144 45.809C13.0144 46.3918 13.4482 46.8289 14.0267 46.8289Z" fill="#DB1E32"/>
<path d="M46.8521 79.612C46.7075 79.7577 46.7075 79.9034 46.4183 80.0491L43.6708 81.2148C43.237 81.3605 42.8031 81.6519 42.5139 81.9433C42.2247 82.2347 41.9355 82.6718 41.9355 82.9632L40.7787 85.7315C40.6341 86.1686 40.2002 86.46 39.7664 86.1686C39.6218 86.0229 39.4772 86.0229 39.4772 85.8772L33.9822 73.784C33.8376 73.6383 33.8376 73.3469 33.9822 73.2012C34.1268 73.0555 34.416 72.9098 34.7053 73.0555L46.7075 78.5921C46.8521 78.7378 46.9967 79.1749 46.8521 79.612Z" fill="#1E1E1E"/>
<path d="M49.0212 87.0424C48.8766 87.0424 48.8766 87.0424 48.732 86.8967L44.8277 82.8171C44.6831 82.6714 44.6831 82.2343 44.8277 82.2343C44.9723 82.0886 45.4061 82.0886 45.4061 82.2343L49.3104 86.1682C49.4551 86.3139 49.4551 86.751 49.3104 86.751C49.4551 87.0424 49.1658 87.0424 49.0212 87.0424Z" fill="#1E1E1E"/>
<path d="M45.1169 87.0425C44.9723 87.0425 44.9723 87.0425 44.8277 86.8968L42.9478 85.0026C42.8032 84.8569 42.8032 84.4198 42.9478 84.4198C43.0924 84.2741 43.5262 84.2741 43.5262 84.4198L45.4061 86.3139C45.5507 86.4596 45.5507 86.8968 45.4061 87.0425C45.4061 87.0425 45.2615 87.0425 45.1169 87.0425Z" fill="#1E1E1E"/>
<path d="M42.3694 81.9433C42.0802 82.2347 41.791 82.6718 41.791 82.9632L40.6341 85.7315C40.4895 86.1686 40.0557 86.46 39.6219 86.1686C39.4773 86.0229 39.3327 86.0229 39.3327 85.8772L33.8377 73.784C33.6931 73.6383 33.6931 73.3469 33.8377 73.2012L42.3694 81.9433Z" fill="#1E1E1E"/>
<path d="M126.096 100.593H91.2459C89.2214 100.593 87.3416 98.8443 87.3416 96.6588V47.266C87.3416 45.2261 89.0768 43.332 91.2459 43.332H126.096C128.12 43.332 130 45.0804 130 47.266V96.6588C130 98.8443 128.409 100.593 126.096 100.593Z" fill="#FDFBF9"/>
<path d="M87.1968 56.4452V47.266C87.1968 45.2261 88.932 43.332 91.1011 43.332H125.951C127.975 43.332 129.855 45.0804 129.855 47.266V96.6588C129.855 98.8443 128.265 100.593 125.951 100.593H91.1011C89.0766 100.593 87.1968 98.8443 87.1968 96.6588V66.3529" stroke="#1E1E1E" stroke-miterlimit="10" stroke-linecap="round" stroke-linejoin="round"/>
<path d="M114.382 69.7039C112.792 70.7238 110.767 71.4523 108.598 71.4523C102.814 71.4523 98.3313 66.7899 98.3313 61.1075C98.3313 55.2794 102.959 50.7627 108.598 50.7627C114.382 50.7627 118.865 55.4251 118.865 61.1075C119.154 64.75 117.275 67.8098 114.382 69.7039Z" fill="#DB1E32"/>
<path d="M44.2491 87.4795H4.19355C1.87988 87.4795 0 85.5853 0 83.3998V34.2984C0 31.9672 2.02448 30.2188 4.19355 30.2188H44.2491C46.5628 30.2188 48.4426 32.1129 48.4426 34.2984V83.2541C48.298 85.5853 46.4182 87.4795 44.2491 87.4795Z" stroke="#1E1E1E" stroke-miterlimit="10" stroke-linecap="round" stroke-linejoin="round"/>
<path d="M109.755 50.7627C114.961 51.3455 119.01 55.7165 119.01 61.1075C119.155 64.75 117.419 67.8098 114.527 69.7039C112.937 70.7238 110.912 71.4523 108.743 71.4523C102.959 71.4523 98.4761 66.7899 98.4761 61.1075" stroke="#1E1E1E" stroke-miterlimit="10" stroke-linecap="round" stroke-linejoin="round"/>
<path d="M101.368 53.6769C102.38 52.657 103.682 51.7828 104.983 51.3457" stroke="#1E1E1E" stroke-miterlimit="10" stroke-linecap="round" stroke-linejoin="round"/>
<path d="M108.02 65.0419L105.128 62.1279C104.839 61.8365 104.839 61.108 105.128 60.8166C105.417 60.5252 106.14 60.5252 106.429 60.8166L107.731 62.1279V57.3197C107.731 56.8826 108.164 56.2998 108.743 56.2998C109.177 56.2998 109.755 56.7369 109.755 57.3197V61.9822L111.057 60.6708C111.346 60.3794 112.069 60.3794 112.358 60.6708C112.503 60.8166 112.503 61.108 112.503 61.2537C112.503 61.3994 112.358 61.6908 112.358 61.8365L109.466 64.7505C109.321 64.8962 109.032 64.8962 108.888 64.8962C108.454 65.1876 108.164 65.1876 108.02 65.0419Z" fill="#FDFBF9"/>
<path d="M122.914 81.3604L120.6 93.8907C120.456 94.9106 119.443 95.7848 118.431 95.7848H99.1988C98.042 95.7848 97.1744 94.9106 97.0298 93.8907L94.7161 81.3604" fill="#FDFBF9"/>
<path d="M122.914 81.3604L122.769 82.526L120.6 93.8907C120.456 94.9106 119.443 95.7848 118.431 95.7848H99.1988C98.042 95.7848 97.1744 94.9106 97.0298 93.8907L94.8607 82.526L94.7161 81.3604H122.914Z" fill="#F5CB35"/>
<path d="M122.915 81.3604L122.625 83.1088H94.8612L94.572 81.3604H122.915Z" fill="#F5CB35"/>
<path d="M95.4394 81.3603H94.7164C93.8487 81.3603 93.1257 80.6318 93.1257 79.9033V78.4463C93.1257 77.7178 93.8487 76.9893 94.7164 76.9893H122.914C123.782 76.9893 124.505 77.5721 124.505 78.4463V79.9033C124.505 80.6318 123.782 81.3603 122.914 81.3603H122.191" fill="#F5CB35"/>
<path d="M100.356 84.5652C100.211 84.2738 99.9221 83.9824 99.6329 83.9824C99.3437 84.1281 99.0544 84.4195 99.0544 84.7109L100.645 92.2874C100.79 93.0159 102.091 92.8702 101.802 92.1417L100.356 84.5652Z" fill="#BA971A"/>
<path d="M104.549 84.5652C104.549 84.2738 104.26 83.9824 103.826 83.9824C103.537 83.9824 103.248 84.2738 103.248 84.7109C103.393 86.3136 104.116 90.6847 104.405 92.2874C104.549 93.1616 105.706 92.8702 105.562 92.1417C105.417 91.4132 104.694 85.5851 104.549 84.5652Z" fill="#BA971A"/>
<path d="M108.165 84.7113V92.2878C108.165 93.162 109.466 93.162 109.466 92.2878V84.7113C109.321 83.8371 108.165 83.8371 108.165 84.7113Z" fill="#BA971A"/>
<path d="M112.792 84.5657C112.213 88.4996 112.503 86.6055 111.635 92.1421C111.49 93.0164 112.792 93.1621 112.792 92.2878L113.37 87.9168L113.804 85.0028C114.093 83.9829 112.936 83.8372 112.792 84.5657Z" fill="#BA971A"/>
<path d="M117.13 84.5659C116.985 85.5858 115.684 91.7052 115.539 92.1424C115.395 92.8709 116.696 93.1623 116.696 92.2881L118.287 84.7116C118.287 83.9831 117.13 83.8374 117.13 84.5659Z" fill="#BA971A"/>
<path d="M97.3191 76.9893H94.5716C93.704 76.9893 92.981 77.7178 92.981 78.4463V79.9033C92.981 80.6318 93.704 81.3603 94.5716 81.3603L94.7162 82.5259L96.8853 93.8906C97.0299 95.0562 98.0421 95.7848 99.0544 95.7848H118.287C119.299 95.7848 120.167 94.9105 120.456 93.8906L122.625 82.5259L122.77 81.3603H122.625C123.493 81.3603 124.216 80.6318 124.216 79.9033V78.4463C124.216 77.7178 123.493 76.9893 122.625 76.9893H104.983" stroke="#1E1E1E" stroke-miterlimit="10" stroke-linecap="round" stroke-linejoin="round"/>
<path d="M48.2983 78.5918H79.9668" stroke="#1E1E1E" stroke-miterlimit="10" stroke-linecap="round" stroke-linejoin="round"/>
<path d="M8.96582 111.083H130" stroke="#1E1E1E" stroke-miterlimit="10" stroke-linecap="round" stroke-linejoin="round"/>
<path d="M0.289551 111.083H4.77229" stroke="#1E1E1E" stroke-miterlimit="10" stroke-linecap="round" stroke-linejoin="round"/>
</g>
<defs>
<clipPath id="clip0">
<rect width="130" height="130" fill="white"/>
</clipPath>
</defs>
</svg>
