<svg width="130" height="130" viewBox="0 0 130 130" fill="none" xmlns="http://www.w3.org/2000/svg">
<g clip-path="url(#clip0)">
<path d="M102.46 112.566C102.904 112.27 103.052 112.122 103.497 111.974" stroke="#DB1E32" stroke-width="0.6123" stroke-linecap="round" stroke-linejoin="round"/>
<path d="M107.494 109.012C110.752 106.642 113.861 104.124 116.526 101.162C120.524 96.7187 123.485 90.7943 123.337 84.7218C123.337 80.5747 121.857 76.4276 120.08 72.4286C118.451 68.5778 116.674 64.5788 116.082 60.2836C115.49 56.1365 116.082 51.397 119.043 48.2867C120.82 46.3613 124.077 45.3245 126.446 47.2499C127.187 47.9905 127.927 49.0272 128.223 50.2121C131.925 62.209 115.786 69.6145 106.162 67.3929C101.572 66.208 97.1298 63.542 93.5763 60.5798C85.877 54.2111 80.5467 48.5829 77.2893 39.1039C74.4761 30.9578 72.6993 22.0712 66.6287 15.4063C46.492 -6.95835 6.95897 19.5534 6.66284 45.3245C6.66284 59.8393 15.6948 74.5022 29.4647 78.7974C36.1276 80.7228 43.3827 80.4266 50.4898 79.9822C53.8952 79.8341 57.3007 79.5379 60.8542 79.3898" stroke="#DB1E32" stroke-linecap="round" stroke-linejoin="round" stroke-dasharray="1.5 4"/>
<path d="M63.0752 79.6865H64.2597" stroke="#DB1E32" stroke-width="0.6123" stroke-linecap="round" stroke-linejoin="round"/>
<path d="M10.8086 120.416H130" stroke="#1E1E1E" stroke-miterlimit="10" stroke-linecap="round" stroke-linejoin="round"/>
<path d="M0 120.416H4.73806" stroke="#1E1E1E" stroke-miterlimit="10" stroke-linecap="round" stroke-linejoin="round"/>
<path d="M98.7582 19.2568H71.9587V49.6194H98.7582V19.2568Z" fill="#D3CDC3"/>
<path d="M98.7585 19.2568H80.8428V49.6194H98.7585V19.2568Z" fill="#F1EEE9"/>
<path d="M75.5125 12.5918H34.4988V59.2465H75.5125V12.5918Z" fill="#F74457"/>
<path d="M75.5126 12.5918H47.8247V59.2465H75.5126V12.5918Z" fill="#DB1E32"/>
<path d="M98.7587 23.2558V19.2568H79.9546" stroke="#1E1E1E" stroke-miterlimit="10" stroke-linecap="round" stroke-linejoin="round"/>
<path d="M75.5125 22.5152V12.5918H34.4988V20.2935" stroke="#1E1E1E" stroke-miterlimit="10" stroke-linecap="round" stroke-linejoin="round"/>
<path d="M110.9 25.4775H16.2871V120.268H110.9V25.4775Z" fill="#FDFBF9"/>
<path d="M111.196 25.4775H42.7903V120.268H111.196V25.4775Z" fill="#FDFBF9"/>
<path d="M29.4647 25.4775H16.4351V120.268H29.4647V25.4775Z" fill="#F1EEE9"/>
<path d="M42.7904 120.416H16.4351V120.268L29.7608 107.086L42.7904 120.416Z" fill="#D3CDC3"/>
<path d="M111.196 67.6889V25.4775H110.9H42.7906H29.4648H16.2871V39.6961" stroke="#1E1E1E" stroke-miterlimit="10" stroke-linecap="round" stroke-linejoin="round"/>
<path d="M16.2871 45.6211V120.417H16.4352H29.4648H42.7906H110.9H111.196V86.0551" stroke="#1E1E1E" stroke-miterlimit="10" stroke-linecap="round" stroke-linejoin="round"/>
<path d="M59.2255 46.5094C61.1503 46.5094 62.631 45.0283 62.631 43.1028C62.631 41.1774 61.1503 39.6963 59.2255 39.6963C57.3007 39.6963 55.8201 41.1774 55.8201 43.1028C55.8201 45.0283 57.3007 46.5094 59.2255 46.5094Z" fill="#F1EEE9"/>
<path d="M92.9838 46.5094C94.9086 46.5094 96.3894 45.0283 96.3894 43.1028C96.3894 41.1774 94.9086 39.6963 92.9838 39.6963C91.059 39.6963 89.5784 41.1774 89.5784 43.1028C89.5784 45.0283 91.2071 46.5094 92.9838 46.5094Z" fill="#F1EEE9"/>
<path d="M76.105 70.7991C66.1847 70.7991 58.1892 62.653 58.1892 52.7297V43.3987C58.1892 42.8063 58.6335 42.362 59.3738 42.362C59.966 42.362 60.4102 42.8063 60.4102 43.3987V52.5816C60.4102 61.3201 67.5173 68.4293 76.105 68.4293C84.6927 68.4293 91.7997 61.3201 91.7997 52.5816V43.2506C91.7997 42.6582 92.2439 42.2139 92.9842 42.2139C93.5765 42.2139 94.1688 42.6582 94.1688 43.2506V52.5816C94.1688 62.653 86.0253 70.7991 76.105 70.7991Z" fill="#D3CDC3"/>
<path d="M122.745 89.017V119.676C122.745 121.305 121.56 122.49 119.932 122.49H70.1821C68.5534 122.49 67.3689 121.305 67.3689 119.676V89.017C67.3689 87.3878 68.5534 86.2029 70.1821 86.2029H119.932C121.56 86.0548 122.745 87.2397 122.745 89.017Z" fill="#F5CB35"/>
<path d="M122.745 93.9043H67.5168V100.569H122.745V93.9043Z" fill="#BA971A"/>
<path d="M67.5168 105.606V89.0172C67.5168 87.388 68.7013 86.2031 70.33 86.2031H98.7583" stroke="#1E1E1E" stroke-miterlimit="10" stroke-linecap="round" stroke-linejoin="round"/>
<path d="M111.196 86.0547H120.079C121.56 86.0547 122.893 87.2396 122.893 88.8688V119.528C122.893 121.157 121.708 122.342 120.079 122.342H70.33C68.7013 122.342 67.5168 121.157 67.5168 119.528V116.417" stroke="#1E1E1E" stroke-miterlimit="10" stroke-linecap="round" stroke-linejoin="round"/>
<path d="M99.6468 112.269H94.6126C94.0204 112.269 93.5762 111.825 93.5762 111.233C93.5762 110.64 94.0204 110.196 94.6126 110.196H99.6468C100.239 110.196 100.683 110.64 100.683 111.233C100.535 111.825 100.091 112.269 99.6468 112.269Z" fill="#FDFBF9"/>
<path d="M91.3553 112.269H74.328C73.7357 112.269 73.2915 111.825 73.2915 111.233C73.2915 110.64 73.7357 110.196 74.328 110.196H91.3553C91.9476 110.196 92.3918 110.64 92.3918 111.233C92.3918 111.825 91.7995 112.269 91.3553 112.269Z" fill="#FDFBF9"/>
<path d="M81.8793 116.121H74.18C73.5878 116.121 73.1436 115.677 73.1436 115.084C73.1436 114.492 73.5878 114.048 74.18 114.048H81.8793C82.4715 114.048 82.9157 114.492 82.9157 115.084C82.9157 115.677 82.6196 116.121 81.8793 116.121Z" fill="#FDFBF9"/>
<path d="M114.749 118.787C116.822 118.787 118.451 117.158 118.451 115.085C118.451 113.159 116.822 111.382 114.749 111.382C112.677 111.382 111.048 113.011 111.048 115.085C111.196 117.01 112.825 118.787 114.749 118.787Z" fill="#BA971A"/>
<path d="M109.863 118.787C111.936 118.787 113.565 117.158 113.565 115.085C113.565 113.159 111.936 111.382 109.863 111.382C107.791 111.382 106.162 113.011 106.162 115.085C106.31 117.01 107.939 118.787 109.863 118.787Z" fill="#FDFBF9"/>
<path d="M29.7607 106.938L42.7903 119.528V39.6963" stroke="#1E1E1E" stroke-miterlimit="10" stroke-linecap="round" stroke-linejoin="round"/>
</g>
<defs>
<clipPath id="clip0">
<rect width="130" height="130" fill="white"/>
</clipPath>
</defs>
</svg>
