<svg width="166" height="30" viewBox="0 0 166 30" fill="none" xmlns="http://www.w3.org/2000/svg">
<path d="M21.454 0.0292969C32.0322 0.0292969 41.3949 3.30837 41.3949 14.5169C41.3949 25.7253 32.065 29.0044 21.454 29.0044H12.2227V0.0292969H21.454ZM21.6182 6.1403H19.8771V22.9232H21.6182C27.2359 22.9232 33.3134 22.2972 33.3134 14.5467C33.3134 6.7365 27.2359 6.1403 21.6182 6.1403Z" fill="#1E1E1E"/>
<path d="M54.1415 0.0292969H62.5187L74.8052 29.0342H66.4608L64.424 23.7877H52.039L50.0022 29.0342H41.855L54.1415 0.0292969ZM54.4372 17.7065H62.0916L58.2808 7.77985L54.4372 17.7065Z" fill="#1E1E1E"/>
<path d="M85.1859 6.14031H74.772V0.0292969H103.254V6.14031H92.8075V29.0342H85.1531V6.14031H85.1859Z" fill="#1E1E1E"/>
<path d="M106.472 0.0292969H131.374V6.14031H114.127V11.0887H130.388V17.1997H114.127V22.9232H131.374V29.0342H106.472V0.0292969Z" fill="#1E1E1E"/>
<path d="M144.876 14.2491L133.214 0H142.248L149.377 8.73427L156.604 0H165.474L153.812 14.1597L166 29.0049H157.031L149.278 19.6149L141.525 29.0049H132.721L144.876 14.2491Z" fill="#1E1E1E"/>
<path d="M8.18005 21.6123H0V29.0349H8.18005V21.6123Z" fill="#DB1E32"/>
<path d="M8.18005 10.8213H0V18.2439H8.18005V10.8213Z" fill="#1E1E1E"/>
<path d="M8.18005 0.0292969H0V7.45193H8.18005V0.0292969Z" fill="#1E1E1E"/>
</svg>
