<svg width="250" height="250" viewBox="0 0 250 250" fill="none" xmlns="http://www.w3.org/2000/svg">
<g clip-path="url(#clip0)">
<path d="M183.835 122.862L247.553 186.892C250.091 189.442 250.091 193.691 247.553 196.241L196.241 248.088C193.703 250.638 189.474 250.638 186.937 248.088L123.219 184.059L183.835 122.862Z" fill="#F5CB35"/>
<path d="M170.865 135.611L159.588 146.944L227.817 216.073L239.094 204.74L170.865 135.611Z" fill="#BA971A"/>
<path d="M196.241 233.072C199.624 229.672 199.624 224.289 196.241 220.89C192.858 217.49 187.501 217.49 184.118 220.89C180.734 224.289 180.734 229.672 184.118 233.072C187.501 236.472 192.858 236.472 196.241 233.072Z" fill="#BA971A"/>
<path d="M188.064 224.855C191.447 221.456 191.447 216.073 188.064 212.673C184.681 209.273 179.324 209.273 175.941 212.673C172.558 216.073 172.558 221.456 175.941 224.855C179.324 228.255 184.681 228.255 188.064 224.855Z" fill="#FDFBF9"/>
<path d="M106.584 46.3666L47.6589 106.146L0.293401 58.2659C-0.270474 57.6992 0.0113256 56.566 0.857139 56.566H3.95856C5.65018 56.566 7.0598 55.1494 7.0598 53.7328V47.7832C7.0598 47.2166 7.3417 46.9332 7.90558 46.9332H13.8264C15.518 46.9332 16.6457 45.5167 16.9276 44.1001V37.8671C16.9276 37.3005 17.2096 37.0172 18.0554 36.7339H23.9761C25.6677 36.7339 26.7955 35.3173 27.0775 33.9007V27.9511C27.0775 27.6678 27.3593 27.1011 28.2051 26.8178H34.1259C35.8175 26.8178 36.9452 25.4012 37.2272 23.9847V18.035C37.2272 17.4684 37.5092 17.1851 38.355 17.1851H44.2756C45.9672 17.1851 47.3769 15.7685 47.3769 14.3519V8.40228C47.3769 7.83565 47.6589 7.55232 48.2228 7.55232H54.1434C55.8351 7.55232 57.2447 6.13574 57.2447 4.71916V1.60267C57.2447 0.752723 57.5267 0.469407 58.0906 0.186091C58.3726 -0.0972251 58.6544 -0.0972078 59.2183 0.469424L106.584 46.3666Z" fill="#FDFBF9" stroke="#D3CDC3"/>
<path d="M64.0106 25.1184L57.526 31.3513C56.9622 31.9179 55.8344 31.9179 55.2706 31.3513C54.7067 30.7847 54.7067 29.6514 55.2706 29.0848L61.7551 22.5685C62.319 22.0019 63.4467 22.0019 64.0106 22.5685C64.8564 23.4185 64.8564 24.5517 64.0106 25.1184Z" fill="#F1EEE9"/>
<path d="M52.1698 37.3009L25.6678 63.9326C25.1039 64.4992 23.976 64.4992 23.4122 63.9326C22.8483 63.3659 22.8483 62.2327 23.4122 61.666L49.6325 35.0343C50.1964 34.4677 51.3241 34.4677 51.888 35.0343C52.7338 35.601 52.7337 36.4509 52.1698 37.3009Z" fill="#F1EEE9"/>
<path d="M54.9894 45.8005L48.223 52.6001L51.0423 49.7669C43.9939 56.8498 38.6371 62.2328 31.3067 69.5991C30.7428 70.1657 30.7428 71.299 31.3067 71.8656C31.8706 72.4322 32.9983 72.4322 33.5622 71.8656C45.4035 59.9663 41.4564 63.9328 53.2978 52.0335L50.4784 54.8666L57.2448 48.0671C58.9364 46.6505 56.399 44.1006 54.9894 45.8005Z" fill="#F1EEE9"/>
<path d="M125.756 27.3841L211.465 113.796C214.566 116.912 215.412 121.728 213.72 125.695C196.522 165.076 165.227 196.524 126.32 214.089C122.372 215.789 117.58 214.939 114.478 211.823L28.7693 125.411C25.6679 122.295 24.8222 117.479 26.5138 113.512C43.712 74.1312 75.007 42.6832 114.196 25.1176C118.143 23.4177 122.655 24.2676 125.756 27.3841Z" fill="#D3CDC3"/>
<path d="M214.849 154.026L247.554 186.891C250.091 189.441 250.091 193.691 247.554 196.24L196.241 248.087C193.704 250.637 189.475 250.637 186.937 248.087L144.646 205.307" stroke="#1E1E1E" stroke-miterlimit="10" stroke-linecap="round" stroke-linejoin="round"/>
<path d="M36.0994 94.5303L0.293401 58.2659C-0.270474 57.6992 0.0113256 56.566 0.857139 56.566H3.95856C5.65018 56.566 7.0598 55.1494 7.0598 53.7328V47.7832C7.0598 47.2166 7.34171 46.9332 7.90558 46.9332H13.8264C15.518 46.9332 16.6457 45.5167 16.9276 44.1001V37.8671C16.9276 37.3005 17.2096 37.0172 18.0554 36.7339H23.9761C25.6677 36.7339 26.7955 35.3173 27.0775 33.9007V27.9511C27.0775 27.6678 27.3593 27.1011 28.2051 26.8178H34.1259C35.8176 26.8178 36.9452 25.4012 37.2272 23.9847V18.035C37.2272 17.4684 37.5092 17.1851 38.355 17.1851H44.2756C45.9672 17.1851 47.3769 15.7685 47.3769 14.3519V8.40228C47.3769 7.83565 47.6589 7.55232 48.2228 7.55232H54.1434C55.8351 7.55232 57.2447 6.13574 57.2447 4.71916V1.60267C57.2447 0.752723 57.5268 0.469407 58.0906 0.186091C58.3726 -0.0972251 58.6544 -0.0972078 59.2183 0.469424L95.0244 35.8839" stroke="#1E1E1E" stroke-miterlimit="10" stroke-linecap="round" stroke-linejoin="round"/>
<path d="M159.588 194.541C149.438 202.19 138.161 208.99 126.319 214.089C122.372 215.789 117.579 214.939 114.478 211.823L28.7688 125.411C26.5133 123.145 25.3856 120.312 25.6676 117.195" stroke="#1E1E1E" stroke-miterlimit="10" stroke-linecap="round" stroke-linejoin="round"/>
<path d="M206.108 141.277C197.086 157.71 185.245 172.159 171.43 184.625" stroke="#1E1E1E" stroke-miterlimit="10" stroke-linecap="round" stroke-linejoin="round"/>
<path d="M30.7422 104.163C48.7862 69.0315 78.1076 40.9833 114.196 25.1176C118.143 23.4177 122.936 24.2676 126.037 27.3841L211.746 113.796C214.848 116.912 215.693 121.728 214.002 125.695" stroke="#1E1E1E" stroke-miterlimit="10" stroke-linecap="round" stroke-linejoin="round"/>
<path d="M146.055 78.0978L78.6719 145.81C76.6983 147.794 73.597 147.794 71.6234 145.81L44.5573 118.329C42.5838 116.345 42.5838 113.229 44.5573 111.246L111.94 43.5333C113.914 41.5501 117.015 41.5501 118.989 43.5333L146.055 71.0149C148.028 72.9982 148.028 75.8313 146.055 78.0978Z" fill="#FDFBF9"/>
<path d="M119.835 156.86L103.764 173.292C102.354 174.709 100.099 174.709 98.6892 173.292L88.2575 162.809C86.8478 161.393 86.8478 159.126 88.2575 157.71L104.328 141.277C105.738 139.861 107.993 139.861 109.403 141.277L119.835 151.76C121.244 153.177 121.244 155.443 119.835 156.86Z" fill="#DB1E32"/>
<path d="M146.337 129.945L130.267 146.377C128.857 147.794 126.601 147.794 125.192 146.377L114.478 135.894C113.068 134.478 113.068 132.211 114.478 130.795L130.548 114.362C131.958 112.946 134.214 112.946 135.623 114.362L146.055 124.845C147.747 126.262 147.747 128.528 146.337 129.945Z" fill="#FDFBF9"/>
<path d="M173.122 103.03L157.051 119.462C155.641 120.878 153.386 120.878 151.976 119.462L141.545 108.979C140.135 107.563 140.135 105.296 141.545 103.88L157.615 87.4472C159.025 86.0306 161.28 86.0306 162.69 87.4472L173.403 97.9299C174.531 99.3465 174.531 101.613 173.122 103.03Z" fill="#FDFBF9"/>
<path d="M141.827 178.958L125.756 195.391C124.347 196.807 122.091 196.807 120.681 195.391L110.25 184.908C108.84 183.491 108.84 181.225 110.25 179.808L126.32 163.376C127.73 161.959 129.985 161.959 131.395 163.376L141.827 173.859C142.954 175.275 142.954 177.542 141.827 178.958Z" fill="#FDFBF9"/>
<path d="M168.046 152.043L151.976 168.476C150.566 169.892 148.311 169.892 146.901 168.476L136.469 157.993C135.06 156.576 135.06 154.31 136.469 152.893L152.54 136.461C153.95 135.044 156.205 135.044 157.615 136.461L168.046 146.944C169.738 148.36 169.738 150.627 168.046 152.043Z" fill="#FDFBF9"/>
<path d="M195.113 125.128L179.042 141.561C177.633 142.977 175.377 142.977 173.968 141.561L163.536 131.078C162.126 129.661 162.126 127.395 163.536 125.978L179.606 109.546C181.016 108.129 183.271 108.129 184.681 109.546L195.113 120.029C196.241 121.445 196.241 123.712 195.113 125.128Z" fill="#FDFBF9"/>
<path d="M71.6245 110.113C72.4704 109.83 73.3161 110.68 73.3161 111.53L73.5981 116.629H73.88L76.6994 112.663C76.9813 112.096 78.109 111.813 78.9548 112.38L79.2369 112.946C79.8008 113.513 79.5187 114.646 78.9548 114.93L75.0078 117.763V118.046L79.8006 118.329C80.6464 118.329 81.2104 119.179 80.9284 120.029L80.6466 120.879C80.3646 121.729 79.5188 122.012 78.673 121.729L74.1619 119.746L76.4175 124.279C76.6995 125.129 76.4174 125.979 75.5716 126.262L75.0078 126.546C74.162 126.829 73.3161 125.979 73.3161 125.412L73.0342 120.313L70.2148 124.279C69.9329 124.846 68.8052 125.129 67.9594 124.562L67.6773 124.279C67.1135 123.712 67.3955 122.579 67.9594 122.012L71.9064 119.463L66.8316 118.896C65.9858 118.896 65.4219 118.046 65.4219 117.196L65.7037 116.346C65.9857 115.496 66.8315 115.213 67.6773 115.496L72.1884 117.479L70.2148 112.946C69.9329 112.096 70.2148 111.246 71.0606 110.963L71.6245 110.113Z" fill="#1E1E1E"/>
<path d="M86.8478 95.0973C87.6936 94.814 88.5395 95.6639 88.5395 96.2306L88.8214 101.33H89.1035L91.9228 97.3638C92.2048 96.7972 93.3325 96.5139 94.1783 97.0805L94.4602 97.6472C95.024 98.2138 94.7422 99.347 94.1783 99.6304L90.2311 102.464V102.747L95.0241 103.03C95.8699 103.03 96.4338 103.88 96.1519 104.73L95.8699 105.58C95.5879 106.43 94.7421 106.713 93.8963 106.43L89.3853 104.447L91.3589 108.98C91.6409 109.83 91.359 110.68 90.5131 110.963L89.9492 111.246C89.1034 111.53 88.2575 110.68 88.2575 110.113L87.9756 105.013L85.1563 108.98C84.8743 109.546 83.7465 109.83 83.1827 109.263L82.6187 108.98C82.0549 108.413 82.3369 107.28 82.9008 106.997L86.8478 104.447L81.773 103.88C80.9272 103.88 80.3633 103.03 80.3633 102.18L80.6453 101.33C80.9273 100.48 81.7729 100.197 82.6187 100.48L87.1299 102.464L84.8744 97.9304C84.5924 97.0805 84.8744 96.2306 85.7202 95.9472L86.8478 95.0973Z" fill="#1E1E1E"/>
<path d="M102.074 79.7975C102.92 79.5142 103.765 80.3641 103.765 80.9307L104.047 86.0304H104.329L107.149 82.064C107.431 81.2141 108.558 81.2141 109.404 81.7807L109.686 82.3473C110.25 82.9139 110.25 84.0472 109.404 84.3305L105.457 87.1637V87.447L110.25 87.7303C111.096 87.7303 111.66 88.5803 111.66 89.4302L111.378 89.9968C111.096 90.8468 110.25 91.1301 109.404 90.8468L104.893 88.8636L106.867 93.3967C107.149 94.2466 106.867 95.0966 105.739 95.3799L105.175 95.6632C104.329 95.9465 103.483 95.0965 103.483 94.5299L103.202 89.7135L100.382 93.9633C100.1 94.5299 98.9724 94.8132 98.1266 94.2466L97.8447 93.68C97.2808 93.1133 97.2807 91.9801 98.1266 91.6968L102.074 89.1469L97.2808 88.5803C96.435 88.5803 95.8711 87.7303 95.8711 86.8804L96.1531 86.3138C96.4351 85.4638 97.2807 85.1805 98.1266 85.4638L102.638 87.447L100.382 82.9139C100.1 82.064 100.382 81.214 101.228 80.9307L102.074 79.7975Z" fill="#1E1E1E"/>
<path d="M117.297 64.4985C117.861 64.2152 118.707 64.7818 118.707 65.6318L118.989 71.0148H119.271L122.09 66.765C122.372 66.1984 123.218 66.1984 124.064 66.4817L124.909 67.3317C125.191 67.8983 125.191 68.7483 124.628 69.3149L120.398 72.1481V72.4314L125.473 72.7147C126.319 72.7147 126.883 73.5646 126.601 74.1313L126.319 75.2645C126.037 75.8312 125.191 76.3978 124.628 76.1145L120.117 74.1313L122.372 78.6643C122.654 79.2309 122.372 80.0809 121.526 80.3642L120.398 80.6476C119.835 80.9309 118.989 80.0809 118.989 79.5143L118.707 74.1313L115.888 78.381C115.606 78.9476 114.478 78.9476 113.914 78.6643L113.068 77.8144C112.504 77.2478 112.786 76.3978 113.35 75.8311L117.297 72.998L111.94 72.4314C111.095 72.4314 110.812 71.5814 110.812 71.0148L111.095 69.8815C111.376 69.3149 112.222 68.7483 112.786 69.0316L117.297 71.2981L115.042 66.765C114.76 66.1984 115.042 65.3485 115.888 65.0652L117.297 64.4985Z" fill="#1E1E1E"/>
</g>
<defs>
<clipPath id="clip0">
<rect width="250" height="250" fill="white"/>
</clipPath>
</defs>
</svg>
