<svg width="250" height="250" viewBox="0 0 250 250" fill="none" xmlns="http://www.w3.org/2000/svg">
<g clip-path="url(#clip0)">
<path d="M195.896 79.163L197.178 203.047C197.178 207.168 193.588 210.516 189.742 210.516H69.9988C65.8962 210.516 62.563 206.91 62.563 203.047V43.6204C62.563 39.4996 65.8962 36.1514 69.9988 36.1514H156.922L195.896 79.163Z" fill="#FDFBF9"/>
<path d="M165.896 210.516H69.9988C65.8962 210.516 62.563 206.91 62.563 203.047V101.828" stroke="#1E1E1E" stroke-miterlimit="10" stroke-linecap="round" stroke-linejoin="round"/>
<path d="M62.563 77.6177V43.6204C62.563 39.4996 65.8962 36.1514 69.9988 36.1514H156.922L195.896 79.163L197.178 203.047C197.178 207.168 193.588 210.516 189.742 210.516H184.101" stroke="#1E1E1E" stroke-miterlimit="10" stroke-linecap="round" stroke-linejoin="round"/>
<path d="M156.923 53.1494V70.4056C156.923 75.0416 161.026 79.1624 165.641 79.1624H195.898" stroke="#1E1E1E" stroke-miterlimit="10" stroke-linecap="round" stroke-linejoin="round"/>
<path d="M85.8973 97.9642C85.1281 97.9642 84.6152 97.1916 84.6152 96.6764C84.6152 96.1613 85.3845 95.3887 85.8973 95.3887H171.282C172.051 95.3887 172.564 96.1613 172.564 96.6764C172.564 97.1916 171.795 97.9642 171.282 97.9642H85.8973Z" fill="#F1EEE9"/>
<path d="M85.8973 109.039C85.1281 109.039 84.6152 108.267 84.6152 107.752C84.6152 106.979 85.3845 106.464 85.8973 106.464H171.282C172.051 106.464 172.564 107.237 172.564 107.752C172.564 108.524 171.795 109.039 171.282 109.039H85.8973Z" fill="#F1EEE9"/>
<path d="M85.8973 120.114C85.1281 120.114 84.6152 119.342 84.6152 118.569C84.6152 117.796 85.3845 117.281 85.8973 117.281H171.282C172.051 117.281 172.564 118.054 172.564 118.569C172.564 119.342 171.795 120.114 171.282 120.114H85.8973Z" fill="#F1EEE9"/>
<path d="M85.8973 130.931C85.1281 130.931 84.6152 130.158 84.6152 129.643C84.6152 129.128 85.3845 128.355 85.8973 128.355H171.282C172.051 128.355 172.564 129.128 172.564 129.643C172.564 130.158 171.795 130.931 171.282 130.931H85.8973Z" fill="#F1EEE9"/>
<path d="M85.8973 142.006C85.1281 142.006 84.6152 141.234 84.6152 140.718C84.6152 140.203 85.3845 139.431 85.8973 139.431H171.282C172.051 139.431 172.564 140.203 172.564 140.718C172.564 141.234 171.795 142.006 171.282 142.006H85.8973Z" fill="#F1EEE9"/>
<path d="M85.8973 152.823C85.1281 152.823 84.6152 152.051 84.6152 151.536C84.6152 151.02 85.3845 149.99 85.8973 149.99H123.333C124.102 149.99 124.615 150.763 124.615 151.536C124.615 152.308 123.846 152.823 123.333 152.823H85.8973Z" fill="#F1EEE9"/>
<path d="M125.897 70.6639H86.1538C85.1281 70.6639 84.6152 69.8913 84.6152 69.1186C84.6152 68.0884 85.3846 67.5732 86.1538 67.5732H125.897C126.923 67.5732 127.436 68.3459 127.436 69.1186C127.692 69.8913 126.923 70.6639 125.897 70.6639Z" fill="#D3CDC3"/>
<path d="M105.897 79.1629H86.1538C85.1281 79.1629 84.6152 78.3903 84.6152 77.6176C84.6152 76.5874 85.3846 76.0723 86.1538 76.0723H105.897C106.923 76.0723 107.436 76.8449 107.436 77.6176C107.436 78.3903 106.923 79.1629 105.897 79.1629Z" fill="#D3CDC3"/>
<path d="M164.615 186.306C164.359 183.73 164.102 182.185 162.307 181.412C159.487 180.639 158.718 184.503 155.897 187.593C154.871 188.624 153.846 189.139 152.564 189.911C152.307 190.169 151.538 190.427 151.538 189.654C150.769 187.593 151.538 188.624 154.615 185.275C155.897 183.73 156.923 181.67 156.666 179.094C156.41 177.806 155.384 176.261 154.102 175.746C152.82 175.231 151.282 175.488 150.256 176.776C147.692 179.867 148.461 181.67 148.205 186.306C148.205 186.563 147.949 187.078 147.692 187.336C145.128 188.624 142.564 189.654 139.487 190.169V189.911C141.025 187.851 144.359 183.988 145.128 177.291C145.384 174.716 145.384 172.398 144.102 169.822C141.795 165.701 135.384 165.959 132.564 171.11C129.743 176.776 130.256 185.275 134.102 190.427C133.077 191.199 132.564 191.714 131.538 192.229C131.025 192.487 130.769 193.26 131.282 194.032C131.538 194.805 132.564 195.062 133.333 194.29C136.154 191.972 135.897 192.229 136.41 191.972C136.923 191.714 137.436 191.972 137.948 191.972C139.743 191.972 141.282 191.714 142.564 191.714C143.333 191.457 148.205 189.911 148.205 189.911C148.205 189.911 148.205 190.169 148.461 190.169C148.974 191.972 150 193.002 152.051 192.745C153.589 192.487 155.128 191.714 156.154 190.684C157.436 189.396 159.743 186.563 161.025 184.503C161.282 185.791 161.282 186.821 161.795 188.109C162.564 190.169 164.359 190.427 165.641 188.881C166.923 187.336 167.692 185.275 169.23 184.245C169.743 183.988 170.256 183.473 170.256 182.957C170.256 181.927 168.974 181.412 168.205 181.927C166.666 182.7 165.897 184.245 164.615 186.306ZM135.897 188.881C134.615 187.078 133.846 185.275 133.59 182.957C132.82 179.609 133.333 176.519 134.615 173.428C135.384 171.883 136.154 170.595 138.205 170.08C140 169.822 141.282 170.08 141.795 171.883C142.82 178.064 140.513 183.73 135.897 188.881ZM151.282 179.352C152.307 177.291 153.589 179.094 153.333 180.124C153.077 181.155 152.307 181.927 152.051 182.957C151.795 183.473 151.282 183.988 151.025 184.503C150.513 182.7 150.513 180.897 151.282 179.352Z" fill="#D3CDC3"/>
<path d="M101.025 193.517C99.9989 194.805 97.9476 195.32 96.6655 194.547C94.6142 193.002 93.8451 192.745 92.563 192.487C90.7681 192.229 88.9733 192.23 88.7169 190.169C88.4605 189.654 88.4604 189.139 88.4604 188.881C88.204 187.594 87.6912 186.306 86.922 185.276C85.6399 183.988 84.8707 182.442 85.6399 181.155C86.922 179.352 87.6912 178.579 87.6912 176.519C87.6912 175.746 87.6911 175.231 87.9475 174.716C88.2039 173.428 89.486 172.14 91.0245 172.14C91.5373 172.14 92.3066 171.883 92.563 171.883C94.3579 171.625 94.8707 170.595 97.1784 169.565C97.9476 169.307 98.4604 169.307 99.2296 169.822C99.7424 170.08 100.255 170.595 101.025 171.11C102.563 172.398 103.589 171.883 105.896 172.398C107.178 172.655 107.435 173.686 107.691 174.458C107.691 175.488 107.947 176.776 108.46 177.806C109.486 179.609 111.024 180.64 111.024 182.442C111.024 182.7 110.768 183.473 110.768 183.473C109.742 184.503 109.23 186.048 108.717 187.336C108.46 187.851 108.46 188.366 108.46 188.624C108.46 189.654 108.204 190.427 107.435 191.199C104.871 193.26 102.819 191.714 101.025 193.517ZM89.7424 187.078C92.5629 191.199 97.9476 192.487 102.307 189.654C106.409 187.078 107.435 181.412 105.127 177.549C105.127 177.549 105.127 177.291 104.871 177.291C102.307 173.17 96.4091 171.883 92.3065 174.716C88.204 177.291 87.1783 182.958 89.7424 187.078Z" fill="#D3CDC3"/>
<path d="M93.0754 176.003C96.6651 173.685 101.281 174.458 103.588 178.064C105.896 181.412 104.87 186.048 101.793 188.366L101.537 188.623C97.9473 190.941 93.3318 189.911 91.0241 186.563C88.9728 183.215 89.742 178.321 93.0754 176.003Z" fill="#D3CDC3"/>
<path d="M192.819 124.75C194.101 124.493 194.87 122.69 194.614 121.402C194.357 120.114 192.563 119.342 191.281 119.599C189.999 119.857 189.229 121.66 189.486 122.947C189.998 124.493 191.537 125.265 192.819 124.75Z" fill="#F1EEE9"/>
<path d="M249.744 121.659V206.91C249.744 208.197 248.975 209.485 247.693 210C238.975 213.864 227.436 216.439 214.872 216.439C202.308 216.439 190.77 214.121 182.052 210C181.026 209.485 180 208.197 180 206.91V121.659C180 119.341 182.052 117.538 184.103 117.538H245.385C247.949 117.538 249.744 119.341 249.744 121.659Z" fill="#D3CDC3"/>
<path d="M249.744 121.659V147.414H180V121.659C180 119.341 182.052 117.538 184.103 117.538H245.385C247.949 117.538 249.744 119.341 249.744 121.659Z" fill="#D3CDC3"/>
<path d="M244.615 123.205H185.127V142.007H244.358L244.615 123.205Z" fill="#FDFBF9"/>
<path d="M243.333 125.007V140.718H186.923V125.007H243.333ZM246.153 121.659H183.589V143.551H245.897L246.153 121.659Z" fill="#F8F6F4"/>
<path d="M197.178 163.383H189.999C188.717 163.383 187.691 162.353 187.691 161.065V157.202C187.691 155.914 188.717 154.884 189.999 154.884H197.178C198.46 154.884 199.486 155.914 199.486 157.202V161.065C199.742 162.095 198.46 163.383 197.178 163.383Z" fill="#DB1E32"/>
<path d="M197.178 173.686H189.999C188.717 173.686 187.691 172.656 187.691 171.368V167.505C187.691 166.217 188.717 165.187 189.999 165.187H197.178C198.46 165.187 199.486 166.217 199.486 167.505V171.368C199.742 172.656 198.46 173.686 197.178 173.686Z" fill="#FDFBF9"/>
<path d="M197.178 184.245H189.999C188.717 184.245 187.691 183.215 187.691 181.927V178.064C187.691 176.776 188.717 175.746 189.999 175.746H197.178C198.46 175.746 199.486 176.776 199.486 178.064V181.927C199.742 183.473 198.46 184.245 197.178 184.245Z" fill="#FDFBF9"/>
<path d="M197.178 195.063H189.999C188.717 195.063 187.691 194.033 187.691 192.745V188.881C187.691 187.594 188.717 186.563 189.999 186.563H197.178C198.46 186.563 199.486 187.594 199.486 188.881V192.745C199.742 193.775 198.46 195.063 197.178 195.063Z" fill="#FDFBF9"/>
<path d="M197.178 205.622H189.999C188.717 205.622 187.691 204.592 187.691 203.304V199.441C187.691 198.153 188.717 197.123 189.999 197.123H197.178C198.46 197.123 199.486 198.153 199.486 199.441V203.304C199.742 204.592 198.46 205.622 197.178 205.622Z" fill="#FDFBF9"/>
<path d="M212.051 163.383H204.871C203.589 163.383 202.563 162.353 202.563 161.065V157.202C202.563 155.914 203.589 154.884 204.871 154.884H212.051C213.333 154.884 214.358 155.914 214.358 157.202V161.065C214.358 162.095 213.589 163.383 212.051 163.383Z" fill="#FDFBF9"/>
<path d="M212.051 173.686H204.871C203.589 173.686 202.563 172.656 202.563 171.368V167.505C202.563 166.217 203.589 165.187 204.871 165.187H212.051C213.333 165.187 214.358 166.217 214.358 167.505V171.368C214.358 172.656 213.589 173.686 212.051 173.686Z" fill="#FDFBF9"/>
<path d="M212.051 184.245H204.871C203.589 184.245 202.563 183.215 202.563 181.927V178.064C202.563 176.776 203.589 175.746 204.871 175.746H212.051C213.333 175.746 214.358 176.776 214.358 178.064V181.927C214.358 183.473 213.589 184.245 212.051 184.245Z" fill="#FDFBF9"/>
<path d="M212.051 195.063H204.871C203.589 195.063 202.563 194.033 202.563 192.745V188.881C202.563 187.594 203.589 186.563 204.871 186.563H212.051C213.333 186.563 214.358 187.594 214.358 188.881V192.745C214.358 193.775 213.589 195.063 212.051 195.063Z" fill="#FDFBF9"/>
<path d="M212.051 205.622H204.871C203.589 205.622 202.563 204.592 202.563 203.304V199.441C202.563 198.153 203.589 197.123 204.871 197.123H212.051C213.333 197.123 214.358 198.153 214.358 199.441V203.304C214.358 204.592 213.589 205.622 212.051 205.622Z" fill="#FDFBF9"/>
<path d="M226.923 163.383H219.743C218.461 163.383 217.436 162.353 217.436 161.065V157.202C217.436 155.914 218.461 154.884 219.743 154.884H226.923C228.205 154.884 229.23 155.914 229.23 157.202V161.065C229.487 162.095 228.205 163.383 226.923 163.383Z" fill="#FDFBF9"/>
<path d="M226.923 173.686H219.743C218.461 173.686 217.436 172.656 217.436 171.368V167.505C217.436 166.217 218.461 165.187 219.743 165.187H226.923C228.205 165.187 229.23 166.217 229.23 167.505V171.368C229.487 172.656 228.205 173.686 226.923 173.686Z" fill="#FDFBF9"/>
<path d="M226.923 184.245H219.743C218.461 184.245 217.436 183.215 217.436 181.927V178.064C217.436 176.776 218.461 175.746 219.743 175.746H226.923C228.205 175.746 229.23 176.776 229.23 178.064V181.927C229.487 183.473 228.205 184.245 226.923 184.245Z" fill="#FDFBF9"/>
<path d="M226.923 195.063H219.743C218.461 195.063 217.436 194.033 217.436 192.745V188.881C217.436 187.594 218.461 186.563 219.743 186.563H226.923C228.205 186.563 229.23 187.594 229.23 188.881V192.745C229.487 193.775 228.205 195.063 226.923 195.063Z" fill="#FDFBF9"/>
<path d="M226.923 205.622H219.743C218.461 205.622 217.436 204.592 217.436 203.304V199.441C217.436 198.153 218.461 197.123 219.743 197.123H226.923C228.205 197.123 229.23 198.153 229.23 199.441V203.304C229.487 204.592 228.205 205.622 226.923 205.622Z" fill="#FDFBF9"/>
<path d="M241.795 163.383H234.615C233.333 163.383 232.308 162.353 232.308 161.065V157.202C232.308 155.914 233.333 154.884 234.615 154.884H241.795C243.077 154.884 244.102 155.914 244.102 157.202V161.065C244.102 162.095 243.077 163.383 241.795 163.383Z" fill="#FDFBF9"/>
<path d="M241.795 173.686H234.615C233.333 173.686 232.308 172.656 232.308 171.368V167.505C232.308 166.217 233.333 165.187 234.615 165.187H241.795C243.077 165.187 244.102 166.217 244.102 167.505V171.368C244.102 172.656 243.077 173.686 241.795 173.686Z" fill="#FDFBF9"/>
<path d="M241.795 184.245H234.615C233.333 184.245 232.308 183.215 232.308 181.927V178.064C232.308 176.776 233.333 175.746 234.615 175.746H241.795C243.077 175.746 244.102 176.776 244.102 178.064V181.927C244.102 183.473 243.077 184.245 241.795 184.245Z" fill="#FDFBF9"/>
<path d="M241.795 195.063H234.615C233.333 195.063 232.308 194.033 232.308 192.745V188.881C232.308 187.594 233.333 186.563 234.615 186.563H241.795C243.077 186.563 244.102 187.594 244.102 188.881V192.745C244.102 193.775 243.077 195.063 241.795 195.063Z" fill="#FDFBF9"/>
<path d="M241.795 205.622H234.615C233.333 205.622 232.308 204.592 232.308 203.304V199.441C232.308 198.153 233.333 197.123 234.615 197.123H241.795C243.077 197.123 244.102 198.153 244.102 199.441V203.304C244.102 204.592 243.077 205.622 241.795 205.622Z" fill="#FDFBF9"/>
<path d="M238.461 128.099L239.487 127.068H233.846L234.871 128.099H238.461Z" fill="#1E1E1E"/>
<path d="M235.128 137.113L234.102 138.144H239.743L238.718 137.113H235.128Z" fill="#1E1E1E"/>
<path d="M238.716 133.507V136.855L239.742 137.885V133.249L239.229 132.734L238.716 133.507Z" fill="#1E1E1E"/>
<path d="M238.716 128.356V131.962L239.486 132.477L239.998 131.962V127.326L238.716 128.356Z" fill="#1E1E1E"/>
<path d="M235.128 131.704V128.099L233.846 127.068V131.704L234.102 132.219L235.128 131.704Z" fill="#1E1E1E"/>
<path d="M235.128 133.507L234.359 132.734L234.102 133.249V138.143L235.384 137.113V133.507H235.128Z" fill="#1E1E1E"/>
<path d="M79.4871 125.522C79.4871 130.416 78.4614 135.567 76.923 139.945C72.8204 151.02 63.5896 159.777 52.0512 163.383C48.205 164.671 44.1025 165.186 39.7435 165.186C17.6923 165.443 0 147.414 0 125.265C0 103.115 17.9487 85.3438 39.7435 85.3438C61.5384 85.6013 79.4871 103.63 79.4871 125.522Z" fill="#F5CB35"/>
<path d="M14.6157 94.3584C16.4106 93.0707 18.2055 91.7829 20.2568 90.4951" stroke="#1E1E1E" stroke-miterlimit="10" stroke-linecap="round" stroke-linejoin="round"/>
<path d="M31.7949 86.3742C34.359 85.8591 36.923 85.6016 39.7435 85.6016C61.5384 85.6016 79.4871 103.63 79.4871 125.523C79.4871 130.416 78.4614 135.567 76.923 139.946C72.8204 151.02 63.5896 159.777 52.0512 163.383C48.205 164.671 44.1025 165.186 39.7435 165.186C17.6923 165.444 0 147.415 0 125.265C0 118.826 1.53855 112.645 4.10265 107.236" stroke="#1E1E1E" stroke-miterlimit="10" stroke-linecap="round" stroke-linejoin="round"/>
<path d="M19.792 140.375H27.0837V146.626C27.0837 146.93 27.181 147.179 27.3768 147.373C27.5721 147.569 27.8217 147.667 28.1257 147.667H33.5616C33.8437 147.667 34.0878 147.569 34.294 147.373C34.5002 147.179 34.603 146.93 34.603 146.626V140.375H51.0418C51.3452 140.375 51.5949 140.278 51.7905 140.082C51.9864 139.887 52.0836 139.638 52.0836 139.333V135.167C52.0836 134.864 51.9864 134.614 51.7905 134.419C51.5954 134.223 51.3452 134.125 51.0418 134.125H34.6025V130.284H45.6702C50.0102 130.284 53.5524 128.961 56.2984 126.313C59.0433 123.667 60.4165 120.249 60.4165 116.059C60.4165 111.872 59.0433 108.454 56.2984 105.805C53.553 103.159 50.0101 101.834 45.6702 101.834H28.1252C27.821 101.834 27.572 101.932 27.3763 102.127C27.181 102.322 27.0832 102.573 27.0832 102.875V123.351H19.792C19.4879 123.351 19.2388 123.454 19.0431 123.66C18.8479 123.866 18.75 124.11 18.75 124.392V129.242C18.75 129.546 18.8473 129.795 19.0431 129.991C19.2389 130.187 19.4874 130.284 19.792 130.284H27.0837V134.125H19.792C19.4879 134.125 19.2388 134.223 19.0431 134.419C18.8479 134.613 18.75 134.864 18.75 135.167V139.333C18.75 139.637 18.8473 139.887 19.0431 140.082C19.2388 140.278 19.4878 140.375 19.792 140.375ZM34.6025 108.768H45.0191C47.3192 108.768 49.1744 109.441 50.5854 110.786C51.9958 112.132 52.7012 113.89 52.7012 116.059C52.7012 118.23 51.9958 119.989 50.5854 121.333C49.1744 122.679 47.3191 123.352 45.0191 123.352H34.6025V108.768Z" fill="#FDFBF9"/>
<path d="M196.411 117.796H245.898C247.949 117.539 250 119.599 250 121.917V207.168C250 208.455 249.231 209.743 247.949 210.258C239.231 214.122 227.693 216.697 215.129 216.697C202.565 216.697 191.026 214.379 182.308 210.258C181.283 209.743 180.257 208.455 180.257 207.168V121.917C180.257 119.599 182.308 117.796 184.359 117.796H185.642" stroke="#1E1E1E" stroke-miterlimit="10" stroke-linecap="round" stroke-linejoin="round"/>
</g>
<defs>
<clipPath id="clip0">
<rect width="250" height="250" fill="white"/>
</clipPath>
</defs>
</svg>
