<svg width="250" height="250" viewBox="0 0 250 250" fill="none" xmlns="http://www.w3.org/2000/svg">
<g clip-path="url(#clip0)">
<path d="M169.46 158.974V208.46C169.46 231.28 150.841 249.741 128.142 249.741C127.122 249.741 126.101 249.741 124.826 249.484C103.657 247.69 87.0786 229.998 87.0786 208.46V158.974H104.422V208.46C104.422 220.511 113.094 230.254 124.571 231.793C125.591 232.049 126.611 232.049 127.887 232.049C140.894 232.049 151.351 221.536 151.351 208.46V158.974H169.46Z" fill="#DB1E32"/>
<path d="M162.828 158.974V208.46C162.828 230.254 146.25 247.946 125.081 249.484C124.06 249.484 123.04 249.741 121.765 249.741C99.0655 249.741 80.4468 231.28 80.4468 208.46V158.974H97.7902V208.46C97.7902 221.536 108.247 232.049 121.255 232.049C122.275 232.049 123.295 232.049 124.571 231.793C136.048 230.254 144.72 219.998 144.72 208.46V158.974H162.828Z" fill="#F64457"/>
<path opacity="0.7" d="M85.5476 193.588C84.5274 193.588 83.7622 192.819 83.7622 191.793V188.973C83.7622 187.947 84.5274 187.178 85.5476 187.178C86.5678 187.178 87.3329 187.947 87.3329 188.973V192.049C87.3329 192.819 86.5678 193.588 85.5476 193.588Z" fill="#FF7E8C"/>
<path opacity="0.7" d="M97.2799 236.92C96.7698 236.92 96.5147 236.664 96.2597 236.664C88.3531 229.228 83.7622 219.229 83.7622 208.46V198.973C83.7622 197.947 84.5274 197.178 85.5476 197.178C86.5678 197.178 87.3329 197.947 87.3329 198.973V208.46C87.3329 217.947 91.4137 227.433 98.8102 233.844C99.5753 234.356 99.5753 235.638 99.0652 236.408C98.3001 236.664 97.79 236.92 97.2799 236.92Z" fill="#FF7E8C"/>
<path opacity="0.7" d="M121.509 246.408C115.133 246.408 108.757 244.869 102.891 241.536C102.125 241.279 101.87 239.997 102.125 238.972C102.636 238.203 103.656 237.946 104.676 238.203C109.777 241.023 115.643 242.561 121.254 242.561C122.274 242.561 123.04 242.561 124.06 242.305C128.906 242.049 132.987 240.767 137.322 238.459C138.088 238.203 139.108 238.203 139.618 239.228C140.128 239.997 139.873 241.023 138.853 241.536C134.262 243.844 129.416 245.638 124.315 245.895C123.805 246.408 122.529 246.408 121.509 246.408Z" fill="#FF7E8C"/>
<path d="M104.422 158.974H80.4468V180.768H104.422V158.974Z" fill="#F1EEE9"/>
<path d="M104.422 158.974H80.4468V180.768H104.422V158.974Z" fill="#D3CDC3"/>
<path d="M97.7902 158.974H80.4468V180.768H97.7902V158.974Z" fill="#FDFBF9"/>
<path d="M169.203 158.974H145.229V180.768H169.203V158.974Z" fill="#D3CDC3"/>
<path d="M162.827 158.974H145.484L145.229 180.768H162.827V158.974Z" fill="#FDFBF9"/>
<path d="M204.401 80.0015C204.401 91.0269 199.555 101.027 192.159 107.95C190.118 109.744 188.078 111.539 185.272 113.078C179.661 116.411 173.285 117.949 166.399 117.949C159.512 117.949 153.136 116.155 147.525 113.078C146.505 112.565 145.739 112.052 144.719 111.539C134.772 104.616 128.396 93.3345 128.396 80.5143C128.396 59.4891 145.484 42.5664 166.399 42.5664C187.313 42.5664 204.401 58.9763 204.401 80.0015Z" fill="#FDFBF9"/>
<path d="M191.903 106.923C190.373 103.846 188.078 101.026 184.762 98.9747C183.232 97.9491 181.446 97.9491 179.406 97.4363H177.876C174.56 97.4363 174.305 96.9235 174.305 96.9235V91.539C176.09 90.0006 177.621 88.4622 178.641 86.6673C179.661 84.8725 180.681 83.0776 181.446 81.0264C183.487 80.5136 185.017 78.4624 184.762 76.6675C184.762 75.6419 184.252 74.8727 184.252 73.8471V72.3087V71.2831V70.2574C183.742 68.719 183.742 66.9242 182.467 65.1293C179.661 60.2576 174.56 56.668 168.439 56.668C167.419 56.668 165.888 56.9244 164.868 56.9244C162.828 57.4372 160.787 58.4628 159.002 59.7449L157.982 60.7705C157.982 60.7705 157.472 60.7705 157.472 61.0269C155.686 62.8217 154.156 64.8729 153.391 67.437C152.371 70.001 152.371 72.5651 152.881 74.8727V75.1291V75.3855C152.881 75.8983 153.391 75.6419 152.881 76.4112C152.881 76.6676 152.371 76.6676 152.371 76.924C151.86 77.4368 151.86 78.7188 151.86 80.0008C152.881 82.5648 154.411 82.052 155.686 83.3341L155.176 83.5905L153.391 84.1033C145.994 86.6673 146.504 91.539 149.565 95.3851C150.585 96.9235 152.371 96.9235 155.176 97.4363C154.156 97.4363 151.095 100.513 150.84 100.77C147.525 103.59 145.484 107.18 144.974 111.026V111.539C145.994 112.051 146.759 112.564 147.78 113.077H185.782C188.333 111.539 190.628 110 192.669 107.949C192.158 107.692 191.903 107.18 191.903 106.923ZM163.083 95.8979C162.573 95.3851 162.063 95.3851 162.063 94.8723C161.552 94.6159 161.042 94.3594 160.532 93.8466C160.022 93.8466 160.022 93.5903 160.022 93.5903C158.492 92.5646 156.961 91.7954 156.961 90.5134C156.961 90.0006 157.472 88.975 158.492 88.4622C159.002 88.975 159.512 89.4878 160.022 90.257C160.532 90.5134 161.042 91.2826 161.552 91.2826C162.063 91.539 162.063 91.7954 162.573 91.7954H163.083C163.083 91.7954 163.593 91.7954 163.593 92.0518L163.083 95.8979Z" fill="#FDFBF9"/>
<path d="M184.252 113.846C178.896 116.667 172.774 118.462 166.398 118.462C158.491 118.462 150.84 115.898 144.719 112.051V111.539C145.229 107.693 147.524 103.59 150.585 101.026C151.095 100.77 155.431 97.9492 156.196 97.9492C153.39 97.4364 150.84 97.18 149.82 95.6416L155.431 96.6672C157.981 100.257 161.807 102.308 166.653 102.308C170.479 102.308 174.05 100.77 176.6 98.2056H177.62H179.151C181.191 98.2056 182.976 98.7184 184.507 99.2313C187.822 100.77 190.118 103.847 191.648 107.18C191.903 107.436 192.158 107.949 192.158 108.205C189.863 110.257 187.057 112.308 184.252 113.846Z" fill="#F64457"/>
<path d="M166.908 93.8471C168.949 93.8471 171.499 93.5907 174.305 91.7959" stroke="#1E1E1E" stroke-miterlimit="10" stroke-linecap="round" stroke-linejoin="round"/>
<path d="M183.742 71.2838C175.07 74.1043 167.674 72.053 161.553 66.6685C160.532 70.2582 157.472 73.0786 153.646 74.6171C153.136 74.8735 152.626 74.8735 152.116 75.1299C152.116 72.5658 150.84 66.4121 156.962 60.2584C156.962 60.2584 157.472 60.2584 157.472 60.002C166.143 51.5406 183.742 57.9508 183.742 71.2838Z" fill="#1E1E1E"/>
<path d="M165.123 105.898C164.103 107.437 161.553 107.693 159.512 107.437C161.553 105.385 160.532 98.4624 153.136 99.488C143.699 97.6932 141.914 87.6934 155.942 83.0781L156.452 83.3345C157.472 85.3858 158.237 87.1806 159.512 88.719C155.431 92.3087 161.043 93.0779 163.848 95.8984C165.633 97.4368 167.674 103.334 165.123 105.898Z" fill="#1E1E1E"/>
<path d="M192.158 107.95C185.272 114.36 176.09 118.206 166.143 118.206C158.237 118.206 150.585 115.642 144.464 111.796C134.517 104.873 128.141 93.5909 128.141 80.5143C128.141 59.4891 145.229 42.5664 166.143 42.5664C187.057 42.5664 204.146 59.2327 204.146 80.2579C204.146 86.9244 202.36 93.3345 199.3 98.719" stroke="#1E1E1E" stroke-miterlimit="10" stroke-linecap="round" stroke-linejoin="round"/>
<path d="M120.999 85.8984C120.999 95.6418 117.174 104.616 110.797 111.282L109.267 112.821C102.891 118.975 93.9641 122.564 84.2722 122.564C76.3656 122.564 69.4793 120.257 63.358 116.154C61.8277 114.872 60.0424 113.334 58.5121 112.308C51.6257 105.385 47.5449 96.411 47.5449 85.8984C47.5449 65.386 64.1232 48.7197 84.2722 48.7197C104.421 48.7197 120.999 65.386 120.999 85.8984Z" fill="#F1EEE9"/>
<path d="M120.999 85.8979C120.999 96.6669 116.409 106.41 109.267 113.077C102.891 119.23 93.9641 122.82 84.2722 122.82C76.3656 122.82 69.4793 120.512 63.358 116.41C53.6661 110 47.5449 98.4617 47.5449 86.1542C47.5449 65.6419 64.1232 48.9756 84.2722 48.9756C103.911 48.7192 120.999 65.3855 120.999 85.8979Z" fill="#FDFBF9"/>
<path d="M110.543 111.282L109.013 112.821C102.637 118.974 93.7098 122.564 84.0179 122.564C76.1113 122.564 69.225 120.256 63.1038 116.154C61.3184 114.872 59.7881 113.333 58.2578 112.308C58.7679 111.282 60.5533 110.769 63.3588 109.487L64.6341 109.231C66.9295 108.205 69.7351 107.436 73.8159 105.641C74.326 105.385 74.8361 105.129 75.6012 104.616C76.1114 104.359 76.1113 104.103 76.1113 103.59C76.6215 103.334 76.6215 102.564 76.6215 102.052V94.6159L76.1113 94.3595C75.6012 93.3339 75.0911 92.3083 74.8361 91.0262L74.326 90.7698C72.5406 91.0262 72.7957 89.2314 72.0305 85.1289C71.5204 83.5905 72.0305 83.0777 72.5406 82.8213L73.0507 81.7957C71.7755 78.4624 71.2654 76.1548 71.2654 73.8471C71.2654 70.2575 73.0507 67.6934 75.0911 66.6678C73.8159 63.8474 73.8159 63.0781 73.8159 63.0781C73.8159 63.0781 81.7225 64.3602 84.0179 63.591C87.3336 63.0782 92.4346 63.5909 94.2199 68.2062C97.5356 69.4882 98.8108 71.5395 99.0659 73.8471C99.576 77.4368 97.5356 81.2829 97.2805 82.5649V82.8213C97.7906 83.0777 97.7906 83.3341 97.7906 84.6161C97.2805 88.2058 97.2805 90.7698 95.4952 90.257L93.9649 93.0775V93.5903V101.539C93.9649 102.052 94.475 102.821 94.475 103.59C94.475 103.846 94.9851 103.846 94.9851 104.103C95.4952 104.359 96.0053 104.616 96.2603 105.129C100.851 107.18 103.657 107.949 106.462 108.975C108.248 110 110.033 110.769 110.543 111.282Z" fill="#FDFBF9"/>
<path d="M110.543 111.283L109.013 112.821C102.637 118.975 93.7098 122.565 84.0179 122.565C76.1113 122.565 69.225 120.257 63.1038 116.154C61.3184 114.872 59.7881 113.334 58.2578 112.308C58.7679 111.283 60.5533 110.77 63.3588 109.488L64.6341 109.231C66.9295 108.206 69.7351 107.437 73.8159 105.642C74.326 105.385 74.8361 105.129 75.6012 104.616C77.8967 107.437 81.4674 109.744 85.2932 109.744C89.1189 109.744 92.6896 107.693 94.9851 104.873C95.4952 105.129 96.0053 105.385 96.2603 105.898C100.851 107.693 103.657 108.719 106.462 109.744C108.248 110.001 110.033 110.77 110.543 111.283Z" fill="#D3CDC3"/>
<path d="M97.2796 82.3091C97.2796 81.2835 96.7696 80.2579 96.7696 79.4887C96.7696 79.4887 96.7696 79.2323 96.2595 79.2323C92.9438 71.0273 81.2115 76.9246 77.1307 73.3349C78.661 77.181 76.6206 79.4887 73.0499 81.2835C69.4791 72.8221 71.2645 67.6941 74.8352 65.8992C73.56 63.0788 73.56 62.3096 73.56 62.3096C73.56 62.3096 81.4665 63.5916 83.762 62.8224C87.0776 62.3096 92.1786 62.8224 93.964 67.4377C97.2796 68.7197 98.5549 70.7709 98.81 73.0786C99.3201 76.6682 97.5347 80.7707 97.2796 82.3091Z" fill="#1E1E1E"/>
<path d="M76.6211 94.3594C76.8761 94.6158 77.1312 94.8722 77.3862 95.1286L83.2524 99.231C84.5277 100.513 86.5681 100.513 88.0984 99.231" stroke="#1E1E1E" stroke-miterlimit="10" stroke-linecap="round" stroke-linejoin="round"/>
<path d="M53.4111 65.6424C60.0424 55.3862 71.2646 48.7197 84.0171 48.7197C103.911 48.4633 120.999 65.1296 120.999 85.8984C120.999 96.6674 116.409 106.411 109.267 113.077C102.891 119.231 93.9641 122.821 84.2722 122.821C76.3656 122.821 69.4793 120.513 63.358 116.411C53.6661 110 47.5449 98.4622 47.5449 86.1548C47.5449 82.8215 48.055 79.4883 48.8202 76.4114" stroke="#1E1E1E" stroke-miterlimit="10" stroke-linecap="round" stroke-linejoin="round"/>
<path d="M163.337 36.9252C163.337 46.6686 159.512 55.6427 153.135 62.3093C152.625 62.8221 152.115 63.3349 151.605 64.1041C145.229 70.2578 136.302 73.8475 126.61 73.8475C118.704 73.8475 111.817 71.5398 105.696 67.4373C103.911 66.1553 102.38 64.6169 100.85 63.5913C93.9636 56.6684 89.8828 47.6942 89.8828 37.1816C89.8828 16.6692 106.461 0.00292969 126.61 0.00292969C146.759 0.259334 163.337 16.6692 163.337 36.9252Z" fill="#F1EEE9"/>
<path d="M163.337 36.9251C163.337 47.6941 158.746 57.4375 151.605 64.104C145.229 70.2577 136.302 73.8474 126.61 73.8474C118.704 73.8474 111.817 71.5398 105.696 67.4373C96.004 61.0272 89.8828 49.489 89.8828 37.1815C89.8828 16.6692 106.461 0.00287598 126.61 0.00287598C146.249 -0.253529 163.337 16.6692 163.337 36.9251Z" fill="#FDFBF9"/>
<path d="M152.881 62.5658C145.74 69.7451 137.578 74.104 126.356 74.104C112.073 74.104 105.187 67.1811 100.596 63.8478C102.126 61.2838 116.919 58.207 118.449 55.1301C118.959 54.8737 118.959 54.1045 118.959 53.5917V46.1559C118.194 45.3867 117.684 43.5919 117.174 42.5662L116.664 42.3099C114.879 42.5663 115.134 40.7714 114.368 36.669C113.858 35.1305 114.368 34.6177 114.879 34.3613L115.389 33.3357C113.093 27.9512 112.073 20.259 117.174 18.2078C115.899 15.3874 115.899 14.6182 115.899 14.6182C115.899 14.6182 123.805 15.9002 126.101 15.131C129.416 14.6182 134.517 15.131 136.303 19.7463C143.699 22.8231 140.894 28.464 139.108 34.1049V34.3613C139.618 34.3613 139.618 34.6177 139.618 36.4126C139.108 40.0022 139.108 42.5663 137.323 42.0534L135.538 44.8739C135.538 55.3865 135.283 52.8225 136.048 55.1301C136.048 55.3865 136.558 55.3865 136.558 55.6429C137.068 55.8993 137.578 56.1557 137.833 56.6685C144.974 59.2325 150.841 61.0274 152.881 62.5658Z" fill="#FDFBF9"/>
<path d="M152.881 62.5654C152.371 63.0782 151.861 63.591 151.351 64.3602C144.974 70.5139 136.048 74.1036 126.356 74.1036C118.449 74.1036 111.563 71.796 105.442 67.6935C103.911 66.4115 102.126 64.873 100.596 63.8474C101.106 62.8218 102.891 62.309 105.697 61.027L106.972 60.7706C109.267 59.7449 112.073 58.7193 116.154 57.1809C116.664 56.9245 117.174 56.6681 117.684 56.1553C119.98 58.9757 123.55 61.2834 127.376 61.2834C131.202 61.2834 134.772 59.2321 137.068 56.4117C137.578 56.6681 138.088 56.9245 138.343 57.4373C142.934 59.2321 145.74 60.2577 148.545 61.2834C150.586 61.2834 151.861 61.7962 152.881 62.5654Z" fill="#F5CB35"/>
<path d="M138.597 30.2581C134.517 22.566 123.549 28.4632 119.469 24.6172C120.999 28.4632 118.958 30.7709 115.388 32.5657C111.817 24.1044 113.602 18.9763 117.173 17.1814C115.898 14.361 115.898 13.5918 115.898 13.5918C115.898 13.5918 123.804 14.8738 126.1 14.1046C129.416 13.5918 134.517 14.1046 136.302 18.7199C144.719 22.3096 139.618 30.0017 139.362 33.3349C139.618 33.0785 139.107 30.2581 138.597 30.2581Z" fill="#1E1E1E"/>
<path d="M118.704 45.8994C118.959 46.1558 119.214 46.4122 119.469 46.4122L125.335 50.5147C126.61 51.7967 128.651 51.7967 130.181 50.5147L130.946 50.0019" stroke="#1E1E1E" stroke-miterlimit="10" stroke-linecap="round" stroke-linejoin="round"/>
<path d="M162.827 42.5661C161.552 51.0274 157.471 58.7196 151.605 64.1041C145.229 70.2578 136.302 73.8475 126.61 73.8475C118.704 73.8475 111.817 71.5398 105.696 67.4374C96.004 61.0272 89.8828 49.489 89.8828 37.1816C89.8828 16.6692 106.461 0.00292969 126.61 0.00292969C144.719 0.00292969 160.532 13.8488 163.082 31.7971" stroke="#1E1E1E" stroke-miterlimit="10" stroke-linecap="round" stroke-linejoin="round"/>
<path d="M150.586 147.179L154.921 146.923L155.177 154.102C155.177 154.871 156.197 155.128 156.452 154.358L160.533 141.538C160.788 141.025 160.278 140.256 159.512 140.256H154.411L153.391 131.795C153.391 131.025 152.371 131.025 152.371 131.795L149.565 145.897C149.565 146.666 150.076 147.179 150.586 147.179Z" fill="#F5CB35"/>
<path d="M159.767 142.051H155.431C155.176 142.051 154.921 141.795 154.921 141.538C154.921 141.282 155.176 141.026 155.431 141.282L159.512 141.538C159.767 141.538 160.022 141.795 160.022 142.051C160.022 141.795 160.022 142.051 159.767 142.051Z" fill="#BA971A"/>
<path d="M150.585 145.127L152.371 134.102C152.371 133.846 152.626 133.846 152.881 133.846C153.136 133.846 153.391 134.102 153.136 134.102L151.606 145.384C151.606 145.64 151.096 145.64 151.096 145.64C150.841 145.897 150.585 145.64 150.585 145.127Z" fill="#BA971A"/>
<path d="M88.0988 146.666L92.4347 146.41L92.6897 153.589C92.6897 154.358 93.7099 154.615 93.965 153.846L98.0458 141.025C98.3008 140.513 97.7907 139.743 97.0256 139.743H91.9246L90.9044 131.282C90.9044 130.513 89.8842 130.513 89.8842 131.282L87.0786 145.384C87.0786 146.153 87.3337 146.666 88.0988 146.666Z" fill="#F5CB35"/>
<path d="M97.0247 141.539H92.6888C92.4338 141.539 92.1787 141.282 92.1787 141.026C92.1787 140.769 92.4338 140.513 92.6888 140.769H97.0247C97.2797 140.769 97.5348 141.026 97.5348 141.282C97.5348 141.282 97.5348 141.539 97.0247 141.539Z" fill="#BA971A"/>
<path d="M88.0986 144.872L89.884 133.846C89.884 133.59 90.139 133.59 90.3941 133.59C90.6491 133.59 90.9042 133.846 90.6491 133.846L89.1188 145.128C89.1188 145.384 88.6087 145.384 88.6087 145.384C88.3537 145.384 88.0986 145.128 88.0986 144.872Z" fill="#BA971A"/>
<path d="M102.125 62.309C106.461 60.0014 116.918 57.4373 118.194 54.8733C118.704 54.6169 118.704 53.8477 118.704 53.3349V45.8991C117.939 45.1299 117.429 43.3351 116.918 42.3095L116.408 42.053C114.623 42.3094 114.878 40.5146 114.113 36.4121C113.603 34.8737 114.113 34.3609 114.623 34.1045L115.133 33.0789C112.838 27.6944 111.817 20.0023 116.918 17.951C115.643 15.1306 115.643 14.3613 115.643 14.3613C115.643 14.3613 123.55 15.6434 125.845 14.8742C129.161 14.3614 134.262 14.8741 136.047 19.4894C143.444 22.5663 140.638 28.2072 138.853 33.8481V34.1045C139.363 34.1045 139.363 34.3609 139.363 36.1557C138.853 39.7454 138.853 42.3095 137.067 41.7967L135.282 44.6171C135.282 55.1297 135.027 52.5656 135.792 54.8733C135.792 55.1297 136.302 55.1297 136.302 55.3861C136.812 55.6425 137.322 55.8989 137.578 56.4117C144.464 59.2322 150.33 61.027 152.37 62.5654" stroke="#1E1E1E" stroke-miterlimit="10" stroke-linecap="round" stroke-linejoin="round"/>
<path d="M191.903 106.924C190.628 104.616 189.098 102.308 186.802 100.514C186.292 100.001 185.527 99.488 184.762 99.2316C183.231 98.2059 181.446 97.9495 179.406 97.6931H177.875C174.56 97.6931 174.305 97.1803 174.305 97.1803V91.5394C176.09 90.001 177.62 88.4626 178.64 86.6678C179.661 84.8729 180.681 83.0781 181.191 80.7704C183.231 80.2576 184.762 78.2064 184.507 76.4116C184.507 75.386 183.997 74.6167 183.997 73.8475V70.5143C183.486 68.9758 183.486 67.181 182.211 65.3862C179.661 60.2581 174.05 56.9248 168.183 56.9248C166.908 56.9248 165.633 57.1812 164.613 57.1812C162.572 57.694 160.532 58.7196 158.747 60.0017L157.726 61.0273C157.726 61.0273 157.216 61.0273 157.216 61.2837C155.431 63.0785 153.901 65.1298 152.88 67.9502C151.86 70.5143 151.86 73.0783 152.37 75.3859V76.1552C152.37 76.668 152.88 76.4115 152.37 77.1808C152.37 77.6936 151.86 77.6936 151.86 77.6936C151.605 78.2064 151.35 79.4884 151.605 80.7704C152.625 83.3345 154.156 82.8217 155.431 84.1037L154.921 84.3601L153.135 84.8729C147.524 87.1805 144.719 90.7702 147.269 95.1291C148.289 96.9239 150.84 97.6932 153.646 98.206C152.115 98.9752 150.84 100.514 150.585 100.77C147.269 103.334 145.229 107.437 144.719 111.283V111.795C150.84 115.898 158.236 118.205 166.398 118.205C176.345 118.205 185.272 114.359 192.158 107.949C192.158 107.436 191.903 107.18 191.903 106.924Z" stroke="#1E1E1E" stroke-miterlimit="10" stroke-linecap="round" stroke-linejoin="round"/>
<path d="M58.2578 112.051C59.023 111.282 60.5533 110.513 63.3588 109.487C65.9093 108.718 71.2654 106.667 75.6012 104.616C76.1113 104.359 76.1113 104.103 76.1113 103.59C76.6214 103.334 76.6214 102.564 76.6214 102.052V94.6159C75.8563 93.8467 75.3462 92.0519 74.8361 91.0262L74.326 90.7698C72.5406 91.0262 72.7957 89.2314 72.0305 85.1289C71.5204 83.5905 72.0305 83.0777 72.5406 82.8213L73.0507 81.7957C70.7553 76.1548 69.7351 68.9755 74.8361 66.6678C73.5608 63.8474 73.5608 63.0781 73.5608 63.0781C73.5608 63.0781 81.4674 64.3602 83.7629 63.591C87.0785 63.0782 92.1795 63.5909 93.9649 68.2062C97.2805 69.4882 98.5558 71.5395 98.8108 73.8471C99.3209 77.4368 97.2805 81.2829 97.0255 82.5649V82.8213C97.5356 83.0777 97.5356 83.3341 97.5356 84.6161C97.0255 88.2058 97.0255 90.7698 95.2401 90.257L93.7098 93.0775C93.7098 103.334 93.4548 100.77 94.2199 103.334C94.2199 103.59 94.73 103.59 94.73 103.846C95.2401 104.103 95.7502 104.359 96.0053 104.872C100.851 106.923 108.503 109.487 110.288 111.282" stroke="#1E1E1E" stroke-miterlimit="10" stroke-linecap="round" stroke-linejoin="round"/>
<path d="M104.677 211.28C104.677 210.254 104.42 209.229 104.42 208.203" stroke="#1E1E1E" stroke-miterlimit="10" stroke-linecap="round" stroke-linejoin="round"/>
<path d="M165.634 226.409C168.184 221.281 169.46 215.127 169.46 208.204V158.718H151.606H144.975V208.204C144.975 222.563 130.692 236.665 116.664 228.973C112.583 226.665 109.523 223.332 107.482 219.486" stroke="#1E1E1E" stroke-miterlimit="10" stroke-linecap="round" stroke-linejoin="round"/>
<path d="M80.1914 159.486C80.1914 164.614 80.1914 208.46 80.1914 208.46C80.1914 251.023 132.222 260.766 156.962 238.203" stroke="#1E1E1E" stroke-miterlimit="10" stroke-linecap="round" stroke-linejoin="round"/>
<path d="M104.422 198.204V158.974C94.9846 158.974 93.7094 158.974 89.3735 158.974" stroke="#1E1E1E" stroke-miterlimit="10" stroke-linecap="round" stroke-linejoin="round"/>
</g>
<defs>
<clipPath id="clip0">
<rect width="250" height="250" fill="white"/>
</clipPath>
</defs>
</svg>
