<svg width="250" height="250" viewBox="0 0 250 250" fill="none" xmlns="http://www.w3.org/2000/svg">
<g clip-path="url(#clip0)">
<path d="M16.7412 240.19H246.652" stroke="#1E1E1E" stroke-miterlimit="10" stroke-linecap="round" stroke-linejoin="round"/>
<path d="M0 240.19H8.64958" stroke="#1E1E1E" stroke-miterlimit="10" stroke-linecap="round" stroke-linejoin="round"/>
<path d="M147.601 223.948C147.601 232.629 140.626 239.63 131.976 239.63H48.2705C39.621 239.63 32.6455 232.629 32.6455 223.948V25.6821C32.6455 17.0009 39.621 10 48.2705 10H132.534C141.184 10 148.159 17.0009 148.159 25.6821V223.948H147.601Z" fill="#FDFBF9"/>
<path d="M132.534 10C141.184 10 148.159 17.0009 148.159 25.6821V224.228C148.159 232.909 141.184 239.91 132.534 239.91H48.2705C39.621 239.91 32.6455 232.909 32.6455 224.228V25.6821C32.6455 17.0009 39.621 10 48.2705 10H132.534Z" fill="#F1EEE9"/>
<path d="M32.3652 60.1266V25.6821C32.3652 17.0009 39.3407 10 47.9903 10H132.254C140.903 10 147.879 17.0009 147.879 25.6821V224.228C147.879 232.909 140.903 239.91 132.254 239.91H47.9903C39.3407 239.91 32.3652 232.909 32.3652 224.228V76.9288" stroke="#1E1E1E" stroke-miterlimit="10" stroke-linecap="round" stroke-linejoin="round"/>
<path d="M140.068 25.1218V223.668C140.068 227.308 138.114 229.829 134.766 230.669C134.208 230.949 133.371 230.949 132.534 230.949H48.2706H47.1545C43.2483 230.389 41.0161 227.308 41.0161 223.668V25.6818C41.0161 21.7613 43.5273 18.6809 47.1545 18.4009H48.2706H60.5474C62.2215 18.4009 63.3376 19.521 63.3376 21.2013C63.3376 24.2817 66.1278 27.3621 69.476 27.3621H112.445C115.514 27.3621 118.583 24.5617 118.583 21.2013C118.304 19.241 119.42 18.4009 121.094 18.4009H132.813V17.8408C133.371 17.8408 134.487 17.8408 135.045 18.1209C137.835 18.961 140.068 21.4813 140.068 25.1218Z" fill="#FDFBF9"/>
<path d="M97.6561 20.3614H86.4953C85.3793 20.3614 84.8213 19.2413 84.8213 18.6812C84.8213 17.5611 85.9373 17.001 86.4953 17.001H97.6561C98.7721 17.001 99.3302 18.1211 99.3302 18.6812C99.3302 19.8013 98.4931 20.3614 97.6561 20.3614Z" fill="#1E1E1E"/>
<path d="M80.0786 20.3614H79.7996C78.6835 20.3614 78.1255 19.2413 78.1255 18.6812C78.1255 17.5611 79.2416 17.001 79.7996 17.001H80.0786C81.1947 17.001 81.7528 18.1211 81.7528 18.6812C81.7528 19.8013 81.1947 20.3614 80.0786 20.3614Z" fill="#1E1E1E"/>
<path d="M127.791 179.142H54.409C50.5028 179.142 47.4336 176.062 47.4336 172.141V79.4492C47.4336 75.5286 50.5028 72.4482 54.409 72.4482H127.791C131.697 72.4482 134.766 75.5286 134.766 79.4492V172.141C134.766 176.062 131.697 179.142 127.791 179.142Z" fill="#FDFBF9"/>
<path d="M127.791 179.142H54.409C50.5028 179.142 47.4336 176.062 47.4336 172.141V79.4492C47.4336 75.5286 50.5028 72.4482 54.409 72.4482H127.791C131.697 72.4482 134.766 75.5286 134.766 79.4492V172.141C134.766 176.062 131.697 179.142 127.791 179.142Z" fill="#F1EEE9" stroke="#D3CDC3" stroke-width="0.9843" stroke-linecap="round" stroke-linejoin="round" stroke-dasharray="1.98 1.98"/>
<path d="M134.766 18.1212V54.526C134.766 58.4465 131.697 61.5269 127.791 61.5269H54.409C50.5028 61.5269 47.4336 58.4465 47.4336 54.526V18.1212H48.5497H60.8265C62.5006 18.1212 63.6167 19.2414 63.6167 20.9216C63.6167 24.002 66.4068 27.0824 69.755 27.0824H112.724C115.793 27.0824 118.862 24.282 118.862 20.9216C118.583 19.2414 119.699 18.1212 121.373 18.1212H133.092V17.8412C133.371 17.5611 134.208 17.5611 134.766 18.1212Z" fill="#F1EEE9"/>
<path d="M134.766 196.504V231.228C134.207 231.508 133.37 231.508 132.533 231.508H48.2699H47.1538V196.504C47.1538 192.583 50.223 189.503 54.1293 189.503H127.511C131.696 189.503 134.766 192.583 134.766 196.504Z" fill="#F1EEE9"/>
<path d="M176.34 186.703H90.6813C83.7059 186.703 78.1255 181.102 78.1255 174.101V68.5274C78.1255 61.5265 83.7059 55.9258 90.6813 55.9258H176.34C183.315 55.9258 188.896 61.5265 188.896 68.5274V174.101C188.896 181.102 183.594 186.703 176.34 186.703Z" fill="#FDFBF9"/>
<path d="M123.047 186.703H90.6813C83.7059 186.703 78.1255 181.103 78.1255 174.102V114.174" stroke="#1E1E1E" stroke-miterlimit="10" stroke-linecap="round" stroke-linejoin="round"/>
<path d="M78.1255 95.691V68.5274C78.1255 61.5265 83.7059 55.9258 90.6813 55.9258H176.34C183.315 55.9258 188.896 61.5265 188.896 68.5274V174.101C188.896 181.102 183.594 186.703 176.34 186.703H148.159" stroke="#1E1E1E" stroke-miterlimit="10" stroke-linecap="round" stroke-linejoin="round"/>
<path d="M161.272 152.538H95.145C93.4709 152.538 91.7969 151.418 91.7969 149.738C91.7969 148.058 92.9129 146.938 95.145 146.938H161.272C162.946 146.938 164.621 148.058 164.621 149.738C164.342 151.418 162.946 152.538 161.272 152.538Z" fill="#F1EEE9"/>
<path d="M121.094 168.78H94.8662C93.1921 168.78 91.5181 167.66 91.5181 165.98C91.5181 164.3 92.6341 163.18 94.8662 163.18H121.373C123.047 163.18 124.721 164.3 124.721 165.98C124.163 167.38 122.768 168.78 121.094 168.78Z" fill="#F1EEE9"/>
<path d="M172.154 130.975H95.982C94.0289 130.975 92.6338 129.295 92.6338 127.615V75.2481C92.6338 73.2879 94.3079 71.8877 95.982 71.8877H172.154C174.107 71.8877 175.502 73.5679 175.502 75.2481V127.615C175.502 129.855 173.828 130.975 172.154 130.975Z" fill="#F1EEE9"/>
<path d="M135.324 118.374H107.98L121.652 102.692L135.324 118.374Z" fill="#D3CDC3"/>
<path d="M158.203 118.374H118.861L138.393 95.6914L158.203 118.374Z" fill="#FDFBF9"/>
<path d="M118.583 97.0916C121.373 97.0916 123.884 94.8513 123.884 91.7709C123.884 88.9705 121.652 86.4502 118.583 86.4502C115.513 86.4502 113.281 88.6905 113.281 91.7709C113.281 94.5713 115.513 97.0916 118.583 97.0916Z" fill="#D3CDC3"/>
<path d="M244.699 189.503L236.05 233.469C235.492 237.389 232.144 240.19 228.237 240.19H160.436C156.53 240.19 153.461 237.389 152.623 233.469L144.253 189.503" fill="#FDFBF9"/>
<path d="M244.7 189.503L244.141 193.143V193.703L236.608 233.469C236.05 237.389 232.702 240.19 228.795 240.19H160.715C156.809 240.19 153.74 237.389 152.903 233.469L145.369 193.703V193.143L144.811 189.503H244.7Z" fill="#F5CB35"/>
<path d="M162.807 202.651C162.264 201.54 161.179 200.43 160.095 200.43C159.01 200.985 157.925 202.096 157.925 203.207L163.892 232.086C164.434 234.863 169.316 234.308 168.231 231.531L162.807 202.651Z" fill="#BA971A"/>
<path d="M179.349 202.636C179.349 201.533 178.308 200.43 176.747 200.43C175.706 200.43 174.666 201.533 174.666 203.188C175.186 209.255 177.788 225.803 178.828 231.871C179.349 235.18 183.512 234.077 182.991 231.319C182.471 228.561 179.869 206.497 179.349 202.636Z" fill="#BA971A"/>
<path d="M193.5 202.9V231.442C193.5 234.735 197.685 234.735 197.685 231.442V202.9C197.22 199.606 193.5 199.606 193.5 202.9Z" fill="#BA971A"/>
<path d="M210.446 202.169C208.272 217.197 209.359 209.961 206.097 231.112C205.554 234.451 210.446 235.008 210.446 231.668L212.621 214.971L214.252 203.839C215.339 199.943 210.99 199.386 210.446 202.169Z" fill="#BA971A"/>
<path d="M226.779 202.264C226.231 206.172 221.295 229.614 220.746 231.288C220.198 234.079 225.134 235.196 225.134 231.847L231.167 202.823C231.167 200.032 226.779 199.474 226.779 202.264Z" fill="#BA971A"/>
<path d="M244.699 189.503L244.141 193.143H145.369L144.532 189.503H244.699Z" fill="#BA971A"/>
<path d="M147.6 189.504H145.089C142.02 189.504 139.788 187.263 139.788 184.463V179.142C139.788 176.342 142.299 174.102 145.089 174.102H244.14C247.21 174.102 249.721 176.342 249.721 179.142V184.463C249.721 187.263 247.21 189.504 244.14 189.504H241.629" fill="#F5CB35"/>
<path d="M188.895 174.102H145.089C142.299 174.102 139.788 176.342 139.788 179.142V184.463C139.788 187.263 142.299 189.504 145.089 189.504H144.81L145.368 193.424V193.704L152.901 233.469C153.46 237.39 156.529 240.19 160.714 240.19H228.794C232.422 240.19 235.77 237.39 236.607 233.469L244.14 193.704V193.424L244.698 189.504H244.42C247.489 189.504 250 187.263 250 184.463V179.142C250 176.342 247.489 174.102 244.42 174.102H203.404" stroke="#1E1E1E" stroke-miterlimit="10" stroke-linecap="round" stroke-linejoin="round"/>
<path d="M161.831 128.735C163.784 128.735 165.458 130.416 165.458 132.376V155.339C165.458 160.38 161.552 164.3 156.53 164.3H141.463C139.789 164.3 138.394 164.02 137.556 162.62C133.929 159.54 126.396 153.099 125.001 150.858C124.722 150.018 124.164 149.458 124.164 148.898V143.857C124.164 140.777 126.396 138.537 129.465 138.537H131.418V148.338H132.534V127.895C132.534 125.935 134.208 124.255 136.161 124.255C138.115 124.255 139.789 125.935 139.789 127.895V131.816H140.905V126.775C140.905 124.815 142.579 123.135 144.532 123.135C146.485 123.135 148.159 124.815 148.159 126.775V131.816H149.833V129.016C149.833 127.055 151.507 125.375 153.46 125.375C155.414 125.375 157.088 127.055 157.088 129.016V131.816H158.762C158.762 129.856 159.878 128.735 161.831 128.735Z" fill="#FDFBF9" stroke="#FDFBF9" stroke-miterlimit="10"/>
<path d="M161.831 128.735C163.784 128.735 165.458 130.416 165.458 132.376V155.339C165.458 160.38 161.552 164.3 156.53 164.3H141.463C139.789 164.3 138.394 164.02 137.556 162.62C133.929 159.54 126.396 153.099 125.001 150.858C124.722 150.018 124.164 149.458 124.164 148.898V143.857C124.164 140.777 126.396 138.537 129.465 138.537H131.418V148.338H132.534V127.895C132.534 125.935 134.208 124.255 136.161 124.255C138.115 124.255 139.789 125.935 139.789 127.895V131.816H140.905V126.775C140.905 124.815 142.579 123.135 144.532 123.135C146.485 123.135 148.159 124.815 148.159 126.775V131.816H149.833V129.016C149.833 127.055 151.507 125.375 153.46 125.375C155.414 125.375 157.088 127.055 157.088 129.016V131.816H158.762C158.762 129.856 159.878 128.735 161.831 128.735Z" stroke="#1E1E1E" stroke-miterlimit="10" stroke-linecap="round" stroke-linejoin="round"/>
<path d="M124.442 204.065V231.229H57.7568V204.065C57.7568 202.385 58.8729 201.265 60.547 201.265H121.931C123.047 201.265 124.442 202.665 124.442 204.065Z" fill="#FDFBF9"/>
<path d="M85.3792 231.509H76.4507L80.9149 226.469L85.3792 231.509Z" fill="#D3CDC3"/>
<path d="M104.074 231.509H85.3794V231.229L94.587 220.867L104.074 231.509Z" fill="#F1EEE9"/>
<path d="M78.4045 221.708C80.6367 221.708 82.5898 219.747 82.5898 217.507C82.5898 215.267 80.6367 213.307 78.4045 213.307C76.1724 213.307 74.2192 215.267 74.2192 217.507C74.2192 219.747 75.8933 221.708 78.4045 221.708Z" fill="#D3CDC3"/>
<path d="M152.344 38.2833C152.902 44.7241 147.601 52.0051 140.068 52.0051C133.371 52.0051 127.791 45.8443 127.791 38.8434V39.1234C127.512 47.2445 120.815 51.165 114.119 49.4848H113.561C108.539 48.6446 103.516 45.5642 103.516 39.1234C103.516 46.1243 98.2149 51.725 91.2395 51.725C84.264 51.725 78.9627 45.2842 78.9627 38.5633C78.9627 45.5642 73.3823 51.725 66.6859 51.725C59.7104 51.725 54.409 46.1243 54.409 39.1234C54.409 45.8443 49.1077 51.725 42.1322 51.725C35.1568 51.725 29.5764 46.1243 29.8555 38.0033C29.8555 30.7223 28.1813 34.0827 43.5273 16.4404H138.673C153.74 34.0827 152.344 30.4423 152.344 38.2833Z" fill="#DB1E32"/>
<path d="M78.962 40.5236V38.8434C78.962 45.8443 73.3816 52.2851 66.4062 52.2851C59.4307 52.2851 54.1294 46.6844 54.1294 39.6835V40.2435C54.4084 31.0023 52.7343 35.4829 61.9419 18.9608L63.616 16.4404H83.7053C77.8459 36.043 78.962 30.4423 78.962 40.5236Z" fill="#FDFBF9"/>
<path d="M127.791 39.4034C127.791 47.8045 119.978 53.1252 113.282 51.725H113.003C107.701 50.8849 103.237 45.2842 103.237 39.1234C103.237 31.2824 103.795 34.9228 98.2148 16.4404H118.304L119.978 18.9608C128.349 34.0827 127.791 31.0023 127.791 39.4034Z" fill="#FDFBF9"/>
<path d="M49.6656 16.4404H43.8062C28.1811 34.0827 30.1343 30.7223 30.1343 38.0033C29.8553 41.6437 30.9713 44.7241 32.6454 47.2445" stroke="#1E1E1E" stroke-miterlimit="10" stroke-linecap="round" stroke-linejoin="round"/>
<path d="M150.949 30.7223C149.275 28.482 145.927 24.8415 138.951 16.4404H118.583H98.4935H66.9644" stroke="#1E1E1E" stroke-miterlimit="10" stroke-linecap="round" stroke-linejoin="round"/>
<path d="M92.0762 51.7252C98.4936 51.1651 103.237 45.8444 103.237 39.1236C103.237 40.5237 103.516 41.6439 103.795 42.484C105.19 46.9646 108.817 50.6051 113.003 51.4452H113.282C119.978 53.1254 127.791 47.5247 127.791 39.1236C127.791 38.8435 127.791 38.8435 127.791 38.5635C127.791 45.5644 133.371 51.7252 140.067 51.7252C146.485 51.7252 151.507 46.4045 152.344 40.8038" stroke="#1E1E1E" stroke-miterlimit="10" stroke-linecap="round" stroke-linejoin="round"/>
<path d="M41.0161 51.7247C41.2951 51.7247 41.8532 51.7247 42.1322 51.7247C49.1076 51.7247 54.409 45.8439 54.409 39.123C54.409 39.123 54.409 39.123 54.409 39.4031C54.409 46.404 59.7104 51.7247 66.6858 51.7247C73.1032 51.7247 78.4046 45.8439 78.9626 39.4031C79.2416 41.9234 80.0787 44.4437 81.7528 46.404" stroke="#1E1E1E" stroke-miterlimit="10" stroke-linecap="round" stroke-linejoin="round"/>
<path d="M54.4087 40.2416C54.4087 39.9626 54.4087 39.9626 54.4087 39.6836V40.2416Z" stroke="#1E1E1E" stroke-miterlimit="10" stroke-linecap="round" stroke-linejoin="round"/>
</g>
<defs>
<clipPath id="clip0">
<rect width="250" height="250" fill="white"/>
</clipPath>
</defs>
</svg>
