<svg width="250" height="250" viewBox="0 0 250 250" fill="none" xmlns="http://www.w3.org/2000/svg">
<g clip-path="url(#clip0)">
<path d="M42.9591 27.0723H39.0789V15.9469C39.0789 14.8344 40.1875 14 41.0189 14C42.1276 14 42.9591 15.1125 42.9591 15.9469V27.0723Z" fill="#D3CDC3"/>
<path d="M206.763 27.0723H210.643V15.9469C210.643 14.8344 209.535 14 208.703 14C207.594 14 206.763 15.1125 206.763 15.9469V27.0723Z" fill="#D3CDC3"/>
<path d="M125 113.572C133.592 113.572 140.521 108.844 140.521 103.281C140.521 97.4404 133.592 92.9902 125 92.9902C116.408 92.9902 109.479 97.7185 109.479 103.281C109.479 108.844 116.131 113.572 125 113.572Z" fill="#D3CDC3"/>
<path d="M125 59.3358C129.434 59.3358 133.037 56.5545 133.037 52.6606C133.037 48.7667 129.434 45.9854 125 45.9854C120.288 45.9854 116.962 48.7667 116.962 52.6606C116.962 56.2764 120.565 59.3358 125 59.3358Z" fill="#D3CDC3"/>
<path d="M195.399 133.876V228.998C195.399 231.223 194.29 233.17 192.905 234.283C191.796 235.395 189.856 235.952 188.193 235.952H60.1437C56.2634 235.952 53.2146 232.614 53.2146 228.998V133.598C53.2146 129.704 56.2634 126.645 60.1437 126.645H188.47C192.073 126.645 195.399 129.982 195.399 133.876Z" fill="#F5CB35"/>
<path d="M138.304 126.644V156.961C138.304 158.074 137.749 159.186 136.641 159.742L127.494 164.749C126.386 165.305 125 165.305 123.891 164.471L118.071 160.021C116.962 159.186 115.299 159.186 114.191 160.021C112.25 161.689 108.925 160.299 108.925 157.517V126.366L138.304 126.644Z" fill="#BA971A"/>
<path d="M114.745 48.2104V57.3888L104.49 61.2827V47.6541C104.49 45.429 103.381 42.3695 101.441 39.8663C99.7781 37.6412 97.0064 36.2506 94.2348 36.2506H49.6116C46.5628 36.2506 44.0684 35.138 41.8511 33.1911C39.9109 31.2442 38.8022 28.7409 38.8022 25.4033H44.0683L44.6227 26.5158C46.2857 29.2972 49.0572 30.966 52.3832 30.966H100.055C105.321 30.966 108.924 33.7474 111.419 36.5287C112.527 37.6413 112.805 38.7538 113.636 39.8663C114.468 42.6477 114.745 45.429 114.745 48.2104Z" fill="#D3CDC3"/>
<path d="M82.8716 23.7347H3.04881C1.38583 23.7347 0 22.6222 0 21.2315C0 19.8409 1.10867 18.4502 3.04881 18.4502H82.8716C84.2574 18.4502 85.9204 19.5627 85.9204 21.2315C85.3661 22.6222 84.5346 23.7347 82.8716 23.7347Z" fill="#DB1E32"/>
<path d="M211.198 25.4033C211.198 28.1847 210.089 30.966 208.149 33.1911C206.209 35.138 203.714 36.2506 200.388 36.2506H155.488C152.439 36.2506 149.945 37.9194 148.282 39.8663C146.342 42.0914 145.51 45.1509 145.51 47.6541V61.2827L135.255 57.3888V48.2104C135.255 45.429 135.532 42.6477 136.918 40.1445C137.195 39.0319 138.027 37.9194 139.135 36.8068C141.353 33.7473 145.233 31.2441 150.499 31.2441H199.003C201.22 31.2441 203.714 29.8535 205.1 27.9065L206.209 25.9596H211.475L211.198 25.4033Z" fill="#D3CDC3"/>
<path d="M166.851 23.7346H246.674C248.06 23.7346 249.445 22.3439 249.445 20.9532C249.445 19.5625 248.337 18.1719 246.674 18.1719H166.851C165.465 18.1719 163.802 19.2844 163.802 20.9532C164.357 22.622 165.188 23.7346 166.851 23.7346Z" fill="#DB1E32"/>
<path d="M102.273 70.4609V86.5928L97.0068 88.2615L89.2462 91.0429L83.7029 92.7117L71.785 96.3275L67.3503 87.7053L83.9801 79.6394L89.2462 76.858L97.284 73.2423L102.273 70.4609Z" fill="#D3CDC3"/>
<path d="M67.0721 101.612L65.132 105.228L51.8282 127.757V153.902L47.9479 148.895C46.0078 146.67 45.1763 143.611 45.1763 140.551V124.419C45.1763 121.638 46.2849 119.413 47.9479 117.466L57.3714 99.3874L61.2518 91.5996L67.0721 101.612Z" fill="#D3CDC3"/>
<path opacity="0.4" d="M67.0723 101.612L65.1322 105.228C61.2519 105.228 58.2031 102.447 57.0945 99.1091L60.9747 91.3213L67.0723 101.612Z" fill="#DFDAD2"/>
<path d="M181.819 87.7053L177.107 96.3275L165.189 92.7117L160.755 91.321L150.777 88.5397L146.342 87.149V70.4609L150.777 72.4079L161.032 77.1362L165.466 79.0831L181.819 87.7053Z" fill="#D3CDC3"/>
<path d="M204.268 123.863V139.995C204.268 143.054 203.159 146.114 201.219 148.339L197.339 153.345V127.2L184.035 104.672L181.818 101.334L187.915 91.043L191.796 98.5526L201.496 116.91C203.159 118.856 204.268 121.36 204.268 123.863Z" fill="#D3CDC3"/>
<path opacity="0.4" d="M191.796 98.5528C191.242 102.169 187.916 104.95 183.758 104.95L181.541 101.612L187.639 91.3213L191.796 98.5528Z" fill="#F1EEE9"/>
<path d="M116.13 108.565C105.044 107.453 96.4519 97.9962 96.4519 86.3145V73.5203C96.4519 61.0042 106.43 51.2695 118.348 51.2695H131.097C143.292 51.2695 152.993 61.2824 152.993 73.5203V86.3145C153.27 98.5524 143.292 108.565 131.097 108.565H118.348C117.793 108.565 116.962 108.565 116.13 108.565Z" fill="#FDFBF9"/>
<path d="M104.49 56.2767C108.371 52.9391 113.359 50.9922 118.626 50.9922H131.375C143.57 50.9922 153.271 61.005 153.271 73.243V86.0372C153.548 98.2751 143.57 108.288 131.375 108.288H120.011" stroke="#1E1E1E" stroke-miterlimit="10" stroke-linecap="round" stroke-linejoin="round"/>
<path d="M110.033 106.898C101.995 103.56 96.4519 95.494 96.4519 86.3155V73.5213C96.4519 71.2963 96.7291 69.3493 97.2834 67.4023" stroke="#1E1E1E" stroke-miterlimit="10" stroke-linecap="round" stroke-linejoin="round"/>
<path d="M114.745 62.1173C117.794 60.4485 121.119 59.3359 125 59.3359C136.086 59.3359 145.233 68.5144 145.233 79.6398C145.233 90.7652 136.363 99.9436 125 99.9436C113.913 99.9436 104.767 90.7652 104.767 79.6398C104.767 72.1301 108.647 65.733 114.745 62.1173Z" fill="#D3CDC3"/>
<path d="M125.278 91.5991C131.375 91.5991 136.641 86.3145 136.641 80.1955C136.641 74.0766 131.375 68.792 125.278 68.792C119.18 68.792 113.914 74.0766 113.914 80.1955C113.914 86.3145 118.903 91.5991 125.278 91.5991Z" fill="#FDFBF9"/>
<path d="M114.469 75.7461C113.915 77.1368 113.637 78.5274 113.637 79.9181C113.637 86.0371 118.904 91.3217 125.001 91.3217C125.833 91.3217 126.941 91.3216 127.773 91.0435" stroke="#1E1E1E" stroke-miterlimit="10" stroke-linecap="round" stroke-linejoin="round"/>
<path d="M135.81 84.6457C136.364 83.255 136.641 81.8643 136.641 80.1955C136.641 74.0766 131.375 68.792 125.278 68.792C123.892 68.792 122.229 69.0701 121.12 69.6264" stroke="#1E1E1E" stroke-miterlimit="10" stroke-linecap="round" stroke-linejoin="round"/>
<path d="M125.277 84.0905C127.494 84.0905 129.157 82.1435 129.157 80.1966C129.157 77.9715 127.217 76.3027 125.277 76.3027C123.06 76.3027 121.397 78.2497 121.397 80.1966C121.119 82.1435 122.782 84.0905 125.277 84.0905Z" fill="#DB1E32"/>
<path d="M211.197 25.4033C211.197 25.6805 211.197 25.6805 211.197 25.9576V25.4033Z" stroke="#1E1E1E" stroke-miterlimit="10" stroke-linecap="round" stroke-linejoin="round"/>
<path d="M42.9596 18.172V15.9469C42.9596 15.1125 42.1281 14 41.0195 14C40.188 14 39.0794 14.8344 39.0794 15.9469V18.172H3.04824C1.38526 18.172 0.276611 19.5627 0.276611 20.9534C0.276611 22.344 1.66242 23.4566 3.04824 23.4566H39.0794V25.4035H38.525C38.525 28.463 39.9109 31.2444 41.5738 33.1913C43.7911 35.1383 46.0084 36.2508 49.3344 36.2508H93.9576C99.778 36.2508 104.213 42.3698 104.213 47.6543V56.2765" stroke="#1E1E1E" stroke-miterlimit="10" stroke-linecap="round" stroke-linejoin="round"/>
<path d="M158.26 31.2442H149.945C141.63 31.2442 134.701 37.6413 134.701 48.2104V51.5481C134.146 51.5481 133.315 51.2699 132.761 51.2699C131.098 44.3166 118.625 44.3166 116.962 51.2699C116.131 51.2699 115.576 51.5481 114.745 51.5481C114.745 48.7667 115.022 40.4227 111.142 36.5288C108.647 33.7474 105.044 30.9661 99.7782 30.9661C49.0575 30.9661 47.9488 32.3567 44.6229 26.5159L44.0685 25.4034H43.2371V23.4565C86.4744 23.4565 85.0886 24.2908 85.9201 20.9532C85.9201 19.2844 84.5343 18.1719 83.1485 18.1719H51.5519" stroke="#1E1E1E" stroke-miterlimit="10" stroke-linecap="round" stroke-linejoin="round"/>
<path d="M54.8776 102.724C53.4918 105.506 51.8288 109.121 47.9485 115.797C46.2856 118.578 44.6226 120.803 44.6226 124.141C44.6226 146.948 43.514 143.61 51.5517 153.623V127.478C66.5185 102.168 66.2413 102.724 66.2413 102.724C70.6759 103.002 74.279 99.3866 74.8333 95.2146C95.0662 89.3737 96.7292 88.2612 96.7292 88.2612C97.5607 96.6052 103.104 103.559 110.587 106.618C112.805 110.512 118.348 113.015 125 113.015C131.652 113.015 137.195 110.234 139.412 106.34C146.618 103.28 152.162 96.6052 152.993 88.5393C157.428 89.93 173.78 94.6583 173.503 94.6583C173.78 98.8303 177.384 102.446 182.372 102.168L197.339 126.644V152.788L201.22 147.782C203.16 145.557 203.991 142.497 203.991 139.438V123.306C203.991 120.803 202.882 118.3 201.497 116.353L190.133 94.6583C190.687 88.8175 185.144 84.3673 179.601 86.0361C158.259 75.467 171.286 81.8641 153.27 73.2419C153.27 65.7323 150.222 59.8914 145.51 55.7194C145.51 47.6535 144.678 44.0377 148.559 39.5876C150.222 37.3625 152.716 35.9719 155.765 35.9719H200.665C206.763 35.9719 211.197 31.2435 211.475 25.6808H210.92V23.4558H246.951C248.337 23.4558 250 22.3433 250 20.6745C250 19.2838 248.614 17.8931 246.951 17.8931H210.92V16.2243C210.92 15.1117 209.812 14.2773 208.98 14.2773C207.871 14.2773 207.04 15.3899 207.04 16.2243V17.8931C165.465 17.8931 164.357 16.7806 164.357 20.6745C164.911 24.5683 163.803 23.4558 207.04 23.4558V25.6808H206.208C204.268 28.4622 202.328 30.9654 198.725 30.9654H176.275" stroke="#1E1E1E" stroke-miterlimit="10" stroke-linecap="round" stroke-linejoin="round"/>
<path d="M96.4513 72.4082C96.4513 72.6863 96.4513 72.9645 96.4513 73.5208C91.1852 76.024 68.7351 87.1493 69.2894 86.8712C63.7461 84.9243 58.2029 89.0963 58.2029 94.659C58.2029 95.7715 58.48 95.7715 58.2029 96.0497" stroke="#1E1E1E" stroke-miterlimit="10" stroke-linecap="round" stroke-linejoin="round"/>
<path d="M146.896 197.013C146.619 197.569 146.342 198.404 146.342 198.96C146.342 200.907 147.728 202.298 149.668 202.298H154.657V218.708C154.657 219.264 154.934 219.82 155.766 219.82H169.901C170.455 219.82 171.01 219.264 171.01 218.708V202.298H175.444C175.998 202.298 176.83 201.741 177.661 201.741C179.047 200.629 179.602 198.404 178.216 197.013L165.189 180.603C164.912 180.047 164.912 180.047 164.635 180.047C163.249 178.934 161.032 179.491 159.923 180.603L146.896 197.013Z" fill="#FDFBF9"/>
<path d="M181.818 103.004C186.252 103.004 190.132 99.3878 190.132 94.6595C190.132 90.2093 186.252 86.3154 181.818 86.3154C177.383 86.3154 173.503 89.9312 173.503 94.6595C173.503 99.1096 177.383 103.004 181.818 103.004Z" fill="#FDFBF9"/>
<path d="M181.819 99.1093C184.314 99.1093 186.254 97.1623 186.254 94.6591C186.254 92.1559 184.036 90.209 181.819 90.209C179.325 90.209 177.385 92.1559 177.385 94.6591C177.662 97.1623 179.325 99.1093 181.819 99.1093Z" fill="#D3CDC3"/>
<path d="M66.519 103.004C70.9536 103.004 74.8339 99.3878 74.8339 94.6595C74.8339 90.2093 70.9536 86.3154 66.519 86.3154C62.0844 86.3154 58.2041 89.9312 58.2041 94.6595C58.2041 99.1096 62.0844 103.004 66.519 103.004Z" fill="#FDFBF9"/>
<path d="M66.5186 99.1093C69.0131 99.1093 70.9532 97.1623 70.9532 94.6591C70.9532 92.1559 68.7359 90.209 66.5186 90.209C64.0241 90.209 62.084 92.1559 62.084 94.6591C62.084 97.1623 64.0241 99.1093 66.5186 99.1093Z" fill="#D3CDC3"/>
<path d="M107.539 126.645H188.193C192.074 126.645 195.122 129.982 195.122 133.598V228.998C195.122 231.223 194.014 233.17 192.628 234.283C191.519 235.395 189.579 235.952 187.916 235.952H59.8671C55.9868 235.952 52.938 232.614 52.938 228.998V133.598C52.938 129.704 55.9868 126.645 59.8671 126.645H80.0999" stroke="#1E1E1E" stroke-miterlimit="10" stroke-linecap="round" stroke-linejoin="round"/>
</g>
<defs>
<clipPath id="clip0">
<rect width="250" height="250" fill="white"/>
</clipPath>
</defs>
</svg>
