<svg width="250" height="250" viewBox="0 0 250 250" fill="none" xmlns="http://www.w3.org/2000/svg">
<path d="M208.797 230.406H39.8935C28.6333 230.406 19.9468 221.398 19.9468 210.138V40.2685C19.9468 29.0082 28.955 20 39.8935 20H208.797C220.058 20 228.744 29.3299 228.744 40.2685V210.138C229.066 221.72 220.379 230.406 208.797 230.406Z" fill="#FDFBF9"/>
<path d="M19.9468 147.08V40.2685C19.9468 29.0082 28.955 20 39.8935 20" stroke="#1E1E1E" stroke-miterlimit="10" stroke-linecap="round" stroke-linejoin="round"/>
<path d="M229.066 172.174V210.137C229.066 221.397 220.379 230.405 209.119 230.405H39.8935C28.6333 230.405 19.9468 221.397 19.9468 210.137V171.53" stroke="#1E1E1E" stroke-miterlimit="10" stroke-linecap="round" stroke-linejoin="round"/>
<path d="M98.4463 20H208.797C220.057 20 228.744 29.3299 228.744 40.2685V147.08" stroke="#1E1E1E" stroke-miterlimit="10" stroke-linecap="round" stroke-linejoin="round"/>
<path d="M55.3369 20H76.5705" stroke="#1E1E1E" stroke-miterlimit="10" stroke-linecap="round" stroke-linejoin="round"/>
<path d="M202.041 191.477V203.059H158.287V190.834H170.191V178.93H182.095V190.834H190.138V167.026H202.041V191.477ZM190.138 147.08H202.041V158.983H190.138V147.08ZM190.138 119.412H202.041V130.994H190.138V119.412ZM142.201 43.4854H205.259V107.186H142.201V43.4854ZM150.244 99.1432H197.537V51.5284H150.244V99.1432ZM162.148 63.4321H185.634V87.5612H162.148V63.4321ZM118.394 99.1432H130.297V111.047H118.394V99.1432ZM118.715 79.5182H130.619V91.4219H118.715V79.5182ZM118.715 47.346H130.619V71.4751H118.715V47.346ZM71.1007 119.09H110.672V131.315H71.1007V119.09ZM43.4326 43.4854H106.49V107.186H43.4326V43.4854ZM51.4757 99.1432H99.0905V51.5284H51.4757V99.1432ZM63.0576 63.4321H86.865V87.5612H63.0576V63.4321ZM59.197 119.09V130.994H47.2933V119.09H59.197ZM106.49 206.92H43.4326V143.219H106.49V206.92ZM98.7687 151.262H51.4757V198.877H99.0905V151.262H98.7687ZM87.1868 187.295H63.3794V162.844H87.1868V187.295ZM130.619 155.444H142.523V167.026H130.619V191.156H142.523V203.059H130.619V202.738H118.715V139.037H130.619V155.444ZM142.201 178.93H154.105V190.834H142.201V178.93ZM154.105 115.229V127.455H142.201V139.358H130.297V127.455H142.201V115.551H154.105V115.229ZM170.191 122.951H182.095V134.854H170.191V122.951ZM158.287 178.93V167.026H170.191V178.93H158.287ZM146.062 147.08H157.966V135.176H169.869V147.08H181.773V158.983H146.062V147.08Z" fill="#D3CDC3"/>
<path opacity="0.7" d="M228.743 88.2051H19.6235V147.08H228.743V88.2051Z" fill="url(#paint0_linear)"/>
<path d="M243.222 155.766H7.07788C3.21722 155.766 0 152.227 0 148.688C0 145.149 3.21722 141.61 7.07788 141.61H242.9C246.761 141.61 249.978 145.149 249.978 148.688C250.3 152.549 247.082 155.766 243.222 155.766Z" fill="#DB1E32"/>
<defs>
<linearGradient id="paint0_linear" x1="124.382" y1="146.904" x2="124.382" y2="86.5241" gradientUnits="userSpaceOnUse">
<stop stop-color="#DB1E32"/>
<stop offset="1" stop-color="#DB1E32" stop-opacity="0"/>
</linearGradient>
</defs>
</svg>
