<svg width="250" height="250" viewBox="0 0 250 250" fill="none" xmlns="http://www.w3.org/2000/svg">
<g clip-path="url(#clip0)">
<path d="M182.047 223.603C164.809 223.882 144.233 223.603 129.497 223.323C115.038 223.603 94.1847 223.882 76.9458 223.603C93.9066 213.827 99.7456 195.672 100.858 183.662H158.135C159.248 195.672 165.087 214.106 182.047 223.603Z" fill="#D3CDC3"/>
<path d="M76.9458 223.603C93.9066 213.827 99.7456 195.672 100.858 183.662H158.135C158.97 192.041 162.028 203.772 170.091 213.548" stroke="#1E1E1E" stroke-miterlimit="10" stroke-linecap="round" stroke-linejoin="round"/>
<path d="M237.657 31.4417V181.708C237.657 185.339 234.877 188.132 231.262 188.132H29.1222C25.7856 188.132 22.7271 185.059 22.7271 181.708V31.4417C22.7271 28.09 25.7856 25.0177 29.1222 25.0177H231.54C234.877 24.7384 237.657 27.8107 237.657 31.4417Z" fill="#FDFBF9"/>
<path d="M22.4487 63.2823V31.4416C22.4487 28.0899 25.5072 25.0176 28.8438 25.0176H231.262C234.876 25.0176 237.379 28.0899 237.379 31.4416V181.707C237.379 185.338 234.598 188.131 230.984 188.131H28.8438C25.5072 188.131 22.4487 185.059 22.4487 181.707V84.5095" stroke="#1E1E1E" stroke-miterlimit="10" stroke-linecap="round" stroke-linejoin="round"/>
<path d="M229.316 32.8379H29.6782V153.497H229.316V32.8379Z" fill="#FDFBF9"/>
<path d="M129.497 176.959C132.556 176.959 134.78 174.725 134.78 171.652C134.78 168.58 132.556 166.346 129.497 166.346C126.717 166.346 124.214 168.58 124.214 171.652C124.214 174.446 126.717 176.959 129.497 176.959Z" fill="#D3CDC3"/>
<path d="M97.2432 82.5547H37.7412V141.767H97.2432V82.5547Z" fill="#D3CDC3"/>
<path d="M93.3502 86.1855H41.9116V137.578H93.3502V86.1855Z" fill="#FDFBF9"/>
<path opacity="0.7" d="M59.4297 86.1855L41.6348 124.45V105.737L50.8103 86.1855H59.4297Z" fill="#F1EEE9"/>
<path opacity="0.7" d="M87.2334 86.1856L63.5994 137.578H55.258L54.98 137.298L78.6139 85.9062H87.2334V86.1856Z" fill="#F1EEE9"/>
<path opacity="0.7" d="M93.3507 88.42L70.5508 137.857H66.1021L89.736 86.4648L93.3507 88.42Z" fill="#F1EEE9"/>
<path d="M221.808 82.5547H162.306V141.767H221.808V82.5547Z" fill="#D3CDC3"/>
<path d="M217.915 86.1855H166.477V137.578H217.915V86.1855Z" fill="#FDFBF9"/>
<path opacity="0.7" d="M184.272 86.1855L166.477 124.45V105.737L175.652 86.1855H184.272Z" fill="#F1EEE9"/>
<path opacity="0.7" d="M211.799 86.1856L188.165 137.578H180.101L179.823 137.298L203.457 85.9062H211.799V86.1856Z" fill="#F1EEE9"/>
<path opacity="0.7" d="M217.916 88.42L195.116 137.857H190.667L214.301 86.4648L217.916 88.42Z" fill="#F1EEE9"/>
<path d="M151.741 82.5547H107.531V153.777H151.741V82.5547Z" fill="#D3CDC3"/>
<path d="M148.126 86.1855H111.702V120.54H148.126V86.1855Z" fill="#FDFBF9"/>
<path d="M148.126 124.729H111.702V153.498H148.126V124.729Z" fill="#FDFBF9"/>
<path d="M110.033 123.612C110.867 123.612 111.424 123.054 111.424 122.216C111.424 121.378 110.867 120.819 110.033 120.819C109.199 120.819 108.643 121.378 108.643 122.216C108.921 122.774 109.477 123.612 110.033 123.612Z" fill="#FDFBF9"/>
<path opacity="0.7" d="M128.663 86.1855L113.092 120.54H111.702V106.016L120.877 86.4648L128.663 86.1855Z" fill="#F1EEE9"/>
<path opacity="0.7" d="M134.224 86.1855L118.375 120.54H115.594L131.165 86.1855H134.224Z" fill="#F1EEE9"/>
<path opacity="0.7" d="M148.126 92.0508V102.664L139.784 120.54H135.057L148.126 92.0508Z" fill="#F1EEE9"/>
<path opacity="0.7" d="M127.273 124.729L115.317 153.498H111.702V148.75L121.99 124.729H127.273Z" fill="#F1EEE9"/>
<path opacity="0.7" d="M148.126 130.036L138.394 153.777H140.896L148.126 136.181V130.036Z" fill="#F1EEE9"/>
<path opacity="0.7" d="M144.233 124.729L132.277 153.498H128.941L140.897 124.729H144.233Z" fill="#F1EEE9"/>
<path d="M249.891 50.9927V50.4341C249.891 49.5962 249.613 48.7583 249.613 47.9203C249.335 46.8031 248.501 45.9652 247.389 44.848L230.428 32.8379H29.9561L4.09775 45.1273C2.70752 45.6859 1.87336 46.8031 1.03922 47.9203C0.48313 48.7583 0.205118 49.8755 0.205118 50.9927C-0.907069 61.0477 7.15627 71.1026 18.0001 71.1026C27.7317 71.1026 36.0731 61.8856 36.0731 51.8306C36.0731 61.8856 43.5804 71.1026 53.8681 71.1026C63.8778 71.1026 71.663 61.8856 71.663 51.8306C71.663 61.8856 79.4483 71.1026 89.458 71.1026C98.9116 71.1026 106.697 62.7235 107.531 53.2271C108.643 63.5614 116.985 71.3819 125.326 71.3819C135.058 71.3819 143.121 63.5614 143.121 53.2271V53.7857V53.2271C147.848 79.7611 178.433 73.6164 178.433 52.3892V53.5064V53.7857C178.433 53.2271 179.267 51.8306 179.267 51.272C179.267 60.489 185.384 69.1475 194.282 70.8233C197.062 71.3819 199.843 71.1026 202.901 70.2647C203.179 69.9854 203.735 69.9854 204.291 69.7061C208.74 67.751 212.355 64.3993 214.023 58.8132C214.023 58.5339 214.301 58.2546 214.301 57.9753C214.579 57.4167 214.579 56.8581 214.579 56.0202C216.525 64.3993 223.477 70.8233 231.818 70.8233C243.496 71.3819 251.003 60.489 249.891 50.9927Z" fill="#DB1E32"/>
<path d="M215.135 52.6685C215.135 53.7857 215.135 54.903 214.857 56.0202C214.857 56.5788 214.579 57.1374 214.579 57.9753C214.579 58.2546 214.301 58.5339 214.301 58.8132C212.633 63.5614 209.018 67.4717 204.57 69.7061C204.292 69.9854 203.735 70.2647 203.179 70.2647C201.233 70.8233 199.287 71.1026 197.618 71.1026C196.784 71.1026 195.672 71.1026 194.838 70.8233C186.218 69.1475 179.545 61.0477 179.545 51.8306C179.545 52.6685 179.545 53.5064 179.267 54.065V54.3443V53.7857L179.545 46.8031L172.038 32.8379H200.955L204.292 36.4688L215.691 47.641L215.135 52.6685Z" fill="#FDFBF9"/>
<path d="M71.6632 46.8031L71.9412 54.0651C71.9412 53.2271 71.6632 52.3892 71.6632 51.5513C71.6632 61.6063 63.5998 70.8233 53.8682 70.8233C44.1366 70.8233 36.0732 62.4442 36.0732 52.3892V53.5064L36.3513 47.3617L47.7511 36.1896L51.6439 32.5586H79.4485L71.6632 46.8031Z" fill="#FDFBF9"/>
<path d="M106.697 47.3617V54.903C106.697 54.065 106.975 53.2271 106.975 52.3892C106.975 62.4442 115.038 71.6612 124.77 71.6612C134.502 71.6612 142.565 63.2821 142.565 53.2271V54.3443L142.287 48.1996L139.229 37.0275L137.838 32.8379H110.868L106.697 47.3617Z" fill="#FDFBF9"/>
<path d="M227.091 32.8379H29.6781L3.81978 45.1273C2.42955 45.6859 1.59541 46.8031 1.03931 47.9203C-2.29725 52.3892 2.15152 71.1026 18.0002 71.1026C27.1757 71.1026 34.961 63.2821 36.0732 54.065" stroke="#1E1E1E" stroke-miterlimit="10" stroke-linecap="round" stroke-linejoin="round"/>
<path d="M208.462 67.1932C210.687 65.238 212.911 62.445 214.301 58.814C214.301 58.814 214.579 57.6968 214.857 56.021C216.804 64.4001 223.755 70.8241 232.096 70.8241C243.218 71.3827 251.004 60.4899 249.891 51.2728C249.891 46.8039 249.335 46.5246 237.657 38.4248" stroke="#1E1E1E" stroke-miterlimit="10" stroke-linecap="round" stroke-linejoin="round"/>
<path d="M116.428 69.148C121.711 72.2203 128.384 72.7789 134.501 68.5893C139.506 65.517 142.843 59.6516 143.121 52.9483C147.848 79.4822 178.433 73.3375 178.433 52.1104C178.433 52.9483 178.433 52.669 178.433 53.2276C178.433 52.9483 178.711 52.3897 178.989 51.8311C178.989 52.1104 178.989 53.2276 178.989 53.5069C179.267 52.9483 179.267 52.1104 179.267 51.2725C179.267 60.7688 186.774 69.4273 195.95 70.2652" stroke="#1E1E1E" stroke-miterlimit="10" stroke-linecap="round" stroke-linejoin="round"/>
<path d="M43.0244 67.1928C54.9804 76.9685 71.6632 66.9135 71.6632 51.8311C71.6632 61.886 79.4485 71.1031 89.4581 71.1031C98.3556 71.1031 105.863 63.5618 107.253 54.9034C107.531 57.1378 108.365 59.3723 109.199 61.3274" stroke="#1E1E1E" stroke-miterlimit="10" stroke-linecap="round" stroke-linejoin="round"/>
<path d="M195.95 220.531L202.901 225C205.682 223.883 209.574 226.117 211.243 223.045L239.047 178.356C240.716 175.842 241.272 172.491 240.16 169.698L236.267 156.012L230.706 155.453" fill="#BA971A"/>
<path d="M218.194 211.593L239.047 178.077C240.716 175.563 241.272 172.211 240.16 169.418L236.267 155.732L230.706 155.174" stroke="#1E1E1E" stroke-miterlimit="10" stroke-linecap="round" stroke-linejoin="round"/>
<path d="M180.936 210.197L189.833 218.855C192.335 221.09 195.95 220.81 198.452 218.576L234.042 179.753C235.989 177.518 237.101 174.446 236.823 171.373L235.711 155.732L229.316 155.174" fill="#BA971A"/>
<path d="M187.609 216.9L189.833 218.855C192.335 221.09 195.95 220.81 198.452 218.576L234.042 179.753C235.989 177.518 237.101 174.446 236.823 171.373L235.711 155.732L229.316 155.174" stroke="#1E1E1E" stroke-miterlimit="10" stroke-linecap="round" stroke-linejoin="round"/>
<path d="M234.598 155.732L231.54 173.608C230.984 176.68 229.316 179.194 226.813 180.87L182.882 209.08C180.101 210.755 176.209 210.197 174.54 207.124L155.077 176.122C153.409 173.049 153.965 169.418 157.023 167.463L200.955 138.974C203.457 137.298 206.516 137.019 209.574 137.857L227.369 142.884C231.262 144.002 233.486 146.795 234.32 150.426" fill="#F5CB35"/>
<path d="M234.598 155.732L231.54 173.608C230.984 176.68 229.316 179.194 226.813 180.87L182.882 209.08C180.101 210.755 176.209 210.197 174.54 207.124L155.077 176.122C153.409 173.049 153.965 169.418 157.023 167.463L200.955 138.974C203.457 137.298 206.516 137.019 209.574 137.857L227.369 142.884C231.262 144.002 233.486 146.795 234.32 150.426" stroke="#1E1E1E" stroke-miterlimit="10" stroke-linecap="round" stroke-linejoin="round"/>
<path d="M229.315 155.732C229.037 156.291 228.203 156.849 227.647 157.408C225.423 158.805 222.364 158.246 220.974 156.012C219.584 153.777 220.14 150.705 222.364 149.029C224.589 147.632 227.647 148.191 229.037 150.425L229.315 150.705" fill="#FDFBF9"/>
<path d="M247.667 155.733H225.701C224.589 155.733 223.477 154.615 223.477 153.219C223.477 152.102 224.589 150.705 225.701 150.705H247.667C248.779 150.705 249.891 151.822 249.891 153.219C249.891 154.615 248.779 155.733 247.667 155.733Z" fill="#1E1E1E"/>
<path d="M22.4487 153.498H157.023" stroke="#1E1E1E" stroke-miterlimit="10" stroke-linecap="round" stroke-linejoin="round"/>
<path d="M6.60059 223.883H10.7713" stroke="#1E1E1E" stroke-miterlimit="10" stroke-linecap="round" stroke-linejoin="round"/>
<path d="M19.1123 223.883H249.891" stroke="#1E1E1E" stroke-miterlimit="10" stroke-linecap="round" stroke-linejoin="round"/>
</g>
<defs>
<clipPath id="clip0">
<rect width="250" height="250" fill="white"/>
</clipPath>
</defs>
</svg>
