<svg width="250" height="250" viewBox="0 0 250 250" fill="none" xmlns="http://www.w3.org/2000/svg">
<g clip-path="url(#clip0)">
<path d="M83.8138 227.908C96.1987 227.908 106.279 217.558 106.279 204.619C106.279 191.681 96.1987 181.33 83.8138 181.33C71.429 181.33 61.3483 191.681 61.3483 204.619C61.0603 217.27 71.141 227.908 83.8138 227.908Z" fill="#5D6063"/>
<path d="M95.3342 216.12H89.8618V227.621H95.3342V216.12Z" fill="#1C3754"/>
<path d="M90.4381 227.908C102.823 227.908 112.904 217.558 112.904 204.619C112.904 191.681 102.823 181.33 90.4381 181.33C78.0533 181.33 67.9727 191.681 67.9727 204.619C67.9727 217.27 78.0533 227.908 90.4381 227.908Z" fill="#1E1E1E"/>
<path d="M141.416 210.37H136.52V227.909H141.416V210.37Z" fill="#1E1E1E"/>
<path d="M156.682 23.7692L145.45 25.7818L101.671 196.569L94.4702 194.844L138.249 24.6317C138.537 22.9066 140.553 21.7565 142.281 22.044L156.682 23.7692Z" fill="#E2DDD5"/>
<path d="M175.691 28.0818C175.691 26.6442 173.963 25.2066 172.523 25.2066L147.465 22.9064C145.161 22.6189 143.145 24.0565 142.857 26.6442L99.3662 195.994L106.567 197.719L148.617 33.8322C148.905 31.532 151.21 29.8069 153.226 30.3819L171.659 32.107C173.963 32.3946 175.691 30.6694 175.691 28.0818Z" fill="#D3CDC3"/>
<path d="M122.12 197.719L120.104 206.632L36.5784 185.643L0 176.442L2.01617 167.816L38.5945 176.73L122.12 197.719Z" fill="#D3CDC3"/>
<path d="M38.8826 176.73L36.5784 185.643L0 176.442L2.01617 167.816L38.8826 176.73Z" fill="#D3CDC3"/>
<path d="M210.542 24.6319L199.309 26.6445L155.531 197.144L148.33 195.419L192.109 25.2069C192.397 23.4818 194.413 22.3317 196.141 22.6192L210.542 24.6319Z" fill="#E2DDD5"/>
<path d="M229.551 28.9442C229.551 27.5066 227.823 26.069 226.671 26.069L201.901 23.7689C199.597 23.4814 197.581 24.919 197.293 27.2191L153.514 196.568L160.714 198.294L203.053 34.4071C203.341 32.107 205.645 30.3818 207.661 30.9569L226.094 32.682C227.535 33.257 229.551 31.2444 229.551 28.9442Z" fill="#D3CDC3"/>
<path d="M184.619 54.5339L136.52 50.5086L137.96 44.4707L186.059 48.496L184.619 54.5339Z" fill="#D3CDC3"/>
<path d="M187.789 58.559L133.93 53.0961L135.37 47.3457L189.229 52.8086L187.789 58.559Z" fill="#E2DDD5"/>
<path d="M164.459 133.314L116.647 129.289L118.088 123.251L165.899 127.276L164.459 133.314Z" fill="#D3CDC3"/>
<path d="M167.916 137.34L114.056 131.589L115.496 125.839L169.356 131.302L167.916 137.34Z" fill="#E2DDD5"/>
<path d="M149.77 190.243L101.959 186.218L103.399 180.468L151.21 184.493L149.77 190.243Z" fill="#AAB3BF"/>
<path d="M152.939 193.981L99.0791 188.518L100.519 182.48L154.379 187.943L152.939 193.981Z" fill="#D9E0EB"/>
<path d="M14.4009 228.483H250" stroke="#1E1E1E" stroke-miterlimit="10" stroke-linecap="round" stroke-linejoin="round"/>
<path d="M1.15234 228.483H5.76066" stroke="#1E1E1E" stroke-miterlimit="10" stroke-linecap="round" stroke-linejoin="round"/>
<path d="M166.764 51.9463L162.731 66.3223L61.9248 41.0205L65.3811 26.6445L166.764 51.9463Z" fill="#F5CB35"/>
<path d="M161.002 66.0345L146.025 125.839L48.6748 101.399L63.6518 41.8828L161.002 66.0345Z" fill="#F5CB35"/>
<path opacity="0.3" d="M121.544 41.0205L103.11 114.913L112.039 116.926L130.472 42.7456L121.544 41.0205Z" fill="#FDFBF9"/>
<path d="M97.062 34.6953L78.3408 108.875L48.6748 101.4L63.6518 41.8833L61.9237 41.5957L65.38 27.2197L97.062 34.6953Z" fill="#BA971A"/>
<path d="M155.818 127.564L152.362 141.94L150.346 141.653L110.024 131.589L51.2676 116.926L55.2999 102.55L86.694 110.313L155.818 127.564Z" fill="#F5CB35"/>
<path d="M150.346 141.653L144.873 162.642L135.081 200.882L37.7305 176.443L52.7074 116.639L109.447 130.727L150.346 141.653Z" fill="#F5CB35"/>
<path d="M86.6944 110.025L67.9731 184.206L38.3071 177.018L53.2841 117.213L51.268 116.926L55.3003 102.55L86.6944 110.025Z" fill="#BA971A"/>
<path opacity="0.3" d="M110.887 116.351L92.7417 188.806L101.67 190.818L119.815 118.651L110.887 116.351Z" fill="#FDFBF9"/>
<path d="M146.314 125.264L155.818 127.564L152.362 141.94L150.346 141.653L110.023 131.589L75.4609 122.964" stroke="#1E1E1E" stroke-miterlimit="10" stroke-linecap="round" stroke-linejoin="round"/>
<path d="M64.2284 120.089L51.2676 116.926L55.2999 102.55L86.694 110.313L134.505 122.389" stroke="#1E1E1E" stroke-miterlimit="10" stroke-linecap="round" stroke-linejoin="round"/>
<path d="M82.9494 124.689L109.735 131.302L150.346 141.652L144.873 162.641L135.081 200.882L37.7305 176.442L52.4195 118.363" stroke="#1E1E1E" stroke-miterlimit="10" stroke-linecap="round" stroke-linejoin="round"/>
<path d="M67.9731 184.206L38.3071 177.018L53.2841 117.213L51.268 116.926L55.3003 102.55L86.6944 110.313L71.4293 170.117" stroke="#1E1E1E" stroke-miterlimit="10" stroke-linecap="round" stroke-linejoin="round"/>
<path d="M146.313 181.906L146.601 181.043H140.553C127.592 181.043 117.223 191.394 117.223 204.332C117.223 233.947 163.018 236.247 163.594 204.62C163.882 193.694 156.682 184.493 146.313 181.906Z" fill="#1E1E1E"/>
<path d="M146.025 227.908C158.986 227.908 169.355 217.558 169.355 204.619C169.355 191.681 158.986 181.33 146.025 181.33C133.064 181.33 122.696 191.681 122.696 204.619C122.696 217.27 133.353 227.908 146.025 227.908Z" fill="#5D6063"/>
<path d="M146.026 215.258C151.787 215.258 156.683 210.658 156.683 204.62C156.683 198.582 152.075 193.981 146.026 193.981C139.978 193.981 135.37 198.582 135.37 204.62C135.37 210.658 140.266 215.258 146.026 215.258Z" fill="#1E1E1E"/>
<path d="M93.6055 49.0713L161.29 66.035L155.53 89.0366" stroke="#1E1E1E" stroke-miterlimit="10" stroke-linecap="round" stroke-linejoin="round"/>
<path d="M61.9248 41.0205L93.6069 48.7836" stroke="#1E1E1E" stroke-miterlimit="10" stroke-linecap="round" stroke-linejoin="round"/>
<path d="M48.6748 101.112L60.7716 52.8086" stroke="#1E1E1E" stroke-miterlimit="10" stroke-linecap="round" stroke-linejoin="round"/>
<path d="M95.3349 42.458L78.6298 108.875L48.9639 101.4L57.8925 66.3222" stroke="#1E1E1E" stroke-miterlimit="10" stroke-linecap="round" stroke-linejoin="round"/>
<path d="M61.9248 41.3086L65.3811 26.9326L97.0631 34.6957" stroke="#1E1E1E" stroke-miterlimit="10" stroke-linecap="round" stroke-linejoin="round"/>
<path d="M166.764 51.9463L162.731 66.3223L61.9248 41.0205L65.3811 26.6445L166.764 51.9463Z" stroke="#1E1E1E" stroke-miterlimit="10" stroke-linecap="round" stroke-linejoin="round"/>
</g>
<defs>
<clipPath id="clip0">
<rect width="250" height="250" fill="white"/>
</clipPath>
</defs>
</svg>
