<svg width="249" height="244" viewBox="0 0 249 244" fill="none" xmlns="http://www.w3.org/2000/svg">
<path d="M185.068 243.605C219.838 243.605 247.999 216.631 247.999 182.982C247.999 149.612 219.838 122.359 185.068 122.359C150.298 122.359 122.137 149.334 122.137 182.982C122.137 216.631 150.298 243.605 185.068 243.605Z" fill="#F5CB35"/>
<path d="M194.264 243.047C224.723 238.876 247.999 213.57 247.999 182.98C247.999 153.781 226.448 129.31 197.712 123.47" stroke="#182052" stroke-miterlimit="10" stroke-linecap="round" stroke-linejoin="round"/>
<path d="M128.173 208.844C135.069 223.026 147.713 234.428 163.23 239.989" stroke="#182052" stroke-miterlimit="10" stroke-linecap="round" stroke-linejoin="round"/>
<path d="M157.482 219.689C155.758 219.689 154.321 218.299 154.321 216.63V149.055C154.321 147.387 155.758 145.996 157.482 145.996C159.206 145.996 160.643 147.387 160.643 149.055V216.352C160.643 218.299 159.206 219.689 157.482 219.689Z" fill="#BA971A"/>
<path d="M157.482 207.175C162.367 207.175 166.39 203.56 166.39 198.554C166.39 193.549 162.367 189.934 157.482 189.934C152.597 189.934 148.574 193.549 148.574 198.554C148.574 203.004 152.597 207.175 157.482 207.175Z" fill="white"/>
<path d="M184.782 219.689C183.058 219.689 181.621 218.299 181.621 216.63V149.055C181.621 147.387 183.058 145.996 184.782 145.996C186.506 145.996 187.943 147.387 187.943 149.055V216.352C187.943 218.299 186.506 219.689 184.782 219.689Z" fill="#BA971A"/>
<path d="M185.07 173.805C189.955 173.805 193.978 170.19 193.978 165.184C193.978 160.457 189.955 156.563 185.07 156.563C180.185 156.563 176.162 160.179 176.162 165.184C176.162 169.912 180.185 173.805 185.07 173.805Z" fill="white"/>
<path d="M212.368 219.689C210.644 219.689 209.207 218.299 209.207 216.63V149.055C209.207 147.387 210.644 145.996 212.368 145.996C214.092 145.996 215.529 147.387 215.529 149.055V216.352C215.529 218.299 214.092 219.689 212.368 219.689Z" fill="#BA971A"/>
<path d="M212.367 191.323C217.252 191.323 221.275 187.708 221.275 182.703C221.275 177.697 217.252 174.082 212.367 174.082C207.482 174.082 203.459 177.697 203.459 182.703C203.459 187.43 207.482 191.323 212.367 191.323Z" fill="white"/>
<path d="M198.126 85V105.022C198.126 108.081 196.977 111.14 194.965 113.643L119.103 192.063V192.341L115.368 233.22C109.621 239.338 86.6321 238.226 84.0459 233.22L80.0229 192.898V192.341L4.16085 113.921C2.14935 111.696 1 108.359 1 105.3V85.2781L99.8505 86.9466L198.126 85Z" fill="#F1EEE9"/>
<path d="M119.264 192.159L115.241 232.76C109.494 238.878 86.5057 237.765 83.9195 232.76L79.8965 192.437C85.3563 194.106 92.2528 194.662 98.862 194.662C106.333 194.94 113.23 193.828 119.264 192.159Z" fill="#D3CDC3"/>
<path d="M171.275 79.5316L87.9419 76.4727L0.873047 84.5372V104.003C0.873047 114.571 45.1259 123.191 99.7235 123.191C154.321 123.191 198.574 114.571 198.574 104.003V84.5372L171.275 79.5316Z" fill="#D3CDC3"/>
<path d="M198.575 84.5378C198.575 91.4899 185.357 97.6078 164.38 101.779H164.093C160.644 102.335 156.909 103.17 152.598 103.726C151.449 104.004 150.874 104.004 149.725 104.282C138.23 105.95 125.3 107.063 110.644 107.341C106.909 107.341 103.173 107.619 99.1501 107.619C95.1271 107.619 91.1041 107.619 87.3685 107.341C68.1156 106.785 50.2995 105.116 36.2191 102.057C14.38 97.6078 0.586914 91.4899 0.586914 84.2597C0.586914 77.0294 14.6673 70.6334 36.2191 66.4621C39.38 65.906 42.8283 65.3498 46.5639 64.7936C47.1386 64.7936 47.7134 64.5155 48.5754 64.5155C53.7478 63.9593 59.2076 63.1251 65.242 62.5689C65.8167 62.5689 66.3915 62.2908 67.2536 62.2908C72.1386 61.7347 77.5984 61.7347 83.0582 61.1785H85.0696H87.3685C91.1041 60.9004 95.4145 60.9004 99.1501 60.9004H102.311H104.322C107.196 60.9004 109.495 60.9004 111.794 61.1785C118.69 61.4566 125.587 61.7347 131.909 62.2908H132.196C135.357 62.5689 137.656 62.847 140.529 62.847C145.127 63.4032 149.437 63.9593 154.035 64.7936C157.196 65.3498 159.782 65.906 162.943 66.4621C185.357 71.1896 198.575 77.5856 198.575 84.5378Z" fill="#F1EEE9"/>
<path d="M99.7235 65.0729C125.873 65.0729 150.298 67.2976 168.689 71.747C189.091 76.4745 194.551 82.0362 194.551 84.2609C194.551 86.4856 189.091 92.0473 168.689 96.7748C150.298 101.224 125.873 103.449 99.7235 103.449C73.5741 103.449 49.1489 101.224 30.7581 96.7748C10.3558 92.0473 4.89602 86.4856 4.89602 84.2609C4.89602 82.0362 10.3558 76.4745 30.7581 71.747C49.1489 67.5757 73.5741 65.0729 99.7235 65.0729ZM68.4017 62.5701C29.3213 65.6291 0.873047 74.2498 0.873047 84.539C0.873047 97.0529 45.1259 107.62 99.7235 107.62C154.321 107.62 198.574 97.331 198.574 84.539C198.574 71.747 154.321 61.1797 99.7235 61.1797C88.804 61.1797 78.1718 61.7359 68.4017 62.5701Z" fill="#D3CDC3"/>
<path d="M0.873047 85.3721C0.873047 95.3832 0.873047 100.111 0.873047 102.613C0.873047 104.838 1.44776 109.009 3.74661 111.79C4.03396 112.068 4.32129 112.625 4.60864 112.903M51.4477 161.846C59.7811 170.189 69.2638 180.2 80.4707 191.879V192.435L84.4937 232.758C87.0799 237.764 110.068 238.876 115.815 232.758L119.838 191.879V191.601L195.7 113.181C197.712 110.678 198.861 107.619 198.861 104.56V104.004V87.5968M16.1029 125.417C20.7006 130.144 26.7351 136.54 34.781 144.883" stroke="#182052" stroke-miterlimit="10" stroke-linecap="round" stroke-linejoin="round"/>
<path d="M83.0566 98.1649L80.183 101.502L79.0336 102.892C73.5738 102.614 68.4014 102.336 63.229 101.502C60.3554 101.224 57.7692 100.946 55.183 100.39L47.4244 92.8812L43.4014 88.4318L47.4244 83.1482L72.7117 77.0303C72.9991 77.0303 75.0106 77.3084 75.2979 77.3084C75.8726 77.8645 76.7347 78.1426 77.0221 78.9769L83.6312 92.047C84.4933 94.5497 84.206 96.4963 83.0566 98.1649Z" fill="#DB1E32"/>
<path d="M75.012 78.4205L60.3569 96.218L60.0696 96.4961L47.7132 94.2714L40.8167 93.1591L40.5293 92.881V92.3248C40.5293 91.7687 40.8167 90.9344 41.104 90.3782V90.1001L52.0235 76.4739C53.173 74.8054 55.4719 74.2492 57.4834 74.5273L71.5638 77.3081C72.1385 77.3081 73.0006 77.3081 74.7247 77.5862C75.0121 78.4205 75.012 78.1424 75.012 78.4205Z" fill="#B81527"/>
<path d="M63.2307 102.058C60.3571 101.78 57.7709 101.502 55.1847 100.946C51.1617 100.389 47.7134 99.8333 43.6904 99.2771C43.4031 98.9991 43.403 98.721 43.403 98.1648L42.8284 96.2182C42.8284 95.9401 42.541 95.662 42.541 95.662C42.2537 95.1058 42.2536 94.5497 41.9663 94.2716C41.9663 93.9935 41.679 93.9935 41.679 93.7154C41.679 93.1592 41.3916 93.1592 41.3916 92.6031V92.0469L47.7134 93.4373L59.7824 95.662L60.9318 95.9401L63.2307 102.058Z" fill="#FF2A41"/>
<path d="M131.047 84.8159L127.024 81.7569L113.231 71.4677C112.656 70.9115 112.082 70.3554 111.794 69.5211L111.507 69.243L135.932 46.4399L141.392 41.1562L147.714 45.8837L154.61 76.4733C154.61 76.7514 154.323 76.7514 154.323 77.0294C154.036 77.5856 153.174 78.1418 152.311 78.698L137.944 85.9282C135.645 86.7625 133.059 86.4844 131.047 84.8159Z" fill="#DB1E32"/>
<path d="M154.609 76.4733L133.632 60.0662L133.345 59.7881L136.506 46.1618L135.644 40.0439L136.506 39.4878L137.655 39.2097C138.517 38.9316 139.379 38.6535 141.103 39.7658L157.195 52.2797C159.207 53.6702 160.069 55.8949 159.494 58.3977L156.046 74.2486C155.758 74.8048 155.758 75.639 155.471 76.1952C154.896 76.1952 154.896 76.1952 154.609 76.4733Z" fill="#FF2B41"/>
<path d="M111.794 69.5207C111.507 68.6864 111.507 67.8522 111.507 67.296L113.806 57.0068C113.806 56.7287 113.806 56.4506 114.093 56.1725C114.955 53.3916 114.668 48.9423 118.116 47.5518C118.403 47.2737 118.403 47.2737 118.403 46.9956H118.691C120.128 46.4395 136.219 39.7654 136.219 39.7654C136.794 39.4873 137.369 39.4873 137.944 39.4873C137.944 39.7654 136.507 46.1614 136.507 46.4395L133.346 59.7876L133.059 61.1781L111.794 69.5207Z" fill="#B81527"/>
<path d="M79.0339 45.606L73.8614 45.0498L56.3327 42.2689C55.1832 41.9908 54.0338 41.9908 53.7465 41.1566C53.4591 41.1566 54.0338 41.1566 54.0338 40.8785L64.0913 8.06424V7.50807L66.1028 0.833984L74.1488 1.94633L96.2752 25.8618V26.418C95.9879 27.5303 95.9878 28.0865 95.1257 29.1988L85.9304 42.8251C84.2063 45.3279 81.6201 46.1621 79.0339 45.606Z" fill="#DB1E32"/>
<path d="M95.9891 26.6963L68.4029 22.2469H68.1155L63.2305 8.3426L60.9316 0.83426V0.556174C61.219 0.556174 61.219 0.278087 61.219 0.278087C62.3684 0 62.9432 0 64.0926 0H64.3799L85.3569 3.33704C87.6558 3.61513 89.9547 5.28365 90.5294 7.78643L95.7018 23.9155C95.9891 24.4716 95.9891 25.3059 95.9891 25.8621V26.6963Z" fill="#B81527"/>
<path d="M53.7471 41.1563C53.4597 41.1563 53.4597 41.1563 53.4597 40.8782C52.885 40.3221 52.5977 39.7659 52.3103 38.9316C50.2988 32.2576 48.2873 26.1397 48 25.3054C47.4252 22.5245 45.7012 21.4122 47.4253 17.519C47.4253 17.2409 47.7126 17.2409 47.7126 16.9628L60.931 0.555664C61.2183 0.555664 61.5057 0.555664 61.5057 0.555664L68.1149 20.856L68.4023 22.2464L60.0689 32.8137L59.7816 33.3699L53.7471 41.1563Z" fill="#FF2A41"/>
<path d="M28.46 100.389C26.4485 99.8333 24.7244 99.2771 22.7129 98.999" stroke="#182052" stroke-miterlimit="10" stroke-linecap="round" stroke-linejoin="round"/>
<path d="M161.504 66.4629C162.079 66.4629 162.654 66.741 163.516 66.741C185.355 70.9123 198.573 77.3083 198.573 84.2604C198.573 91.2126 185.355 97.3305 164.378 101.502H164.091C160.642 102.058 156.907 102.892 152.596 103.448C151.447 103.727 150.872 103.727 149.723 104.005C122.711 107.898 86.7918 108.454 57.4814 105.117" stroke="#182052" stroke-miterlimit="10" stroke-linecap="round" stroke-linejoin="round"/>
<path d="M14.0927 95.6619C5.472 92.3249 0.586914 88.4317 0.586914 84.2604C0.586914 71.1903 41.9662 63.1258 86.7938 61.7354" stroke="#182052" stroke-miterlimit="10" stroke-linecap="round" stroke-linejoin="round"/>
</svg>
