<svg width="40" height="40" viewBox="0 0 40 40" fill="none" xmlns="http://www.w3.org/2000/svg">
<path d="M10 0C8.625 0 7.5 1.125 7.5 2.5V37.5C7.5 38.875 8.625 40 10 40H35C36.375 40 37.5 38.875 37.5 37.5V10L27.5 0H10Z" fill="#E6E6E6"/>
<path d="M30 10H37.5L27.5 0V7.5C27.5 8.875 28.625 10 30 10Z" fill="#CECECE"/>
<path d="M37.5 17.5L30 10H37.5V17.5Z" fill="#E6E6E6"/>
<path d="M32.5 32.5C32.5 33.1875 31.9375 33.75 31.25 33.75H3.75C3.0625 33.75 2.5 33.1875 2.5 32.5V20C2.5 19.3125 3.0625 18.75 3.75 18.75H31.25C31.9375 18.75 32.5 19.3125 32.5 20V32.5Z" fill="#DB1E32"/>
<path d="M7.94922 23.6837C7.94922 23.3537 8.20922 22.9937 8.62797 22.9937H10.9367C12.2367 22.9937 13.4067 23.8637 13.4067 25.5312C13.4067 27.1112 12.2367 27.9912 10.9367 27.9912H9.26797V29.3112C9.26797 29.7512 8.98797 29.9999 8.62797 29.9999C8.29797 29.9999 7.94922 29.7512 7.94922 29.3112V23.6837ZM9.26797 24.2524V26.7424H10.9367C11.6067 26.7424 12.1367 26.1512 12.1367 25.5312C12.1367 24.8324 11.6067 24.2524 10.9367 24.2524H9.26797Z" fill="white"/>
<path d="M15.3638 29.9997C15.0338 29.9997 14.6738 29.8197 14.6738 29.381V23.7035C14.6738 23.3447 15.0338 23.0835 15.3638 23.0835H17.6526C22.2201 23.0835 22.1201 29.9997 17.7426 29.9997H15.3638ZM15.9938 24.3035V28.781H17.6526C20.3513 28.781 20.4713 24.3035 17.6526 24.3035H15.9938Z" fill="white"/>
<path d="M23.7411 24.3838V25.9725H26.2898C26.6498 25.9725 27.0098 26.3325 27.0098 26.6813C27.0098 27.0113 26.6498 27.2813 26.2898 27.2813H23.7411V29.38C23.7411 29.73 23.4923 29.9988 23.1423 29.9988C22.7023 29.9988 22.4336 29.73 22.4336 29.38V23.7025C22.4336 23.3438 22.7036 23.0825 23.1423 23.0825H26.6511C27.0911 23.0825 27.3511 23.3438 27.3511 23.7025C27.3511 24.0225 27.0911 24.3825 26.6511 24.3825H23.7411V24.3838Z" fill="white"/>
<path d="M31.25 33.75H7.5V35H31.25C31.9375 35 32.5 34.4375 32.5 33.75V32.5C32.5 33.1875 31.9375 33.75 31.25 33.75Z" fill="#E6E6E6"/>
</svg>
