<svg width="300" height="300" viewBox="0 0 300 300" fill="none" xmlns="http://www.w3.org/2000/svg">
<g clip-path="url(#clip0)">
<path d="M99.7019 282.693C116.904 283.145 137.501 282.693 151.987 282.467C166.473 282.693 187.07 283.145 204.272 282.693C192.275 275.915 185.938 265.071 182.769 255.131C181.411 251.064 180.732 246.998 180.506 243.609H123.468C123.241 246.998 122.336 251.064 121.204 255.131C118.036 265.071 111.472 275.915 99.7019 282.693Z" fill="#D3CDC3"/>
<path d="M208.571 283.37H93.137" stroke="#1E1E1E" stroke-miterlimit="10" stroke-linecap="round" stroke-linejoin="round"/>
<path d="M190.012 269.815C186.617 265.071 184.127 259.875 182.769 254.905C181.411 250.838 180.732 246.772 180.506 243.383H123.468C123.241 246.772 122.336 250.838 121.204 254.905C118.036 264.845 111.698 275.689 99.7019 282.467" stroke="#1E1E1E" stroke-miterlimit="10" stroke-linecap="round" stroke-linejoin="round"/>
<path d="M257.688 93.8245V241.575C257.688 245.19 254.745 247.901 251.35 247.901H50.1327C46.7376 247.901 43.7952 244.964 43.7952 241.575V93.8245C43.7952 90.4357 46.7376 87.4988 50.1327 87.4988H251.35C254.972 87.4988 257.688 90.2098 257.688 93.8245Z" fill="#FDFBF9"/>
<path d="M238.901 117.321V132.457C238.901 134.716 237.09 136.524 234.827 136.524H67.3342C65.0707 136.524 63.26 134.716 63.26 132.457V117.321C63.26 115.061 65.0707 113.254 67.3342 113.254H234.827C237.09 113.028 238.901 115.061 238.901 117.321Z" fill="#F1EEE9"/>
<path d="M86.799 113.028V136.523H67.1073C64.8439 136.523 63.0332 134.716 63.0332 132.457V117.32C63.0332 115.061 64.8439 113.254 67.1073 113.254H86.799V113.028Z" fill="#D3CDC3"/>
<path d="M238.901 148.949V164.086C238.901 166.345 237.09 168.152 234.827 168.152H67.3342C65.0707 168.152 63.26 166.345 63.26 164.086V148.949C63.26 146.69 65.0707 144.883 67.3342 144.883H234.827C237.09 144.657 238.901 146.69 238.901 148.949Z" fill="#F1EEE9"/>
<path d="M86.799 144.656V168.152H67.1073C64.8439 168.152 63.0332 166.345 63.0332 164.086V148.949C63.0332 146.69 64.8439 144.882 67.1073 144.882H86.799V144.656Z" fill="#F5CB35"/>
<path d="M74.1243 161.374C73.6716 161.374 73.2189 161.149 72.9925 160.923L69.3711 157.308C68.6921 156.63 68.6921 155.501 69.3711 154.823C70.0501 154.145 71.1818 154.145 71.8608 154.823L74.1243 157.082L79.5564 151.66C80.2355 150.982 81.3672 150.982 82.0462 151.66C82.7252 152.338 82.7252 153.467 82.0462 154.145L75.4823 160.697C75.0296 161.374 74.5769 161.374 74.1243 161.374Z" fill="#FDFBF9"/>
<path d="M238.901 180.578V195.714C238.901 197.974 237.09 199.781 234.827 199.781H67.3342C65.0707 199.781 63.26 197.974 63.26 195.714V180.578C63.26 178.319 65.0707 176.511 67.3342 176.511H234.827C237.09 176.285 238.901 178.319 238.901 180.578Z" fill="#F1EEE9"/>
<path d="M86.799 176.285V199.781H67.1073C64.8439 199.781 63.0332 197.973 63.0332 195.714V180.578C63.0332 178.318 64.8439 176.511 67.1073 176.511H86.799V176.285Z" fill="#D3CDC3"/>
<path d="M238.9 212.206V218.532H63.0332V212.206C63.0332 209.947 64.8439 208.14 67.1073 208.14H234.6C237.09 207.914 238.9 209.947 238.9 212.206Z" fill="#F1EEE9"/>
<path d="M86.799 207.914V218.306H63.0332V211.98" fill="#D3CDC3"/>
<path d="M60.3174 104.669C61.5674 104.669 62.5808 103.657 62.5808 102.409C62.5808 101.162 61.5674 100.15 60.3174 100.15C59.0673 100.15 58.054 101.162 58.054 102.409C58.054 103.657 59.0673 104.669 60.3174 104.669Z" fill="#F1EEE9"/>
<path d="M67.561 104.669C68.8111 104.669 69.8244 103.657 69.8244 102.409C69.8244 101.162 68.8111 100.15 67.561 100.15C66.311 100.15 65.2976 101.162 65.2976 102.409C65.2976 103.657 66.311 104.669 67.561 104.669Z" fill="#F1EEE9"/>
<path d="M74.8035 104.669C76.0535 104.669 77.0669 103.657 77.0669 102.409C77.0669 101.162 76.0535 100.15 74.8035 100.15C73.5534 100.15 72.54 101.162 72.54 102.409C72.54 103.657 73.5534 104.669 74.8035 104.669Z" fill="#F1EEE9"/>
<path d="M257.688 185.548V241.575C257.688 245.19 254.745 247.901 251.35 247.901H50.1327C46.7376 247.901 43.7952 244.964 43.7952 241.575V93.8245C43.7952 90.4357 46.7376 87.4988 50.1327 87.4988H251.35C254.745 87.4988 257.688 90.4357 257.688 93.8245V151.434" stroke="#1E1E1E" stroke-miterlimit="10" stroke-linecap="round" stroke-linejoin="round"/>
<path d="M178.468 218.758H43.7949" stroke="#1E1E1E" stroke-miterlimit="10" stroke-linecap="round" stroke-linejoin="round"/>
<path d="M185.484 218.758H184.126" stroke="#1E1E1E" stroke-miterlimit="10" stroke-linecap="round" stroke-linejoin="round"/>
<path d="M150.854 238.187C153.729 238.187 156.06 235.86 156.06 232.991C156.06 230.121 153.729 227.794 150.854 227.794C147.979 227.794 145.648 230.121 145.648 232.991C145.648 235.86 147.979 238.187 150.854 238.187Z" fill="#D3CDC3"/>
<path d="M63.0334 212.206C63.0334 209.947 64.8442 208.14 67.1076 208.14H86.7993" fill="#D3CDC3"/>
<path d="M60.9961 274.786C60.9961 279.078 57.601 282.467 53.3005 282.467H10.2957C5.99522 282.467 2.6001 279.078 2.6001 274.786V174.704C2.6001 170.411 5.99522 167.022 10.2957 167.022H53.0742C57.3747 167.022 60.7698 170.411 60.7698 174.704V274.786H60.9961Z" fill="#FDFBF9"/>
<path d="M53.3005 166.796C57.601 166.796 60.9961 170.185 60.9961 174.478V274.56C60.9961 278.852 57.601 282.241 53.3005 282.241H10.2957C5.99522 282.241 2.6001 278.852 2.6001 274.56V174.704C2.6001 170.411 5.99522 167.022 10.2957 167.022H53.3005V166.796Z" fill="#5D6063"/>
<path d="M57.1487 174.704V274.786C57.1487 276.819 55.5643 278.626 53.3009 278.626H53.0746H10.2961H10.0697C8.03265 278.626 6.22192 276.819 6.22192 274.786V174.704C6.22192 172.445 8.03265 170.863 10.0697 170.863H16.1809C17.0863 170.863 17.7653 171.541 17.7653 172.445C17.7653 174.026 19.1234 175.381 20.7078 175.381H42.4365C44.0209 175.381 45.379 174.026 45.379 172.445C45.379 171.541 46.058 170.863 46.737 170.863H52.8482C55.338 170.637 57.1487 172.445 57.1487 174.704Z" fill="#FDFBF9"/>
<path d="M35.4201 172.218H29.7616C29.3089 172.218 28.8562 171.766 28.8562 171.315C28.8562 170.863 29.3089 170.411 29.7616 170.411H35.4201C35.8728 170.411 36.3255 170.863 36.3255 171.315C36.3255 171.766 35.8728 172.218 35.4201 172.218Z" fill="#1E1E1E"/>
<path d="M26.5924 172.218H26.1397C25.6871 172.218 25.2344 171.766 25.2344 171.315C25.2344 170.863 25.6871 170.411 26.1397 170.411H26.5924C27.0451 170.411 27.4978 170.863 27.4978 171.315C27.4978 171.766 27.0451 172.218 26.5924 172.218Z" fill="#1E1E1E"/>
<path d="M51.2632 207.914H12.3325C11.2008 207.914 10.2954 207.01 10.2954 205.88V186.451C10.2954 185.322 11.2008 184.418 12.3325 184.418H51.4895C52.6212 184.418 53.5266 185.322 53.5266 186.451V205.88C53.3002 207.01 52.3949 207.914 51.2632 207.914Z" fill="#F5CB35"/>
<path d="M30.2136 201.136C29.7609 201.136 29.3082 200.91 29.0819 200.684L25.4604 197.07C24.7814 196.392 24.7814 195.262 25.4604 194.585C26.1395 193.907 27.2712 193.907 27.9502 194.585L30.2136 196.844L35.6458 191.422C36.3248 190.744 37.4565 190.744 38.1356 191.422C38.8146 192.099 38.8146 193.229 38.1356 193.907L31.5717 200.458C31.119 200.91 30.6663 201.136 30.2136 201.136Z" fill="#FDFBF9"/>
<path d="M51.2632 237.057H12.3325C11.2008 237.057 10.2954 236.153 10.2954 235.024V215.595C10.2954 214.465 11.2008 213.562 12.3325 213.562H51.4895C52.6212 213.562 53.5266 214.465 53.5266 215.595V235.024C53.3002 236.153 52.3949 237.057 51.2632 237.057Z" fill="#D3CDC3"/>
<path d="M51.2642 266.201H12.3335C11.2018 266.201 10.2964 265.297 10.2964 264.167V244.738C10.2964 243.609 11.2018 242.705 12.3335 242.705H51.4905C52.6222 242.705 53.5276 243.609 53.5276 244.738V264.167C53.3012 265.297 52.3959 266.201 51.2642 266.201Z" fill="#F1EEE9"/>
<path d="M53.3005 274.56V278.626H53.0742H10.2957H10.0693V274.56C10.0693 273.43 10.9747 272.527 12.1064 272.527H51.2634C52.3951 272.527 53.3005 273.43 53.3005 274.56Z" fill="#F1EEE9"/>
<path d="M294.16 229.399C293.933 230.077 293.933 230.98 293.707 231.658C293.028 234.143 292.349 236.402 291.217 238.436C286.011 249.957 276.052 258.542 264.056 261.931C263.377 262.157 262.698 262.383 262.245 262.383C256.134 263.965 249.57 264.19 243.006 262.834C219.693 258.09 204.528 235.046 209.508 211.776C214.261 188.507 237.348 173.371 260.661 178.341C269.036 180.148 276.505 184.215 282.39 190.089C292.802 200.481 297.328 215.166 294.16 229.399Z" fill="#DB1E32"/>
<path d="M242.328 175.631C243.233 175.405 244.365 175.179 245.27 175.179" stroke="#1E1E1E" stroke-miterlimit="10" stroke-linecap="round" stroke-linejoin="round"/>
<path d="M217.204 247.924C208.603 237.757 204.755 223.977 207.698 210.196C210.414 197.092 218.788 186.474 229.653 180.374" stroke="#1E1E1E" stroke-miterlimit="10" stroke-linecap="round" stroke-linejoin="round"/>
<path d="M251.834 174.726C254.776 174.726 257.945 174.952 260.887 175.63C269.488 177.437 277.41 181.73 283.521 187.83C294.386 198.448 298.912 213.811 295.744 228.495C295.517 229.399 295.517 230.077 295.065 230.755C294.386 233.24 293.48 235.498 292.575 237.757C287.143 249.731 276.731 258.542 264.282 262.157C263.603 262.383 262.924 262.608 262.245 262.608C255.907 264.19 249.117 264.416 242.101 263.061C235.99 261.705 230.331 259.22 225.351 256.057" stroke="#1E1E1E" stroke-miterlimit="10" stroke-linecap="round" stroke-linejoin="round"/>
<path d="M234.282 231.084C234.282 228.598 236.998 229.728 238.582 224.306C240.393 217.754 237.677 211.429 244.694 206.007C245.146 205.555 245.825 205.329 246.504 204.877C246.731 204.651 246.957 204.425 246.957 204.199C246.731 201.714 248.541 199.455 251.031 199.229C253.521 199.003 255.784 200.81 256.011 203.296C256.011 203.521 256.011 203.747 256.011 203.747C256.011 204.199 256.237 204.425 256.463 204.651C261.443 207.136 263.48 211.429 263.706 216.851C264.612 229.05 267.328 227.243 268.912 229.276C270.27 231.309 268.233 233.569 265.517 233.569C238.582 234.698 234.282 234.698 234.282 231.084Z" fill="#FDFBF9"/>
<path d="M249.899 241.702C247.636 240.798 246.504 238.313 247.409 236.279C247.409 236.054 247.636 235.828 248.088 235.828C250.578 235.828 252.842 235.828 255.331 235.828C255.558 235.828 256.01 236.054 256.01 236.279C256.689 237.861 256.01 239.894 254.879 241.024C253.521 242.153 251.484 242.379 249.899 241.702Z" fill="#FDFBF9"/>
<path d="M55.1118 58.3552C55.3381 65.8105 49.2269 72.1362 41.7576 72.3621H38.1362L28.1771 72.588C13.2386 73.0399 1.0162 61.0662 0.563513 46.1555C0.337172 31.2449 12.1069 18.8194 27.0454 18.5934C41.984 18.1416 54.4327 30.1153 54.8854 45.0259L55.1118 50.6739V58.3552Z" fill="#F5CB35"/>
<path d="M25.9138 17.0122C26.3664 17.0122 26.8191 17.0122 27.2718 17.0122C42.8894 16.5603 55.5645 28.7599 56.0171 44.1224L56.2435 49.9963L56.4698 57.9035C56.6962 65.5847 50.3586 72.1364 42.663 72.1364H39.0416L28.8562 72.3623C13.2387 72.8141 0.563542 60.6145 0.110859 45.252C-0.568164 38.4744 1.92159 32.1487 6.22207 27.1785" stroke="#1E1E1E" stroke-miterlimit="10" stroke-linecap="round" stroke-linejoin="round"/>
<path d="M16.4075 19.4993C17.5392 19.0475 18.6709 18.5956 20.0289 18.1438" stroke="#1E1E1E" stroke-miterlimit="10" stroke-linecap="round" stroke-linejoin="round"/>
<path d="M24.1042 56.9999C23.1988 56.9999 22.2934 56.774 21.6144 56.0962L15.0505 49.5446C13.6925 48.189 13.6925 46.1558 15.0505 44.8003C16.4086 43.4447 18.4456 43.4447 19.8037 44.8003L23.8778 48.8668L35.8739 36.8931C37.232 35.5376 39.269 35.5376 40.6271 36.8931C41.9851 38.2486 41.9851 40.2819 40.6271 41.6374L26.1412 56.0962C25.6886 56.548 24.7832 56.9999 24.1042 56.9999Z" fill="#FDFBF9"/>
<path d="M23.4238 147.142V142.623" stroke="#F5CB35" stroke-linecap="round" stroke-linejoin="round"/>
<path d="M23.4238 134.264V105.121" stroke="#F5CB35" stroke-linecap="round" stroke-linejoin="round" stroke-dasharray="3.7 3.7"/>
<path d="M23.4241 100.828V96.3098" stroke="#F5CB35" stroke-linecap="round" stroke-linejoin="round"/>
<path d="M23.1981 158.438C24.9481 158.438 26.3669 157.021 26.3669 155.275C26.3669 153.528 24.9481 152.112 23.1981 152.112C21.448 152.112 20.0293 153.528 20.0293 155.275C20.0293 157.021 21.448 158.438 23.1981 158.438Z" stroke="#F5CB35" stroke-miterlimit="10"/>
<path d="M23.1981 90.8877C24.9481 90.8877 26.3669 89.4717 26.3669 87.7249C26.3669 85.9781 24.9481 84.562 23.1981 84.562C21.448 84.562 20.0293 85.9781 20.0293 87.7249C20.0293 89.4717 21.448 90.8877 23.1981 90.8877Z" stroke="#F5CB35" stroke-miterlimit="10"/>
<path d="M71.1814 45.4778H75.7082" stroke="#F5CB35" stroke-linecap="round" stroke-linejoin="round"/>
<path d="M84.7617 45.4778H139.31C147.232 45.4778 153.569 51.8035 153.569 59.7107V141.041" stroke="#F5CB35" stroke-linecap="round" stroke-linejoin="round" stroke-dasharray="3.99 3.99"/>
<path d="M153.342 145.334V149.852" stroke="#F5CB35" stroke-linecap="round" stroke-linejoin="round"/>
<path d="M64.1651 47.9631C65.6651 47.9631 66.8812 46.7493 66.8812 45.252C66.8812 43.7548 65.6651 42.541 64.1651 42.541C62.665 42.541 61.449 43.7548 61.449 45.252C61.449 46.7493 62.665 47.9631 64.1651 47.9631Z" stroke="#F5CB35" stroke-miterlimit="10"/>
<path d="M153.57 159.341C155.07 159.341 156.286 158.127 156.286 156.63C156.286 155.133 155.07 153.919 153.57 153.919C152.07 153.919 150.854 155.133 150.854 156.63C150.854 158.127 152.07 159.341 153.57 159.341Z" stroke="#F5CB35" stroke-miterlimit="10"/>
<path d="M274.89 283.371H283.491" stroke="#1E1E1E" stroke-miterlimit="10" stroke-linecap="round" stroke-linejoin="round"/>
<path d="M2.6001 283.371H264.703" stroke="#1E1E1E" stroke-miterlimit="10" stroke-linecap="round" stroke-linejoin="round"/>
</g>
<defs>
<clipPath id="clip0">
<rect width="300" height="300" fill="white"/>
</clipPath>
</defs>
</svg>
