<svg width="300" height="300" viewBox="0 0 300 300" fill="none" xmlns="http://www.w3.org/2000/svg">
<g clip-path="url(#clip0)">
<path d="M75.3527 219.816L51.5977 282.334H72.42L100.574 231.263L75.3527 219.816Z" fill="#D3CDC3" stroke="#1E1E1E" stroke-miterlimit="10" stroke-linecap="round" stroke-linejoin="round"/>
<path d="M201.753 219.816L225.508 282.334H204.685L176.531 231.263L201.753 219.816Z" fill="#D3CDC3" stroke="#1E1E1E" stroke-miterlimit="10" stroke-linecap="round" stroke-linejoin="round"/>
<path d="M152.19 244.177C214.872 244.177 265.686 193.322 265.686 130.589C265.686 67.8554 214.872 17 152.19 17C89.5076 17 38.6936 67.8554 38.6936 130.589C38.6936 193.322 89.5076 244.177 152.19 244.177Z" fill="#F1EEE9" stroke="#1E1E1E" stroke-miterlimit="10" stroke-linecap="round" stroke-linejoin="round"/>
<path d="M138.699 244.177C201.381 244.177 252.195 193.322 252.195 130.589C252.195 67.8554 201.381 17 138.699 17C76.0167 17 25.2026 67.8554 25.2026 130.589C25.2026 193.322 76.0167 244.177 138.699 244.177Z" fill="#FDFBF9" stroke="#1E1E1E" stroke-miterlimit="10" stroke-linecap="round" stroke-linejoin="round"/>
<path d="M138.699 216.293C185.994 216.293 224.335 177.922 224.335 130.588C224.335 83.2548 185.994 44.8833 138.699 44.8833C91.404 44.8833 53.0637 83.2548 53.0637 130.588C53.0637 177.922 91.404 216.293 138.699 216.293Z" fill="#F1EEE9"/>
<path d="M138.698 190.758C171.902 190.758 198.819 163.819 198.819 130.589C198.819 97.3578 171.902 70.4189 138.698 70.4189C105.495 70.4189 78.5776 97.3578 78.5776 130.589C78.5776 163.819 105.495 190.758 138.698 190.758Z" fill="#FDFBF9"/>
<path d="M138.7 163.755C157.002 163.755 171.839 148.906 171.839 130.589C171.839 112.271 157.002 97.4219 138.7 97.4219C120.397 97.4219 105.56 112.271 105.56 130.589C105.56 148.906 120.397 163.755 138.7 163.755Z" fill="#F1EEE9"/>
<path d="M300 207.781C300 212.184 299.414 216.587 298.534 220.696C297.947 223.337 297.067 225.685 296.188 228.034C290.615 242.709 278.884 254.45 264.221 260.026C263.048 260.32 262.168 260.907 260.995 261.2C255.423 262.961 249.851 263.842 243.692 263.842C212.605 263.842 187.384 238.6 187.384 207.488C187.384 176.376 212.605 151.134 243.692 151.134C274.779 151.721 300 176.669 300 207.781Z" fill="#FDFBF9"/>
<path d="M300 210.717C300 215.12 299.414 219.522 298.534 223.631C297.947 226.273 297.067 228.621 296.188 230.969C290.615 245.645 278.884 257.385 264.221 262.962C263.048 263.255 262.168 263.842 260.995 264.136C255.423 265.897 249.851 266.777 243.692 266.777C212.605 266.777 187.384 241.535 187.384 210.423C187.384 179.311 212.605 154.069 243.692 154.069C274.779 154.656 300 179.605 300 210.717Z" fill="#DB1E32"/>
<path d="M270.086 256.504C268.033 257.678 265.687 258.559 263.634 259.44C262.461 259.733 261.581 260.32 260.408 260.614C254.836 262.375 249.263 263.255 243.105 263.255C212.018 263.255 186.796 238.013 186.796 206.901C186.796 185.475 198.527 166.984 216.124 157.591" stroke="#1E1E1E" stroke-miterlimit="10" stroke-linecap="round" stroke-linejoin="round"/>
<path d="M235.773 151.428C238.119 151.134 240.759 150.841 243.105 150.841C274.192 150.841 299.413 176.083 299.413 207.195C299.413 211.598 298.827 216 297.947 220.109C297.36 222.751 296.481 225.099 295.601 227.447C293.255 233.317 290.029 238.894 285.923 243.884" stroke="#1E1E1E" stroke-miterlimit="10" stroke-linecap="round" stroke-linejoin="round"/>
<path d="M224.628 154.067C224.921 154.067 225.508 153.774 225.801 153.774" stroke="#1E1E1E" stroke-miterlimit="10" stroke-linecap="round" stroke-linejoin="round"/>
<path d="M237.826 233.023C236.066 233.023 234.307 232.436 233.134 230.969L220.23 218.054C217.59 215.412 217.59 211.303 220.23 208.662C222.869 206.02 226.975 206.02 229.614 208.662L237.826 216.88L261.288 193.399C263.927 190.758 268.033 190.758 270.672 193.399C273.312 196.041 273.312 200.15 270.672 202.791L242.518 230.969C241.345 232.143 239.586 233.023 237.826 233.023Z" fill="#FDFBF9"/>
<path d="M81.2177 110.63L139.579 125.892C142.218 126.479 143.685 129.415 143.098 132.056C142.512 134.698 139.579 136.165 136.939 135.578L8.77948 102.118C6.14003 101.531 4.67367 98.5959 5.26021 95.9543C5.84676 93.3127 8.77948 91.8452 11.4189 92.4322L55.4098 103.879" fill="#1E1E1E"/>
<path d="M63.6214 96.8345L62.155 93.8994C60.3954 90.3772 56.8761 87.4421 53.0636 86.5616L13.1786 76.2887C10.2459 75.7017 7.89969 78.3433 9.36605 80.9849L18.4575 99.1825L1.4477 110.629C-0.898481 112.391 -0.311937 115.913 2.62079 116.793L42.5058 127.066C46.3183 128.24 50.7174 127.36 53.9434 125.011L67.7272 115.619C70.0734 114.152 70.6599 111.216 69.4868 108.868L63.6214 96.8345Z" fill="#F5CB35"/>
<path d="M277.124 282.333H279.177" stroke="#1E1E1E" stroke-miterlimit="10" stroke-linecap="round" stroke-linejoin="round"/>
<path d="M6.14014 282.333H265.979" stroke="#1E1E1E" stroke-miterlimit="10" stroke-linecap="round" stroke-linejoin="round"/>
</g>
<defs>
<clipPath id="clip0">
<rect width="300" height="300" fill="white"/>
</clipPath>
</defs>
</svg>
