<svg width="300" height="300" viewBox="0 0 300 300" fill="none" xmlns="http://www.w3.org/2000/svg">
<path d="M273.613 149.523C273.613 187.456 257.409 221.969 231.235 246.221C224.068 253.061 215.967 258.347 208.177 263.322C207.554 263.944 206.93 263.944 206.307 264.565C187.3 275.448 164.865 281.666 141.806 281.666C118.748 281.666 96.3129 275.759 77.3053 264.565C76.6821 263.944 76.0589 263.944 75.4357 263.322C72.3197 261.456 69.5153 259.591 67.0225 258.036C64.8413 256.17 62.037 254.305 59.8558 252.75C29.6307 228.498 10 191.809 10 149.834C10 77.3881 68.8922 18.0012 142.429 18.0012C215.967 17.6903 273.613 77.0771 273.613 149.523Z" fill="#F1EEE9"/>
<path d="M124.357 202.692C122.176 200.515 117.502 197.717 115.321 196.784C114.697 196.162 114.074 196.162 113.451 195.54C108.154 191.809 102.545 188.389 102.545 184.658C102.545 182.481 104.415 179.683 107.842 176.885C109.712 178.75 111.581 180.927 113.139 182.792C115.321 184.036 119.995 188.7 122.176 189.322L122.799 189.944C123.422 189.944 123.422 190.565 124.045 190.565L124.357 202.692ZM229.054 242.179C227.185 238.137 224.692 233.784 221.887 230.053C220.641 228.809 220.018 227.877 218.771 226.322C214.409 221.347 209.112 217.305 203.503 214.196C192.286 208.599 186.365 209.221 175.771 209.221C166.734 208.599 165.488 207.045 165.488 207.045V187.145C178.887 175.33 187.611 166.002 191.662 148.901C199.452 147.036 204.438 139.885 203.815 131.8C201.945 122.473 201.322 130.868 201.322 112.523C201.322 111.279 201.322 110.347 200.699 108.792C200.075 102.884 198.517 96.6658 194.778 89.5145C183.872 72.1027 164.553 59.9766 142.43 59.9766C138.067 59.9766 133.393 60.5984 129.031 61.8421C121.241 63.7077 113.763 67.1279 107.842 71.4808C106.596 72.1027 105.349 73.3464 104.103 74.5901L103.48 75.2119C96.3131 82.0523 91.3275 89.5145 88.2115 98.8423C85.0956 107.859 84.4723 117.498 86.0303 126.515V127.758C86.0303 129.624 86.6535 129.624 85.4071 130.868C84.7839 131.49 84.7839 132.111 84.1607 132.733C82.2911 134.91 81.6679 139.574 82.9143 143.616C86.0303 152.011 91.9507 150.767 97.2479 155.742C97.2479 155.742 96.6247 156.364 96.0015 156.364L90.0811 158.229C63.2836 166.624 53.624 189.633 65.1532 204.246C65.7764 204.868 67.3344 206.112 67.3344 206.734C71.0736 210.465 76.3708 214.818 87.5883 216.372C86.9651 216.372 86.3419 216.372 85.7187 216.994C85.0955 216.994 84.4723 217.616 83.8491 217.616C83.2259 217.616 82.6028 218.238 81.9796 218.238C81.3564 218.86 80.7331 218.86 80.7331 219.482C69.8272 227.877 62.6604 240.625 59.5444 252.751C62.0372 254.616 64.53 256.482 66.7112 258.036C69.8272 259.902 72.0084 261.768 75.1244 263.322C75.7476 263.944 76.3708 263.944 76.994 264.566H205.996C206.619 263.944 207.242 263.944 207.865 263.322C216.279 258.347 224.069 252.44 230.924 246.221C230.301 244.356 229.677 243.423 229.054 242.179Z" fill="#FDFBF9"/>
<path d="M230.924 245.599C186.053 287.574 116.879 290.372 75.1244 262.7C63.2836 255.549 68.5808 258.347 59.5444 252.128C64.53 230.985 78.2404 221.347 81.9796 217.616C82.6028 217.616 83.2259 216.994 83.8491 216.994C84.4723 216.994 85.0955 216.372 85.7187 216.372C86.3419 216.372 86.9651 216.372 87.5883 215.75C77.6172 213.885 72.0084 210.464 67.646 206.111C67.0228 205.49 67.0228 205.49 67.0228 204.868L66.3996 204.246V203.624H98.4943C107.531 216.061 122.799 224.145 139.937 224.145C154.27 224.145 167.358 218.238 176.394 208.599H179.51H182.003H185.119C192.285 208.599 199.141 210.464 204.438 213.574C214.097 218.548 224.069 228.498 229.989 241.557C229.677 243.423 230.301 244.355 230.924 245.599Z" fill="#F5CB35"/>
<path d="M200.075 113.145C189.169 116.876 178.263 118.119 166.734 117.187C149.285 115.943 131.523 108.792 118.125 96.6655C113.762 109.103 102.233 119.052 90.0808 124.338C88.2112 124.96 86.3417 125.582 85.0953 126.203V125.582C83.8489 116.565 84.472 106.926 87.588 97.9092C90.704 88.8923 96.0012 80.8082 102.856 74.2788L103.48 73.6569C104.726 72.4132 105.972 71.7914 107.219 70.5477C114.074 65.5729 121.241 62.7745 128.407 60.909C132.77 59.6653 136.821 59.6653 141.806 59.6653C163.618 59.6653 185.742 71.7914 195.713 90.447C199.452 97.5982 200.387 104.128 201.322 109.724C201.945 111.279 200.075 111.901 200.075 113.145Z" fill="#1E1E1E"/>
<path d="M131.835 239.07C126.849 244.977 118.436 244.977 110.646 244.977C118.436 237.204 113.762 212.33 86.3413 215.439C48.6378 208.288 53.0002 169.422 89.4573 158.229L95.3776 156.363C96.0008 156.363 96.0008 156.985 96.624 156.985C99.74 164.758 103.479 170.977 107.53 176.263C92.2616 188.7 113.45 192.431 123.422 202.069C133.081 207.044 140.248 228.809 131.835 239.07Z" fill="#1E1E1E"/>
<path d="M285.453 249.641C285.453 250.263 285.141 250.885 285.141 251.196C285.141 254.305 265.199 286.952 225.938 280.112C196.647 273.893 177.64 245.288 183.56 216.372C189.792 187.145 218.459 168.49 248.061 174.086C258.344 176.263 268.003 181.548 275.482 189.011C288.881 203.313 294.801 225.7 285.453 249.641Z" fill="#DB1E32"/>
<path d="M203.502 184.347C205.684 182.481 208.176 180.927 210.669 179.683" stroke="#1E1E1E" stroke-miterlimit="10" stroke-linecap="round" stroke-linejoin="round"/>
<path d="M256.786 277.314C219.706 293.171 174.524 260.213 183.56 216.372C185.118 208.91 188.234 202.07 192.597 196.162" stroke="#1E1E1E" stroke-miterlimit="10" stroke-linecap="round" stroke-linejoin="round"/>
<path d="M223.445 174.708C231.235 172.842 239.648 172.221 247.75 174.086C258.032 176.263 267.692 181.548 275.17 189.011C279.533 193.364 282.649 198.96 285.142 204.557C287.634 210.464 289.192 216.683 289.504 222.902C290.75 240.624 284.83 256.482 271.431 268.297" stroke="#1E1E1E" stroke-miterlimit="10" stroke-linecap="round" stroke-linejoin="round"/>
<path d="M205.061 247.775V239.38L220.018 223.212C221.576 221.657 222.51 220.413 222.51 218.548C222.51 216.371 221.264 214.506 219.083 214.506C217.525 214.506 215.032 215.128 215.032 218.548H205.373C205.373 210.775 211.605 206.111 218.771 206.111C226.25 206.111 232.17 210.775 232.17 218.548C232.17 223.212 230.612 225.388 227.184 228.808L217.525 239.069H232.482V247.775H205.061Z" fill="#FDFBF9"/>
<path d="M262.706 242.49V248.086H253.669V242.49H236.531V233.473L250.242 206.733H260.525L246.814 233.473H253.669V227.565H262.706V233.473H265.51V242.49H262.706Z" fill="#FDFBF9"/>
<path d="M185.429 209.221C182.002 209.221 176.393 209.221 174.835 209.221C166.733 208.599 165.798 207.044 165.798 207.044V187.145C171.719 181.86 177.951 176.263 182.002 170.044C186.987 164.137 189.791 156.675 191.661 148.901C192.596 148.59 193.531 148.28 194.465 147.969M201.632 112.834V112.523C201.632 111.279 201.632 110.036 201.009 108.792C200.386 102.884 198.828 96.6658 195.089 89.5145C184.183 72.1027 164.864 59.9766 142.74 59.9766C138.689 59.9766 133.704 60.5984 129.341 61.8421C121.551 63.7077 114.073 67.1279 108.153 71.4808C106.906 72.1027 105.66 73.3464 104.413 74.5901L103.79 75.2119C96.6235 82.0523 91.6379 89.5145 88.5219 98.8423C85.4059 108.17 84.7828 117.498 86.0292 126.515V127.758C86.0292 129.624 86.6523 129.624 85.4059 130.868C84.7827 131.49 84.7827 132.111 84.1595 132.733C82.29 135.221 81.6668 139.574 82.9132 143.616C86.0292 152.011 91.9495 150.767 97.2467 155.742C97.2467 155.742 96.6235 156.364 96.0003 156.364L90.0799 158.229C54.5577 169.112 50.1953 205.49 81.3552 214.818C82.9132 215.129 84.4711 215.129 85.7175 216.061C78.8624 218.549 66.0869 230.364 60.1665 250.263M107.841 176.574C112.515 181.238 111.58 182.481 123.733 190.255C124.667 190.876 124.356 191.809 124.356 193.053C124.356 196.162 124.044 199.271 124.356 202.381C124.356 202.07 123.421 201.448 123.109 201.448C116.877 197.406 113.138 195.229 107.218 191.187C105.971 190.255 104.725 189.322 103.79 188.078C100.674 183.725 103.79 179.994 107.841 176.574Z" stroke="#1E1E1E" stroke-miterlimit="10" stroke-linecap="round" stroke-linejoin="round"/>
<path d="M201.944 151.387H194.777V110.967H201.944C207.865 110.967 212.85 115.941 212.85 121.849V141.126C212.85 146.412 207.865 151.387 201.944 151.387Z" fill="#D3CDC3"/>
<path d="M189.792 171.909H143.675C141.806 171.909 140.559 170.665 140.559 168.799C140.559 166.934 141.806 165.69 143.675 165.69H189.792C194.154 165.69 197.582 161.959 197.582 157.295V151.388C197.582 149.522 198.828 148.278 200.698 148.278C202.567 148.278 203.814 149.522 203.814 151.388V157.295C203.814 165.068 197.582 171.909 189.792 171.909Z" fill="#D3CDC3"/>
<path d="M149.596 174.396H140.559C138.69 174.396 136.82 172.531 136.82 170.665V166.934C136.82 165.068 138.69 163.203 140.559 163.203H149.596C151.465 163.203 153.335 165.068 153.335 166.934V170.665C153.335 172.531 151.465 174.396 149.596 174.396Z" fill="#D3CDC3"/>
<path d="M165.487 186.833C159.567 191.186 145.233 195.539 134.95 192.43" stroke="#1E1E1E" stroke-miterlimit="10" stroke-linecap="round" stroke-linejoin="round"/>
</svg>
