<svg width="300" height="300" viewBox="0 0 300 300" fill="none" xmlns="http://www.w3.org/2000/svg">
<g clip-path="url(#clip0)">
<path d="M291.74 269.371V276.565C291.74 283.225 286.145 288.554 279.218 288.554H25.8435C18.9163 288.554 13.3213 283.225 13.3213 276.565V269.371H127.886C128.952 272.035 131.616 273.9 134.547 273.9H170.248C173.446 273.9 176.11 272.035 176.909 269.371H291.74Z" fill="#F1EEE9"/>
<path d="M291.74 269.371C291.74 276.032 286.145 281.36 279.218 281.36H25.8435C18.9163 281.36 13.3213 276.032 13.3213 269.371H127.886C128.952 272.035 131.616 273.9 134.547 273.9H170.248C173.446 273.9 176.11 272.035 176.909 269.371H291.74Z" fill="#FDFBF9"/>
<path d="M277.353 269.371H27.4419V108.448C27.4419 104.984 30.3726 102.053 33.8362 102.053H270.959C274.422 102.053 277.353 104.984 277.353 108.448V269.371Z" fill="#FDFBF9"/>
<path d="M115.631 102.053H268.295C273.357 102.053 277.354 106.05 277.354 111.112V269.371" stroke="#1E1E1E" stroke-miterlimit="10" stroke-linecap="round" stroke-linejoin="round"/>
<path d="M100.177 102.053H100.71" stroke="#1E1E1E" stroke-miterlimit="10" stroke-linecap="round" stroke-linejoin="round"/>
<path d="M27.4419 269.371V111.112C27.4419 106.05 31.4383 102.053 36.5005 102.053H90.5858" stroke="#1E1E1E" stroke-miterlimit="10" stroke-linecap="round" stroke-linejoin="round"/>
<path d="M122.025 269.371H127.886C128.952 272.035 131.616 273.9 134.547 273.9H170.248C173.446 273.9 176.11 272.035 176.909 269.371H291.474V276.565C291.474 283.225 285.879 288.554 278.952 288.554H25.8435C18.9163 288.554 13.3213 283.225 13.3213 276.565V269.371H105.506" stroke="#1E1E1E" stroke-miterlimit="10" stroke-linecap="round" stroke-linejoin="round"/>
<path d="M139.609 120.171C140.198 120.171 140.675 119.694 140.675 119.105C140.675 118.516 140.198 118.039 139.609 118.039C139.021 118.039 138.544 118.516 138.544 119.105C138.544 119.694 139.021 120.171 139.609 120.171Z" fill="#FDFBF9"/>
<path d="M142.807 120.171C143.396 120.171 143.873 119.694 143.873 119.105C143.873 118.516 143.396 118.039 142.807 118.039C142.219 118.039 141.741 118.516 141.741 119.105C141.741 119.694 142.219 120.171 142.807 120.171Z" fill="#FDFBF9"/>
<path d="M146.004 120.171C146.592 120.171 147.069 119.694 147.069 119.105C147.069 118.516 146.592 118.039 146.004 118.039C145.415 118.039 144.938 118.516 144.938 119.105C144.938 119.694 145.415 120.171 146.004 120.171Z" fill="#FDFBF9"/>
<path d="M173.98 130.828H149.735C149.202 130.828 148.669 130.295 148.669 129.762C148.669 129.229 149.202 128.697 149.735 128.697H173.98C174.513 128.697 175.046 129.229 175.046 129.762C175.046 130.295 174.513 130.828 173.98 130.828Z" fill="#D3CDC3"/>
<path d="M140.675 135.89H139.876C139.343 135.89 138.81 135.357 138.81 134.824C138.81 134.291 139.343 133.759 139.876 133.759H140.675C141.208 133.759 141.741 134.291 141.741 134.824C141.741 135.357 141.208 135.89 140.675 135.89Z" fill="#D3CDC3"/>
<path d="M140.675 150.81H139.876C139.343 150.81 138.81 150.278 138.81 149.745C138.81 149.212 139.343 148.679 139.876 148.679H140.675C141.208 148.679 141.741 149.212 141.741 149.745C141.741 150.278 141.208 150.81 140.675 150.81Z" fill="#D3CDC3"/>
<path d="M168.918 135.89H149.735C149.202 135.89 148.669 135.357 148.669 134.824C148.669 134.291 149.202 133.759 149.735 133.759H168.918C169.45 133.759 169.983 134.291 169.983 134.824C169.983 135.357 169.45 135.89 168.918 135.89Z" fill="#D3CDC3"/>
<path d="M220.604 135.89H172.913C172.38 135.89 171.847 135.357 171.847 134.824C171.847 134.291 172.38 133.759 172.913 133.759H220.604C221.137 133.759 221.67 134.291 221.67 134.824C221.67 135.357 221.137 135.89 220.604 135.89Z" fill="#D3CDC3"/>
<path d="M241.119 135.89H227.264C226.731 135.89 226.198 135.357 226.198 134.824C226.198 134.291 226.731 133.759 227.264 133.759H241.119C241.651 133.759 242.184 134.291 242.184 134.824C242.184 135.357 241.651 135.89 241.119 135.89Z" fill="#D3CDC3"/>
<path d="M252.576 135.89H248.047C247.514 135.89 246.981 135.357 246.981 134.824C246.981 134.291 247.514 133.759 248.047 133.759H252.576C253.109 133.759 253.642 134.291 253.642 134.824C253.642 135.357 253.109 135.89 252.576 135.89Z" fill="#D3CDC3"/>
<path d="M181.172 140.686H156.927C156.394 140.686 155.862 140.153 155.862 139.62C155.862 139.087 156.394 138.554 156.927 138.554H181.172C181.705 138.554 182.238 139.087 182.238 139.62C182.238 140.153 181.705 140.686 181.172 140.686Z" fill="#D3CDC3"/>
<path d="M181.172 160.668H156.927C156.394 160.668 155.862 160.135 155.862 159.602C155.862 159.069 156.394 158.536 156.927 158.536H181.172C181.705 158.536 182.238 159.069 182.238 159.602C182.238 160.135 181.705 160.668 181.172 160.668Z" fill="#D3CDC3"/>
<path d="M174.778 165.73H156.927C156.394 165.73 155.862 165.197 155.862 164.664C155.862 164.131 156.394 163.599 156.927 163.599H174.778C175.311 163.599 175.844 164.131 175.844 164.664C175.844 165.197 175.311 165.73 174.778 165.73Z" fill="#D3CDC3"/>
<path d="M221.937 165.73H179.841C179.308 165.73 178.775 165.197 178.775 164.664C178.775 164.131 179.308 163.599 179.841 163.599H221.937C222.469 163.599 223.002 164.131 223.002 164.664C223.002 165.197 222.469 165.73 221.937 165.73Z" fill="#D3CDC3"/>
<path d="M188.1 145.748H165.453C164.921 145.748 164.388 145.215 164.388 144.682C164.388 144.15 164.921 143.617 165.453 143.617H188.1C188.633 143.617 189.166 144.15 189.166 144.682C189.166 145.215 188.633 145.748 188.1 145.748Z" fill="#D3CDC3"/>
<path d="M200.888 145.748H191.563C191.03 145.748 190.498 145.215 190.498 144.682C190.498 144.15 191.03 143.617 191.563 143.617H200.888C201.421 143.617 201.954 144.15 201.954 144.682C201.954 145.215 201.421 145.748 200.888 145.748Z" fill="#D3CDC3"/>
<path d="M228.064 150.81H165.453C164.921 150.81 164.388 150.278 164.388 149.745C164.388 149.212 164.921 148.679 165.453 148.679H227.798C228.331 148.679 228.864 149.212 228.864 149.745C228.864 150.278 228.597 150.81 228.064 150.81Z" fill="#D3CDC3"/>
<path d="M238.988 150.81H233.126C232.593 150.81 232.061 150.278 232.061 149.745C232.061 149.212 232.593 148.679 233.126 148.679H238.988C239.521 148.679 240.053 149.212 240.053 149.745C240.053 150.278 239.521 150.81 238.988 150.81Z" fill="#D3CDC3"/>
<path d="M261.368 150.81H243.25C242.717 150.81 242.185 150.278 242.185 149.745C242.185 149.212 242.717 148.679 243.25 148.679H261.368C261.9 148.679 262.433 149.212 262.433 149.745C262.433 150.278 261.9 150.81 261.368 150.81Z" fill="#D3CDC3"/>
<path d="M208.349 155.872H165.453C164.921 155.872 164.388 155.339 164.388 154.806C164.388 154.274 164.921 153.741 165.453 153.741H208.349C208.881 153.741 209.414 154.274 209.414 154.806C209.414 155.339 208.881 155.872 208.349 155.872Z" fill="#D3CDC3"/>
<path d="M189.698 175.854H172.913C172.38 175.854 171.847 175.321 171.847 174.789C171.847 174.256 172.38 173.723 172.913 173.723H189.698C190.231 173.723 190.764 174.256 190.764 174.789C190.764 175.321 190.231 175.854 189.698 175.854Z" fill="#D3CDC3"/>
<path d="M211.279 175.854H193.429C192.896 175.854 192.363 175.321 192.363 174.789C192.363 174.256 192.896 173.723 193.429 173.723H211.279C211.812 173.723 212.345 174.256 212.345 174.789C212.345 175.321 211.812 175.854 211.279 175.854Z" fill="#D3CDC3"/>
<path d="M227.265 175.854H214.743C214.21 175.854 213.677 175.321 213.677 174.789C213.677 174.256 214.21 173.723 214.743 173.723H227.265C227.798 173.723 228.331 174.256 228.331 174.789C228.331 175.321 227.798 175.854 227.265 175.854Z" fill="#D3CDC3"/>
<path d="M238.455 175.854H232.061C231.528 175.854 230.995 175.321 230.995 174.789C230.995 174.256 231.528 173.723 232.061 173.723H238.455C238.988 173.723 239.521 174.256 239.521 174.789C239.521 175.321 238.988 175.854 238.455 175.854Z" fill="#D3CDC3"/>
<path d="M189.698 190.775H172.913C172.38 190.775 171.847 190.242 171.847 189.709C171.847 189.176 172.38 188.643 172.913 188.643H189.698C190.231 188.643 190.764 189.176 190.764 189.709C190.764 190.242 190.231 190.775 189.698 190.775Z" fill="#D3CDC3"/>
<path d="M227.265 205.695H172.913C172.38 205.695 171.847 205.162 171.847 204.629C171.847 204.096 172.38 203.563 172.913 203.563H227.265C227.798 203.563 228.331 204.096 228.331 204.629C228.331 205.162 227.798 205.695 227.265 205.695Z" fill="#D3CDC3"/>
<path d="M197.159 180.65H180.374C179.841 180.65 179.308 180.117 179.308 179.585C179.308 179.052 179.841 178.519 180.374 178.519H197.159C197.692 178.519 198.225 179.052 198.225 179.585C198.225 180.117 197.692 180.65 197.159 180.65Z" fill="#D3CDC3"/>
<path d="M224.333 180.65H200.621C200.088 180.65 199.555 180.117 199.555 179.585C199.555 179.052 200.088 178.519 200.621 178.519H224.333C224.866 178.519 225.399 179.052 225.399 179.585C225.399 180.117 224.866 180.65 224.333 180.65Z" fill="#D3CDC3"/>
<path d="M240.053 180.65H227.798C227.265 180.65 226.732 180.117 226.732 179.585C226.732 179.052 227.265 178.519 227.798 178.519H240.053C240.586 178.519 241.119 179.052 241.119 179.585C241.119 180.117 240.586 180.65 240.053 180.65Z" fill="#D3CDC3"/>
<path d="M247.514 180.65H243.517C242.984 180.65 242.451 180.117 242.451 179.585C242.451 179.052 242.984 178.519 243.517 178.519H247.514C248.046 178.519 248.579 179.052 248.579 179.585C248.579 180.117 248.046 180.65 247.514 180.65Z" fill="#D3CDC3"/>
<path d="M200.889 185.712H180.374C179.841 185.712 179.308 185.18 179.308 184.647C179.308 184.114 179.841 183.581 180.374 183.581H200.889C201.422 183.581 201.955 184.114 201.955 184.647C201.955 185.18 201.422 185.712 200.889 185.712Z" fill="#D3CDC3"/>
<path d="M210.479 185.712H204.884C204.351 185.712 203.819 185.18 203.819 184.647C203.819 184.114 204.351 183.581 204.884 183.581H210.479C211.012 183.581 211.545 184.114 211.545 184.647C211.545 185.18 211.012 185.712 210.479 185.712Z" fill="#D3CDC3"/>
<path d="M256.838 185.712H214.476C213.943 185.712 213.41 185.18 213.41 184.647C213.41 184.114 213.943 183.581 214.476 183.581H256.838C257.371 183.581 257.904 184.114 257.904 184.647C257.904 185.18 257.371 185.712 256.838 185.712Z" fill="#D3CDC3"/>
<path d="M189.699 170.792H165.453C164.921 170.792 164.388 170.259 164.388 169.727C164.388 169.194 164.921 168.661 165.453 168.661H189.699C190.231 168.661 190.764 169.194 190.764 169.727C190.764 170.259 190.231 170.792 189.699 170.792Z" fill="#D3CDC3"/>
<path d="M199.823 170.792H193.429C192.896 170.792 192.363 170.259 192.363 169.727C192.363 169.194 192.896 168.661 193.429 168.661H199.823C200.356 168.661 200.889 169.194 200.889 169.727C200.889 170.259 200.356 170.792 199.823 170.792Z" fill="#D3CDC3"/>
<path d="M189.699 195.837H165.453C164.921 195.837 164.388 195.304 164.388 194.771C164.388 194.238 164.921 193.705 165.453 193.705H189.699C190.231 193.705 190.764 194.238 190.764 194.771C190.764 195.304 190.231 195.837 189.699 195.837Z" fill="#D3CDC3"/>
<path d="M208.615 200.633H165.453C164.921 200.633 164.388 200.1 164.388 199.567C164.388 199.034 164.921 198.501 165.453 198.501H208.615C209.148 198.501 209.681 199.034 209.681 199.567C209.681 200.366 209.148 200.633 208.615 200.633Z" fill="#D3CDC3"/>
<path d="M227.265 200.633H212.079C211.546 200.633 211.013 200.1 211.013 199.567C211.013 199.034 211.546 198.501 212.079 198.501H227.265C227.798 198.501 228.331 199.034 228.331 199.567C228.331 200.366 228.064 200.633 227.265 200.633Z" fill="#D3CDC3"/>
<path d="M237.389 200.633H231.261C230.728 200.633 230.195 200.1 230.195 199.567C230.195 199.034 230.728 198.501 231.261 198.501H237.389C237.922 198.501 238.455 199.034 238.455 199.567C238.455 200.366 237.922 200.633 237.389 200.633Z" fill="#D3CDC3"/>
<path d="M49.2893 121.503V238.465H42.895C41.03 238.465 39.4314 236.867 39.4314 235.002V121.503H49.2893Z" fill="#F1EEE9"/>
<path d="M262.433 114.842H166.252H139.076H42.8952C41.0302 114.842 39.4316 116.441 39.4316 118.306V122.835H135.613H169.716H265.897V118.306C266.163 116.441 264.565 114.842 262.433 114.842Z" fill="#F5CB35"/>
<path d="M43.4283 120.171C44.0168 120.171 44.494 119.694 44.494 119.105C44.494 118.516 44.0168 118.039 43.4283 118.039C42.8397 118.039 42.3625 118.516 42.3625 119.105C42.3625 119.694 42.8397 120.171 43.4283 120.171Z" fill="#FDFBF9"/>
<path d="M46.3594 120.171C46.948 120.171 47.4251 119.694 47.4251 119.105C47.4251 118.516 46.948 118.039 46.3594 118.039C45.7708 118.039 45.2937 118.516 45.2937 119.105C45.2937 119.694 45.7708 120.171 46.3594 120.171Z" fill="#FDFBF9"/>
<path d="M49.5564 120.171C50.145 120.171 50.6222 119.694 50.6222 119.105C50.6222 118.516 50.145 118.039 49.5564 118.039C48.9679 118.039 48.4907 118.516 48.4907 119.105C48.4907 119.694 48.9679 120.171 49.5564 120.171Z" fill="#FDFBF9"/>
<path d="M77.7979 130.828H53.5528C53.0199 130.828 52.4871 130.295 52.4871 129.762C52.4871 129.229 53.0199 128.697 53.5528 128.697H77.7979C78.3308 128.697 78.8636 129.229 78.8636 129.762C78.8636 130.295 78.3308 130.828 77.7979 130.828Z" fill="#D3CDC3"/>
<path d="M44.4942 130.828H43.4285C42.8957 130.828 42.3628 130.295 42.3628 129.762C42.3628 129.229 42.8957 128.697 43.4285 128.697H44.2278C44.7607 128.697 45.2935 129.229 45.2935 129.762C45.56 130.295 45.0271 130.828 44.4942 130.828Z" fill="#D3CDC3"/>
<path d="M44.494 135.89H43.4283C42.8954 135.89 42.3625 135.357 42.3625 134.824C42.3625 134.291 42.8954 133.759 43.4283 133.759H44.2276C44.7604 133.759 45.2933 134.291 45.2933 134.824C45.2933 135.357 45.0268 135.89 44.494 135.89Z" fill="#D3CDC3"/>
<path d="M44.494 140.952H43.4283C42.8954 140.952 42.3625 140.419 42.3625 139.886C42.3625 139.353 42.8954 138.821 43.4283 138.821H44.2276C44.7604 138.821 45.2933 139.353 45.2933 139.886C45.2933 140.419 45.0268 140.952 44.494 140.952Z" fill="#D3CDC3"/>
<path d="M44.494 145.748H43.4283C42.8954 145.748 42.3625 145.215 42.3625 144.682C42.3625 144.149 42.8954 143.616 43.4283 143.616H44.2276C44.7604 143.616 45.2933 144.149 45.2933 144.682C45.2933 145.215 45.0268 145.748 44.494 145.748Z" fill="#D3CDC3"/>
<path d="M44.494 150.81H43.4283C42.8954 150.81 42.3625 150.277 42.3625 149.744C42.3625 149.212 42.8954 148.679 43.4283 148.679H44.2276C44.7604 148.679 45.2933 149.212 45.2933 149.744C45.2933 150.277 45.0268 150.81 44.494 150.81Z" fill="#D3CDC3"/>
<path d="M44.494 155.872H43.4283C42.8954 155.872 42.3625 155.339 42.3625 154.806C42.3625 154.274 42.8954 153.741 43.4283 153.741H44.2276C44.7604 153.741 45.2933 154.274 45.2933 154.806C45.5597 155.339 45.0268 155.872 44.494 155.872Z" fill="#D3CDC3"/>
<path d="M44.494 160.934H43.4283C42.8954 160.934 42.3625 160.401 42.3625 159.868C42.3625 159.336 42.8954 158.803 43.4283 158.803H44.2276C44.7604 158.803 45.2933 159.336 45.2933 159.868C45.5597 160.401 45.0268 160.934 44.494 160.934Z" fill="#D3CDC3"/>
<path d="M44.494 165.996H43.4283C42.8954 165.996 42.3625 165.464 42.3625 164.931C42.3625 164.398 42.8954 163.865 43.4283 163.865H44.2276C44.7604 163.865 45.2933 164.398 45.2933 164.931C45.2933 165.464 45.0268 165.996 44.494 165.996Z" fill="#D3CDC3"/>
<path d="M44.494 171.059H43.4283C42.8954 171.059 42.3625 170.526 42.3625 169.993C42.3625 169.46 42.8954 168.927 43.4283 168.927H44.2276C44.7604 168.927 45.2933 169.46 45.2933 169.993C45.2933 170.526 45.0268 171.059 44.494 171.059Z" fill="#D3CDC3"/>
<path d="M44.494 175.854H43.4283C42.8954 175.854 42.3625 175.321 42.3625 174.789C42.3625 174.256 42.8954 173.723 43.4283 173.723H44.2276C44.7604 173.723 45.2933 174.256 45.2933 174.789C45.2933 175.321 45.0268 175.854 44.494 175.854Z" fill="#D3CDC3"/>
<path d="M44.494 180.917H43.4283C42.8954 180.917 42.3625 180.384 42.3625 179.851C42.3625 179.318 42.8954 178.785 43.4283 178.785H44.2276C44.7604 178.785 45.2933 179.318 45.2933 179.851C45.5597 180.65 45.0268 180.917 44.494 180.917Z" fill="#D3CDC3"/>
<path d="M44.494 185.979H43.4283C42.8954 185.979 42.3625 185.446 42.3625 184.913C42.3625 184.38 42.8954 183.847 43.4283 183.847H44.2276C44.7604 183.847 45.2933 184.38 45.2933 184.913C45.2933 185.446 45.0268 185.979 44.494 185.979Z" fill="#D3CDC3"/>
<path d="M44.494 191.041H43.4283C42.8954 191.041 42.3625 190.508 42.3625 189.975C42.3625 189.443 42.8954 188.91 43.4283 188.91H44.2276C44.7604 188.91 45.2933 189.443 45.2933 189.975C45.2933 190.508 45.0268 191.041 44.494 191.041Z" fill="#D3CDC3"/>
<path d="M44.494 196.103H43.4283C42.8954 196.103 42.3625 195.57 42.3625 195.038C42.3625 194.505 42.8954 193.972 43.4283 193.972H44.2276C44.7604 193.972 45.2933 194.505 45.2933 195.038C45.2933 195.57 45.0268 196.103 44.494 196.103Z" fill="#D3CDC3"/>
<path d="M44.494 201.165H43.4283C42.8954 201.165 42.3625 200.633 42.3625 200.1C42.3625 199.567 42.8954 199.034 43.4283 199.034H44.2276C44.7604 199.034 45.2933 199.567 45.2933 200.1C45.5597 200.633 45.0268 201.165 44.494 201.165Z" fill="#D3CDC3"/>
<path d="M44.494 205.961H43.4283C42.8954 205.961 42.3625 205.428 42.3625 204.896C42.3625 204.363 42.8954 203.83 43.4283 203.83H44.2276C44.7604 203.83 45.2933 204.363 45.2933 204.896C45.2933 205.428 45.0268 205.961 44.494 205.961Z" fill="#D3CDC3"/>
<path d="M72.7357 135.89H53.5528C53.0199 135.89 52.4871 135.357 52.4871 134.824C52.4871 134.291 53.0199 133.759 53.5528 133.759H72.7357C73.2686 133.759 73.8015 134.291 73.8015 134.824C73.8015 135.357 73.2686 135.89 72.7357 135.89Z" fill="#D3CDC3"/>
<path d="M124.156 135.89H76.4654C75.9325 135.89 75.3997 135.357 75.3997 134.824C75.3997 134.291 75.9325 133.759 76.4654 133.759H124.156C124.689 133.759 125.222 134.291 125.222 134.824C125.222 135.357 124.956 135.89 124.156 135.89Z" fill="#D3CDC3"/>
<path d="M144.938 135.89H131.084C130.551 135.89 130.018 135.357 130.018 134.824C130.018 134.291 130.551 133.759 131.084 133.759H144.938C145.471 133.759 146.004 134.291 146.004 134.824C146.004 135.357 145.471 135.89 144.938 135.89Z" fill="#D3CDC3"/>
<path d="M156.395 135.89H151.866C151.333 135.89 150.8 135.357 150.8 134.824C150.8 134.291 151.333 133.759 151.866 133.759H156.395C156.928 133.759 157.461 134.291 157.461 134.824C157.461 135.357 156.928 135.89 156.395 135.89Z" fill="#D3CDC3"/>
<path d="M84.9917 140.686H60.7466C60.2138 140.686 59.6809 140.153 59.6809 139.62C59.6809 139.087 60.2138 138.554 60.7466 138.554H84.9917C85.5246 138.554 86.0575 139.087 86.0575 139.62C86.0575 140.153 85.5246 140.686 84.9917 140.686Z" fill="#D3CDC3"/>
<path d="M84.9917 160.668H60.7466C60.2138 160.668 59.6809 160.135 59.6809 159.602C59.6809 159.069 60.2138 158.536 60.7466 158.536H84.9917C85.5246 158.536 86.0575 159.069 86.0575 159.602C86.0575 160.135 85.5246 160.668 84.9917 160.668Z" fill="#D3CDC3"/>
<path d="M78.5974 165.73H60.7466C60.2138 165.73 59.6809 165.197 59.6809 164.664C59.6809 164.131 60.2138 163.599 60.7466 163.599H78.5974C79.1303 163.599 79.6631 164.131 79.6631 164.664C79.6631 165.197 79.1303 165.73 78.5974 165.73Z" fill="#D3CDC3"/>
<path d="M125.489 165.73H83.3929C82.86 165.73 82.3271 165.197 82.3271 164.664C82.3271 164.131 82.86 163.599 83.3929 163.599H125.489C126.022 163.599 126.555 164.131 126.555 164.664C126.555 165.197 126.022 165.73 125.489 165.73Z" fill="#D3CDC3"/>
<path d="M91.9183 145.748H69.2718C68.7389 145.748 68.2061 145.215 68.2061 144.682C68.2061 144.149 68.7389 143.616 69.2718 143.616H91.9183C92.4512 143.616 92.984 144.149 92.984 144.682C92.984 145.215 92.4512 145.748 91.9183 145.748Z" fill="#D3CDC3"/>
<path d="M104.441 145.748H95.1158C94.5829 145.748 94.05 145.215 94.05 144.682C94.05 144.149 94.5829 143.616 95.1158 143.616H104.441C104.974 143.616 105.507 144.149 105.507 144.682C105.507 145.215 105.24 145.748 104.441 145.748Z" fill="#D3CDC3"/>
<path d="M131.616 150.81H69.2718C68.7389 150.81 68.2061 150.277 68.2061 149.744C68.2061 149.212 68.7389 148.679 69.2718 148.679H131.616C132.149 148.679 132.682 149.212 132.682 149.744C132.682 150.277 132.149 150.81 131.616 150.81Z" fill="#D3CDC3"/>
<path d="M142.807 150.81H136.945C136.412 150.81 135.88 150.277 135.88 149.744C135.88 149.212 136.412 148.679 136.945 148.679H142.807C143.34 148.679 143.873 149.212 143.873 149.744C143.873 150.277 143.34 150.81 142.807 150.81Z" fill="#D3CDC3"/>
<path d="M165.187 150.81H147.069C146.537 150.81 146.004 150.277 146.004 149.744C146.004 149.212 146.537 148.679 147.069 148.679H165.187C165.719 148.679 166.252 149.212 166.252 149.744C166.252 150.277 165.719 150.81 165.187 150.81Z" fill="#D3CDC3"/>
<path d="M112.167 155.872H69.2718C68.7389 155.872 68.2061 155.339 68.2061 154.806C68.2061 154.274 68.7389 153.741 69.2718 153.741H112.167C112.7 153.741 113.233 154.274 113.233 154.806C113.233 155.339 112.7 155.872 112.167 155.872Z" fill="#D3CDC3"/>
<path d="M93.2505 175.854H76.4654C75.9325 175.854 75.3997 175.321 75.3997 174.789C75.3997 174.256 75.9325 173.723 76.4654 173.723H93.2505C93.7833 173.723 94.3162 174.256 94.3162 174.789C94.3162 175.321 94.0497 175.854 93.2505 175.854Z" fill="#D3CDC3"/>
<path d="M114.832 175.854H96.9808C96.4479 175.854 95.915 175.321 95.915 174.789C95.915 174.256 96.4479 173.723 96.9808 173.723H114.832C115.364 173.723 115.897 174.256 115.897 174.789C115.897 175.321 115.364 175.854 114.832 175.854Z" fill="#D3CDC3"/>
<path d="M131.085 175.854H118.562C118.029 175.854 117.497 175.321 117.497 174.789C117.497 174.256 118.029 173.723 118.562 173.723H131.085C131.617 173.723 132.15 174.256 132.15 174.789C132.15 175.321 131.617 175.854 131.085 175.854Z" fill="#D3CDC3"/>
<path d="M142.274 175.854H135.88C135.347 175.854 134.814 175.321 134.814 174.789C134.814 174.256 135.347 173.723 135.88 173.723H142.274C142.807 173.723 143.34 174.256 143.34 174.789C143.34 175.321 142.807 175.854 142.274 175.854Z" fill="#D3CDC3"/>
<path d="M93.2505 190.775H76.4654C75.9325 190.775 75.3997 190.242 75.3997 189.709C75.3997 189.176 75.9325 188.643 76.4654 188.643H93.2505C93.7833 188.643 94.3162 189.176 94.3162 189.709C94.3162 190.242 94.0497 190.775 93.2505 190.775Z" fill="#D3CDC3"/>
<path d="M130.817 205.695H76.732C76.1991 205.695 75.6663 205.162 75.6663 204.629C75.6663 204.096 76.1991 203.563 76.732 203.563H131.084C131.617 203.563 132.149 204.096 132.149 204.629C132.149 205.162 131.617 205.695 130.817 205.695Z" fill="#D3CDC3"/>
<path d="M100.711 180.65H83.9256C83.3927 180.65 82.8599 180.117 82.8599 179.585C82.8599 179.052 83.3927 178.519 83.9256 178.519H100.711C101.244 178.519 101.776 179.052 101.776 179.585C101.776 180.117 101.244 180.65 100.711 180.65Z" fill="#D3CDC3"/>
<path d="M128.153 180.65H104.44C103.908 180.65 103.375 180.117 103.375 179.585C103.375 179.052 103.908 178.519 104.44 178.519H128.153C128.686 178.519 129.218 179.052 129.218 179.585C129.218 180.117 128.686 180.65 128.153 180.65Z" fill="#D3CDC3"/>
<path d="M143.606 180.65H131.35C130.817 180.65 130.284 180.117 130.284 179.585C130.284 179.052 130.817 178.519 131.35 178.519H143.606C144.139 178.519 144.671 179.052 144.671 179.585C144.671 180.117 144.139 180.65 143.606 180.65Z" fill="#D3CDC3"/>
<path d="M151.332 180.65H147.336C146.803 180.65 146.27 180.117 146.27 179.585C146.27 179.052 146.803 178.519 147.336 178.519H151.332C151.865 178.519 152.398 179.052 152.398 179.585C152.398 180.117 151.865 180.65 151.332 180.65Z" fill="#D3CDC3"/>
<path d="M104.707 185.712H84.1919C83.6591 185.712 83.1262 185.18 83.1262 184.647C83.1262 184.114 83.6591 183.581 84.1919 183.581H104.707C105.24 183.581 105.773 184.114 105.773 184.647C105.773 185.18 105.24 185.712 104.707 185.712Z" fill="#D3CDC3"/>
<path d="M114.299 185.712H108.704C108.171 185.712 107.638 185.18 107.638 184.647C107.638 184.114 108.171 183.581 108.704 183.581H114.299C114.832 183.581 115.364 184.114 115.364 184.647C115.364 185.18 114.832 185.712 114.299 185.712Z" fill="#D3CDC3"/>
<path d="M160.391 185.712H118.029C117.496 185.712 116.963 185.18 116.963 184.647C116.963 184.114 117.496 183.581 118.029 183.581H160.391C160.924 183.581 161.457 184.114 161.457 184.647C161.457 185.18 161.19 185.712 160.391 185.712Z" fill="#D3CDC3"/>
<path d="M93.251 170.792H69.0059C68.473 170.792 67.9402 170.259 67.9402 169.727C67.9402 169.194 68.473 168.661 69.0059 168.661H93.251C93.7839 168.661 94.3167 169.194 94.3167 169.727C94.3167 170.259 94.0503 170.792 93.251 170.792Z" fill="#D3CDC3"/>
<path d="M103.641 170.792H97.2471C96.7143 170.792 96.1814 170.259 96.1814 169.727C96.1814 169.194 96.7143 168.661 97.2471 168.661H103.641C104.174 168.661 104.707 169.194 104.707 169.727C104.707 170.259 104.174 170.792 103.641 170.792Z" fill="#D3CDC3"/>
<path d="M93.251 195.837H69.0059C68.473 195.837 67.9402 195.304 67.9402 194.771C67.9402 194.238 68.473 193.705 69.0059 193.705H93.251C93.7839 193.705 94.3167 194.238 94.3167 194.771C94.3167 195.304 94.0503 195.837 93.251 195.837Z" fill="#D3CDC3"/>
<path d="M112.433 200.633H69.2718C68.7389 200.633 68.2061 200.1 68.2061 199.567C68.2061 199.034 68.7389 198.501 69.2718 198.501H112.433C112.966 198.501 113.499 199.034 113.499 199.567C113.499 200.366 112.966 200.633 112.433 200.633Z" fill="#D3CDC3"/>
<path d="M131.084 200.633H115.898C115.365 200.633 114.832 200.1 114.832 199.567C114.832 199.034 115.365 198.501 115.898 198.501H131.084C131.617 198.501 132.15 199.034 132.15 199.567C132.15 200.366 131.617 200.633 131.084 200.633Z" fill="#D3CDC3"/>
<path d="M140.942 200.633H134.814C134.282 200.633 133.749 200.1 133.749 199.567C133.749 199.034 134.282 198.501 134.814 198.501H140.942C141.475 198.501 142.008 199.034 142.008 199.567C142.008 200.366 141.742 200.633 140.942 200.633Z" fill="#D3CDC3"/>
<path d="M166.786 120.17V120.437C168.118 152.408 173.446 194.238 189.699 227.808C206.217 262.444 176.643 245.925 157.993 233.67C156.661 232.87 155.063 232.87 153.73 233.67C135.347 245.925 105.507 262.444 122.025 227.808C138.278 193.971 143.606 152.408 144.938 120.437" fill="#D3CDC3"/>
<path d="M166.786 120.17V120.437C168.118 152.408 173.446 194.238 189.699 227.808C206.217 262.444 176.643 245.925 157.993 233.67C156.661 232.87 155.063 232.87 153.73 233.67C135.347 245.925 105.507 262.444 122.025 227.808C138.278 193.971 143.606 152.408 144.938 120.437" stroke="#1E1E1E" stroke-miterlimit="10"/>
<path d="M180.905 234.735C176.376 232.604 169.982 228.874 161.722 223.279L155.861 219.282L149.999 223.279C141.74 228.874 135.346 232.604 130.816 234.735C131.083 234.203 131.349 233.403 131.616 232.87C147.868 199.034 153.463 158.803 155.328 127.631H156.394C157.992 158.536 163.854 199.034 180.106 232.87C180.372 233.67 180.639 234.203 180.905 234.735Z" fill="#FDFBF9"/>
<path d="M171.581 204.362C171.581 217.417 160.923 228.075 147.868 228.075C141.208 228.075 135.346 225.41 131.083 221.147C126.82 216.885 124.156 211.023 124.156 204.362C124.156 191.307 134.813 180.65 147.868 180.65C151.598 180.65 154.795 181.449 157.993 183.048C165.985 186.778 171.581 195.037 171.581 204.362Z" fill="#F1EEE9"/>
<path d="M164.92 199.833C164.92 212.888 154.263 223.545 141.208 223.545C137.477 223.545 134.28 222.746 131.083 221.414C126.82 217.151 124.156 211.29 124.156 204.629C124.156 191.574 134.813 180.917 147.868 180.917C151.598 180.917 154.795 181.716 157.993 183.314C162.255 187.311 164.92 193.172 164.92 199.833Z" fill="#FDFBF9"/>
<path d="M141.475 228.608C141.475 241.663 130.817 252.32 117.762 252.32C111.102 252.32 105.24 249.655 100.977 245.393C96.7143 241.13 94.05 235.002 94.05 228.608C94.05 215.552 104.707 204.895 117.762 204.895C121.492 204.895 124.689 205.695 127.887 207.293C136.146 211.023 141.475 219.016 141.475 228.608Z" fill="#F1EEE9"/>
<path d="M134.814 223.812C134.814 236.867 124.157 247.524 111.102 247.524C107.372 247.524 104.174 246.725 100.977 245.393C96.7143 241.13 94.05 235.002 94.05 228.608C94.05 215.552 104.707 204.895 117.762 204.895C121.492 204.895 124.689 205.695 127.887 207.293C132.15 211.556 134.814 217.417 134.814 223.812Z" fill="#FDFBF9"/>
<path d="M201.687 226.742C201.687 239.797 191.03 250.455 177.975 250.455C171.314 250.455 165.453 247.79 161.19 243.527C156.927 239.264 154.263 233.403 154.263 226.742C154.263 213.687 164.92 203.03 177.975 203.03C181.705 203.03 184.902 203.829 188.1 205.428C196.092 208.891 201.687 217.151 201.687 226.742Z" fill="#F1EEE9"/>
<path d="M195.027 221.947C195.027 235.002 184.37 245.659 171.314 245.659C167.584 245.659 164.387 244.86 161.19 243.527C156.927 239.264 154.263 233.403 154.263 226.742C154.263 213.687 164.92 203.03 177.975 203.03C181.705 203.03 184.902 203.829 188.1 205.428C192.362 209.424 195.027 215.286 195.027 221.947Z" fill="#FDFBF9"/>
<path d="M89.5209 243.261C89.5209 256.316 78.8638 266.973 65.8087 266.973C59.1479 266.973 53.2865 264.309 49.0236 260.046C44.7607 255.783 42.0964 249.922 42.0964 243.261C42.0964 230.206 52.7536 219.549 65.8087 219.549C69.5387 219.549 72.7359 220.348 75.933 221.947C83.9259 225.677 89.5209 233.936 89.5209 243.261Z" fill="#F1EEE9"/>
<path d="M82.5931 238.465C82.5931 251.52 71.9359 262.178 58.8809 262.178C55.1508 262.178 51.9537 261.378 48.7565 260.046C44.4936 255.783 41.8293 249.922 41.8293 243.261C41.8293 230.206 52.4865 219.549 65.5416 219.549C69.2716 219.549 72.4688 220.348 75.6659 221.947C80.1952 226.21 82.5931 232.071 82.5931 238.465Z" fill="#F1EEE9"/>
<path d="M220.87 243.528C220.87 256.583 210.213 267.24 197.158 267.24C190.497 267.24 184.635 264.576 180.372 260.313C176.11 256.05 173.445 250.188 173.445 243.528C173.445 230.473 184.102 219.815 197.158 219.815C200.888 219.815 204.085 220.615 207.282 222.213C215.275 225.943 220.87 234.203 220.87 243.528Z" fill="#F1EEE9"/>
<path d="M214.209 238.998C214.209 252.053 203.552 262.711 190.497 262.711C186.767 262.711 183.57 261.911 180.372 260.579C176.11 256.316 173.445 250.455 173.445 243.794C173.445 230.739 184.102 220.082 197.158 220.082C200.888 220.082 204.085 220.881 207.282 222.48C211.545 226.476 214.209 232.338 214.209 238.998Z" fill="#F1EEE9"/>
<path d="M170.515 233.137C170.515 246.192 159.858 256.849 146.803 256.849C140.142 256.849 134.28 254.185 130.018 249.922C125.755 245.659 123.09 239.798 123.09 233.137C123.09 220.082 133.748 209.425 146.803 209.425C150.533 209.425 153.73 210.224 156.927 211.822C165.186 215.552 170.515 223.812 170.515 233.137Z" fill="#F1EEE9"/>
<path d="M163.854 228.341C163.854 241.396 153.197 252.053 140.142 252.053C136.412 252.053 133.215 251.254 130.018 249.922C125.755 245.659 123.09 239.798 123.09 233.137C123.09 220.082 133.748 209.425 146.803 209.425C150.533 209.425 153.73 210.224 156.927 211.822C161.19 216.085 163.854 221.947 163.854 228.341Z" fill="#FDFBF9"/>
<path d="M222.202 232.604C222.202 241.396 215.008 248.323 206.483 248.323C202.22 248.323 198.223 246.458 195.292 243.528C192.362 240.597 190.763 236.6 190.763 232.338C190.763 223.545 197.957 216.618 206.483 216.618C208.88 216.618 211.278 217.151 213.143 218.217C218.472 220.881 222.202 226.21 222.202 232.604Z" fill="#F1EEE9"/>
<path d="M217.673 229.407C217.673 238.199 210.479 245.126 201.953 245.126C199.555 245.126 197.157 244.593 195.292 243.528C192.362 240.597 190.763 236.6 190.763 232.338C190.763 223.545 197.957 216.618 206.483 216.618C208.88 216.618 211.278 217.151 213.143 218.217C215.808 221.147 217.673 225.144 217.673 229.407Z" fill="#FDFBF9"/>
<path d="M256.573 257.382C256.573 266.174 249.379 273.101 240.853 273.101C236.59 273.101 232.594 271.236 229.663 268.305C226.732 265.375 225.134 261.378 225.134 257.115C225.134 248.323 232.327 241.396 240.853 241.396C243.251 241.396 245.649 241.929 247.514 242.995C252.842 245.659 256.573 250.987 256.573 257.382Z" fill="#F1EEE9"/>
<path d="M252.043 254.185C252.043 262.977 244.85 269.904 236.324 269.904C233.926 269.904 231.528 269.371 229.663 268.305C226.732 265.375 225.134 261.378 225.134 257.115C225.134 248.323 232.327 241.396 240.853 241.396C243.251 241.396 245.649 241.929 247.514 242.995C250.445 245.925 252.043 249.922 252.043 254.185Z" fill="#F1EEE9"/>
<path d="M55.6838 253.119C55.6838 261.911 48.4902 268.838 39.9645 268.838C35.7016 268.838 31.7052 266.973 28.7744 264.043C25.8437 261.112 24.2451 257.116 24.2451 252.853C24.2451 244.06 31.4387 237.133 39.9645 237.133C42.3623 237.133 44.7602 237.666 46.6252 238.732C51.9538 241.396 55.6838 246.991 55.6838 253.119Z" fill="#F1EEE9"/>
<path d="M51.1545 250.188C51.1545 258.98 43.9609 265.908 35.4352 265.908C33.0373 265.908 30.6394 265.375 28.7744 264.309C25.8437 261.378 24.2451 257.382 24.2451 253.119C24.2451 244.327 31.4387 237.4 39.9645 237.4C42.3623 237.4 44.7602 237.933 46.6252 238.998C49.2895 241.663 51.1545 245.659 51.1545 250.188Z" fill="#FDFBF9"/>
<path d="M57.0164 230.206C57.0164 238.998 49.8228 245.925 41.297 245.925C37.0341 245.925 33.0377 244.06 30.1069 241.13C27.1762 238.199 25.5776 234.202 25.5776 229.94C25.5776 221.147 32.7712 214.22 41.297 214.22C43.6949 214.22 46.0927 214.753 47.9577 215.819C53.2863 218.483 57.0164 223.812 57.0164 230.206Z" fill="#F1EEE9"/>
<path d="M52.487 227.009C52.487 235.801 45.2934 242.728 36.7677 242.728C34.3698 242.728 31.972 242.195 30.1069 241.13C27.1762 238.199 25.5776 234.202 25.5776 229.94C25.5776 221.147 32.7712 214.22 41.297 214.22C43.6949 214.22 46.0927 214.753 47.9577 215.819C50.622 218.75 52.487 222.746 52.487 227.009Z" fill="#FDFBF9"/>
<path d="M269.627 224.877C269.627 233.67 262.434 240.597 253.908 240.597C249.645 240.597 245.649 238.732 242.718 235.801C239.787 232.87 238.188 228.874 238.188 224.611C238.188 215.819 245.382 208.892 253.908 208.892C256.306 208.892 258.704 209.424 260.569 210.49C266.164 213.154 269.627 218.483 269.627 224.877Z" fill="#F1EEE9"/>
<path d="M265.365 221.68C265.365 230.472 258.171 237.4 249.645 237.4C247.248 237.4 244.85 236.867 242.985 235.801C240.054 232.87 238.455 228.874 238.455 224.611C238.455 215.819 245.649 208.892 254.175 208.892C256.573 208.892 258.97 209.424 260.835 210.49C263.5 213.421 265.365 217.417 265.365 221.68Z" fill="#F1EEE9"/>
<path d="M241.919 247.791C241.919 257.116 234.193 264.842 224.868 264.842C220.072 264.842 215.809 262.977 212.878 259.78C209.948 256.583 207.816 252.586 207.816 247.791C207.816 238.465 215.543 230.739 224.868 230.739C227.532 230.739 229.93 231.272 232.061 232.338C238.189 235.002 241.919 240.863 241.919 247.791Z" fill="#F1EEE9"/>
<path d="M237.123 244.327C237.123 253.652 229.397 261.378 220.072 261.378C217.408 261.378 215.01 260.846 212.878 259.78C209.948 256.583 207.816 252.586 207.816 247.791C207.816 238.465 215.543 230.739 224.868 230.739C227.532 230.739 229.93 231.272 232.061 232.338C235.258 235.535 237.123 239.798 237.123 244.327Z" fill="#F1EEE9"/>
<path d="M292.806 242.728C292.806 252.053 285.079 259.78 275.754 259.78C270.958 259.78 266.696 257.915 263.765 254.718C260.834 251.52 258.703 247.524 258.703 242.728C258.703 233.403 266.429 225.677 275.754 225.677C278.418 225.677 280.816 226.21 282.948 227.275C288.809 229.94 292.806 235.801 292.806 242.728Z" fill="#F1EEE9"/>
<path d="M288.01 239.265C288.01 248.59 280.283 256.316 270.958 256.316C268.294 256.316 265.896 255.783 263.765 254.718C260.834 251.52 258.703 247.524 258.703 242.728C258.703 233.403 266.429 225.677 275.754 225.677C278.418 225.677 280.816 226.21 282.948 227.275C286.145 230.473 288.01 234.469 288.01 239.265Z" fill="#FDFBF9"/>
<path d="M116.696 243.528C116.696 254.185 107.904 262.977 97.2467 262.977C91.9181 262.977 86.856 260.845 83.3924 257.115C79.9288 253.652 77.7974 248.856 77.7974 243.528C77.7974 232.87 86.5895 224.078 97.2467 224.078C100.177 224.078 103.108 224.877 105.506 225.943C112.167 229.14 116.696 235.801 116.696 243.528Z" fill="#F1EEE9"/>
<path d="M111.101 239.797C111.101 250.455 102.309 259.247 91.6515 259.247C88.7207 259.247 85.79 258.448 83.3921 257.382C79.9286 253.918 77.7971 249.122 77.7971 243.794C77.7971 233.137 86.5893 224.344 97.2465 224.344C100.177 224.344 103.108 225.144 105.506 226.21C108.969 229.673 111.101 234.469 111.101 239.797Z" fill="#FDFBF9"/>
<path d="M91.6526 253.918C91.6526 263.243 84.1926 270.703 74.8675 270.703C70.3382 270.703 66.0753 268.838 63.1446 265.907C60.2139 262.977 58.3489 258.714 58.3489 254.184C58.3489 244.859 65.8089 237.399 75.134 237.399C77.7983 237.399 80.1961 237.932 82.3276 238.998C87.6562 241.396 91.6526 247.257 91.6526 253.918Z" fill="#F1EEE9"/>
<path d="M86.8564 250.721C86.8564 260.046 79.3964 267.506 70.0714 267.506C67.4071 267.506 65.0092 266.973 62.8778 265.907C59.947 262.977 58.082 258.714 58.082 254.184C58.082 244.859 65.5421 237.399 74.8671 237.399C77.5314 237.399 79.9293 237.932 82.0607 238.998C84.9914 241.929 86.8564 245.925 86.8564 250.721Z" fill="#F1EEE9"/>
<path d="M66.8743 256.582C66.8743 265.907 59.4142 273.367 50.0892 273.367C45.5599 273.367 41.297 271.502 38.3663 268.572C35.4356 265.641 33.5706 261.378 33.5706 256.849C33.5706 247.524 41.0306 240.064 50.3556 240.064C53.0199 240.064 55.4178 240.597 57.5492 241.662C63.1443 244.06 66.8743 249.922 66.8743 256.582Z" fill="#F1EEE9"/>
<path d="M62.345 253.385C62.345 262.71 54.8849 270.17 45.5599 270.17C42.8956 270.17 40.4977 269.637 38.3663 268.572C35.4356 265.641 33.5706 261.378 33.5706 256.849C33.5706 247.524 41.0306 240.064 50.3556 240.064C53.0199 240.064 55.4178 240.597 57.5492 241.662C60.48 244.593 62.345 248.589 62.345 253.385Z" fill="#FDFBF9"/>
<path d="M138.544 58.8917C136.146 69.8153 133.748 82.604 118.295 96.7247C116.43 98.3233 115.631 100.721 115.631 102.853V109.78H146.537L145.471 52.231L138.544 58.8917Z" fill="#D3CDC3"/>
<path d="M138.544 58.8917C136.146 69.8153 133.748 82.604 118.295 96.7247C116.43 98.3233 115.631 100.721 115.631 102.853V109.78H146.537L145.471 52.231L138.544 58.8917Z" stroke="#1E1E1E" stroke-miterlimit="10"/>
<path d="M174.246 58.8917C176.643 69.8153 179.041 82.604 194.494 96.7247C196.359 98.3233 197.159 100.721 197.159 102.853V109.78H166.253L167.318 52.231L174.246 58.8917Z" fill="#D3CDC3"/>
<path d="M174.246 58.8917C176.643 69.8153 179.041 82.604 194.494 96.7247C196.359 98.3233 197.159 100.721 197.159 102.853V109.78H166.253L167.318 52.231L174.246 58.8917Z" stroke="#1E1E1E" stroke-miterlimit="10"/>
<path d="M174.512 53.0303C174.512 71.414 174.512 110.046 174.512 110.046H138.277C138.277 110.046 138.277 71.414 138.277 53.0303C138.277 34.6467 146.27 25.8545 156.394 15.9966C160.657 20.2595 164.387 24.2559 167.584 28.7852C171.847 34.9131 174.512 42.1067 174.512 53.0303Z" fill="#FDFBF9"/>
<path d="M156.394 15.73C160.657 19.9929 164.387 23.9893 167.584 28.5186C171.847 34.913 174.512 42.373 174.512 53.0302C174.512 71.4139 174.512 110.046 174.512 110.046H138.277C138.277 110.046 138.277 71.4139 138.277 53.0302C138.277 34.3801 146.27 25.8544 156.394 15.73ZM156.394 12L154.529 13.865C145.204 23.1901 135.613 32.7815 135.613 53.0302V110.046V112.71H138.277H174.512H177.176V110.046V53.0302C177.176 42.9059 174.778 34.6465 169.716 27.1865C166.519 22.3908 162.522 18.1279 158.259 14.1314L156.394 12Z" fill="#1E1E1E"/>
<path d="M174.512 53.0304C174.512 71.4141 174.512 110.046 174.512 110.046H161.99C161.724 108.714 161.724 107.116 161.724 105.517C161.724 101.787 161.724 97.7906 161.724 93.7942C161.724 91.3963 161.724 88.732 163.322 86.867C164.121 85.8013 165.454 85.2684 166.519 84.2027C168.384 82.0713 168.384 78.8741 168.384 76.2098C168.118 67.1512 167.852 58.0926 167.585 49.034C167.585 45.8368 167.319 42.3732 167.319 39.1761C167.319 37.5775 167.319 35.7125 167.052 34.1139C167.052 32.7817 166.519 30.6503 167.052 29.0517C167.319 28.5189 167.585 28.2524 167.852 28.2524C171.848 34.9132 174.512 42.1068 174.512 53.0304Z" fill="#F1EEE9"/>
<path d="M156.395 53.2966C159.632 53.2966 162.256 50.6724 162.256 47.4352C162.256 44.198 159.632 41.5737 156.395 41.5737C153.157 41.5737 150.533 44.198 150.533 47.4352C150.533 50.6724 153.157 53.2966 156.395 53.2966Z" fill="#FDFBF9" stroke="#F5CB35" stroke-width="2" stroke-miterlimit="10"/>
<path d="M143.34 116.707H133.216C132.416 116.707 131.884 116.174 131.884 115.375V94.593C131.884 91.1295 134.814 88.1987 138.278 88.1987C141.741 88.1987 144.672 91.1295 144.672 94.593V115.375C144.939 115.907 144.139 116.707 143.34 116.707Z" fill="#FDFBF9" stroke="#1E1E1E" stroke-miterlimit="10"/>
<path d="M179.308 116.707H169.183C168.384 116.707 167.851 116.174 167.851 115.375V94.593C167.851 91.1295 170.782 88.1987 174.246 88.1987C177.709 88.1987 180.64 91.1295 180.64 94.593V115.375C180.64 115.907 180.107 116.707 179.308 116.707Z" fill="#FDFBF9" stroke="#1E1E1E" stroke-miterlimit="10"/>
<path d="M163.322 126.032C163.322 130.028 156.128 139.62 156.128 139.62C156.128 139.62 148.934 130.028 148.934 126.032C148.934 122.035 152.131 118.838 156.128 118.838C160.124 118.838 163.322 122.035 163.322 126.032Z" fill="#DB1E32"/>
<path d="M178.775 122.835C178.775 125.233 174.512 130.561 174.512 130.561C174.512 130.561 170.249 124.966 170.249 122.835C170.249 120.703 172.114 118.572 174.512 118.572C176.91 118.838 178.775 120.703 178.775 122.835Z" fill="#DB1E32"/>
<path d="M142.273 122.835C142.273 125.233 138.011 130.561 138.011 130.561C138.011 130.561 134.014 125.233 134.014 122.835C134.014 120.437 135.879 118.572 138.277 118.572C140.408 118.838 142.273 120.703 142.273 122.835Z" fill="#DB1E32"/>
<path d="M157.727 57.826C157.727 57.2931 157.194 56.7603 156.661 56.7603C156.128 56.7603 155.595 57.2931 155.595 57.826V110.313H157.727V57.826Z" fill="#D3CDC3"/>
<path d="M138.01 250.188C138.01 263.243 127.353 273.901 114.298 273.901C107.637 273.901 101.776 271.236 97.5131 266.973C93.2502 262.711 90.5859 256.849 90.5859 250.188C90.5859 237.133 101.243 226.476 114.298 226.476C118.028 226.476 121.225 227.275 124.423 228.874C132.415 232.604 138.01 240.597 138.01 250.188Z" fill="#F1EEE9"/>
<path d="M131.35 245.393C131.35 258.448 120.692 269.105 107.637 269.105C103.907 269.105 100.71 268.306 97.5131 266.973C93.2502 262.711 90.5859 256.849 90.5859 250.188C90.5859 237.133 101.243 226.476 114.298 226.476C118.028 226.476 121.225 227.275 124.423 228.874C128.685 232.87 131.35 238.998 131.35 245.393Z" fill="#FDFBF9"/>
<path d="M74.8673 236.6C72.7359 247.524 63.1444 256.05 51.4215 256.05C44.7607 256.05 38.8993 253.385 34.6364 249.123C30.3735 244.86 27.7092 238.998 27.7092 232.337C27.7092 219.282 38.3664 208.625 51.4215 208.625C55.1515 208.625 58.3487 209.425 61.5458 211.023C67.1408 213.687 71.6702 218.483 73.8016 224.611" fill="#F1EEE9"/>
<path d="M74.8673 236.6C72.7359 247.524 63.1444 256.05 51.4215 256.05C44.7607 256.05 38.8993 253.385 34.6364 249.123C30.3735 244.86 27.7092 238.998 27.7092 232.337C27.7092 219.282 38.3664 208.625 51.4215 208.625C55.1515 208.625 58.3487 209.425 61.5458 211.023C67.1408 213.687 71.6701 218.483 73.8016 224.611" stroke="#1E1E1E" stroke-miterlimit="10" stroke-linecap="round"/>
<path d="M68.7396 227.542C68.7396 240.597 58.0824 251.254 45.0273 251.254C41.2973 251.254 38.1002 250.455 34.903 249.123C30.6401 244.86 27.9758 238.998 27.9758 232.337C27.9758 219.282 38.633 208.625 51.6881 208.625C55.4181 208.625 58.6153 209.425 61.8124 211.023C66.0753 215.02 68.7396 220.881 68.7396 227.542Z" fill="#FDFBF9"/>
<path d="M168.384 249.389C168.384 262.444 157.727 273.101 144.672 273.101C138.011 273.101 132.15 270.437 127.887 266.174C123.624 261.911 120.959 256.05 120.959 249.389C120.959 236.334 131.617 225.677 144.672 225.677C148.402 225.677 151.599 226.476 154.796 228.075C162.789 231.805 168.384 240.064 168.384 249.389Z" fill="#F1EEE9"/>
<path d="M161.723 244.86C161.723 257.915 151.066 268.572 138.011 268.572C134.281 268.572 131.084 267.773 127.887 266.441C123.624 262.178 120.959 256.316 120.959 249.656C120.959 236.601 131.617 225.943 144.672 225.943C148.402 225.943 151.599 226.743 154.796 228.341C159.059 232.338 161.723 238.199 161.723 244.86Z" fill="#FDFBF9"/>
<path d="M168.384 249.389C168.384 262.444 157.727 273.101 144.672 273.101C138.011 273.101 132.15 270.437 127.887 266.174C123.624 261.911 120.959 256.05 120.959 249.389C120.959 236.334 131.617 225.677 144.672 225.677C148.402 225.677 151.599 226.476 154.796 228.075C162.789 231.805 168.384 240.064 168.384 249.389Z" stroke="#1E1E1E" stroke-miterlimit="10" stroke-linecap="round" stroke-linejoin="round"/>
<path d="M189.431 255.784C189.431 264.842 181.971 272.302 172.913 272.302C168.383 272.302 164.12 270.437 161.19 267.506C158.259 264.576 156.394 260.313 156.394 255.784C156.394 246.725 163.854 239.265 172.913 239.265C175.311 239.265 177.708 239.798 179.84 240.863C185.701 243.528 189.431 249.123 189.431 255.784Z" fill="#F1EEE9"/>
<path d="M184.902 252.586C184.902 261.645 177.442 269.105 168.384 269.105C165.986 269.105 163.588 268.572 161.457 267.506C158.526 264.576 156.661 260.313 156.661 255.784C156.661 246.725 164.121 239.265 173.18 239.265C175.577 239.265 177.975 239.798 180.107 240.863C183.037 243.794 184.902 248.057 184.902 252.586Z" fill="#FDFBF9"/>
<path d="M44.4936 256.849C44.4936 265.907 37.0336 273.367 27.9749 273.367C23.4456 273.367 19.1828 271.502 16.252 268.572C13.3213 265.374 11.4563 261.378 11.4563 256.849C11.4563 247.79 18.9163 240.33 27.9749 240.33C30.3728 240.33 32.7707 240.863 34.9021 241.929C40.7636 244.593 44.4936 250.188 44.4936 256.849Z" fill="#F1EEE9"/>
<path d="M39.9643 253.385C39.9643 262.444 32.5043 269.904 23.4456 269.904C21.0478 269.904 18.6499 269.371 16.5185 268.305C13.3213 265.374 11.4563 261.378 11.4563 256.849C11.4563 247.79 18.9163 240.33 27.9749 240.33C30.3728 240.33 32.7707 240.863 34.9021 241.929C38.0993 244.859 39.9643 248.856 39.9643 253.385Z" fill="#FDFBF9"/>
<path d="M224.601 255.25C224.601 264.309 217.141 271.769 208.082 271.769C203.553 271.769 199.29 269.904 196.359 266.973C193.428 264.043 191.563 259.78 191.563 255.25C191.563 246.192 199.023 238.732 208.082 238.732C210.48 238.732 212.878 239.265 215.009 240.33C220.604 242.995 224.601 248.59 224.601 255.25Z" fill="#F1EEE9"/>
<path d="M219.805 251.787C219.805 260.845 212.345 268.305 203.286 268.305C200.888 268.305 198.49 267.773 196.359 266.707C193.428 263.776 191.563 259.513 191.563 254.984C191.563 245.925 199.023 238.465 208.082 238.465C210.48 238.465 212.878 238.998 215.009 240.064C218.206 243.261 219.805 247.258 219.805 251.787Z" fill="#FDFBF9"/>
<path d="M291.74 253.386C291.74 262.444 284.28 269.904 275.222 269.904C270.692 269.904 266.429 268.039 263.499 265.108C260.568 262.178 258.703 257.915 258.703 253.386C258.703 244.327 266.163 236.867 275.222 236.867C277.619 236.867 280.017 237.4 282.149 238.466C287.744 240.863 291.74 246.725 291.74 253.386Z" fill="#F1EEE9"/>
<path d="M286.944 249.922C286.944 258.981 279.484 266.441 270.426 266.441C268.028 266.441 265.63 265.908 263.498 264.842C260.568 261.911 258.703 257.649 258.703 253.119C258.703 244.061 266.163 236.601 275.221 236.601C277.619 236.601 280.017 237.133 282.148 238.199C285.079 241.396 286.944 245.393 286.944 249.922Z" fill="#F1EEE9"/>
<path d="M261.901 234.202C261.901 243.261 254.441 250.721 245.382 250.721C240.853 250.721 236.59 248.856 233.66 245.925C230.729 242.995 228.864 238.732 228.864 234.202C228.864 225.144 236.324 217.684 245.382 217.684C247.78 217.684 250.178 218.217 252.31 219.282C258.171 221.947 261.901 227.542 261.901 234.202Z" fill="#F1EEE9"/>
<path d="M257.372 231.005C257.372 240.064 249.912 247.524 240.853 247.524C238.455 247.524 236.057 246.991 233.926 245.925C230.995 242.995 229.13 238.732 229.13 234.202C229.13 225.144 236.59 217.684 245.649 217.684C248.047 217.684 250.445 218.217 252.576 219.282C255.507 222.213 257.372 226.476 257.372 231.005Z" fill="#FDFBF9"/>
<path d="M283.482 216.884C283.482 225.943 276.022 233.403 266.963 233.403C262.434 233.403 258.171 231.538 255.241 228.607C252.31 225.677 250.445 221.414 250.445 216.884C250.445 207.826 257.905 200.366 266.963 200.366C269.361 200.366 271.759 200.899 273.891 201.964C279.752 204.629 283.482 210.224 283.482 216.884Z" fill="#F1EEE9"/>
<path d="M278.953 213.421C278.953 222.479 271.493 229.94 262.435 229.94C260.037 229.94 257.639 229.407 255.507 228.341C252.577 225.41 250.712 221.147 250.712 216.618C250.712 207.559 258.172 200.099 267.23 200.099C269.628 200.099 272.026 200.632 274.157 201.698C277.088 204.895 278.953 208.892 278.953 213.421Z" fill="#FDFBF9"/>
<path d="M179.041 249.389C179.041 255.783 173.978 260.846 167.584 260.846C164.387 260.846 161.456 259.513 159.591 257.382C157.46 255.251 156.394 252.586 156.394 249.389C156.394 242.995 161.456 237.933 167.851 237.933C169.716 237.933 171.314 238.199 172.646 238.998C176.376 240.863 179.041 244.86 179.041 249.389Z" fill="#F1EEE9"/>
<path d="M175.843 246.991C175.843 253.386 170.781 258.448 164.387 258.448C162.522 258.448 160.923 258.181 159.591 257.382C157.46 255.251 156.394 252.586 156.394 249.389C156.394 242.995 161.456 237.933 167.851 237.933C169.716 237.933 171.314 238.199 172.646 238.998C174.511 241.13 175.843 244.06 175.843 246.991Z" fill="#FDFBF9"/>
<path d="M300 233.67C300 240.064 294.937 245.126 288.543 245.126C285.346 245.126 282.415 243.794 280.55 241.663C278.419 239.531 277.353 236.867 277.353 233.67C277.353 227.276 282.415 222.213 288.809 222.213C290.675 222.213 292.273 222.48 293.605 223.279C297.335 225.144 300 229.141 300 233.67Z" fill="#F1EEE9"/>
<path d="M296.802 231.538C296.802 237.933 291.74 242.995 285.346 242.995C283.481 242.995 281.882 242.728 280.55 241.929C278.419 239.798 277.353 237.133 277.353 233.936C277.353 227.542 282.415 222.48 288.809 222.48C290.675 222.48 292.273 222.746 293.605 223.545C295.47 225.41 296.802 228.341 296.802 231.538Z" fill="#FDFBF9"/>
<path d="M101.243 242.995C101.243 249.389 96.1813 254.451 89.787 254.451C86.5898 254.451 83.6591 253.119 81.7941 250.988C79.6626 248.856 78.5969 246.192 78.5969 242.995C78.5969 236.6 83.6591 231.538 90.0534 231.538C91.9184 231.538 93.517 231.805 94.8491 232.604C98.5792 234.469 101.243 238.199 101.243 242.995Z" fill="#F1EEE9"/>
<path d="M98.0463 240.597C98.0463 246.991 92.9841 252.053 86.5898 252.053C84.7248 252.053 83.1262 251.787 81.7941 250.988C79.6626 248.856 78.5969 246.192 78.5969 242.995C78.5969 236.6 83.6591 231.538 90.0534 231.538C91.9184 231.538 93.517 231.805 94.8491 232.604C96.7141 234.735 98.0463 237.4 98.0463 240.597Z" fill="#FDFBF9"/>
<path d="M23.1795 257.915C23.1795 264.309 18.1174 269.371 11.7231 269.371C8.5259 269.371 5.59517 268.039 3.73016 265.908C1.59872 263.776 0.533004 261.112 0.533004 257.915C0.266574 251.787 5.32874 246.458 11.7231 246.458C13.5881 246.458 15.1866 246.725 16.5188 247.524C20.5152 249.389 23.1795 253.385 23.1795 257.915Z" fill="#F1EEE9"/>
<path d="M19.9824 255.783C19.9824 262.178 14.9202 267.24 8.5259 267.24C6.66089 267.24 5.06231 266.973 3.73016 266.174C1.59872 264.043 0.533004 261.378 0.533004 258.181C0.266574 251.787 5.32874 246.458 11.7231 246.458C13.5881 246.458 15.1866 246.725 16.5188 247.524C18.6502 249.655 19.9824 252.586 19.9824 255.783Z" fill="#FDFBF9"/>
<path d="M30.1067 240.597C30.1067 246.991 25.0446 252.053 18.6503 252.053C15.4531 252.053 12.5224 250.721 10.6574 248.59C8.52592 246.458 7.46021 243.794 7.46021 240.597C7.46021 234.203 12.5224 229.14 18.9167 229.14C20.7817 229.14 22.3803 229.407 23.7124 230.206C27.4424 232.071 30.1067 236.068 30.1067 240.597Z" fill="#F1EEE9"/>
<path d="M26.9098 238.465C26.9098 244.86 21.8477 249.922 15.4533 249.922C13.5883 249.922 11.9898 249.655 10.6576 248.856C8.52617 246.725 7.46045 244.06 7.46045 240.863C7.46045 234.469 12.5226 229.407 18.9169 229.407C20.7819 229.407 22.3805 229.673 23.7127 230.472C25.5777 232.337 26.9098 235.268 26.9098 238.465Z" fill="#FDFBF9"/>
<path d="M71.4034 236.334C71.4034 242.728 66.3412 247.79 59.9469 247.79C56.7497 247.79 53.819 246.458 51.954 244.327C49.8226 242.195 48.7568 239.531 48.7568 236.334C48.7568 229.94 53.819 224.877 60.2133 224.877C62.0783 224.877 63.6769 225.144 65.0091 225.943C68.7391 227.808 71.4034 231.805 71.4034 236.334Z" fill="#F1EEE9"/>
<path d="M68.206 234.203C68.206 240.597 63.1438 245.659 56.7495 245.659C54.8845 245.659 53.2859 245.393 51.9538 244.593C49.8223 242.462 48.7566 239.798 48.7566 236.601C48.7566 230.206 53.8188 225.144 60.2131 225.144C62.0781 225.144 63.6767 225.41 65.0088 226.21C66.8738 228.075 68.206 231.006 68.206 234.203Z" fill="#FDFBF9"/>
<path d="M235.791 215.819C235.791 218.483 233.66 220.614 230.995 220.614C229.663 220.614 228.331 220.082 227.532 219.282C226.732 218.483 226.199 217.151 226.199 215.819C226.199 213.154 228.331 211.023 230.995 211.023C231.794 211.023 232.327 211.289 233.127 211.556C234.725 212.355 235.791 213.954 235.791 215.819Z" fill="#F1EEE9"/>
<path d="M234.459 215.019C234.459 217.684 232.327 219.815 229.663 219.815C228.864 219.815 228.331 219.549 227.532 219.282C226.732 218.483 226.199 217.151 226.199 215.819C226.199 213.154 228.331 211.023 230.995 211.023C231.794 211.023 232.327 211.289 233.127 211.556C233.926 212.355 234.459 213.687 234.459 215.019Z" fill="#FDFBF9"/>
<path d="M188.1 219.016C188.1 221.68 185.969 223.812 183.305 223.812C181.972 223.812 180.64 223.279 179.841 222.48C179.042 221.68 178.509 220.348 178.509 219.016C178.509 216.352 180.64 214.22 183.305 214.22C184.104 214.22 184.637 214.487 185.436 214.753C187.035 215.552 188.1 217.151 188.1 219.016Z" fill="#F1EEE9"/>
<path d="M186.768 218.217C186.768 220.881 184.637 223.012 181.972 223.012C181.173 223.012 180.64 222.746 179.841 222.48C179.042 221.68 178.509 220.348 178.509 219.016C178.509 216.352 180.64 214.22 183.305 214.22C184.104 214.22 184.637 214.487 185.436 214.753C186.235 215.552 186.768 216.885 186.768 218.217Z" fill="#FDFBF9"/>
<path d="M79.9296 250.188C79.9296 252.852 77.7982 254.984 75.1339 254.984C73.8017 254.984 72.4696 254.451 71.6703 253.652C70.871 252.852 70.3381 251.52 70.3381 250.188C70.3381 247.524 72.4696 245.392 75.1339 245.392C75.9332 245.392 76.466 245.659 77.2653 245.925C78.5975 246.724 79.9296 248.323 79.9296 250.188Z" fill="#F1EEE9"/>
<path d="M78.5975 249.389C78.5975 252.053 76.466 254.185 73.8017 254.185C73.0024 254.185 72.4696 253.918 71.6703 253.652C70.871 252.852 70.3381 251.52 70.3381 250.188C70.3381 247.524 72.4696 245.392 75.1339 245.392C75.9332 245.392 76.466 245.659 77.2653 245.925C78.0646 246.724 78.5975 248.057 78.5975 249.389Z" fill="#FDFBF9"/>
<path d="M95.1157 209.425C95.1157 212.089 92.9842 214.22 90.3199 214.22C88.9878 214.22 87.6556 213.688 86.8563 212.888C86.057 212.089 85.5242 210.757 85.5242 209.425C85.5242 206.76 87.6556 204.629 90.3199 204.629C91.1192 204.629 91.6521 204.895 92.4514 205.162C94.0499 205.695 95.1157 207.56 95.1157 209.425Z" fill="#F1EEE9"/>
<path d="M93.7837 208.359C93.7837 211.023 91.6523 213.154 88.988 213.154C88.1887 213.154 87.6559 212.888 86.8566 212.622C86.0573 211.822 85.5244 210.49 85.5244 209.158C85.5244 206.494 87.6559 204.362 90.3201 204.362C91.1194 204.362 91.6523 204.629 92.4516 204.895C93.2509 205.961 93.7837 207.027 93.7837 208.359Z" fill="#FDFBF9"/>
<path d="M245.382 200.366C245.382 201.698 244.316 202.497 243.251 202.497C242.718 202.497 242.185 202.231 241.652 201.964C241.386 201.698 241.119 200.899 241.119 200.366C241.119 199.034 242.185 198.234 243.251 198.234C243.517 198.234 243.783 198.234 244.316 198.501C244.849 198.767 245.382 199.567 245.382 200.366Z" fill="#F1EEE9"/>
<path d="M244.849 199.833C244.849 201.165 243.784 201.964 242.718 201.964C242.452 201.964 242.185 201.964 241.652 201.698C241.386 201.432 241.119 200.632 241.119 200.099C241.119 198.767 242.185 197.968 243.251 197.968C243.517 197.968 243.784 197.968 244.317 198.234C244.583 198.767 244.849 199.3 244.849 199.833Z" fill="#FDFBF9"/>
<path d="M54.0851 232.87C54.0851 234.203 53.0194 235.002 51.9537 235.002C51.4208 235.002 50.888 234.735 50.3551 234.469C50.0887 234.203 49.8223 233.403 49.8223 232.87C49.8223 231.538 50.888 230.739 51.9537 230.739C52.2201 230.739 52.4866 230.739 53.0194 231.005C53.5523 231.005 54.0851 231.805 54.0851 232.87Z" fill="#F1EEE9"/>
<path d="M53.5523 232.338C53.5523 233.67 52.4866 234.469 51.4208 234.469C51.1544 234.469 50.888 234.469 50.3551 234.203C50.0887 233.936 49.8223 233.137 49.8223 232.604C49.8223 231.272 50.888 230.473 51.9537 230.473C52.2201 230.473 52.4866 230.473 53.0194 230.739C53.2859 231.272 53.5523 231.805 53.5523 232.338Z" fill="#FDFBF9"/>
<path d="M258.437 230.206C258.437 231.538 257.371 232.338 256.306 232.338C255.773 232.338 255.24 232.071 254.707 231.805C254.441 231.538 254.174 230.739 254.174 230.206C254.174 228.874 255.24 228.075 256.306 228.075C256.572 228.075 256.839 228.075 257.371 228.341C257.904 228.608 258.437 229.407 258.437 230.206Z" fill="#F1EEE9"/>
<path d="M257.904 229.94C257.904 231.272 256.839 232.071 255.773 232.071C255.506 232.071 255.24 232.071 254.707 231.805C254.441 231.538 254.174 230.739 254.174 230.206C254.174 228.874 255.24 228.075 256.306 228.075C256.572 228.075 256.839 228.075 257.371 228.341C257.638 228.874 257.904 229.407 257.904 229.94Z" fill="#FDFBF9"/>
<path d="M57.5489 198.767C57.5489 199.833 56.7496 200.632 55.6839 200.632C55.151 200.632 54.6181 200.366 54.3517 200.099C54.0853 199.833 53.8188 199.3 53.8188 198.767C53.8188 197.702 54.6181 196.902 55.6839 196.902C55.9503 196.902 56.2167 196.902 56.4831 197.169C57.016 197.435 57.5489 197.968 57.5489 198.767Z" fill="#F1EEE9"/>
<path d="M57.016 198.501C57.016 199.567 56.2167 200.366 55.151 200.366C54.8846 200.366 54.6181 200.366 54.3517 200.099C54.0853 199.833 53.8188 199.3 53.8188 198.767C53.8188 197.702 54.6181 196.902 55.6839 196.902C55.9503 196.902 56.2167 196.902 56.4831 197.169C56.7496 197.435 57.016 197.968 57.016 198.501Z" fill="#FDFBF9"/>
<path d="M279.485 250.188C279.485 263.243 268.828 273.901 255.773 273.901C249.112 273.901 243.25 271.236 238.987 266.973C234.725 262.711 232.06 256.849 232.06 250.188C232.06 237.133 242.717 226.476 255.773 226.476C259.503 226.476 262.7 227.275 265.897 228.874C273.89 232.338 279.485 240.597 279.485 250.188Z" fill="#F1EEE9"/>
<path d="M272.824 245.393C272.824 258.448 262.167 269.105 249.112 269.105C245.382 269.105 242.185 268.306 238.987 266.973C234.725 262.711 232.06 256.849 232.06 250.188C232.06 237.133 242.717 226.476 255.773 226.476C259.503 226.476 262.7 227.275 265.897 228.874C270.16 232.87 272.824 238.732 272.824 245.393Z" fill="#FDFBF9"/>
<path d="M240.053 232.338C240.853 231.538 241.918 230.739 242.718 230.206" stroke="#1E1E1E" stroke-miterlimit="10" stroke-linecap="round" stroke-linejoin="round"/>
<path d="M248.046 227.808C250.444 227.009 253.108 226.476 255.773 226.476C259.503 226.476 262.7 227.275 265.897 228.874C273.89 232.604 279.485 240.863 279.485 250.455C279.485 263.51 268.828 274.167 255.773 274.167C249.112 274.167 243.25 271.503 238.987 267.24C234.725 262.977 232.06 257.115 232.06 250.455C232.06 247.258 232.86 244.06 233.925 241.13" stroke="#1E1E1E" stroke-miterlimit="10" stroke-linecap="round" stroke-linejoin="round"/>
<path d="M292.54 244.327C296.803 242.728 300 238.465 300 233.67C300 229.14 297.336 225.144 293.339 223.279C291.741 222.48 290.142 222.213 288.544 222.213C285.879 222.213 283.481 223.279 281.35 224.878C282.682 222.48 283.481 219.815 283.481 216.885C283.481 210.224 279.485 204.629 273.89 201.965C271.758 200.899 269.361 200.366 266.963 200.366C260.568 200.366 254.973 203.83 252.309 209.158C246.448 209.691 241.385 213.687 239.254 219.016C234.192 221.147 230.195 225.677 229.13 231.538C227.798 231.272 226.465 231.005 224.867 231.005C223.801 231.005 222.735 231.005 221.936 231.272C221.403 225.677 217.94 220.881 212.877 218.483C210.746 217.417 208.615 216.885 206.217 216.885C204.085 216.885 201.954 217.417 199.822 218.217C197.691 212.622 193.428 207.826 187.833 205.428C184.636 204.096 181.439 203.03 177.709 203.03C175.577 203.03 173.446 203.297 171.314 203.83C171.314 194.504 165.986 186.778 157.993 183.048C154.796 181.716 151.599 180.65 147.869 180.65C134.813 180.65 124.156 191.307 124.156 204.362C124.156 204.895 124.156 205.162 124.156 205.695C122.025 205.162 119.893 204.895 117.762 204.895C106.039 204.895 96.4476 213.421 94.3162 224.345C90.5861 224.877 87.1226 226.476 84.1918 228.874C81.794 225.943 78.8632 223.279 75.3996 221.68C74.3339 221.147 73.0018 220.615 71.9361 220.348C69.5382 216.085 65.8082 212.622 61.5453 210.49C58.3481 209.158 55.151 208.092 51.421 208.092C44.7602 208.092 38.6323 211.023 34.103 215.552C28.7744 217.95 24.778 223.545 24.778 229.94C24.778 230.206 24.778 230.739 24.778 231.005C24.2451 230.739 23.7123 230.206 23.1794 229.94C21.5808 229.14 19.9822 228.874 18.3837 228.874C11.9893 228.874 6.92718 233.936 6.92718 240.33C6.92718 242.728 7.72647 244.86 8.79218 246.458C3.73002 247.524 0 252.053 0 257.648C0 260.846 1.33215 263.776 3.19716 265.641C5.3286 267.773 8.25932 269.105 11.1901 269.105C12.7886 269.105 14.3872 268.838 15.7194 268.039C18.6501 270.97 22.913 272.835 27.4423 272.835C31.7052 272.835 35.7016 271.236 38.6323 268.572C41.5631 271.236 45.5595 272.835 49.8224 272.835C55.151 272.835 59.9467 270.437 62.8774 266.441C63.1439 266.441 63.6767 266.441 63.9432 266.441C66.8739 268.838 70.3375 270.171 74.3339 270.171C80.7282 270.171 86.3233 266.441 89.254 261.112C90.5861 261.645 92.1847 262.178 93.7833 262.444C94.5826 263.776 95.6483 265.375 96.9805 266.441C101.243 270.703 107.105 273.368 113.766 273.368C119.627 273.368 125.222 271.236 129.218 267.506C134.014 271.236 139.076 273.101 144.671 273.101C150.799 273.101 156.661 270.703 160.657 266.707C160.924 266.973 160.924 266.973 161.19 267.24C164.121 270.171 168.384 272.036 172.913 272.036C178.774 272.036 183.837 269.105 186.767 264.576C189.964 266.174 193.428 266.973 196.892 266.973C199.822 269.638 203.819 271.236 208.082 271.236C213.677 271.236 218.739 268.306 221.67 264.043C222.735 264.309 223.801 264.309 224.867 264.309C225.4 264.309 225.932 264.309 226.465 264.309C227.265 265.641 228.064 266.973 229.396 268.306C232.327 271.236 236.323 273.101 240.586 273.101C242.718 273.101 244.849 272.568 246.714 272.036C249.378 273.101 252.575 273.901 255.773 273.901C261.101 273.901 266.163 272.036 270.16 269.105C271.758 269.638 273.357 269.904 275.222 269.904C284.281 269.904 291.741 262.444 291.741 253.385C291.741 252.053 291.474 250.988 291.208 249.655C292.007 248.057 292.54 246.192 292.54 244.327Z" stroke="#1E1E1E" stroke-miterlimit="10"/>
<path d="M230.995 220.881C233.659 220.881 235.79 218.749 235.79 216.085C235.79 214.22 234.725 212.355 232.86 211.556C232.327 211.289 231.527 211.023 230.728 211.023C228.064 211.023 225.932 213.154 225.932 215.818C225.932 217.151 226.465 218.483 227.265 219.282C228.33 220.348 229.662 220.881 230.995 220.881Z" stroke="#1E1E1E" stroke-miterlimit="10"/>
<path d="M90.3195 214.22C92.9838 214.22 95.1152 212.089 95.1152 209.424C95.1152 207.559 94.0495 205.694 92.1845 204.895C91.6516 204.629 90.8523 204.362 90.0531 204.362C87.3888 204.362 85.2573 206.494 85.2573 209.158C85.2573 210.49 85.7902 211.822 86.5895 212.621C87.6552 213.687 88.9873 214.22 90.3195 214.22Z" stroke="#1E1E1E" stroke-miterlimit="10"/>
<path d="M144.937 239.531C148.91 239.531 152.131 236.311 152.131 232.338C152.131 228.365 148.91 225.144 144.937 225.144C140.965 225.144 137.744 228.365 137.744 232.338C137.744 236.311 140.965 239.531 144.937 239.531Z" fill="#F1EEE9"/>
<path d="M62.0786 232.338C66.0515 232.338 69.2722 229.117 69.2722 225.144C69.2722 221.171 66.0515 217.95 62.0786 217.95C58.1057 217.95 54.885 221.171 54.885 225.144C54.885 229.117 58.1057 232.338 62.0786 232.338Z" fill="#F1EEE9"/>
<path d="M36.2343 254.185C39.03 254.185 41.2965 251.918 41.2965 249.122C41.2965 246.327 39.03 244.06 36.2343 244.06C33.4385 244.06 31.1721 246.327 31.1721 249.122C31.1721 251.918 33.4385 254.185 36.2343 254.185Z" fill="#F1EEE9"/>
</g>
<defs>
<clipPath id="clip0">
<rect width="300" height="300" fill="white"/>
</clipPath>
</defs>
</svg>
