<svg width="300" height="300" viewBox="0 0 300 300" fill="none" xmlns="http://www.w3.org/2000/svg">
<g clip-path="url(#clip0)">
<path d="M294.34 123.684C297.387 123.684 299.782 126.088 299.782 129.148V250.461C299.782 253.521 297.387 255.926 294.34 255.926H108.853C105.805 255.926 103.411 253.521 103.411 250.461V129.148C103.411 126.088 105.805 123.684 108.853 123.684H294.34Z" fill="#FDFBF9"/>
<path d="M300 129.148V136.58H103.411V129.148C103.411 126.088 105.805 123.684 108.853 123.684H294.34C297.387 123.684 300 126.088 300 129.148Z" fill="#F1EEE9"/>
<path opacity="0.8" d="M109.942 131.99C110.904 131.99 111.684 131.207 111.684 130.241C111.684 129.276 110.904 128.493 109.942 128.493C108.98 128.493 108.201 129.276 108.201 130.241C108.201 131.207 108.98 131.99 109.942 131.99Z" fill="#FDFBF9"/>
<path opacity="0.5" d="M114.95 131.99C115.912 131.99 116.691 131.207 116.691 130.241C116.691 129.276 115.912 128.493 114.95 128.493C113.988 128.493 113.208 129.276 113.208 130.241C113.208 131.207 113.988 131.99 114.95 131.99Z" fill="#FDFBF9"/>
<path d="M103.411 250.461V129.148C103.411 126.088 105.805 123.684 108.853 123.684H294.34C297.387 123.684 299.782 126.088 299.782 129.148V250.461C299.782 253.521 297.387 255.926 294.34 255.926H124.964" stroke="#1E1E1E" stroke-miterlimit="10" stroke-linecap="round" stroke-linejoin="round"/>
<path opacity="0.2" d="M119.956 131.99C120.918 131.99 121.697 131.207 121.697 130.241C121.697 129.276 120.918 128.493 119.956 128.493C118.994 128.493 118.214 129.276 118.214 130.241C118.214 131.207 118.994 131.99 119.956 131.99Z" fill="#FDFBF9"/>
<path d="M283.89 231.226H266.038C265.385 231.226 264.732 231.882 264.732 232.538V233.63H110.16V235.598H264.732V236.691C264.732 237.346 265.385 238.002 266.038 238.002H283.89C284.543 238.002 285.196 237.346 285.196 236.691V232.538C285.196 231.663 284.761 231.226 283.89 231.226Z" fill="#F1EEE9"/>
<path d="M283.89 207.619H266.038C265.385 207.619 264.732 208.275 264.732 208.931V210.024H110.16V211.991H264.732V213.084C264.732 213.739 265.385 214.395 266.038 214.395H283.89C284.543 214.395 285.196 213.739 285.196 213.084V208.931C285.196 208.056 284.761 207.619 283.89 207.619Z" fill="#F1EEE9"/>
<path d="M283.89 184.012H266.038C265.385 184.012 264.732 184.668 264.732 185.324V186.417H110.16V188.384H264.732V189.477C264.732 190.132 265.385 190.788 266.038 190.788H283.89C284.543 190.788 285.196 190.132 285.196 189.477V185.324C285.196 184.449 284.761 184.012 283.89 184.012Z" fill="#F1EEE9"/>
<path d="M283.89 160.405H266.038C265.385 160.405 264.732 161.061 264.732 161.717V162.81H110.16V164.777H264.732V165.87C264.732 166.526 265.385 167.181 266.038 167.181H283.89C284.543 167.181 285.196 166.526 285.196 165.87V161.717C285.196 160.842 284.761 160.405 283.89 160.405Z" fill="#F1EEE9"/>
<path d="M128.882 211.553H124.963V240.843H128.882V211.553Z" fill="#F5CB35"/>
<path d="M140.421 218.33H136.503V236.69H140.421V218.33Z" fill="#F5CB35"/>
<path d="M154.136 226.854H150.217V246.527H154.136V226.854Z" fill="#DB1E32"/>
<path d="M165.674 218.111H161.755V234.068H165.674V218.111Z" fill="#F5CB35"/>
<path d="M179.391 223.138H175.472V251.117H179.391V223.138Z" fill="#DB1E32"/>
<path d="M190.929 160.187H187.01V229.04H190.929V160.187Z" fill="#F5CB35"/>
<path d="M204.645 163.247H200.726V192.537H204.645V163.247Z" fill="#DB1E32"/>
<path d="M216.183 151.225H212.264V184.012H216.183V151.225Z" fill="#F5CB35"/>
<path d="M229.898 144.23H225.979V208.931H229.898V144.23Z" fill="#F5CB35"/>
<path d="M241.437 166.526H237.518V199.531H241.437V166.526Z" fill="#DB1E32"/>
<path d="M255.152 185.105H251.233V208.275H255.152V185.105Z" fill="#DB1E32"/>
<path d="M190.929 71.2239C193.977 71.2239 196.372 73.6283 196.372 76.6884V198.001C196.372 201.061 193.977 203.466 190.929 203.466H5.44267C2.39477 203.466 0 201.061 0 198.001V76.6884C0 73.6283 2.39477 71.2239 5.44267 71.2239H190.929Z" fill="#FDFBF9"/>
<path d="M196.372 76.6884V84.1202H0V76.6884C0 73.6283 2.39477 71.2239 5.44267 71.2239H190.929C193.977 71.2239 196.372 73.6283 196.372 76.6884Z" fill="#F1EEE9"/>
<path d="M6.53169 79.7488C7.49358 79.7488 8.27335 78.9659 8.27335 78.0001C8.27335 77.0344 7.49358 76.2515 6.53169 76.2515C5.5698 76.2515 4.79004 77.0344 4.79004 78.0001C4.79004 78.9659 5.5698 79.7488 6.53169 79.7488Z" fill="#FDFBF9"/>
<path d="M11.539 79.7488C12.5009 79.7488 13.2807 78.9659 13.2807 78.0001C13.2807 77.0344 12.5009 76.2515 11.539 76.2515C10.5771 76.2515 9.79736 77.0344 9.79736 78.0001C9.79736 78.9659 10.5771 79.7488 11.539 79.7488Z" fill="#FDFBF9"/>
<path d="M16.5451 79.7488C17.507 79.7488 18.2868 78.9659 18.2868 78.0001C18.2868 77.0344 17.507 76.2515 16.5451 76.2515C15.5832 76.2515 14.8035 77.0344 14.8035 78.0001C14.8035 78.9659 15.5832 79.7488 16.5451 79.7488Z" fill="#FDFBF9"/>
<path d="M185.486 71.2239H190.929C193.977 71.2239 196.372 73.6283 196.372 76.6884V198.001C196.372 201.062 193.977 203.466 190.929 203.466H5.44267C2.39477 203.466 0 201.062 0 198.001V102.918" stroke="#1E1E1E" stroke-miterlimit="10" stroke-linecap="round" stroke-linejoin="round"/>
<path d="M45.9363 71.2241H171.989" stroke="#1E1E1E" stroke-miterlimit="10" stroke-linecap="round" stroke-linejoin="round"/>
<path d="M26.7773 71.2241H30.2607" stroke="#1E1E1E" stroke-miterlimit="10" stroke-linecap="round" stroke-linejoin="round"/>
<path d="M0 89.8028V76.9064C0 73.8463 2.39478 71.4419 5.44267 71.4419H16.5457" stroke="#1E1E1E" stroke-miterlimit="10" stroke-linecap="round" stroke-linejoin="round"/>
<path d="M180.697 101.17H103.193V134.176H180.697V101.17Z" fill="#F1EEE9"/>
<path d="M180.697 150.351H103.193V183.357H180.697V150.351Z" fill="#F1EEE9"/>
<path opacity="0.2" d="M161.974 125.87L153.701 118.219L138.244 123.465L129.318 115.815L121.48 112.973L110.377 118.219L103.411 109.913V133.957H161.974V125.87Z" fill="#DB1E32"/>
<path d="M103.411 109.476L110.377 117.563L121.48 112.317L129.318 115.378L138.244 123.028L153.701 117.782L161.756 125.651" stroke="#DB1E32" stroke-width="2" stroke-miterlimit="10" stroke-linejoin="round"/>
<path opacity="0.2" d="M161.974 162.154L153.701 166.963L138.244 164.996L129.318 171.116L121.48 176.581L110.377 167.837L103.411 171.116V184.012H161.974C161.974 184.012 161.974 161.936 161.974 162.154Z" fill="#F5CB35"/>
<path d="M103.411 170.679L110.377 167.619L121.48 176.362L129.318 170.897L138.244 164.777L153.701 166.526L161.756 161.717" stroke="#F5CB35" stroke-width="2" stroke-miterlimit="10" stroke-linejoin="round"/>
<path d="M162.192 129.367C163.875 129.367 165.24 127.997 165.24 126.307C165.24 124.617 163.875 123.247 162.192 123.247C160.509 123.247 159.144 124.617 159.144 126.307C159.144 127.997 160.509 129.367 162.192 129.367Z" fill="#DB1E32"/>
<path d="M162.191 164.777C163.995 164.777 165.457 163.309 165.457 161.498C165.457 159.687 163.995 158.219 162.191 158.219C160.388 158.219 158.926 159.687 158.926 161.498C158.926 163.309 160.388 164.777 162.191 164.777Z" fill="#F5CB35"/>
<path d="M88.3891 154.941H19.376C17.6344 154.941 16.3281 153.63 16.3281 151.881V104.23C16.3281 102.481 17.6344 101.17 19.376 101.17H88.6068C90.3484 101.17 91.6547 102.481 91.6547 104.23V152.099C91.437 153.63 90.1307 154.941 88.3891 154.941Z" fill="#F1EEE9"/>
<path d="M55.2975 143.356H30.2612L42.6705 129.148L55.2975 143.356Z" fill="#D3CDC3"/>
<path d="M75.7617 143.356H39.8401L57.9098 123.028L75.7617 143.356Z" fill="#FDFBF9"/>
<path d="M39.6223 124.121C42.2675 124.121 44.4119 121.968 44.4119 119.312C44.4119 116.656 42.2675 114.503 39.6223 114.503C36.9771 114.503 34.8328 116.656 34.8328 119.312C34.8328 121.968 36.9771 124.121 39.6223 124.121Z" fill="#D3CDC3"/>
<path d="M114.514 231.226C114.514 234.286 114.078 237.346 113.425 240.188C112.99 242.155 112.336 244.122 111.683 245.871C107.329 257.237 97.9678 265.98 86.4294 269.915C85.5585 270.133 84.47 270.571 83.5992 270.789C80.5513 271.445 77.2857 271.882 74.0201 271.882C51.5963 271.882 33.5266 253.74 33.5266 231.226C33.5266 208.712 51.5963 190.57 74.0201 190.57C96.4439 190.57 114.514 208.712 114.514 231.226Z" fill="#F5CB35"/>
<path d="M95.137 222.046C95.137 221.39 94.4839 220.734 93.8307 220.734H82.0746C81.4215 220.734 80.7683 221.39 80.7683 222.046V224.669C80.7683 225.324 81.4215 225.98 82.0746 225.98H85.9933L76.4142 235.598L67.0528 226.199C65.9643 225.106 64.4403 225.106 63.3518 226.199L52.4665 237.128C52.031 237.565 52.031 238.439 52.4665 239.095L54.4258 241.062C54.8612 241.499 55.7321 241.499 56.3852 241.062L65.3112 232.1L74.6725 241.499C75.7611 242.592 77.285 242.592 78.3736 241.499L89.6943 229.915V234.068C89.6943 234.723 90.3474 235.379 91.0006 235.379H93.613C94.2662 235.379 94.9193 234.723 94.9193 234.068L95.137 222.046Z" fill="#FDFBF9"/>
<path d="M51.3779 160.405H49.6362V191.007H51.3779V160.405Z" fill="#D3CDC3"/>
<path d="M251.887 71.8417C251.887 74.9018 251.451 77.962 250.798 80.8035C250.363 82.7708 249.71 84.738 249.056 86.4867C244.702 97.8529 235.341 106.596 223.802 110.531C223.367 110.749 222.714 110.968 222.278 110.968C221.843 110.968 221.408 111.186 220.972 111.405C217.924 112.061 214.659 112.498 211.393 112.498C188.969 112.498 170.9 94.3556 170.9 71.8417C170.9 49.3278 189.187 31.4041 211.611 31.4041C233.817 31.4041 251.887 49.5463 251.887 71.8417Z" fill="#DB1E32"/>
<path d="M195.8 83.912H201.401V88.6854C201.401 88.9176 201.475 89.1077 201.626 89.2564C201.776 89.4059 201.967 89.4807 202.201 89.4807H206.376C206.592 89.4807 206.78 89.4059 206.938 89.2564C207.096 89.1077 207.175 88.9176 207.175 88.6854V83.912H219.8C220.033 83.912 220.225 83.8382 220.376 83.6886C220.526 83.5392 220.601 83.3489 220.601 83.1167V79.9347C220.601 79.7039 220.526 79.5124 220.376 79.3638C220.226 79.2142 220.033 79.1394 219.8 79.1394H207.175V76.206H215.675C219.008 76.206 221.729 75.1962 223.838 73.1735C225.946 71.153 227 68.543 227 65.3434C227 62.1459 225.946 59.5358 223.838 57.5132C221.729 55.4926 219.008 54.4807 215.675 54.4807H202.2C201.967 54.4807 201.776 54.5554 201.625 54.7041C201.475 54.8536 201.4 55.045 201.4 55.276V70.912H195.8C195.567 70.912 195.376 70.9906 195.225 71.148C195.075 71.3054 195 71.4918 195 71.7072V75.4106C195 75.6429 195.075 75.8331 195.225 75.9826C195.376 76.1322 195.567 76.206 195.8 76.206H201.401V79.1393H195.8C195.567 79.1393 195.376 79.2141 195.225 79.3637C195.075 79.5123 195 79.7034 195 79.9347V83.1166C195 83.3489 195.075 83.5391 195.225 83.6886C195.376 83.8382 195.567 83.912 195.8 83.912ZM207.175 59.776H215.175C216.942 59.776 218.366 60.2895 219.45 61.317C220.533 62.3445 221.075 63.6873 221.075 65.3438C221.075 67.0011 220.533 68.3443 219.45 69.3706C218.366 70.3989 216.941 70.9125 215.175 70.9125H207.175V59.776Z" fill="#FDFBF9"/>
<path d="M80.9867 269.041C78.8096 269.478 76.4149 269.696 74.0201 269.696C51.5963 269.696 33.5266 251.554 33.5266 229.04C33.5266 219.422 36.7922 210.679 42.4526 203.685" stroke="#1E1E1E" stroke-miterlimit="10" stroke-linecap="round" stroke-linejoin="round"/>
<path d="M53.7732 193.848C59.6513 190.351 66.6179 188.384 74.0199 188.384C96.4437 188.384 114.513 206.526 114.513 229.04C114.513 232.1 114.078 235.16 113.425 238.002C112.989 239.969 112.336 241.936 111.683 243.685C108.418 251.991 102.54 259.204 94.9198 263.795" stroke="#1E1E1E" stroke-miterlimit="10" stroke-linecap="round" stroke-linejoin="round"/>
<path d="M205.95 29.4369C207.692 29.2183 209.651 28.9998 211.393 28.9998C233.817 28.9998 251.887 47.142 251.887 69.656C251.887 72.7161 251.451 75.7763 250.798 78.6178C250.363 80.5851 249.71 82.5523 249.056 84.301C244.702 95.6672 235.341 104.41 223.802 108.345C223.367 108.564 222.714 108.782 222.278 108.782C221.843 108.782 221.408 109.001 220.972 109.219C217.924 109.875 214.659 110.312 211.393 110.312C188.969 110.312 170.9 92.1699 170.9 69.656C170.9 57.634 176.125 46.7049 184.615 39.2731" stroke="#1E1E1E" stroke-miterlimit="10" stroke-linecap="round" stroke-linejoin="round"/>
<path d="M194.63 32.714C194.848 32.4963 195.283 32.4963 195.501 32.2786" stroke="#1E1E1E" stroke-miterlimit="10" stroke-linecap="round" stroke-linejoin="round"/>
<path d="M75.7614 164.996H50.9429V172.427H75.7614V164.996Z" fill="#DB1E32"/>
<path opacity="0.3" d="M50.7256 164.996H19.5935V172.427H50.7256V164.996Z" fill="#DB1E32"/>
<path d="M37.4463 186.198H50.5087V178.548H37.4463V186.198Z" fill="#F5CB35"/>
<path opacity="0.3" d="M50.5078 186.198H87.9534V178.548H50.5078V186.198Z" fill="#F5CB35"/>
</g>
<defs>
<clipPath id="clip0">
<rect width="300" height="300" fill="white"/>
</clipPath>
</defs>
</svg>
