<svg width="60" height="60" viewBox="0 0 60 60" fill="none" xmlns="http://www.w3.org/2000/svg">
<g clip-path="url(#clip0)">
<path d="M56.25 25H48.75C48.06 25 47.5 24.44 47.5 23.75V1.25C47.5 0.56 48.06 0 48.75 0H56.25C56.94 0 57.5 0.56 57.5 1.25V23.75C57.5 24.44 56.94 25 56.25 25ZM50 22.5H55V2.5H50V22.5Z" fill="#F5CB35"/>
<path d="M41.25 25H36.2C35.51 25 34.95 24.44 34.95 23.75C34.95 23.06 35.51 22.5 36.2 22.5H40V12.5H35V16.375C35 17.065 34.44 17.625 33.75 17.625C33.06 17.625 32.5 17.065 32.5 16.375V11.25C32.5 10.56 33.06 10 33.75 10H41.25C41.94 10 42.5 10.56 42.5 11.25V23.75C42.5 24.44 41.94 25 41.25 25Z" fill="#F5CB35"/>
<path d="M58.7492 25H36.1992C35.5092 25 34.9492 24.44 34.9492 23.75C34.9492 23.06 35.5092 22.5 36.1992 22.5H58.7492C59.4392 22.5 59.9992 23.06 59.9992 23.75C59.9992 24.44 59.4392 25 58.7492 25Z" fill="#F5CB35"/>
<path d="M20 35C14.485 35 10 30.515 10 25C10 19.485 14.485 15 20 15C25.515 15 30 19.485 30 25C30 30.515 25.515 35 20 35ZM20 17.5C15.865 17.5 12.5 20.865 12.5 25C12.5 29.135 15.865 32.5 20 32.5C24.135 32.5 27.5 29.135 27.5 25C27.5 20.865 24.135 17.5 20 17.5Z" fill="#DB1E32"/>
<path d="M38.75 60C38.06 60 37.5 59.44 37.5 58.75V51.25C37.5 46.425 33.575 42.5 28.75 42.5H11.25C6.425 42.5 2.5 46.425 2.5 51.25V58.75C2.5 59.44 1.94 60 1.25 60C0.56 60 0 59.44 0 58.75V51.25C0 45.0475 5.0475 40 11.25 40H28.75C34.9525 40 40 45.0475 40 51.25V58.75C40 59.44 39.44 60 38.75 60Z" fill="#DB1E32"/>
</g>
<defs>
<clipPath id="clip0">
<rect width="60" height="60" fill="white"/>
</clipPath>
</defs>
</svg>
