<svg width="60" height="60" viewBox="0 0 60 60" fill="none" xmlns="http://www.w3.org/2000/svg">
<path d="M46.1124 59.9997H14.4982C11.522 59.9997 9.10082 57.5786 9.10082 54.6052L4.62374 33.5791C2.93324 32.7409 1.82031 31.0276 1.82031 29.119C1.82031 26.3268 4.09143 24.0586 6.88073 24.0586H53.1154C55.9047 24.0586 58.1787 26.3268 58.1787 29.119C58.1787 30.753 57.3886 32.2482 56.0719 33.1912L51.4729 54.9449C51.5098 57.5784 49.0886 59.9997 46.1124 59.9997ZM6.88073 27.3775C5.92074 27.3775 5.1392 28.159 5.1392 29.119C5.1392 29.875 5.6858 30.5462 6.47006 30.7445C7.08165 30.9003 7.55186 31.393 7.67928 32.0104L12.383 54.2626C12.4197 55.7493 13.3515 56.6781 14.4955 56.6781H46.1096C47.2566 56.6781 48.1853 55.7493 48.1853 54.6025L52.9682 31.801C53.073 31.2998 53.4015 30.875 53.8574 30.6513C54.4719 30.3539 54.8542 29.7621 54.8542 29.1164C54.8542 28.1565 54.0726 27.3749 53.1127 27.3749H6.88073V27.3775Z" fill="#DB1E32"/>
<path d="M18.7598 50.2645C18.7598 50.9074 18.2331 51.4341 17.5902 51.4341H17.2702C16.6273 51.4341 16.1035 50.9074 16.1035 50.2645V36.5954C16.1035 35.9525 16.6302 35.4287 17.2702 35.4287H17.5931C18.236 35.4287 18.7627 35.9554 18.7627 36.5954V50.2645H18.7598Z" fill="#F5CB35"/>
<path d="M27.3123 50.2645C27.3123 50.9074 26.7856 51.4341 26.1456 51.4341H25.82C25.1771 51.4341 24.6504 50.9074 24.6504 50.2645V36.5954C24.6504 35.9525 25.1771 35.4287 25.82 35.4287H26.1429C26.7857 35.4287 27.3095 35.9554 27.3095 36.5954V50.2645H27.3123Z" fill="#F5CB35"/>
<path d="M35.8603 50.2645C35.8603 50.9074 35.3336 51.4341 34.6936 51.4341H34.3708C33.7279 51.4341 33.2012 50.9074 33.2012 50.2645V36.5954C33.2012 35.9525 33.7279 35.4287 34.3708 35.4287H34.6936C35.3365 35.4287 35.8603 35.9554 35.8603 36.5954V50.2645Z" fill="#F5CB35"/>
<path d="M44.4131 50.2645C44.4131 50.9074 43.8864 51.4341 43.2435 51.4341H42.9206C42.2777 51.4341 41.7539 50.9074 41.7539 50.2645V36.5954C41.7539 35.9525 42.2806 35.4287 42.9206 35.4287H43.2435C43.8864 35.4287 44.4131 35.9554 44.4131 36.5954V50.2645Z" fill="#F5CB35"/>
<path d="M30.0327 0C19.2888 0 10.5781 8.71054 10.5781 19.4544H14.0981C14.0981 10.6532 21.2314 3.51997 30.0325 3.51997C38.8335 3.51997 45.9669 10.6533 45.9669 19.4544H49.4869C49.4841 8.71054 40.7763 0 30.0327 0Z" fill="#F5CB35"/>
</svg>
