<svg width="60" height="60" viewBox="0 0 60 60" fill="none" xmlns="http://www.w3.org/2000/svg">
<path d="M58.75 28.75C59.45 28.75 60 29.3 60 30C60 30.7 59.45 31.25 58.75 31.25H57.5V28.75H58.75Z" fill="#DB1E32"/>
<path d="M31.25 28.75H57.5V31.25H31.25V28.75Z" fill="#DB1E32"/>
<path d="M53.75 60H30C30.7 60 31.25 59.45 31.25 58.75V57.5H53.75C55.825 57.5 57.5 55.825 57.5 53.75V31.25H58.75C59.45 31.25 60 30.7 60 30V53.75C60 57.2 57.2 60 53.75 60Z" fill="#DB1E32"/>
<path d="M60 6.25V30C60 29.3 59.45 28.75 58.75 28.75H57.5V6.25C57.5 4.175 55.825 2.5 53.75 2.5H31.25V1.25C31.25 0.55 30.7 0 30 0H53.75C57.2 0 60 2.8 60 6.25Z" fill="#DB1E32"/>
<path d="M50 15C50.7 15 51.25 15.55 51.25 16.25C51.25 16.95 50.7 17.5 50 17.5H40C39.3 17.5 38.75 16.95 38.75 16.25C38.75 15.55 39.3 15 40 15H50Z" fill="#F5CB35"/>
<path d="M50 40C50.7 40 51.25 40.55 51.25 41.25C51.25 41.95 50.7 42.5 50 42.5H40C39.3 42.5 38.75 41.95 38.75 41.25C38.75 40.55 39.3 40 40 40H50Z" fill="#F5CB35"/>
<path d="M50 47.5C50.7 47.5 51.25 48.05 51.25 48.75C51.25 49.45 50.7 50 50 50H40C39.3 50 38.75 49.45 38.75 48.75C38.75 48.05 39.3 47.5 40 47.5H50Z" fill="#F5CB35"/>
<path d="M31.25 57.5V58.75C31.25 59.45 30.7 60 30 60C29.3 60 28.75 59.45 28.75 58.75V57.5H31.25Z" fill="#DB1E32"/>
<path d="M28.75 31.25H31.25V57.5H28.75V31.25Z" fill="#DB1E32"/>
<path d="M28.75 28.75H31.25V31.25H28.75V28.75Z" fill="#DB1E32"/>
<path d="M28.75 2.5H31.25V28.75H28.75V2.5Z" fill="#DB1E32"/>
<path d="M31.25 1.25V2.5H28.75V1.25C28.75 0.55 29.3 0 30 0C30.7 0 31.25 0.55 31.25 1.25Z" fill="#DB1E32"/>
<path d="M2.5 28.75H28.75V31.25H2.5V28.75Z" fill="#DB1E32"/>
<path d="M20 15C20.7 15 21.25 15.55 21.25 16.25C21.25 16.95 20.7 17.5 20 17.5H16.25V15H20Z" fill="#F5CB35"/>
<path d="M19.625 47.875C20.125 48.35 20.125 49.15 19.625 49.625C19.4 49.875 19.075 50 18.75 50C18.425 50 18.1 49.875 17.875 49.625L15 46.75L16.75 45L19.625 47.875Z" fill="#F5CB35"/>
<path d="M17.875 40.375C18.35 39.875 19.15 39.875 19.625 40.375C20.125 40.85 20.125 41.65 19.625 42.125L16.75 45L15 43.25L17.875 40.375Z" fill="#F5CB35"/>
<path d="M13.2422 44.9971L14.9923 43.247L16.7424 44.9971L14.9923 46.7472L13.2422 44.9971Z" fill="#F5CB35"/>
<path d="M16.25 17.5V21.25C16.25 21.95 15.7 22.5 15 22.5C14.3 22.5 13.75 21.95 13.75 21.25V17.5H16.25Z" fill="#F5CB35"/>
<path d="M13.75 15H16.25V17.5H13.75V15Z" fill="#F5CB35"/>
<path d="M16.25 11.25V15H13.75V11.25C13.75 10.55 14.3 10 15 10C15.7 10 16.25 10.55 16.25 11.25Z" fill="#F5CB35"/>
<path d="M15 43.25L13.25 45L10.375 42.125C9.875 41.65 9.875 40.85 10.375 40.375C10.85 39.875 11.65 39.875 12.125 40.375L15 43.25Z" fill="#F5CB35"/>
<path d="M13.75 15V17.5H10C9.3 17.5 8.75 16.95 8.75 16.25C8.75 15.55 9.3 15 10 15H13.75Z" fill="#F5CB35"/>
<path d="M12.125 49.625C11.9 49.875 11.575 50 11.25 50C10.925 50 10.6 49.875 10.375 49.625C9.875 49.15 9.875 48.35 10.375 47.875L13.25 45L15 46.75L12.125 49.625Z" fill="#F5CB35"/>
<path d="M2.5 28.75V31.25H1.25C0.55 31.25 0 30.7 0 30C0 29.3 0.55 28.75 1.25 28.75H2.5Z" fill="#DB1E32"/>
<path d="M0 6.25C0 2.8 2.8 0 6.25 0H30C29.3 0 28.75 0.55 28.75 1.25V2.5H6.25C4.175 2.5 2.5 4.175 2.5 6.25V28.75H1.25C0.55 28.75 0 29.3 0 30V6.25Z" fill="#DB1E32"/>
<path d="M2.5 53.75C2.5 55.825 4.175 57.5 6.25 57.5H28.75V58.75C28.75 59.45 29.3 60 30 60H6.25C2.8 60 0 57.2 0 53.75V30C0 30.7 0.55 31.25 1.25 31.25H2.5V53.75Z" fill="#DB1E32"/>
</svg>
