<svg width="60" height="60" viewBox="0 0 60 60" fill="none" xmlns="http://www.w3.org/2000/svg">
<path d="M32.8 60H27.2C25.3075 60 23.71 58.5825 23.485 56.7L22.8875 52.01C21.695 51.6225 20.545 51.145 19.4525 50.5875L15.7175 53.49C14.2025 54.6625 12.07 54.5275 10.755 53.175L6.8175 49.2375C5.475 47.935 5.34 45.8025 6.5125 44.29L9.415 40.5525C8.855 39.46 8.3775 38.31 7.9925 37.1175L3.2925 36.52C1.4175 36.29 0 34.6925 0 32.8V27.2C0 25.3075 1.4175 23.71 3.3 23.485L7.99 22.8875C8.3775 21.695 8.855 20.545 9.4125 19.4525L6.5125 15.7175C5.3375 14.2025 5.475 12.0675 6.83 10.7525L10.7675 6.815C12.07 5.4725 14.205 5.34 15.715 6.51L19.45 9.415C20.5425 8.8575 21.6925 8.38 22.8875 7.9925L23.485 3.2925C23.71 1.4175 25.3075 0 27.2 0H32.8C34.6925 0 36.29 1.4175 36.515 3.3L37.1125 7.99C38.3075 8.3775 39.4575 8.855 40.55 9.4125L44.285 6.51C45.8025 5.3375 47.9325 5.4725 49.2475 6.8275L53.185 10.765C54.5275 12.0675 54.6625 14.2 53.49 15.7125L50.5875 19.45C51.1475 20.5425 51.625 21.6925 52.01 22.885L56.71 23.4825C58.5825 23.71 60 25.3075 60 27.2V32.8C60 34.6925 58.5825 36.29 56.7 36.515L52.01 37.1125C51.6225 38.305 51.145 39.455 50.5875 40.5475L53.49 44.2825C54.665 45.7975 54.5275 47.93 53.1725 49.245L49.235 53.1825C47.9325 54.525 45.7975 54.6625 44.2875 53.4875L40.55 50.585C39.4575 51.145 38.3075 51.6225 37.115 52.0075L36.5175 56.7075C36.29 58.5825 34.6925 60 32.8 60ZM19.325 47.85C19.5325 47.85 19.745 47.9025 19.935 48.0075C21.3125 48.7775 22.805 49.3975 24.37 49.8475C24.85 49.985 25.2025 50.395 25.265 50.89L25.965 56.39C26.04 57.0175 26.5825 57.5 27.2 57.5H32.8C33.4175 57.5 33.96 57.0175 34.0325 56.4025L34.735 50.8925C34.7975 50.3975 35.15 49.9875 35.63 49.85C37.195 49.4 38.6875 48.78 40.065 48.01C40.5025 47.765 41.0475 47.8075 41.44 48.115L45.815 51.515C46.3175 51.905 47.0225 51.8725 47.4525 51.43L51.415 47.4675C51.8675 47.0275 51.9025 46.3225 51.5125 45.8175L48.1125 41.4425C47.805 41.0475 47.7625 40.505 48.0075 40.0675C48.7775 38.69 49.3975 37.1975 49.8475 35.6325C49.985 35.1525 50.395 34.8 50.89 34.7375L56.39 34.0375C57.0175 33.96 57.5 33.4175 57.5 32.8V27.2C57.5 26.5825 57.0175 26.04 56.4025 25.9675L50.8925 25.265C50.3975 25.2025 49.9875 24.85 49.85 24.37C49.4 22.805 48.78 21.3125 48.01 19.935C47.765 19.4975 47.805 18.955 48.115 18.56L51.515 14.185C51.9075 13.68 51.8725 12.975 51.4325 12.55L47.47 8.5875C47.0325 8.1325 46.325 8.0975 45.82 8.49L41.445 11.89C41.0475 12.1975 40.505 12.24 40.0675 11.995C38.695 11.225 37.2025 10.6075 35.6325 10.155C35.1525 10.0175 34.8 9.6075 34.7375 9.1125L34.0375 3.6125C33.96 2.9825 33.4175 2.5 32.8 2.5H27.2C26.5825 2.5 26.04 2.9825 25.9675 3.5975L25.265 9.1075C25.2025 9.6025 24.85 10.0125 24.37 10.1525C22.8 10.6025 21.3075 11.2225 19.935 11.99C19.4975 12.2375 18.955 12.1925 18.5575 11.8875L14.1825 8.4875C13.6775 8.095 12.975 8.13 12.5475 8.57L8.585 12.535C8.1325 12.975 8.0975 13.68 8.4875 14.185L11.8875 18.56C12.195 18.955 12.2375 19.4975 11.9925 19.935C11.22 21.3125 10.6025 22.805 10.1525 24.37C10.015 24.85 9.605 25.2025 9.11 25.265L3.61 25.965C2.9825 26.04 2.5 26.5825 2.5 27.2V32.8C2.5 33.4175 2.9825 33.96 3.5975 34.0325L9.1075 34.735C9.6025 34.7975 10.0125 35.15 10.15 35.63C10.6 37.195 11.22 38.6875 11.99 40.065C12.235 40.5025 12.195 41.045 11.885 41.44L8.485 45.815C8.0925 46.32 8.1275 47.025 8.5675 47.45L12.53 51.4125C12.9675 51.865 13.67 51.9 14.18 51.51L18.555 48.11C18.7825 47.94 19.0525 47.85 19.325 47.85Z" fill="#DB1E32"/>
<path d="M30 42.5C23.1075 42.5 17.5 36.8925 17.5 30C17.5 23.1075 23.1075 17.5 30 17.5C36.8925 17.5 42.5 23.1075 42.5 30C42.5 36.8925 36.8925 42.5 30 42.5ZM30 20C24.485 20 20 24.485 20 30C20 35.515 24.485 40 30 40C35.515 40 40 35.515 40 30C40 24.485 35.515 20 30 20Z" fill="#F5CB35"/>
</svg>
