<svg width="218" height="218" viewBox="0 0 218 218" fill="none" xmlns="http://www.w3.org/2000/svg">
<g clip-path="url(#clip0)">
<path d="M193.885 101.821C193.885 121.984 187.116 140.69 175.996 155.752C169.952 163.769 162.457 171.057 153.996 176.401C140.216 185.39 123.777 190.977 105.888 190.977C57.0537 190.977 17.4062 150.893 17.4062 101.821C17.4062 52.505 57.0536 12.6638 105.646 12.6638C123.294 12.6638 139.975 18.0084 153.754 26.9969C162.216 32.3415 169.71 39.6295 175.754 47.6463C187.358 62.4653 193.885 81.4141 193.885 101.821Z" fill="#F2F4F9"/>
<path d="M3.14289 112.024C4.83516 112.024 6.28564 110.809 6.28564 108.866C6.28564 107.165 5.07691 105.708 3.14289 105.708C1.20888 105.95 0 107.408 0 108.866C0 110.323 1.45063 112.024 3.14289 112.024Z" fill="#F5CB35"/>
<path d="M213.468 74.369C216.127 71.9396 216.369 67.5668 213.709 64.8945C211.05 62.2223 206.94 61.9793 204.039 64.4087C201.38 66.838 201.138 71.2108 203.798 73.8831C206.215 76.7983 210.567 77.0412 213.468 74.369Z" fill="#F2F4F9"/>
<path d="M212.016 44.7318C213.709 44.7318 214.917 43.5171 214.917 41.8166C214.917 40.116 213.709 38.9014 212.016 38.9014C210.324 38.9014 209.115 40.116 209.115 41.8166C209.115 43.2742 210.324 44.7318 212.016 44.7318Z" fill="#F5CB35"/>
<path d="M161.733 106.679L216.368 161.582C218.544 163.769 218.544 167.413 216.368 169.599L172.37 214.056C170.194 216.242 166.568 216.242 164.392 214.056L109.756 159.153L161.733 106.679Z" fill="#F5CB35"/>
<path d="M150.61 117.611L140.939 127.328L199.443 186.604L209.113 176.886L150.61 117.611Z" fill="#BA971A"/>
<path d="M172.368 201.18C175.269 198.265 175.269 193.649 172.368 190.734C169.467 187.819 164.874 187.819 161.973 190.734C159.072 193.649 159.072 198.265 161.973 201.18C164.874 204.096 169.467 204.096 172.368 201.18Z" fill="#BA971A"/>
<path d="M165.36 194.135C168.261 191.22 168.261 186.605 165.36 183.689C162.459 180.774 157.866 180.774 154.965 183.689C152.064 186.605 152.064 191.22 154.965 194.135C157.866 197.051 162.459 197.051 165.36 194.135Z" fill="#D5AF27"/>
<path d="M95.4936 41.0872L44.9675 92.3462L4.35314 51.2904C3.86964 50.8045 4.11127 49.8328 4.83653 49.8328H7.49589C8.9464 49.8328 10.1551 48.6181 10.1551 47.4035V42.3018C10.1551 41.816 10.3968 41.573 10.8803 41.573H15.9572C17.4077 41.573 18.3747 40.3583 18.6164 39.1437V33.7991C18.6164 33.3133 18.8582 33.0704 19.5835 32.8274H24.6602C26.1107 32.8274 27.0778 31.6127 27.3196 30.3981V25.2964C27.3196 25.0535 27.5613 24.5677 28.2865 24.3247H33.3634C34.8139 24.3247 35.7809 23.1101 36.0226 21.8954V16.7938C36.0226 16.3079 36.2644 16.065 36.9897 16.065H42.0664C43.5169 16.065 44.7256 14.8503 44.7256 13.6356V8.53402C44.7256 8.04815 44.9675 7.80521 45.451 7.80521H50.5277C51.9782 7.80521 53.1869 6.59054 53.1869 5.37587V2.70358C53.1869 1.97478 53.4288 1.73185 53.9123 1.48891C54.1541 1.24598 54.3957 1.24599 54.8792 1.73186L95.4936 41.0872Z" fill="white" stroke="#C0D6FF"/>
<path d="M58.9858 22.8674L53.4255 28.212C52.942 28.6979 51.975 28.6979 51.4915 28.212C51.008 27.7261 51.008 26.7544 51.4915 26.2685L57.0518 20.6811C57.5353 20.1952 58.5023 20.1952 58.9858 20.6811C59.711 21.4099 59.711 22.3816 58.9858 22.8674Z" fill="#DFE2E9"/>
<path d="M48.8339 33.3133L26.1093 56.149C25.6258 56.6349 24.6586 56.6349 24.1751 56.149C23.6916 55.6632 23.6916 54.6914 24.1751 54.2055L46.6582 31.3698C47.1417 30.8839 48.1087 30.8839 48.5922 31.3698C49.3174 31.8556 49.3174 32.5844 48.8339 33.3133Z" fill="#DFE2E9"/>
<path d="M51.2517 40.6007L45.4498 46.4311L47.8673 44.0018C41.8235 50.0751 37.2302 54.6909 30.9447 61.0072C30.4612 61.493 30.4612 62.4648 30.9447 62.9507C31.4282 63.4365 32.3951 63.4365 32.8786 62.9507C43.0322 52.7474 39.6477 56.1485 49.8013 45.9453L47.3838 48.3746L53.1857 42.5442C54.6362 41.3295 52.4605 39.1431 51.2517 40.6007Z" fill="#DFE2E9"/>
<path d="M111.931 24.8104L185.423 98.9053C188.083 101.578 188.808 105.707 187.357 109.109C172.61 142.876 145.776 169.842 112.414 184.904C109.03 186.361 104.92 185.633 102.261 182.96L28.7681 108.866C26.1088 106.193 25.3836 102.063 26.8341 98.6623C41.581 64.8945 68.4154 37.9289 102.019 22.867C105.403 21.4094 109.272 22.1382 111.931 24.8104Z" fill="#DFE2E9"/>
<path d="M188.323 133.403L216.366 161.583C218.542 163.769 218.542 167.413 216.366 169.6L172.368 214.057C170.192 216.243 166.566 216.243 164.39 214.057L128.127 177.374" stroke="#333333" stroke-miterlimit="10" stroke-linecap="round" stroke-linejoin="round"/>
<path d="M35.0555 82.3859L4.35314 51.2904C3.86964 50.8045 4.11127 49.8328 4.83653 49.8328H7.49589C8.9464 49.8328 10.1551 48.6181 10.1551 47.4035V42.3018C10.1551 41.816 10.3968 41.573 10.8803 41.573H15.9572C17.4077 41.573 18.3747 40.3583 18.6164 39.1437V33.7991C18.6164 33.3133 18.8582 33.0704 19.5835 32.8274H24.6602C26.1107 32.8274 27.0778 31.6127 27.3196 30.3981V25.2964C27.3196 25.0535 27.5613 24.5677 28.2865 24.3247H33.3634C34.8139 24.3247 35.7809 23.1101 36.0226 21.8954V16.7938C36.0226 16.3079 36.2644 16.065 36.9897 16.065H42.0664C43.5169 16.065 44.7256 14.8503 44.7256 13.6356V8.53402C44.7256 8.04815 44.9675 7.80521 45.451 7.80521H50.5277C51.9782 7.80521 53.1869 6.59054 53.1869 5.37587V2.70358C53.1869 1.97478 53.4288 1.73185 53.9123 1.48891C54.1541 1.24598 54.3957 1.24599 54.8792 1.73186L85.5818 32.0986" stroke="#333333" stroke-miterlimit="10" stroke-linecap="round" stroke-linejoin="round"/>
<path d="M140.941 168.142C132.238 174.701 122.568 180.531 112.414 184.904C109.03 186.362 104.92 185.633 102.261 182.961L28.768 108.866C26.834 106.922 25.867 104.493 26.1088 101.821" stroke="#333333" stroke-miterlimit="10" stroke-linecap="round" stroke-linejoin="round"/>
<path d="M180.831 122.47C173.095 136.561 162.942 148.95 151.096 159.639" stroke="#333333" stroke-miterlimit="10" stroke-linecap="round" stroke-linejoin="round"/>
<path d="M30.4609 90.6455C45.9331 60.5217 71.0752 36.4713 102.019 22.867C105.404 21.4094 109.514 22.1382 112.173 24.8104L185.666 98.9053C188.325 101.578 189.05 105.707 187.6 109.109" stroke="#333333" stroke-miterlimit="10" stroke-linecap="round" stroke-linejoin="round"/>
<path d="M129.337 68.2957L71.5584 126.357C69.8661 128.057 67.2069 128.057 65.5146 126.357L42.3063 102.792C40.614 101.092 40.614 98.4195 42.3063 96.7189L100.085 38.6577C101.777 36.9572 104.437 36.9572 106.129 38.6577L129.337 62.2223C131.029 63.9228 131.029 66.3522 129.337 68.2957Z" fill="white"/>
<path d="M106.854 135.832L93.074 149.922C91.8653 151.137 89.9313 151.137 88.7225 149.922L79.7777 140.934C78.5689 139.719 78.5689 137.775 79.7777 136.561L93.5576 122.471C94.7663 121.256 96.7003 121.256 97.9091 122.471L106.854 131.459C108.063 132.674 108.063 134.617 106.854 135.832Z" fill="#EE2D38"/>
<path d="M129.578 112.752L115.798 126.843C114.589 128.057 112.655 128.057 111.447 126.843L102.26 117.854C101.051 116.639 101.051 114.696 102.26 113.481L116.04 99.391C117.249 98.1763 119.183 98.1763 120.392 99.391L129.336 108.38C130.787 109.594 130.787 111.538 129.578 112.752Z" fill="white"/>
<path d="M152.545 89.6747L138.765 103.765C137.557 104.98 135.623 104.98 134.414 103.765L125.469 94.7763C124.26 93.5617 124.26 91.6182 125.469 90.4035L139.249 76.3133C140.458 75.0987 142.392 75.0987 143.6 76.3133L152.787 85.3019C153.754 86.5166 153.754 88.46 152.545 89.6747Z" fill="white"/>
<path d="M125.711 154.78L111.931 168.871C110.723 170.085 108.789 170.085 107.58 168.871L98.6351 159.882C97.4263 158.667 97.4263 156.724 98.6351 155.509L112.415 141.419C113.624 140.204 115.558 140.204 116.766 141.419L125.711 150.408C126.678 151.622 126.678 153.566 125.711 154.78Z" fill="white"/>
<path d="M148.194 131.702L134.414 145.792C133.205 147.006 131.271 147.006 130.062 145.792L121.118 136.803C119.909 135.588 119.909 133.645 121.118 132.43L134.897 118.34C136.106 117.126 138.04 117.126 139.249 118.34L148.194 127.329C149.644 128.543 149.644 130.487 148.194 131.702Z" fill="white"/>
<path d="M171.403 108.622L157.623 122.713C156.414 123.927 154.48 123.927 153.271 122.713L144.326 113.724C143.118 112.509 143.118 110.566 144.326 109.351L158.106 95.2611C159.315 94.0464 161.249 94.0464 162.458 95.2611L171.403 104.25C172.37 105.464 172.37 107.408 171.403 108.622Z" fill="white"/>
<path d="M65.5158 95.7474C66.2411 95.5044 66.9663 96.2332 66.9663 96.962L67.2081 101.335H67.4498L69.8674 97.9337C70.1091 97.4479 71.0761 97.205 71.8013 97.6908L72.0432 98.1767C72.5267 98.6626 72.2848 99.6343 71.8013 99.8772L68.4169 102.307V102.55L72.5266 102.792C73.2518 102.792 73.7354 103.521 73.4936 104.25L73.2519 104.979C73.0102 105.708 72.2849 105.951 71.5596 105.708L67.6915 104.007L69.6257 107.894C69.8674 108.623 69.6255 109.352 68.9003 109.595L68.4169 109.838C67.6916 110.08 66.9663 109.352 66.9663 108.866L66.7246 104.493L64.3071 107.894C64.0653 108.38 63.0984 108.623 62.3731 108.137L62.1313 107.894C61.6477 107.408 61.8896 106.436 62.3731 105.951L65.7575 103.764L61.406 103.278C60.6808 103.278 60.1973 102.55 60.1973 101.821L60.439 101.092C60.6807 100.363 61.406 100.12 62.1313 100.363L65.9994 102.064L64.3071 98.1767C64.0653 97.4479 64.3071 96.7191 65.0323 96.4762L65.5158 95.7474Z" fill="#2B2B36"/>
<path d="M78.57 82.872C79.2953 82.629 80.0206 83.3579 80.0206 83.8437L80.2623 88.2165H80.5042L82.9217 84.8155C83.1634 84.3296 84.1304 84.0866 84.8557 84.5725L85.0974 85.0584C85.5809 85.5443 85.3392 86.516 84.8557 86.7589L81.4711 89.1883V89.4312L85.5809 89.6741C86.3062 89.6741 86.7897 90.403 86.548 91.1318L86.3061 91.8605C86.0644 92.5893 85.3391 92.8323 84.6138 92.5893L80.7459 90.8888L82.4382 94.7758C82.6799 95.5046 82.4382 96.2334 81.7129 96.4763L81.2294 96.7192C80.5041 96.9622 79.7788 96.2334 79.7788 95.7475L79.5371 91.3747L77.1196 94.7758C76.8778 95.2616 75.9108 95.5046 75.4273 95.0187L74.9438 94.7758C74.4602 94.2899 74.7021 93.3181 75.1856 93.0752L78.57 90.8888L74.2185 90.403C73.4933 90.403 73.0098 89.6741 73.0098 88.9453L73.2516 88.2165C73.4934 87.4877 74.2185 87.2448 74.9438 87.4878L78.8119 89.1883L76.8779 85.3013C76.6361 84.5725 76.8779 83.8437 77.6031 83.6008L78.57 82.872Z" fill="#2B2B36"/>
<path d="M91.6233 69.7533C92.3485 69.5104 93.0737 70.2392 93.0737 70.7251L93.3156 75.0979H93.5572L95.9748 71.6968C96.2165 70.968 97.1835 70.968 97.9088 71.4539L98.1506 71.9397C98.6341 72.4256 98.634 73.3973 97.9088 73.6403L94.5243 76.0696V76.3125L98.6341 76.5555C99.3594 76.5555 99.8429 77.2843 99.8429 78.0131L99.601 78.4989C99.3593 79.2277 98.634 79.4707 97.9088 79.2277L94.0408 77.5272L95.7331 81.4142C95.9748 82.143 95.733 82.8718 94.766 83.1147L94.2825 83.3576C93.5572 83.6006 92.832 82.8718 92.832 82.3859L92.5903 78.256L90.1728 81.9C89.9311 82.3859 88.9639 82.6288 88.2387 82.143L87.997 81.6571C87.5135 81.1712 87.5134 80.1995 88.2387 79.9566L91.6233 77.7702L87.5134 77.2843C86.7882 77.2843 86.3047 76.5555 86.3047 75.8267L86.5465 75.3408C86.7883 74.612 87.5134 74.3691 88.2387 74.612L92.1068 76.3125L90.1728 72.4256C89.9311 71.6968 90.1728 70.968 90.898 70.7251L91.6233 69.7533Z" fill="#2B2B36"/>
<path d="M104.68 56.6352C105.163 56.3923 105.888 56.8782 105.888 57.607L106.13 62.2227H106.372L108.789 58.5787C109.031 58.0928 109.756 58.0928 110.482 58.3358L111.207 59.0646C111.448 59.5504 111.449 60.2793 110.965 60.7651L107.339 63.1945V63.4374L111.69 63.6803C112.416 63.6803 112.899 64.4091 112.657 64.895L112.415 65.8667C112.174 66.3526 111.449 66.8384 110.965 66.5955L107.097 64.895L109.031 68.7819C109.273 69.2678 109.031 69.9966 108.306 70.2395L107.339 70.4825C106.855 70.7254 106.13 69.9966 106.13 69.5107L105.888 64.895L103.471 68.539C103.229 69.0249 102.262 69.0248 101.779 68.7819L101.053 68.0531C100.57 67.5673 100.811 66.8384 101.295 66.3526L104.68 63.9232L100.086 63.4374C99.361 63.4374 99.1191 62.7086 99.1191 62.2227L99.361 61.251C99.6027 60.7651 100.328 60.2792 100.811 60.5222L104.68 62.4656L102.745 58.5787C102.504 58.0928 102.746 57.364 103.471 57.1211L104.68 56.6352Z" fill="#2B2B36"/>
</g>
<defs>
<clipPath id="clip0">
<rect width="218" height="218" fill="white"/>
</clipPath>
</defs>
</svg>
