<svg width="218" height="218" viewBox="0 0 218 218" fill="none" xmlns="http://www.w3.org/2000/svg">
<path d="M18.8578 76.7903C21.1551 76.0436 22.4121 73.576 21.6655 71.2786C20.9188 68.9813 18.4511 67.7243 16.1538 68.471C13.8565 69.2177 12.5994 71.6854 13.3461 73.9827C14.0928 76.28 16.5605 77.537 18.8578 76.7903Z" fill="#F2F4F9"/>
<path d="M30.9559 40.699C32.1505 40.3107 32.8041 39.0275 32.4159 37.8329C32.0276 36.6383 30.7444 35.9846 29.5498 36.3729C28.3551 36.7612 27.7015 38.0443 28.0898 39.239C28.4781 40.4336 29.7613 41.0872 30.9559 40.699Z" fill="#EE2D38"/>
<path d="M15.0478 141.92C15.6276 141.92 16.0976 141.45 16.0976 140.871C16.0976 140.291 15.6276 139.821 15.0478 139.821C14.468 139.821 13.998 140.291 13.998 140.871C13.998 141.45 14.468 141.92 15.0478 141.92Z" fill="#EE2D38"/>
<path d="M206.628 130.198C207.401 130.198 208.028 129.571 208.028 128.798C208.028 128.025 207.401 127.399 206.628 127.399C205.855 127.399 205.229 128.025 205.229 128.798C205.229 129.571 205.855 130.198 206.628 130.198Z" fill="#F5CB35"/>
<path d="M212.714 89.9538C215.425 87.4768 215.614 83.2714 213.137 80.5608C210.66 77.8502 206.454 77.6609 203.744 80.138C201.033 82.615 200.844 86.8204 203.321 89.531C205.798 92.2415 210.003 92.4309 212.714 89.9538Z" fill="#F2F4F9"/>
<path d="M213.217 60.1476C214.358 59.1046 214.438 57.334 213.395 56.1927C212.352 55.0514 210.581 54.9717 209.44 56.0146C208.298 57.0576 208.219 58.8283 209.262 59.9695C210.305 61.1108 212.075 61.1905 213.217 60.1476Z" fill="#EE2D38"/>
<path d="M108.125 207.005C156.149 207.005 195.08 168.074 195.08 120.05C195.08 72.0261 156.149 33.095 108.125 33.095C60.1011 33.095 21.1699 72.0261 21.1699 120.05C21.1699 168.074 60.1011 207.005 108.125 207.005Z" fill="#F2F4F9"/>
<path d="M198.931 179.011V183.735C198.931 188.109 195.257 191.608 190.708 191.608H24.3208C19.7718 191.608 16.0977 188.109 16.0977 183.735V179.011H91.3305C92.0303 180.76 93.7799 181.985 95.7045 181.985H119.149C121.249 181.985 122.998 180.76 123.523 179.011H198.931Z" fill="#DFE2E9"/>
<path d="M198.931 179.011C198.931 183.385 195.257 186.884 190.708 186.884H24.3208C19.7718 186.884 16.0977 183.385 16.0977 179.011H91.3305C92.0303 180.76 93.7799 181.985 95.7045 181.985H119.149C121.249 181.985 122.998 180.76 123.523 179.011H198.931Z" fill="white"/>
<path d="M189.482 179.011H25.3691V73.3355C25.3691 71.061 27.2937 69.1365 29.5682 69.1365H185.283C187.557 69.1365 189.482 71.061 189.482 73.3355V179.011Z" fill="white"/>
<path d="M83.2832 69.1365H183.535C186.86 69.1365 189.484 71.7609 189.484 75.0851V179.011" stroke="#2B2B36" stroke-miterlimit="10" stroke-linecap="round" stroke-linejoin="round"/>
<path d="M73.1348 69.1365H73.4847" stroke="#2B2B36" stroke-miterlimit="10" stroke-linecap="round" stroke-linejoin="round"/>
<path d="M25.3691 179.011V75.0851C25.3691 71.7609 27.9935 69.1365 31.3178 69.1365H66.8347" stroke="#2B2B36" stroke-miterlimit="10" stroke-linecap="round" stroke-linejoin="round"/>
<path d="M87.4814 179.011H91.3305C92.0303 180.76 93.7799 181.985 95.7045 181.985H119.149C121.249 181.985 122.998 180.76 123.523 179.011H198.756V183.735C198.756 188.109 195.082 191.608 190.533 191.608H24.3208C19.7718 191.608 16.0977 188.109 16.0977 183.735V179.011H76.6338" stroke="#2B2B36" stroke-miterlimit="10" stroke-linecap="round" stroke-linejoin="round"/>
<path d="M99.0299 81.0342C99.4164 81.0342 99.7298 80.7209 99.7298 80.3344C99.7298 79.9479 99.4164 79.6345 99.0299 79.6345C98.6434 79.6345 98.3301 79.9479 98.3301 80.3344C98.3301 80.7209 98.6434 81.0342 99.0299 81.0342Z" fill="white"/>
<path d="M101.131 81.0342C101.518 81.0342 101.831 80.7209 101.831 80.3344C101.831 79.9479 101.518 79.6345 101.131 79.6345C100.745 79.6345 100.432 79.9479 100.432 80.3344C100.432 80.7209 100.745 81.0342 101.131 81.0342Z" fill="white"/>
<path d="M103.229 81.0342C103.616 81.0342 103.929 80.7209 103.929 80.3344C103.929 79.9479 103.616 79.6345 103.229 79.6345C102.843 79.6345 102.529 79.9479 102.529 80.3344C102.529 80.7209 102.843 81.0342 103.229 81.0342Z" fill="white"/>
<path d="M121.6 88.032H105.678C105.328 88.032 104.979 87.6821 104.979 87.3322C104.979 86.9822 105.328 86.6323 105.678 86.6323H121.6C121.95 86.6323 122.3 86.9822 122.3 87.3322C122.3 87.6821 121.95 88.032 121.6 88.032Z" fill="#DFE2E9"/>
<path d="M99.7306 91.356H99.2057C98.8558 91.356 98.5059 91.0061 98.5059 90.6561C98.5059 90.3062 98.8558 89.9563 99.2057 89.9563H99.7306C100.081 89.9563 100.43 90.3062 100.43 90.6561C100.43 91.0061 100.081 91.356 99.7306 91.356Z" fill="#DFE2E9"/>
<path d="M99.7306 101.154H99.2057C98.8558 101.154 98.5059 100.804 98.5059 100.454C98.5059 100.105 98.8558 99.7546 99.2057 99.7546H99.7306C100.081 99.7546 100.43 100.105 100.43 100.454C100.43 100.804 100.081 101.154 99.7306 101.154Z" fill="#DFE2E9"/>
<path d="M118.275 91.356H105.678C105.328 91.356 104.979 91.0061 104.979 90.6561C104.979 90.3062 105.328 89.9563 105.678 89.9563H118.275C118.625 89.9563 118.975 90.3062 118.975 90.6561C118.975 91.0061 118.625 91.356 118.275 91.356Z" fill="#DFE2E9"/>
<path d="M152.219 91.356H120.901C120.551 91.356 120.201 91.0061 120.201 90.6561C120.201 90.3062 120.551 89.9563 120.901 89.9563H152.219C152.569 89.9563 152.919 90.3062 152.919 90.6561C152.919 91.0061 152.569 91.356 152.219 91.356Z" fill="#DFE2E9"/>
<path d="M165.69 91.356H156.592C156.243 91.356 155.893 91.0061 155.893 90.6561C155.893 90.3062 156.243 89.9563 156.592 89.9563H165.69C166.04 89.9563 166.39 90.3062 166.39 90.6561C166.39 91.0061 166.04 91.356 165.69 91.356Z" fill="#DFE2E9"/>
<path d="M173.213 91.356H170.239C169.889 91.356 169.539 91.0061 169.539 90.6561C169.539 90.3062 169.889 89.9563 170.239 89.9563H173.213C173.563 89.9563 173.913 90.3062 173.913 90.6561C173.913 91.0061 173.563 91.356 173.213 91.356Z" fill="#DFE2E9"/>
<path d="M126.326 94.5061H110.405C110.055 94.5061 109.705 94.1562 109.705 93.8063C109.705 93.4564 110.055 93.1064 110.405 93.1064H126.326C126.676 93.1064 127.026 93.4564 127.026 93.8063C127.026 94.1562 126.676 94.5061 126.326 94.5061Z" fill="#DFE2E9"/>
<path d="M126.326 107.628H110.405C110.055 107.628 109.705 107.278 109.705 106.928C109.705 106.578 110.055 106.228 110.405 106.228H126.326C126.676 106.228 127.026 106.578 127.026 106.928C127.026 107.278 126.676 107.628 126.326 107.628Z" fill="#DFE2E9"/>
<path d="M122.127 110.952H110.405C110.055 110.952 109.705 110.602 109.705 110.252C109.705 109.902 110.055 109.552 110.405 109.552H122.127C122.477 109.552 122.827 109.902 122.827 110.252C122.827 110.602 122.477 110.952 122.127 110.952Z" fill="#DFE2E9"/>
<path d="M153.094 110.952H125.45C125.1 110.952 124.75 110.602 124.75 110.252C124.75 109.902 125.1 109.552 125.45 109.552H153.094C153.443 109.552 153.793 109.902 153.793 110.252C153.793 110.602 153.443 110.952 153.094 110.952Z" fill="#DFE2E9"/>
<path d="M130.874 97.8299H116.003C115.653 97.8299 115.303 97.4799 115.303 97.13C115.303 96.7801 115.653 96.4302 116.003 96.4302H130.874C131.224 96.4302 131.574 96.7801 131.574 97.13C131.574 97.4799 131.224 97.8299 130.874 97.8299Z" fill="#DFE2E9"/>
<path d="M139.273 97.8299H133.149C132.799 97.8299 132.449 97.4799 132.449 97.13C132.449 96.7801 132.799 96.4302 133.149 96.4302H139.273C139.623 96.4302 139.973 96.7801 139.973 97.13C139.973 97.4799 139.623 97.8299 139.273 97.8299Z" fill="#DFE2E9"/>
<path d="M157.118 101.154H116.003C115.653 101.154 115.303 100.804 115.303 100.454C115.303 100.105 115.653 99.7546 116.003 99.7546H156.943C157.293 99.7546 157.643 100.105 157.643 100.454C157.643 100.804 157.468 101.154 157.118 101.154Z" fill="#DFE2E9"/>
<path d="M164.291 101.154H160.442C160.092 101.154 159.742 100.804 159.742 100.454C159.742 100.105 160.092 99.7546 160.442 99.7546H164.291C164.641 99.7546 164.991 100.105 164.991 100.454C164.991 100.804 164.641 101.154 164.291 101.154Z" fill="#DFE2E9"/>
<path d="M178.988 101.154H167.09C166.741 101.154 166.391 100.804 166.391 100.454C166.391 100.105 166.741 99.7546 167.09 99.7546H178.988C179.338 99.7546 179.688 100.105 179.688 100.454C179.688 100.804 179.338 101.154 178.988 101.154Z" fill="#DFE2E9"/>
<path d="M144.171 104.478H116.003C115.653 104.478 115.303 104.128 115.303 103.778C115.303 103.428 115.653 103.078 116.003 103.078H144.171C144.521 103.078 144.871 103.428 144.871 103.778C144.871 104.128 144.521 104.478 144.171 104.478Z" fill="#DFE2E9"/>
<path d="M131.924 117.6H120.901C120.551 117.6 120.201 117.25 120.201 116.9C120.201 116.55 120.551 116.2 120.901 116.2H131.924C132.273 116.2 132.623 116.55 132.623 116.9C132.623 117.25 132.273 117.6 131.924 117.6Z" fill="#DFE2E9"/>
<path d="M146.094 117.6H134.372C134.022 117.6 133.672 117.25 133.672 116.9C133.672 116.55 134.022 116.2 134.372 116.2H146.094C146.444 116.2 146.794 116.55 146.794 116.9C146.794 117.25 146.444 117.6 146.094 117.6Z" fill="#DFE2E9"/>
<path d="M156.591 117.6H148.368C148.018 117.6 147.668 117.25 147.668 116.9C147.668 116.55 148.018 116.2 148.368 116.2H156.591C156.941 116.2 157.291 116.55 157.291 116.9C157.291 117.25 156.941 117.6 156.591 117.6Z" fill="#DFE2E9"/>
<path d="M163.94 117.6H159.741C159.391 117.6 159.041 117.25 159.041 116.9C159.041 116.55 159.391 116.2 159.741 116.2H163.94C164.29 116.2 164.64 116.55 164.64 116.9C164.64 117.25 164.29 117.6 163.94 117.6Z" fill="#DFE2E9"/>
<path d="M131.924 127.398H120.901C120.551 127.398 120.201 127.048 120.201 126.698C120.201 126.348 120.551 125.998 120.901 125.998H131.924C132.273 125.998 132.623 126.348 132.623 126.698C132.623 127.048 132.273 127.398 131.924 127.398Z" fill="#DFE2E9"/>
<path d="M156.593 137.196H120.901C120.551 137.196 120.201 136.846 120.201 136.496C120.201 136.147 120.551 135.797 120.901 135.797H156.593C156.943 135.797 157.293 136.147 157.293 136.496C157.293 136.846 156.943 137.196 156.593 137.196Z" fill="#DFE2E9"/>
<path d="M136.822 120.75H125.799C125.45 120.75 125.1 120.4 125.1 120.05C125.1 119.7 125.45 119.35 125.799 119.35H136.822C137.172 119.35 137.522 119.7 137.522 120.05C137.522 120.4 137.172 120.75 136.822 120.75Z" fill="#DFE2E9"/>
<path d="M154.668 120.75H139.096C138.746 120.75 138.396 120.4 138.396 120.05C138.396 119.7 138.746 119.35 139.096 119.35H154.668C155.018 119.35 155.368 119.7 155.368 120.05C155.368 120.4 155.018 120.75 154.668 120.75Z" fill="#DFE2E9"/>
<path d="M164.99 120.75H156.942C156.592 120.75 156.242 120.4 156.242 120.05C156.242 119.7 156.592 119.35 156.942 119.35H164.99C165.34 119.35 165.69 119.7 165.69 120.05C165.69 120.4 165.34 120.75 164.99 120.75Z" fill="#DFE2E9"/>
<path d="M169.891 120.75H167.266C166.916 120.75 166.566 120.4 166.566 120.05C166.566 119.7 166.916 119.35 167.266 119.35H169.891C170.241 119.35 170.59 119.7 170.59 120.05C170.59 120.4 170.241 120.75 169.891 120.75Z" fill="#DFE2E9"/>
<path d="M139.271 124.074H125.799C125.45 124.074 125.1 123.724 125.1 123.374C125.1 123.024 125.45 122.674 125.799 122.674H139.271C139.621 122.674 139.971 123.024 139.971 123.374C139.971 123.724 139.621 124.074 139.271 124.074Z" fill="#DFE2E9"/>
<path d="M145.571 124.074H141.897C141.547 124.074 141.197 123.724 141.197 123.374C141.197 123.024 141.547 122.674 141.897 122.674H145.571C145.921 122.674 146.271 123.024 146.271 123.374C146.271 123.724 145.921 124.074 145.571 124.074Z" fill="#DFE2E9"/>
<path d="M176.013 124.074H148.194C147.844 124.074 147.494 123.724 147.494 123.374C147.494 123.024 147.844 122.674 148.194 122.674H176.013C176.363 122.674 176.712 123.024 176.712 123.374C176.712 123.724 176.363 124.074 176.013 124.074Z" fill="#DFE2E9"/>
<path d="M131.924 114.276H116.003C115.653 114.276 115.303 113.926 115.303 113.576C115.303 113.226 115.653 112.876 116.003 112.876H131.924C132.274 112.876 132.624 113.226 132.624 113.576C132.624 113.926 132.274 114.276 131.924 114.276Z" fill="#DFE2E9"/>
<path d="M138.571 114.276H134.372C134.022 114.276 133.672 113.926 133.672 113.576C133.672 113.226 134.022 112.876 134.372 112.876H138.571C138.921 112.876 139.271 113.226 139.271 113.576C139.271 113.926 138.921 114.276 138.571 114.276Z" fill="#DFE2E9"/>
<path d="M131.924 130.722H116.003C115.653 130.722 115.303 130.372 115.303 130.022C115.303 129.672 115.653 129.323 116.003 129.323H131.924C132.274 129.323 132.624 129.672 132.624 130.022C132.624 130.372 132.274 130.722 131.924 130.722Z" fill="#DFE2E9"/>
<path d="M144.346 133.872H116.003C115.653 133.872 115.303 133.522 115.303 133.172C115.303 132.822 115.653 132.472 116.003 132.472H144.346C144.696 132.472 145.046 132.822 145.046 133.172C145.046 133.697 144.696 133.872 144.346 133.872Z" fill="#DFE2E9"/>
<path d="M156.592 133.872H146.62C146.27 133.872 145.92 133.522 145.92 133.172C145.92 132.822 146.27 132.472 146.62 132.472H156.592C156.942 132.472 157.292 132.822 157.292 133.172C157.292 133.697 157.117 133.872 156.592 133.872Z" fill="#DFE2E9"/>
<path d="M163.24 133.872H159.215C158.866 133.872 158.516 133.522 158.516 133.172C158.516 132.822 158.866 132.472 159.215 132.472H163.24C163.589 132.472 163.939 132.822 163.939 133.172C163.939 133.697 163.589 133.872 163.24 133.872Z" fill="#DFE2E9"/>
<path d="M39.7177 81.9082V158.716H35.5186C34.2939 158.716 33.2441 157.666 33.2441 156.441V81.9082H39.7177Z" fill="#F2F4F9"/>
<path d="M179.686 77.5344H116.525H98.6792H35.5186C34.2939 77.5344 33.2441 78.5842 33.2441 79.8089V82.7832H96.4047H118.8H181.96V79.8089C182.135 78.5842 181.085 77.5344 179.686 77.5344Z" fill="#DFE2E9"/>
<path d="M35.8678 81.0342C36.2543 81.0342 36.5676 80.7209 36.5676 80.3344C36.5676 79.9479 36.2543 79.6345 35.8678 79.6345C35.4813 79.6345 35.168 79.9479 35.168 80.3344C35.168 80.7209 35.4813 81.0342 35.8678 81.0342Z" fill="white"/>
<path d="M37.7916 81.0342C38.1781 81.0342 38.4915 80.7209 38.4915 80.3344C38.4915 79.9479 38.1781 79.6345 37.7916 79.6345C37.4051 79.6345 37.0918 79.9479 37.0918 80.3344C37.0918 80.7209 37.4051 81.0342 37.7916 81.0342Z" fill="white"/>
<path d="M39.8912 81.0342C40.2778 81.0342 40.5911 80.7209 40.5911 80.3344C40.5911 79.9479 40.2778 79.6345 39.8912 79.6345C39.5047 79.6345 39.1914 79.9479 39.1914 80.3344C39.1914 80.7209 39.5047 81.0342 39.8912 81.0342Z" fill="white"/>
<path d="M58.4376 88.0318H42.5162C42.1663 88.0318 41.8164 87.6818 41.8164 87.3319C41.8164 86.982 42.1663 86.6321 42.5162 86.6321H58.4376C58.7875 86.6321 59.1375 86.982 59.1375 87.3319C59.1375 87.6818 58.7875 88.0318 58.4376 88.0318Z" fill="#DFE2E9"/>
<path d="M36.5676 88.0318H35.8678C35.5179 88.0318 35.168 87.6818 35.168 87.3319C35.168 86.982 35.5179 86.6321 35.8678 86.6321H36.3927C36.7426 86.6321 37.0925 86.982 37.0925 87.3319C37.2675 87.6818 36.9176 88.0318 36.5676 88.0318Z" fill="#DFE2E9"/>
<path d="M36.5676 91.3557H35.8678C35.5179 91.3557 35.168 91.0058 35.168 90.6559C35.168 90.306 35.5179 89.9561 35.8678 89.9561H36.3927C36.7426 89.9561 37.0925 90.306 37.0925 90.6559C37.0925 91.0058 36.9176 91.3557 36.5676 91.3557Z" fill="#DFE2E9"/>
<path d="M36.5676 94.68H35.8678C35.5179 94.68 35.168 94.33 35.168 93.9801C35.168 93.6302 35.5179 93.2803 35.8678 93.2803H36.3927C36.7426 93.2803 37.0925 93.6302 37.0925 93.9801C37.0925 94.33 36.9176 94.68 36.5676 94.68Z" fill="#DFE2E9"/>
<path d="M36.5676 97.8296H35.8678C35.5179 97.8296 35.168 97.4797 35.168 97.1298C35.168 96.7798 35.5179 96.4299 35.8678 96.4299H36.3927C36.7426 96.4299 37.0925 96.7798 37.0925 97.1298C37.0925 97.4797 36.9176 97.8296 36.5676 97.8296Z" fill="#DFE2E9"/>
<path d="M36.5676 101.154H35.8678C35.5179 101.154 35.168 100.804 35.168 100.454C35.168 100.104 35.5179 99.7544 35.8678 99.7544H36.3927C36.7426 99.7544 37.0925 100.104 37.0925 100.454C37.0925 100.804 36.9176 101.154 36.5676 101.154Z" fill="#DFE2E9"/>
<path d="M36.5676 104.478H35.8678C35.5179 104.478 35.168 104.128 35.168 103.778C35.168 103.428 35.5179 103.078 35.8678 103.078H36.3927C36.7426 103.078 37.0925 103.428 37.0925 103.778C37.2675 104.128 36.9176 104.478 36.5676 104.478Z" fill="#DFE2E9"/>
<path d="M36.5676 107.802H35.8678C35.5179 107.802 35.168 107.452 35.168 107.102C35.168 106.752 35.5179 106.402 35.8678 106.402H36.3927C36.7426 106.402 37.0925 106.752 37.0925 107.102C37.2675 107.452 36.9176 107.802 36.5676 107.802Z" fill="#DFE2E9"/>
<path d="M36.5676 111.127H35.8678C35.5179 111.127 35.168 110.777 35.168 110.427C35.168 110.077 35.5179 109.727 35.8678 109.727H36.3927C36.7426 109.727 37.0925 110.077 37.0925 110.427C37.0925 110.777 36.9176 111.127 36.5676 111.127Z" fill="#DFE2E9"/>
<path d="M36.5676 114.451H35.8678C35.5179 114.451 35.168 114.101 35.168 113.751C35.168 113.401 35.5179 113.051 35.8678 113.051H36.3927C36.7426 113.051 37.0925 113.401 37.0925 113.751C37.0925 114.101 36.9176 114.451 36.5676 114.451Z" fill="#DFE2E9"/>
<path d="M36.5676 117.6H35.8678C35.5179 117.6 35.168 117.25 35.168 116.9C35.168 116.55 35.5179 116.2 35.8678 116.2H36.3927C36.7426 116.2 37.0925 116.55 37.0925 116.9C37.0925 117.25 36.9176 117.6 36.5676 117.6Z" fill="#DFE2E9"/>
<path d="M36.5676 120.924H35.8678C35.5179 120.924 35.168 120.574 35.168 120.224C35.168 119.874 35.5179 119.524 35.8678 119.524H36.3927C36.7426 119.524 37.0925 119.874 37.0925 120.224C37.2675 120.749 36.9176 120.924 36.5676 120.924Z" fill="#DFE2E9"/>
<path d="M36.5676 124.249H35.8678C35.5179 124.249 35.168 123.899 35.168 123.549C35.168 123.199 35.5179 122.849 35.8678 122.849H36.3927C36.7426 122.849 37.0925 123.199 37.0925 123.549C37.0925 123.899 36.9176 124.249 36.5676 124.249Z" fill="#DFE2E9"/>
<path d="M36.5676 127.573H35.8678C35.5179 127.573 35.168 127.223 35.168 126.873C35.168 126.523 35.5179 126.173 35.8678 126.173H36.3927C36.7426 126.173 37.0925 126.523 37.0925 126.873C37.0925 127.223 36.9176 127.573 36.5676 127.573Z" fill="#DFE2E9"/>
<path d="M36.5676 130.897H35.8678C35.5179 130.897 35.168 130.547 35.168 130.197C35.168 129.847 35.5179 129.497 35.8678 129.497H36.3927C36.7426 129.497 37.0925 129.847 37.0925 130.197C37.0925 130.547 36.9176 130.897 36.5676 130.897Z" fill="#DFE2E9"/>
<path d="M36.5676 134.221H35.8678C35.5179 134.221 35.168 133.871 35.168 133.521C35.168 133.171 35.5179 132.822 35.8678 132.822H36.3927C36.7426 132.822 37.0925 133.171 37.0925 133.521C37.2675 133.871 36.9176 134.221 36.5676 134.221Z" fill="#DFE2E9"/>
<path d="M36.5676 137.371H35.8678C35.5179 137.371 35.168 137.021 35.168 136.671C35.168 136.321 35.5179 135.971 35.8678 135.971H36.3927C36.7426 135.971 37.0925 136.321 37.0925 136.671C37.0925 137.021 36.9176 137.371 36.5676 137.371Z" fill="#DFE2E9"/>
<path d="M55.1134 91.3557H42.5162C42.1663 91.3557 41.8164 91.0058 41.8164 90.6559C41.8164 90.306 42.1663 89.9561 42.5162 89.9561H55.1134C55.4633 89.9561 55.8132 90.306 55.8132 90.6559C55.8132 91.0058 55.4633 91.3557 55.1134 91.3557Z" fill="#DFE2E9"/>
<path d="M88.881 91.3557H57.5631C57.2132 91.3557 56.8633 91.0058 56.8633 90.6559C56.8633 90.306 57.2132 89.9561 57.5631 89.9561H88.881C89.2309 89.9561 89.5808 90.306 89.5808 90.6559C89.5808 91.0058 89.4059 91.3557 88.881 91.3557Z" fill="#DFE2E9"/>
<path d="M102.528 91.3557H93.4303C93.0804 91.3557 92.7305 91.0058 92.7305 90.6559C92.7305 90.306 93.0804 89.9561 93.4303 89.9561H102.528C102.878 89.9561 103.228 90.306 103.228 90.6559C103.228 91.0058 102.878 91.3557 102.528 91.3557Z" fill="#DFE2E9"/>
<path d="M110.051 91.3557H107.077C106.727 91.3557 106.377 91.0058 106.377 90.6559C106.377 90.306 106.727 89.9561 107.077 89.9561H110.051C110.401 89.9561 110.751 90.306 110.751 90.6559C110.751 91.0058 110.401 91.3557 110.051 91.3557Z" fill="#DFE2E9"/>
<path d="M63.1622 94.5059H47.2409C46.8909 94.5059 46.541 94.156 46.541 93.806C46.541 93.4561 46.8909 93.1062 47.2409 93.1062H63.1622C63.5121 93.1062 63.8621 93.4561 63.8621 93.806C63.8621 94.156 63.5121 94.5059 63.1622 94.5059Z" fill="#DFE2E9"/>
<path d="M63.1622 107.627H47.2409C46.8909 107.627 46.541 107.278 46.541 106.928C46.541 106.578 46.8909 106.228 47.2409 106.228H63.1622C63.5121 106.228 63.8621 106.578 63.8621 106.928C63.8621 107.278 63.5121 107.627 63.1622 107.627Z" fill="#DFE2E9"/>
<path d="M58.9632 110.952H47.2409C46.8909 110.952 46.541 110.602 46.541 110.252C46.541 109.902 46.8909 109.552 47.2409 109.552H58.9632C59.3131 109.552 59.663 109.902 59.663 110.252C59.663 110.602 59.3131 110.952 58.9632 110.952Z" fill="#DFE2E9"/>
<path d="M89.7556 110.952H62.112C61.762 110.952 61.4121 110.602 61.4121 110.252C61.4121 109.902 61.762 109.552 62.112 109.552H89.7556C90.1056 109.552 90.4555 109.902 90.4555 110.252C90.4555 110.602 90.1056 110.952 89.7556 110.952Z" fill="#DFE2E9"/>
<path d="M67.7101 97.8296H52.8385C52.4886 97.8296 52.1387 97.4797 52.1387 97.1298C52.1387 96.7798 52.4886 96.4299 52.8385 96.4299H67.7101C68.06 96.4299 68.41 96.7798 68.41 97.1298C68.41 97.4797 68.06 97.8296 67.7101 97.8296Z" fill="#DFE2E9"/>
<path d="M75.9348 97.8296H69.8112C69.4613 97.8296 69.1113 97.4797 69.1113 97.1298C69.1113 96.7798 69.4613 96.4299 69.8112 96.4299H75.9348C76.2847 96.4299 76.6346 96.7798 76.6346 97.1298C76.6346 97.4797 76.4597 97.8296 75.9348 97.8296Z" fill="#DFE2E9"/>
<path d="M93.7792 101.154H52.8385C52.4886 101.154 52.1387 100.804 52.1387 100.454C52.1387 100.104 52.4886 99.7544 52.8385 99.7544H93.7792C94.1291 99.7544 94.479 100.104 94.479 100.454C94.479 100.804 94.1291 101.154 93.7792 101.154Z" fill="#DFE2E9"/>
<path d="M101.127 101.154H97.278C96.928 101.154 96.5781 100.804 96.5781 100.454C96.5781 100.104 96.928 99.7544 97.278 99.7544H101.127C101.477 99.7544 101.827 100.104 101.827 100.454C101.827 100.804 101.477 101.154 101.127 101.154Z" fill="#DFE2E9"/>
<path d="M115.826 101.154H103.928C103.578 101.154 103.229 100.804 103.229 100.454C103.229 100.104 103.578 99.7544 103.928 99.7544H115.826C116.176 99.7544 116.525 100.104 116.525 100.454C116.525 100.804 116.176 101.154 115.826 101.154Z" fill="#DFE2E9"/>
<path d="M81.0071 104.478H52.8385C52.4886 104.478 52.1387 104.128 52.1387 103.778C52.1387 103.428 52.4886 103.078 52.8385 103.078H81.0071C81.357 103.078 81.7069 103.428 81.7069 103.778C81.7069 104.128 81.357 104.478 81.0071 104.478Z" fill="#DFE2E9"/>
<path d="M68.5856 117.6H57.5631C57.2132 117.6 56.8633 117.25 56.8633 116.9C56.8633 116.55 57.2132 116.2 57.5631 116.2H68.5856C68.9355 116.2 69.2854 116.55 69.2854 116.9C69.2854 117.25 69.1105 117.6 68.5856 117.6Z" fill="#DFE2E9"/>
<path d="M82.7581 117.6H71.0358C70.6859 117.6 70.3359 117.25 70.3359 116.9C70.3359 116.55 70.6859 116.2 71.0358 116.2H82.7581C83.108 116.2 83.4579 116.55 83.4579 116.9C83.4579 117.25 83.108 117.6 82.7581 117.6Z" fill="#DFE2E9"/>
<path d="M93.4288 117.6H85.2057C84.8558 117.6 84.5059 117.25 84.5059 116.9C84.5059 116.55 84.8558 116.2 85.2057 116.2H93.4288C93.7787 116.2 94.1287 116.55 94.1287 116.9C94.1287 117.25 93.7787 117.6 93.4288 117.6Z" fill="#DFE2E9"/>
<path d="M100.778 117.6H96.5787C96.2288 117.6 95.8789 117.25 95.8789 116.9C95.8789 116.55 96.2288 116.2 96.5787 116.2H100.778C101.128 116.2 101.478 116.55 101.478 116.9C101.478 117.25 101.128 117.6 100.778 117.6Z" fill="#DFE2E9"/>
<path d="M68.5856 127.397H57.5631C57.2132 127.397 56.8633 127.048 56.8633 126.698C56.8633 126.348 57.2132 125.998 57.5631 125.998H68.5856C68.9355 125.998 69.2854 126.348 69.2854 126.698C69.2854 127.048 69.1105 127.397 68.5856 127.397Z" fill="#DFE2E9"/>
<path d="M93.2538 137.196H57.737C57.387 137.196 57.0371 136.846 57.0371 136.496C57.0371 136.146 57.387 135.796 57.737 135.796H93.4288C93.7787 135.796 94.1286 136.146 94.1286 136.496C94.1286 136.846 93.7787 137.196 93.2538 137.196Z" fill="#DFE2E9"/>
<path d="M73.484 120.75H62.4616C62.1116 120.75 61.7617 120.4 61.7617 120.05C61.7617 119.7 62.1116 119.35 62.4616 119.35H73.484C73.834 119.35 74.1839 119.7 74.1839 120.05C74.1839 120.4 73.834 120.75 73.484 120.75Z" fill="#DFE2E9"/>
<path d="M91.5057 120.75H75.9342C75.5843 120.75 75.2344 120.4 75.2344 120.05C75.2344 119.7 75.5843 119.35 75.9342 119.35H91.5057C91.8556 119.35 92.2055 119.7 92.2055 120.05C92.2055 120.4 91.8556 120.75 91.5057 120.75Z" fill="#DFE2E9"/>
<path d="M101.652 120.75H93.6041C93.2542 120.75 92.9043 120.4 92.9043 120.05C92.9043 119.7 93.2542 119.35 93.6041 119.35H101.652C102.002 119.35 102.352 119.7 102.352 120.05C102.352 120.4 102.002 120.75 101.652 120.75Z" fill="#DFE2E9"/>
<path d="M106.727 120.75H104.102C103.752 120.75 103.402 120.4 103.402 120.05C103.402 119.7 103.752 119.35 104.102 119.35H106.727C107.077 119.35 107.426 119.7 107.426 120.05C107.426 120.4 107.077 120.75 106.727 120.75Z" fill="#DFE2E9"/>
<path d="M76.1073 124.074H62.6354C62.2855 124.074 61.9355 123.724 61.9355 123.374C61.9355 123.024 62.2855 122.674 62.6354 122.674H76.1073C76.4572 122.674 76.8072 123.024 76.8072 123.374C76.8072 123.724 76.4572 124.074 76.1073 124.074Z" fill="#DFE2E9"/>
<path d="M82.4072 124.074H78.733C78.3831 124.074 78.0332 123.724 78.0332 123.374C78.0332 123.024 78.3831 122.674 78.733 122.674H82.4072C82.7571 122.674 83.107 123.024 83.107 123.374C83.107 123.724 82.7571 124.074 82.4072 124.074Z" fill="#DFE2E9"/>
<path d="M112.675 124.074H84.8561C84.5062 124.074 84.1562 123.724 84.1562 123.374C84.1562 123.024 84.5062 122.674 84.8561 122.674H112.675C113.025 122.674 113.375 123.024 113.375 123.374C113.375 123.724 113.2 124.074 112.675 124.074Z" fill="#DFE2E9"/>
<path d="M68.586 114.276H52.6647C52.3148 114.276 51.9648 113.926 51.9648 113.576C51.9648 113.226 52.3148 112.876 52.6647 112.876H68.586C68.936 112.876 69.2859 113.226 69.2859 113.576C69.2859 113.926 69.1109 114.276 68.586 114.276Z" fill="#DFE2E9"/>
<path d="M75.4086 114.276H71.2096C70.8597 114.276 70.5098 113.926 70.5098 113.576C70.5098 113.226 70.8597 112.876 71.2096 112.876H75.4086C75.7586 112.876 76.1085 113.226 76.1085 113.576C76.1085 113.926 75.7586 114.276 75.4086 114.276Z" fill="#DFE2E9"/>
<path d="M68.586 130.722H52.6647C52.3148 130.722 51.9648 130.372 51.9648 130.022C51.9648 129.672 52.3148 129.322 52.6647 129.322H68.586C68.936 129.322 69.2859 129.672 69.2859 130.022C69.2859 130.372 69.1109 130.722 68.586 130.722Z" fill="#DFE2E9"/>
<path d="M81.182 133.872H52.8385C52.4886 133.872 52.1387 133.522 52.1387 133.172C52.1387 132.822 52.4886 132.472 52.8385 132.472H81.182C81.532 132.472 81.8819 132.822 81.8819 133.172C81.8819 133.697 81.532 133.872 81.182 133.872Z" fill="#DFE2E9"/>
<path d="M93.4304 133.872H83.4577C83.1077 133.872 82.7578 133.522 82.7578 133.172C82.7578 132.822 83.1077 132.472 83.4577 132.472H93.4304C93.7803 132.472 94.1302 132.822 94.1302 133.172C94.1302 133.697 93.7803 133.872 93.4304 133.872Z" fill="#DFE2E9"/>
<path d="M99.9017 133.872H95.8776C95.5277 133.872 95.1777 133.522 95.1777 133.172C95.1777 132.822 95.5277 132.472 95.8776 132.472H99.9017C100.252 132.472 100.601 132.822 100.601 133.172C100.601 133.697 100.427 133.872 99.9017 133.872Z" fill="#DFE2E9"/>
<path d="M116.874 81.0342V81.2091C117.749 102.204 121.248 129.673 131.92 151.718C142.768 174.463 123.347 163.615 111.1 155.567C110.225 155.042 109.176 155.042 108.301 155.567C96.2286 163.615 76.633 174.463 87.4806 151.718C98.1531 129.498 101.652 102.204 102.527 81.2091" fill="#DFE2E9"/>
<path d="M116.874 81.0342V81.2091C117.749 102.204 121.248 129.673 131.92 151.718C142.768 174.463 123.347 163.615 111.1 155.567C110.225 155.042 109.176 155.042 108.301 155.567C96.2286 163.615 76.633 174.463 87.4806 151.718C98.1531 129.498 101.652 102.204 102.527 81.2091" stroke="#2B2B36" stroke-miterlimit="10"/>
<path d="M126.146 156.266C123.172 154.866 118.973 152.417 113.549 148.743L109.7 146.118L105.851 148.743C100.427 152.417 96.2282 154.866 93.2539 156.266C93.4289 155.916 93.6038 155.391 93.7788 155.041C104.451 132.821 108.126 106.402 109.35 85.9321H110.05C111.1 106.227 114.949 132.821 125.622 155.041C125.796 155.566 125.971 155.916 126.146 156.266Z" fill="white"/>
<path d="M120.024 136.321C120.024 144.894 113.025 151.893 104.452 151.893C100.078 151.893 96.2292 150.143 93.4298 147.344C90.6305 144.544 88.8809 140.695 88.8809 136.321C88.8809 127.748 95.8793 120.75 104.452 120.75C106.902 120.75 109.001 121.275 111.101 122.324C116.35 124.774 120.024 130.198 120.024 136.321Z" fill="#F2F4F9"/>
<path d="M115.65 133.346C115.65 141.92 108.651 148.918 100.078 148.918C97.6289 148.918 95.5293 148.393 93.4298 147.518C90.6305 144.719 88.8809 140.87 88.8809 136.496C88.8809 127.923 95.8793 120.924 104.452 120.924C106.902 120.924 109.001 121.449 111.101 122.499C113.9 125.123 115.65 128.972 115.65 133.346Z" fill="white"/>
<path d="M100.252 152.242C100.252 160.815 93.2539 167.814 84.6808 167.814C80.3068 167.814 76.4577 166.064 73.6583 163.265C70.859 160.465 69.1094 156.441 69.1094 152.242C69.1094 143.669 76.1078 136.671 84.6808 136.671C87.1303 136.671 89.2298 137.196 91.3293 138.246C96.7531 140.695 100.252 145.944 100.252 152.242Z" fill="#F2F4F9"/>
<path d="M95.8783 149.093C95.8783 157.666 88.8799 164.665 80.3068 164.665C77.8574 164.665 75.7579 164.14 73.6583 163.265C70.859 160.465 69.1094 156.441 69.1094 152.242C69.1094 143.669 76.1078 136.671 84.6808 136.671C87.1303 136.671 89.2298 137.196 91.3293 138.246C94.1287 141.045 95.8783 144.894 95.8783 149.093Z" fill="white"/>
<path d="M139.793 151.018C139.793 159.591 132.795 166.589 124.222 166.589C119.848 166.589 115.999 164.84 113.199 162.04C110.4 159.241 108.65 155.392 108.65 151.018C108.65 142.445 115.649 135.447 124.222 135.447C126.671 135.447 128.771 135.971 130.87 137.021C136.119 139.296 139.793 144.719 139.793 151.018Z" fill="#F2F4F9"/>
<path d="M135.419 147.869C135.419 156.442 128.421 163.44 119.848 163.44C117.398 163.44 115.299 162.915 113.199 162.04C110.4 159.241 108.65 155.392 108.65 151.018C108.65 142.445 115.649 135.447 124.222 135.447C126.671 135.447 128.771 135.971 130.87 137.021C133.67 139.646 135.419 143.495 135.419 147.869Z" fill="white"/>
<path d="M66.1351 161.865C66.1351 170.438 59.1367 177.437 50.5636 177.437C46.1896 177.437 42.3405 175.687 39.5411 172.888C36.7418 170.088 34.9922 166.239 34.9922 161.865C34.9922 153.292 41.9906 146.294 50.5636 146.294C53.0131 146.294 55.1126 146.819 57.2121 147.868C62.4609 150.318 66.1351 155.742 66.1351 161.865Z" fill="#F2F4F9"/>
<path d="M61.5873 158.716C61.5873 167.289 54.5888 174.288 46.0158 174.288C43.5664 174.288 41.4668 173.763 39.3673 172.888C36.568 170.089 34.8184 166.239 34.8184 161.865C34.8184 153.292 41.8168 146.294 50.3898 146.294C52.8392 146.294 54.9388 146.819 57.0383 147.869C60.0126 150.668 61.5873 154.517 61.5873 158.716Z" fill="#F2F4F9"/>
<path d="M152.389 162.04C152.389 170.613 145.391 177.611 136.818 177.611C132.444 177.611 128.594 175.862 125.795 173.062C122.996 170.263 121.246 166.414 121.246 162.04C121.246 153.467 128.244 146.469 136.818 146.469C139.267 146.469 141.366 146.993 143.466 148.043C148.715 150.493 152.389 155.916 152.389 162.04Z" fill="#F2F4F9"/>
<path d="M148.015 159.066C148.015 167.639 141.017 174.638 132.444 174.638C129.994 174.638 127.895 174.113 125.795 173.238C122.996 170.439 121.246 166.589 121.246 162.215C121.246 153.642 128.244 146.644 136.818 146.644C139.267 146.644 141.366 147.169 143.466 148.219C146.265 150.843 148.015 154.692 148.015 159.066Z" fill="#F2F4F9"/>
<path d="M119.325 155.217C119.325 163.79 112.326 170.788 103.753 170.788C99.3791 170.788 95.53 169.039 92.7306 166.239C89.9312 163.44 88.1816 159.591 88.1816 155.217C88.1816 146.644 95.18 139.646 103.753 139.646C106.203 139.646 108.302 140.17 110.402 141.22C115.825 143.67 119.325 149.093 119.325 155.217Z" fill="#F2F4F9"/>
<path d="M114.951 152.068C114.951 160.641 107.952 167.639 99.3791 167.639C96.9296 167.639 94.8301 167.114 92.7306 166.239C89.9312 163.44 88.1816 159.591 88.1816 155.217C88.1816 146.644 95.18 139.646 103.753 139.646C106.203 139.646 108.302 140.17 110.402 141.22C113.201 144.02 114.951 147.869 114.951 152.068Z" fill="white"/>
<path d="M153.264 154.867C153.264 160.64 148.54 165.189 142.942 165.189C140.142 165.189 137.518 163.965 135.593 162.04C133.669 160.116 132.619 157.491 132.619 154.692C132.619 148.918 137.343 144.369 142.942 144.369C144.516 144.369 146.091 144.719 147.316 145.419C150.815 147.168 153.264 150.668 153.264 154.867Z" fill="#F2F4F9"/>
<path d="M150.29 152.767C150.29 158.541 145.566 163.09 139.967 163.09C138.393 163.09 136.818 162.74 135.593 162.04C133.669 160.116 132.619 157.491 132.619 154.692C132.619 148.918 137.343 144.369 142.942 144.369C144.516 144.369 146.091 144.719 147.316 145.419C149.065 147.343 150.29 149.968 150.29 152.767Z" fill="white"/>
<path d="M175.837 171.138C175.837 176.912 171.113 181.461 165.514 181.461C162.715 181.461 160.09 180.236 158.166 178.312C156.241 176.387 155.191 173.763 155.191 170.963C155.191 165.19 159.915 160.641 165.514 160.641C167.089 160.641 168.663 160.991 169.888 161.69C173.387 163.44 175.837 166.939 175.837 171.138Z" fill="#F2F4F9"/>
<path d="M172.862 169.039C172.862 174.812 168.138 179.361 162.54 179.361C160.965 179.361 159.39 179.011 158.166 178.312C156.241 176.387 155.191 173.763 155.191 170.963C155.191 165.19 159.915 160.641 165.514 160.641C167.089 160.641 168.663 160.991 169.888 161.69C171.813 163.615 172.862 166.239 172.862 169.039Z" fill="#F2F4F9"/>
<path d="M43.9148 168.339C43.9148 174.113 39.1909 178.662 33.5922 178.662C30.7928 178.662 28.1684 177.437 26.2439 175.513C24.3193 173.588 23.2695 170.964 23.2695 168.164C23.2695 162.391 27.9935 157.842 33.5922 157.842C35.1668 157.842 36.7415 158.191 37.9662 158.891C41.4654 160.641 43.9148 164.315 43.9148 168.339Z" fill="#E2EBFF"/>
<path d="M40.9405 166.415C40.9405 172.188 36.2166 176.737 30.6179 176.737C29.0432 176.737 27.4686 176.387 26.2439 175.688C24.3193 173.763 23.2695 171.139 23.2695 168.339C23.2695 162.566 27.9935 158.017 33.5922 158.017C35.1668 158.017 36.7415 158.367 37.9662 159.066C39.7158 160.816 40.9405 163.44 40.9405 166.415Z" fill="white"/>
<path d="M44.7898 153.292C44.7898 159.066 40.0659 163.615 34.4672 163.615C31.6678 163.615 29.0434 162.39 27.1189 160.465C25.1943 158.541 24.1445 155.916 24.1445 153.117C24.1445 147.343 28.8685 142.794 34.4672 142.794C36.0418 142.794 37.6165 143.144 38.8412 143.844C42.3404 145.594 44.7898 149.093 44.7898 153.292Z" fill="#E2EBFF"/>
<path d="M41.8155 151.193C41.8155 156.966 37.0916 161.515 31.4929 161.515C29.9182 161.515 28.3436 161.165 27.1189 160.465C25.1943 158.541 24.1445 155.916 24.1445 153.117C24.1445 147.343 28.8685 142.794 34.4672 142.794C36.0418 142.794 37.6165 143.144 38.8412 143.844C40.5908 145.769 41.8155 148.393 41.8155 151.193Z" fill="white"/>
<path d="M184.407 149.793C184.407 155.567 179.683 160.116 174.084 160.116C171.285 160.116 168.661 158.891 166.736 156.966C164.811 155.042 163.762 152.417 163.762 149.618C163.762 143.844 168.486 139.295 174.084 139.295C175.659 139.295 177.234 139.645 178.458 140.345C182.133 142.095 184.407 145.594 184.407 149.793Z" fill="#F2F4F9"/>
<path d="M181.607 147.693C181.607 153.467 176.883 158.016 171.284 158.016C169.709 158.016 168.135 157.666 166.91 156.966C164.985 155.042 163.936 152.417 163.936 149.618C163.936 143.844 168.659 139.295 174.258 139.295C175.833 139.295 177.407 139.645 178.632 140.345C180.382 142.27 181.607 144.894 181.607 147.693Z" fill="#F2F4F9"/>
<path d="M166.213 164.84C166.213 170.963 161.139 176.037 155.016 176.037C151.867 176.037 149.067 174.813 147.143 172.713C145.218 170.613 143.818 167.989 143.818 164.84C143.818 158.716 148.892 153.642 155.016 153.642C156.765 153.642 158.34 153.992 159.74 154.692C163.764 156.442 166.213 160.291 166.213 164.84Z" fill="#F2F4F9"/>
<path d="M163.064 162.565C163.064 168.689 157.99 173.763 151.867 173.763C150.117 173.763 148.542 173.413 147.143 172.713C145.218 170.613 143.818 167.989 143.818 164.84C143.818 158.716 148.892 153.642 155.016 153.642C156.765 153.642 158.34 153.992 159.74 154.692C161.839 156.792 163.064 159.591 163.064 162.565Z" fill="#F2F4F9"/>
<path d="M199.629 161.516C199.629 167.639 194.555 172.713 188.432 172.713C185.283 172.713 182.483 171.489 180.559 169.389C178.634 167.289 177.234 164.665 177.234 161.516C177.234 155.392 182.308 150.318 188.432 150.318C190.181 150.318 191.756 150.668 193.156 151.368C197.005 153.118 199.629 156.967 199.629 161.516Z" fill="#E2EBFF"/>
<path d="M196.48 159.241C196.48 165.365 191.406 170.439 185.283 170.439C183.533 170.439 181.958 170.089 180.559 169.389C178.634 167.289 177.234 164.665 177.234 161.516C177.234 155.392 182.308 150.318 188.432 150.318C190.181 150.318 191.756 150.668 193.156 151.368C195.255 153.468 196.48 156.092 196.48 159.241Z" fill="white"/>
<path d="M83.9817 162.041C83.9817 169.039 78.208 174.813 71.2096 174.813C67.7104 174.813 64.3861 173.413 62.1117 170.964C59.8372 168.689 58.4375 165.54 58.4375 162.041C58.4375 155.042 64.2112 149.269 71.2096 149.269C73.1341 149.269 75.0587 149.793 76.6333 150.493C81.0073 152.593 83.9817 156.967 83.9817 162.041Z" fill="#E2EBFF"/>
<path d="M80.3075 159.591C80.3075 166.589 74.5338 172.363 67.5354 172.363C65.6109 172.363 63.6863 171.838 62.1117 171.138C59.8372 168.864 58.4375 165.715 58.4375 162.215C58.4375 155.217 64.2112 149.443 71.2096 149.443C73.1341 149.443 75.0587 149.968 76.6333 150.668C78.9078 152.943 80.3075 156.092 80.3075 159.591Z" fill="white"/>
<path d="M67.536 168.864C67.536 174.988 62.6371 179.887 56.5135 179.887C53.5392 179.887 50.7399 178.662 48.8153 176.737C46.8907 174.813 45.666 172.013 45.666 169.039C45.666 162.915 50.5649 158.017 56.6885 158.017C58.4381 158.017 60.0127 158.367 61.4124 159.066C64.9116 160.641 67.536 164.49 67.536 168.864Z" fill="#F2F4F9"/>
<path d="M64.3859 166.765C64.3859 172.888 59.487 177.787 53.3634 177.787C51.6138 177.787 50.0392 177.437 48.6395 176.737C46.715 174.813 45.4902 172.013 45.4902 169.039C45.4902 162.915 50.3891 158.017 56.5127 158.017C58.2623 158.017 59.837 158.367 61.2366 159.066C63.1612 160.991 64.3859 163.615 64.3859 166.765Z" fill="#F2F4F9"/>
<path d="M51.2626 170.613C51.2626 176.737 46.3637 181.636 40.2401 181.636C37.2658 181.636 34.4664 180.411 32.5419 178.486C30.6173 176.562 29.3926 173.762 29.3926 170.788C29.3926 164.665 34.2915 159.766 40.4151 159.766C42.1647 159.766 43.7393 160.116 45.139 160.815C48.8131 162.39 51.2626 166.239 51.2626 170.613Z" fill="#F2F4F9"/>
<path d="M48.2883 168.514C48.2883 174.637 43.3894 179.536 37.2658 179.536C35.5162 179.536 33.9415 179.186 32.5419 178.486C30.6173 176.562 29.3926 173.762 29.3926 170.788C29.3926 164.665 34.2915 159.766 40.4151 159.766C42.1647 159.766 43.7393 160.116 45.139 160.815C47.0635 162.74 48.2883 165.364 48.2883 168.514Z" fill="white"/>
<path d="M98.3278 40.7934C96.7532 47.9668 95.1785 56.3649 85.0309 65.6378C83.8061 66.6875 83.2812 68.2622 83.2812 69.6618V74.2108H103.577L102.877 36.4194L98.3278 40.7934Z" fill="#F5CB35"/>
<path d="M98.3278 40.7934C96.7532 47.9668 95.1785 56.3649 85.0309 65.6378C83.8061 66.6875 83.2812 68.2622 83.2812 69.6618V74.2108H103.577L102.877 36.4194L98.3278 40.7934Z" stroke="#2B2B36" stroke-miterlimit="10"/>
<path d="M121.772 40.7934C123.347 47.9668 124.922 56.3649 135.069 65.6378C136.294 66.6875 136.819 68.2622 136.819 69.6618V74.2108H116.523L117.223 36.4194L121.772 40.7934Z" fill="#F5CB35"/>
<path d="M121.772 40.7934C123.347 47.9668 124.922 56.3649 135.069 65.6378C136.294 66.6875 136.819 68.2622 136.819 69.6618V74.2108H116.523L117.223 36.4194L121.772 40.7934Z" stroke="#2B2B36" stroke-miterlimit="10"/>
<path d="M121.949 36.9437C121.949 49.016 121.949 74.3852 121.949 74.3852H98.1543C98.1543 74.3852 98.1543 49.016 98.1543 36.9437C98.1543 24.8715 103.403 19.0978 110.052 12.6243C112.851 15.4236 115.3 18.048 117.4 21.0224C120.199 25.0464 121.949 29.7704 121.949 36.9437Z" fill="#FFDF6F"/>
<path d="M110.051 12.4494C112.851 15.2488 115.3 17.8732 117.4 20.8475C120.199 25.0466 121.948 29.9454 121.948 36.9438C121.948 49.0161 121.948 74.3853 121.948 74.3853H98.1539C98.1539 74.3853 98.1539 49.0161 98.1539 36.9438C98.1539 24.6966 103.403 19.0979 110.051 12.4494ZM110.051 10L108.826 11.2247C102.703 17.3483 96.4043 23.6469 96.4043 36.9438V74.3853V76.1349H98.1539H121.948H123.698V74.3853V36.9438C123.698 30.2954 122.123 24.8716 118.799 19.9727C116.7 16.8234 114.075 14.0241 111.276 11.3997L110.051 10Z" fill="#2B2B36"/>
<path d="M121.947 36.9441C121.947 49.0164 121.947 74.3856 121.947 74.3856H113.724C113.549 73.5108 113.549 72.461 113.549 71.4113C113.549 68.9618 113.549 66.3374 113.549 63.713C113.549 62.1384 113.549 60.3888 114.599 59.1641C115.123 58.4642 115.998 58.1143 116.698 57.4145C117.923 56.0148 117.923 53.9153 117.923 52.1657C117.748 46.217 117.573 40.2684 117.398 34.3197C117.398 32.2202 117.223 29.9457 117.223 27.8462C117.223 26.7965 117.223 25.5717 117.048 24.522C117.048 23.6472 116.698 22.2475 117.048 21.1977C117.223 20.8478 117.398 20.6729 117.573 20.6729C120.197 25.0469 121.947 29.7708 121.947 36.9441Z" fill="#F5CB35"/>
<path d="M110.05 37.1191C112.176 37.1191 113.899 35.3958 113.899 33.27C113.899 31.1442 112.176 29.4209 110.05 29.4209C107.924 29.4209 106.201 31.1442 106.201 33.27C106.201 35.3958 107.924 37.1191 110.05 37.1191Z" fill="white" stroke="#3C4D69" stroke-width="2" stroke-miterlimit="10"/>
<path d="M101.476 78.7598H94.8279C94.303 78.7598 93.9531 78.4099 93.9531 77.885V64.2381C93.9531 61.9636 95.8777 60.0391 98.1522 60.0391C100.427 60.0391 102.351 61.9636 102.351 64.2381V77.885C102.526 78.2349 102.001 78.7598 101.476 78.7598Z" fill="#FFDF6E" stroke="#2B2B36" stroke-miterlimit="10"/>
<path d="M125.096 78.7593H118.447C117.922 78.7593 117.572 78.4094 117.572 77.8845V64.2376C117.572 61.9631 119.497 60.0386 121.771 60.0386C124.046 60.0386 125.97 61.9631 125.97 64.2376V77.8845C125.97 78.2344 125.62 78.7593 125.096 78.7593Z" fill="#FFDF6E" stroke="#2B2B36" stroke-miterlimit="10"/>
<path d="M114.598 84.8833C114.598 87.5077 109.874 93.8063 109.874 93.8063C109.874 93.8063 105.15 87.5077 105.15 84.8833C105.15 82.2589 107.25 80.1594 109.874 80.1594C112.499 80.1594 114.598 82.2589 114.598 84.8833Z" fill="#EE2D38"/>
<path d="M124.747 82.7835C124.747 84.3581 121.948 87.8573 121.948 87.8573C121.948 87.8573 119.148 84.1832 119.148 82.7835C119.148 81.3838 120.373 79.9841 121.948 79.9841C123.522 80.1591 124.747 81.3838 124.747 82.7835Z" fill="#EE2D38"/>
<path d="M100.779 82.7835C100.779 84.3581 97.9799 87.8573 97.9799 87.8573C97.9799 87.8573 95.3555 84.3581 95.3555 82.7835C95.3555 81.2088 96.5802 79.9841 98.1548 79.9841C99.5545 80.1591 100.779 81.3838 100.779 82.7835Z" fill="#EE2D38"/>
<path d="M110.925 40.0929C110.925 39.743 110.575 39.3931 110.225 39.3931C109.875 39.3931 109.525 39.743 109.525 40.0929V74.56H110.925V40.0929Z" fill="#F5CB35"/>
<path d="M97.9788 166.414C97.9788 174.987 90.9804 181.986 82.4074 181.986C78.0334 181.986 74.1843 180.236 71.3849 177.437C68.5855 174.637 66.8359 170.788 66.8359 166.414C66.8359 157.841 73.8343 150.843 82.4074 150.843C84.8568 150.843 86.9563 151.368 89.0559 152.417C94.3047 154.867 97.9788 160.116 97.9788 166.414Z" fill="#F2F4F9"/>
<path d="M93.6048 163.265C93.6048 171.838 86.6064 178.836 78.0334 178.836C75.5839 178.836 73.4844 178.311 71.3849 177.437C68.5855 174.637 66.8359 170.788 66.8359 166.414C66.8359 157.841 73.8343 150.843 82.4074 150.843C84.8568 150.843 86.9563 151.368 89.0559 152.417C91.8552 155.042 93.6048 159.066 93.6048 163.265Z" fill="white"/>
<path d="M56.5129 157.492C55.1132 164.665 48.8146 170.264 41.1164 170.264C36.7424 170.264 32.8932 168.514 30.0939 165.715C27.2945 162.916 25.5449 159.067 25.5449 154.693C25.5449 146.119 32.5433 139.121 41.1164 139.121C43.5658 139.121 45.6653 139.646 47.7648 140.696C51.439 142.445 54.4133 145.595 55.813 149.619" fill="#F2F4F9"/>
<path d="M56.5129 157.492C55.1132 164.665 48.8146 170.264 41.1164 170.264C36.7424 170.264 32.8932 168.514 30.0939 165.715C27.2945 162.916 25.5449 159.067 25.5449 154.693C25.5449 146.119 32.5433 139.121 41.1164 139.121C43.5658 139.121 45.6653 139.646 47.7648 140.696C51.439 142.445 54.4133 145.595 55.813 149.619" stroke="#2B2B36" stroke-miterlimit="10" stroke-linecap="round"/>
<path d="M52.4876 151.543C52.4876 160.116 45.4892 167.114 36.9162 167.114C34.4668 167.114 32.3672 166.589 30.2677 165.715C27.4683 162.915 25.7188 159.066 25.7188 154.692C25.7188 146.119 32.7172 139.121 41.2902 139.121C43.7396 139.121 45.8392 139.645 47.9387 140.695C50.738 143.32 52.4876 147.169 52.4876 151.543Z" fill="white"/>
<path d="M117.924 165.89C117.924 174.463 110.926 181.461 102.353 181.461C97.9787 181.461 94.1296 179.712 91.3302 176.912C88.5309 174.113 86.7812 170.264 86.7812 165.89C86.7812 157.317 93.7797 150.318 102.353 150.318C104.802 150.318 106.902 150.843 109.001 151.893C114.25 154.342 117.924 159.766 117.924 165.89Z" fill="#F2F4F9"/>
<path d="M113.55 162.916C113.55 171.489 106.552 178.487 97.9787 178.487C95.5293 178.487 93.4297 177.962 91.3302 177.088C88.5309 174.288 86.7812 170.439 86.7812 166.065C86.7812 157.492 93.7797 150.494 102.353 150.494C104.802 150.494 106.902 151.019 109.001 152.068C111.801 154.693 113.55 158.542 113.55 162.916Z" fill="white"/>
<path d="M117.924 165.89C117.924 174.463 110.926 181.461 102.353 181.461C97.9787 181.461 94.1296 179.712 91.3302 176.912C88.5309 174.113 86.7812 170.264 86.7812 165.89C86.7812 157.317 93.7797 150.318 102.353 150.318C104.802 150.318 106.902 150.843 109.001 151.893C114.25 154.342 117.924 159.766 117.924 165.89Z" stroke="#2B2B36" stroke-miterlimit="10" stroke-linecap="round" stroke-linejoin="round"/>
<path d="M131.746 170.088C131.746 176.037 126.847 180.936 120.898 180.936C117.924 180.936 115.125 179.711 113.2 177.786C111.275 175.862 110.051 173.062 110.051 170.088C110.051 164.139 114.95 159.24 120.898 159.24C122.473 159.24 124.048 159.59 125.447 160.29C129.296 162.04 131.746 165.714 131.746 170.088Z" fill="#F2F4F9"/>
<path d="M128.77 167.988C128.77 173.937 123.871 178.836 117.923 178.836C116.348 178.836 114.774 178.486 113.374 177.786C111.449 175.862 110.225 173.062 110.225 170.088C110.225 164.139 115.123 159.24 121.072 159.24C122.647 159.24 124.221 159.59 125.621 160.29C127.546 162.215 128.77 165.014 128.77 167.988Z" fill="white"/>
<path d="M36.5681 170.789C36.5681 176.738 31.6692 181.636 25.7206 181.636C22.7462 181.636 19.9469 180.412 18.0223 178.487C16.0978 176.388 14.873 173.763 14.873 170.789C14.873 164.84 19.7719 159.941 25.7206 159.941C27.2952 159.941 28.8699 160.291 30.2695 160.991C34.1187 162.741 36.5681 166.415 36.5681 170.789Z" fill="#F2F4F9"/>
<path d="M33.5938 168.514C33.5938 174.463 28.6949 179.362 22.7462 179.362C21.1716 179.362 19.597 179.012 18.1973 178.312C16.0978 176.388 14.873 173.763 14.873 170.789C14.873 164.84 19.7719 159.941 25.7206 159.941C27.2952 159.941 28.8699 160.291 30.2695 160.991C32.3691 162.916 33.5938 165.54 33.5938 168.514Z" fill="white"/>
<path d="M154.84 169.739C154.84 175.688 149.941 180.586 143.992 180.586C141.018 180.586 138.218 179.362 136.294 177.437C134.369 175.513 133.145 172.713 133.145 169.739C133.145 163.79 138.043 158.891 143.992 158.891C145.567 158.891 147.141 159.241 148.541 159.941C152.215 161.691 154.84 165.365 154.84 169.739Z" fill="#F2F4F9"/>
<path d="M151.69 167.464C151.69 173.413 146.791 178.312 140.843 178.312C139.268 178.312 137.693 177.962 136.294 177.262C134.369 175.337 133.145 172.538 133.145 169.564C133.145 163.615 138.043 158.716 143.992 158.716C145.567 158.716 147.141 159.066 148.541 159.766C150.641 161.865 151.69 164.49 151.69 167.464Z" fill="white"/>
<path d="M198.929 168.513C198.929 174.462 194.031 179.361 188.082 179.361C185.108 179.361 182.308 178.136 180.384 176.211C178.459 174.287 177.234 171.487 177.234 168.513C177.234 162.564 182.133 157.666 188.082 157.666C189.657 157.666 191.231 158.015 192.631 158.715C196.305 160.29 198.929 164.139 198.929 168.513Z" fill="#F2F4F9"/>
<path d="M195.78 166.239C195.78 172.188 190.881 177.086 184.933 177.086C183.358 177.086 181.783 176.737 180.384 176.037C178.459 174.112 177.234 171.313 177.234 168.338C177.234 162.39 182.133 157.491 188.082 157.491C189.657 157.491 191.231 157.841 192.631 158.541C194.555 160.64 195.78 163.265 195.78 166.239Z" fill="#F2F4F9"/>
<path d="M179.334 155.917C179.334 161.866 174.435 166.765 168.486 166.765C165.512 166.765 162.713 165.54 160.788 163.616C158.863 161.691 157.639 158.892 157.639 155.917C157.639 149.969 162.538 145.07 168.486 145.07C170.061 145.07 171.635 145.42 173.035 146.12C176.884 147.869 179.334 151.543 179.334 155.917Z" fill="#E2EBFF"/>
<path d="M176.358 153.817C176.358 159.766 171.459 164.665 165.511 164.665C163.936 164.665 162.361 164.315 160.962 163.615C159.037 161.691 157.812 158.891 157.812 155.917C157.812 149.968 162.711 145.069 168.66 145.069C170.235 145.069 171.809 145.419 173.209 146.119C175.134 148.044 176.358 150.843 176.358 153.817Z" fill="white"/>
<path d="M193.508 144.544C193.508 150.492 188.609 155.391 182.66 155.391C179.686 155.391 176.886 154.167 174.962 152.242C173.037 150.318 171.812 147.518 171.812 144.544C171.812 138.595 176.711 133.696 182.66 133.696C184.235 133.696 185.809 134.046 187.209 134.746C191.058 136.496 193.508 140.17 193.508 144.544Z" fill="#F2F4F9"/>
<path d="M190.532 142.269C190.532 148.218 185.633 153.117 179.685 153.117C178.11 153.117 176.535 152.767 175.136 152.067C173.211 150.143 171.986 147.343 171.986 144.369C171.986 138.42 176.885 133.521 182.834 133.521C184.408 133.521 185.983 133.871 187.383 134.571C189.307 136.671 190.532 139.295 190.532 142.269Z" fill="white"/>
<path d="M124.922 165.889C124.922 170.088 121.598 173.413 117.399 173.413C115.3 173.413 113.375 172.538 112.15 171.138C110.751 169.738 110.051 167.989 110.051 165.889C110.051 161.69 113.375 158.366 117.574 158.366C118.799 158.366 119.849 158.541 120.723 159.066C123.173 160.291 124.922 162.915 124.922 165.889Z" fill="#F2F4F9"/>
<path d="M122.823 164.315C122.823 168.514 119.499 171.838 115.3 171.838C114.075 171.838 113.025 171.663 112.15 171.138C110.751 169.738 110.051 167.989 110.051 165.889C110.051 161.69 113.375 158.366 117.574 158.366C118.799 158.366 119.849 158.541 120.723 159.066C121.948 160.465 122.823 162.39 122.823 164.315Z" fill="white"/>
<path d="M204.354 155.566C204.354 159.766 201.03 163.09 196.831 163.09C194.731 163.09 192.807 162.215 191.582 160.815C190.182 159.416 189.482 157.666 189.482 155.566C189.482 151.367 192.807 148.043 197.006 148.043C198.23 148.043 199.28 148.218 200.155 148.743C202.604 149.968 204.354 152.592 204.354 155.566Z" fill="#F2F4F9"/>
<path d="M202.254 154.167C202.254 158.366 198.93 161.69 194.731 161.69C193.507 161.69 192.457 161.515 191.582 160.99C190.182 159.591 189.482 157.841 189.482 155.742C189.482 151.543 192.807 148.218 197.006 148.218C198.23 148.218 199.28 148.393 200.155 148.918C201.38 150.143 202.254 152.067 202.254 154.167Z" fill="white"/>
<path d="M73.8345 161.69C73.8345 165.889 70.5103 169.214 66.3112 169.214C64.2117 169.214 62.2871 168.339 61.0624 166.939C59.6627 165.539 58.9629 163.79 58.9629 161.69C58.9629 157.491 62.2871 154.167 66.4862 154.167C67.7109 154.167 68.7607 154.342 69.6355 154.867C72.0849 156.092 73.8345 158.541 73.8345 161.69Z" fill="#F2F4F9"/>
<path d="M71.735 160.116C71.735 164.315 68.4107 167.639 64.2117 167.639C62.987 167.639 61.9372 167.464 61.0624 166.939C59.6627 165.539 58.9629 163.79 58.9629 161.69C58.9629 157.491 62.2871 154.167 66.4862 154.167C67.7109 154.167 68.7607 154.342 69.6355 154.867C70.8602 156.267 71.735 158.016 71.735 160.116Z" fill="white"/>
<path d="M22.5716 171.488C22.5716 175.687 19.2473 179.012 15.0483 179.012C12.9488 179.012 11.0242 178.137 9.79948 176.737C8.3998 175.337 7.69996 173.588 7.69996 171.488C7.525 167.464 10.8492 163.965 15.0483 163.965C16.273 163.965 17.3228 164.14 18.1976 164.665C20.822 165.89 22.5716 168.514 22.5716 171.488Z" fill="#F2F4F9"/>
<path d="M20.472 170.089C20.472 174.288 17.1478 177.612 12.9488 177.612C11.724 177.612 10.6743 177.437 9.79948 176.912C8.3998 175.512 7.69996 173.763 7.69996 171.663C7.525 167.464 10.8492 163.965 15.0483 163.965C16.273 163.965 17.3228 164.14 18.1976 164.665C19.5972 166.065 20.472 167.989 20.472 170.089Z" fill="white"/>
<path d="M27.1197 160.116C27.1197 164.315 23.7954 167.639 19.5964 167.639C17.4968 167.639 15.5723 166.764 14.3476 165.364C12.9479 163.965 12.248 162.215 12.248 160.116C12.248 155.917 15.5723 152.592 19.7713 152.592C20.9961 152.592 22.0458 152.767 22.9206 153.292C25.3701 154.517 27.1197 157.141 27.1197 160.116Z" fill="#F2F4F9"/>
<path d="M25.0201 158.716C25.0201 162.916 21.6959 166.24 17.4968 166.24C16.2721 166.24 15.2224 166.065 14.3476 165.54C12.9479 164.14 12.248 162.391 12.248 160.291C12.248 156.092 15.5723 152.768 19.7713 152.768C20.9961 152.768 22.0458 152.943 22.9206 153.468C24.1453 154.692 25.0201 156.617 25.0201 158.716Z" fill="white"/>
<path d="M54.2388 157.316C54.2388 161.515 50.9146 164.84 46.7155 164.84C44.616 164.84 42.6914 163.965 41.4667 162.565C40.067 161.165 39.3672 159.416 39.3672 157.316C39.3672 153.117 42.6914 149.793 46.8905 149.793C48.1152 149.793 49.165 149.968 50.0398 150.493C52.4892 151.718 54.2388 154.342 54.2388 157.316Z" fill="#F2F4F9"/>
<path d="M52.1393 155.917C52.1393 160.116 48.815 163.44 44.616 163.44C43.3913 163.44 42.3415 163.265 41.4667 162.74C40.067 161.34 39.3672 159.591 39.3672 157.491C39.3672 153.292 42.6914 149.968 46.8905 149.968C48.1152 149.968 49.165 150.143 50.0398 150.668C51.2645 151.893 52.1393 153.817 52.1393 155.917Z" fill="white"/>
<path d="M162.187 143.845C162.187 145.595 160.788 146.994 159.038 146.994C158.163 146.994 157.288 146.644 156.763 146.12C156.239 145.595 155.889 144.72 155.889 143.845C155.889 142.095 157.288 140.696 159.038 140.696C159.563 140.696 159.913 140.871 160.438 141.046C161.487 141.571 162.187 142.62 162.187 143.845Z" fill="#E2EBFF"/>
<path d="M161.312 143.32C161.312 145.07 159.913 146.469 158.163 146.469C157.638 146.469 157.288 146.295 156.763 146.12C156.239 145.595 155.889 144.72 155.889 143.845C155.889 142.095 157.288 140.696 159.038 140.696C159.563 140.696 159.913 140.871 160.438 141.046C160.963 141.571 161.312 142.445 161.312 143.32Z" fill="white"/>
<path d="M207.677 173.762C207.677 175.512 206.278 176.911 204.528 176.911C203.653 176.911 202.779 176.561 202.254 176.037C201.729 175.512 201.379 174.637 201.379 173.762C201.379 172.012 202.779 170.613 204.528 170.613C205.053 170.613 205.403 170.788 205.928 170.963C206.978 171.488 207.677 172.537 207.677 173.762Z" fill="#E2EBFF"/>
<path d="M206.803 173.237C206.803 174.987 205.403 176.386 203.653 176.386C203.129 176.386 202.779 176.212 202.254 176.037C201.729 175.512 201.379 174.637 201.379 173.762C201.379 172.012 202.779 170.613 204.528 170.613C205.053 170.613 205.403 170.788 205.928 170.963C206.453 171.488 206.803 172.362 206.803 173.237Z" fill="white"/>
<path d="M130.871 145.944C130.871 147.693 129.471 149.093 127.722 149.093C126.847 149.093 125.972 148.743 125.447 148.218C124.922 147.693 124.572 146.819 124.572 145.944C124.572 144.194 125.972 142.794 127.722 142.794C128.246 142.794 128.596 142.969 129.121 143.144C130.171 143.669 130.871 144.719 130.871 145.944Z" fill="#F2F4F9"/>
<path d="M129.996 145.419C129.996 147.168 128.596 148.568 126.847 148.568C126.322 148.568 125.972 148.393 125.447 148.218C124.922 147.693 124.572 146.819 124.572 145.944C124.572 144.194 125.972 142.794 127.722 142.794C128.246 142.794 128.596 142.969 129.121 143.144C129.646 143.669 129.996 144.544 129.996 145.419Z" fill="white"/>
<path d="M59.8357 166.414C59.8357 168.164 58.436 169.564 56.6864 169.564C55.8116 169.564 54.9368 169.214 54.4119 168.689C53.887 168.164 53.5371 167.289 53.5371 166.414C53.5371 164.665 54.9368 163.265 56.6864 163.265C57.2113 163.265 57.5612 163.44 58.0861 163.615C58.9609 164.14 59.8357 165.19 59.8357 166.414Z" fill="#E2EBFF"/>
<path d="M58.9609 165.89C58.9609 167.639 57.5612 169.039 55.8116 169.039C55.2867 169.039 54.9368 168.864 54.4119 168.689C53.887 168.164 53.5371 167.289 53.5371 166.414C53.5371 164.665 54.9368 163.265 56.6864 163.265C57.2113 163.265 57.5612 163.44 58.0861 163.615C58.611 164.14 58.9609 165.015 58.9609 165.89Z" fill="white"/>
<path d="M69.8103 139.646C69.8103 141.395 68.4106 142.795 66.661 142.795C65.7862 142.795 64.9114 142.445 64.3865 141.92C63.8616 141.395 63.5117 140.521 63.5117 139.646C63.5117 137.896 64.9114 136.497 66.661 136.497C67.1859 136.497 67.5358 136.672 68.0607 136.846C69.1104 137.196 69.8103 138.421 69.8103 139.646Z" fill="#E2EBFF"/>
<path d="M68.9355 138.946C68.9355 140.696 67.5358 142.095 65.7862 142.095C65.2613 142.095 64.9114 141.92 64.3865 141.745C63.8616 141.22 63.5117 140.346 63.5117 139.471C63.5117 137.721 64.9114 136.322 66.661 136.322C67.1859 136.322 67.5358 136.497 68.0607 136.671C68.5856 137.371 68.9355 138.071 68.9355 138.946Z" fill="white"/>
<path d="M7.47434 164.14C7.47434 165.89 6.07466 167.29 4.32506 167.29C3.45026 167.29 2.57546 166.94 2.05058 166.415C1.5257 165.89 1.17578 165.015 1.17578 164.14C1.17578 162.391 2.57546 160.991 4.32506 160.991C4.84994 160.991 5.19986 161.166 5.72474 161.341C6.59954 161.691 7.47434 162.916 7.47434 164.14Z" fill="#E2EBFF"/>
<path d="M6.59954 163.44C6.59954 165.19 5.19986 166.59 3.45026 166.59C2.92538 166.59 2.57546 166.415 2.05058 166.24C1.5257 165.715 1.17578 164.84 1.17578 163.965C1.17578 162.216 2.57546 160.816 4.32506 160.816C4.84994 160.816 5.19986 160.991 5.72474 161.166C6.07466 161.866 6.59954 162.566 6.59954 163.44Z" fill="white"/>
<path d="M168.487 133.696C168.487 134.571 167.787 135.096 167.087 135.096C166.737 135.096 166.387 134.921 166.037 134.746C165.862 134.571 165.688 134.046 165.688 133.696C165.688 132.821 166.387 132.296 167.087 132.296C167.262 132.296 167.437 132.296 167.787 132.471C168.137 132.646 168.487 133.171 168.487 133.696Z" fill="#E2EBFF"/>
<path d="M168.137 133.347C168.137 134.221 167.437 134.746 166.737 134.746C166.562 134.746 166.387 134.746 166.037 134.571C165.862 134.396 165.688 133.871 165.688 133.521C165.688 132.647 166.387 132.122 167.087 132.122C167.262 132.122 167.437 132.122 167.787 132.297C167.962 132.647 168.137 132.997 168.137 133.347Z" fill="white"/>
<path d="M207.329 141.045C207.329 141.92 206.629 142.445 205.929 142.445C205.579 142.445 205.229 142.27 204.879 142.095C204.704 141.92 204.529 141.395 204.529 141.045C204.529 140.17 205.229 139.646 205.929 139.646C206.104 139.646 206.279 139.646 206.629 139.82C206.979 139.995 207.329 140.52 207.329 141.045Z" fill="#E2EBFF"/>
<path d="M206.979 140.87C206.979 141.745 206.279 142.27 205.579 142.27C205.404 142.27 205.229 142.27 204.879 142.095C204.704 141.92 204.529 141.395 204.529 141.045C204.529 140.17 205.229 139.646 205.929 139.646C206.104 139.646 206.279 139.646 206.629 139.82C206.804 139.995 206.979 140.345 206.979 140.87Z" fill="white"/>
<path d="M42.8677 155.042C42.8677 155.917 42.1679 156.442 41.468 156.442C41.1181 156.442 40.7682 156.267 40.4183 156.092C40.2433 155.917 40.0684 155.392 40.0684 155.042C40.0684 154.167 40.7682 153.642 41.468 153.642C41.643 153.642 41.818 153.642 42.1679 153.817C42.5178 153.817 42.8677 154.342 42.8677 155.042Z" fill="#F2F4F9"/>
<path d="M42.5178 154.692C42.5178 155.567 41.818 156.092 41.1181 156.092C40.9432 156.092 40.7682 156.092 40.4183 155.917C40.2433 155.742 40.0684 155.217 40.0684 154.867C40.0684 153.992 40.7682 153.467 41.468 153.467C41.643 153.467 41.818 153.467 42.1679 153.642C42.3428 153.992 42.5178 154.342 42.5178 154.692Z" fill="white"/>
<path d="M177.059 153.293C177.059 154.168 176.359 154.692 175.659 154.692C175.31 154.692 174.96 154.517 174.61 154.343C174.435 154.168 174.26 153.643 174.26 153.293C174.26 152.418 174.96 151.893 175.659 151.893C175.834 151.893 176.009 151.893 176.359 152.068C176.709 152.243 177.059 152.768 177.059 153.293Z" fill="#E2EBFF"/>
<path d="M176.709 153.118C176.709 153.993 176.009 154.517 175.31 154.517C175.135 154.517 174.96 154.517 174.61 154.343C174.435 154.168 174.26 153.643 174.26 153.293C174.26 152.418 174.96 151.893 175.659 151.893C175.834 151.893 176.009 151.893 176.359 152.068C176.534 152.418 176.709 152.768 176.709 153.118Z" fill="white"/>
<path d="M45.1408 132.647C45.1408 133.347 44.616 133.872 43.9161 133.872C43.5662 133.872 43.2163 133.697 43.0413 133.522C42.8664 133.347 42.6914 132.997 42.6914 132.647C42.6914 131.947 43.2163 131.422 43.9161 131.422C44.0911 131.422 44.266 131.422 44.441 131.597C44.7909 131.772 45.1408 132.122 45.1408 132.647Z" fill="#E2EBFF"/>
<path d="M44.7909 132.472C44.7909 133.172 44.266 133.697 43.5662 133.697C43.3912 133.697 43.2163 133.697 43.0413 133.522C42.8664 133.347 42.6914 132.997 42.6914 132.647C42.6914 131.947 43.2163 131.422 43.9161 131.422C44.0911 131.422 44.266 131.422 44.441 131.597C44.616 131.772 44.7909 132.122 44.7909 132.472Z" fill="white"/>
<path d="M4.02561 148.568C4.02561 149.268 3.50073 149.793 2.80089 149.793C2.45097 149.793 2.10105 149.618 1.92609 149.443C1.75113 149.268 1.57617 148.918 1.57617 148.568C1.57617 147.868 2.10105 147.344 2.80089 147.344C2.97585 147.344 3.15081 147.344 3.32577 147.518C3.67569 147.693 4.02561 148.218 4.02561 148.568Z" fill="#E2EBFF"/>
<path d="M3.67569 148.393C3.67569 149.093 3.15081 149.618 2.45097 149.618C2.27601 149.618 2.10105 149.618 1.92609 149.443C1.75113 149.268 1.57617 148.918 1.57617 148.568C1.57617 147.868 2.10105 147.344 2.80089 147.344C2.97585 147.344 3.15081 147.344 3.32577 147.518C3.50073 147.693 3.67569 148.043 3.67569 148.393Z" fill="white"/>
<path d="M190.881 166.414C190.881 174.987 183.883 181.986 175.31 181.986C170.936 181.986 167.087 180.236 164.287 177.437C161.488 174.637 159.738 170.788 159.738 166.414C159.738 157.841 166.737 150.843 175.31 150.843C177.759 150.843 179.859 151.368 181.958 152.417C187.207 154.692 190.881 160.116 190.881 166.414Z" fill="#E2EBFF"/>
<path d="M186.507 163.265C186.507 171.838 179.509 178.836 170.936 178.836C168.486 178.836 166.387 178.311 164.287 177.437C161.488 174.637 159.738 170.788 159.738 166.414C159.738 157.841 166.737 150.843 175.31 150.843C177.759 150.843 179.859 151.368 181.958 152.417C184.758 155.042 186.507 158.891 186.507 163.265Z" fill="white"/>
<path d="M164.988 154.692C165.513 154.167 166.213 153.642 166.738 153.292" stroke="#2B2B36" stroke-miterlimit="10" stroke-linecap="round" stroke-linejoin="round"/>
<path d="M170.236 151.718C171.811 151.193 173.56 150.843 175.31 150.843C177.759 150.843 179.859 151.368 181.958 152.417C187.207 154.867 190.881 160.291 190.881 166.589C190.881 175.162 183.883 182.161 175.31 182.161C170.936 182.161 167.087 180.411 164.287 177.612C161.488 174.812 159.738 170.963 159.738 166.589C159.738 164.49 160.263 162.39 160.963 160.466" stroke="#2B2B36" stroke-miterlimit="10" stroke-linecap="round" stroke-linejoin="round"/>
<path d="M199.454 162.565C202.253 161.515 204.353 158.716 204.353 155.567C204.353 152.592 202.603 149.968 199.979 148.743C198.929 148.218 197.879 148.043 196.829 148.043C195.08 148.043 193.505 148.743 192.105 149.793C192.98 148.218 193.505 146.469 193.505 144.544C193.505 140.17 190.881 136.496 187.207 134.746C185.807 134.046 184.232 133.697 182.658 133.697C178.459 133.697 174.784 135.971 173.035 139.47C169.186 139.82 165.861 142.445 164.462 145.944C161.138 147.343 158.513 150.318 157.813 154.167C156.939 153.992 156.064 153.817 155.014 153.817C154.314 153.817 153.614 153.817 153.089 153.992C152.739 150.318 150.465 147.168 147.141 145.594C145.741 144.894 144.341 144.544 142.767 144.544C141.367 144.544 139.967 144.894 138.568 145.419C137.168 141.745 134.369 138.595 130.694 137.021C128.595 136.146 126.495 135.446 124.046 135.446C122.646 135.446 121.247 135.621 119.847 135.971C119.847 129.847 116.348 124.774 111.099 122.324C108.999 121.449 106.9 120.75 104.45 120.75C95.8774 120.75 88.879 127.748 88.879 136.321C88.879 136.671 88.879 136.846 88.879 137.196C87.4794 136.846 86.0797 136.671 84.68 136.671C76.9818 136.671 70.6832 142.27 69.2835 149.443C66.8341 149.793 64.5596 150.843 62.635 152.417C61.0604 150.493 59.1358 148.743 56.8613 147.693C56.1615 147.343 55.2867 146.994 54.5869 146.819C53.0122 144.019 50.5628 141.745 47.7634 140.345C45.6639 139.47 43.5644 138.77 41.1149 138.77C36.7409 138.77 32.7169 140.695 29.7425 143.669C26.2433 145.244 23.6189 148.918 23.6189 153.117C23.6189 153.292 23.6189 153.642 23.6189 153.817C23.269 153.642 22.9191 153.292 22.5692 153.117C21.5194 152.592 20.4697 152.417 19.4199 152.417C15.2209 152.417 11.8966 155.742 11.8966 159.941C11.8966 161.515 12.4215 162.915 13.1213 163.965C9.7971 164.664 7.34766 167.639 7.34766 171.313C7.34766 173.412 8.22246 175.337 9.44718 176.562C10.8469 177.961 12.7714 178.836 14.696 178.836C15.7457 178.836 16.7955 178.661 17.6703 178.136C19.5949 180.061 22.3942 181.286 25.3685 181.286C28.1679 181.286 30.7923 180.236 32.7169 178.486C34.6414 180.236 37.2658 181.286 40.0652 181.286C43.5644 181.286 46.7137 179.711 48.6382 177.087C48.8132 177.087 49.1631 177.087 49.3381 177.087C51.2626 178.661 53.5371 179.536 56.1615 179.536C60.3605 179.536 64.0347 177.087 65.9593 173.587C66.8341 173.937 67.8838 174.287 68.9336 174.462C69.4585 175.337 70.1583 176.387 71.0331 177.087C73.8325 179.886 77.6816 181.636 82.0556 181.636C85.9047 181.636 89.5789 180.236 92.2033 177.786C95.3526 180.236 98.6768 181.461 102.351 181.461C106.375 181.461 110.224 179.886 112.849 177.262C113.024 177.437 113.024 177.437 113.198 177.612C115.123 179.536 117.922 180.761 120.897 180.761C124.746 180.761 128.07 178.836 129.995 175.862C132.094 176.912 134.369 177.437 136.643 177.437C138.568 179.186 141.192 180.236 143.991 180.236C147.666 180.236 150.99 178.311 152.914 175.512C153.614 175.687 154.314 175.687 155.014 175.687C155.364 175.687 155.714 175.687 156.064 175.687C156.589 176.562 157.113 177.437 157.988 178.311C159.913 180.236 162.537 181.461 165.337 181.461C166.736 181.461 168.136 181.111 169.361 180.761C171.11 181.461 173.21 181.986 175.309 181.986C178.809 181.986 182.133 180.761 184.757 178.836C185.807 179.186 186.857 179.361 188.081 179.361C194.03 179.361 198.929 174.462 198.929 168.514C198.929 167.639 198.754 166.939 198.579 166.064C199.104 165.014 199.454 163.79 199.454 162.565Z" stroke="#2B2B36" stroke-miterlimit="10"/>
<path d="M159.039 147.168C160.789 147.168 162.188 145.769 162.188 144.019C162.188 142.794 161.489 141.57 160.264 141.045C159.914 140.87 159.389 140.695 158.864 140.695C157.115 140.695 155.715 142.095 155.715 143.844C155.715 144.719 156.065 145.594 156.59 146.119C157.289 146.818 158.164 147.168 159.039 147.168Z" stroke="#2B2B36" stroke-miterlimit="10"/>
<path d="M205.928 170.963C205.578 170.788 205.053 170.613 204.528 170.613C202.779 170.613 201.379 172.013 201.379 173.762C201.379 174.637 201.729 175.512 202.254 176.037C202.779 176.562 203.653 176.912 204.528 176.912C206.278 176.912 207.677 175.512 207.677 173.762C207.677 172.538 206.978 171.488 205.928 170.963Z" stroke="#2B2B36" stroke-miterlimit="10"/>
<path d="M66.6602 142.795C68.4098 142.795 69.8095 141.395 69.8095 139.645C69.8095 138.421 69.1096 137.196 67.8849 136.671C67.535 136.496 67.0101 136.321 66.4852 136.321C64.7356 136.321 63.3359 137.721 63.3359 139.47C63.3359 140.345 63.6859 141.22 64.2107 141.745C64.9106 142.445 65.7854 142.795 66.6602 142.795Z" stroke="#2B2B36" stroke-miterlimit="10"/>
<path d="M5.54896 161.165C5.19904 160.99 4.67416 160.815 4.14928 160.815C2.39968 160.815 1 162.215 1 163.965C1 164.84 1.34992 165.714 1.8748 166.239C2.39968 166.764 3.27448 167.114 4.14928 167.114C5.89888 167.114 7.29856 165.714 7.29856 163.965C7.47352 162.915 6.59872 161.69 5.54896 161.165Z" stroke="#2B2B36" stroke-miterlimit="10"/>
<path d="M205.928 142.444C206.803 142.444 207.328 141.744 207.328 141.044C207.328 140.519 206.978 139.994 206.453 139.819C206.278 139.645 206.103 139.645 205.753 139.645C204.878 139.645 204.354 140.344 204.354 141.044C204.354 141.394 204.528 141.744 204.703 142.094C205.228 142.269 205.578 142.444 205.928 142.444Z" stroke="#2B2B36" stroke-miterlimit="10"/>
<path d="M2.79894 149.968C3.49878 149.968 4.02366 149.443 4.02366 148.743C4.02366 148.218 3.67374 147.868 3.32382 147.693C3.14886 147.693 2.9739 147.518 2.79894 147.518C2.0991 147.518 1.57422 148.043 1.57422 148.743C1.57422 149.093 1.74918 149.443 1.92414 149.618C2.0991 149.793 2.44902 149.968 2.79894 149.968Z" stroke="#2B2B36" stroke-miterlimit="10"/>
<path d="M102.527 159.416C105.136 159.416 107.251 157.301 107.251 154.692C107.251 152.083 105.136 149.968 102.527 149.968C99.9177 149.968 97.8027 152.083 97.8027 154.692C97.8027 157.301 99.9177 159.416 102.527 159.416Z" fill="#F4F7FC"/>
<path d="M48.1145 154.692C50.7235 154.692 52.8385 152.577 52.8385 149.968C52.8385 147.359 50.7235 145.244 48.1145 145.244C45.5056 145.244 43.3906 147.359 43.3906 149.968C43.3906 152.577 45.5056 154.692 48.1145 154.692Z" fill="#F4F7FC"/>
<path d="M31.1446 169.039C32.9805 169.039 34.4688 167.55 34.4688 165.714C34.4688 163.878 32.9805 162.39 31.1446 162.39C29.3086 162.39 27.8203 163.878 27.8203 165.714C27.8203 167.55 29.3086 169.039 31.1446 169.039Z" fill="#F4F7FC"/>
<path d="M38.6656 157.666C39.6319 157.666 40.4152 156.883 40.4152 155.917C40.4152 154.95 39.6319 154.167 38.6656 154.167C37.6993 154.167 36.916 154.95 36.916 155.917C36.916 156.883 37.6993 157.666 38.6656 157.666Z" fill="#F5CB35"/>
<path d="M111.45 143.495C112.319 143.495 113.024 142.79 113.024 141.92C113.024 141.05 112.319 140.345 111.45 140.345C110.58 140.345 109.875 141.05 109.875 141.92C109.875 142.79 110.58 143.495 111.45 143.495Z" fill="#EE2D38"/>
<path d="M216.424 148.568C217.294 148.568 217.999 147.863 217.999 146.994C217.999 146.124 217.294 145.419 216.424 145.419C215.555 145.419 214.85 146.124 214.85 146.994C214.85 147.863 215.555 148.568 216.424 148.568Z" fill="#EE2D38"/>
<path d="M173.734 166.589C174.411 166.589 174.959 166.041 174.959 165.365C174.959 164.688 174.411 164.14 173.734 164.14C173.058 164.14 172.51 164.688 172.51 165.365C172.51 166.041 173.058 166.589 173.734 166.589Z" fill="#F5CB35"/>
</svg>
