<svg width="218" height="218" viewBox="0 0 218 218" fill="none" xmlns="http://www.w3.org/2000/svg">
<g clip-path="url(#clip0)">
<path d="M200.663 118.203C200.663 139.117 193.619 158.387 182.115 174.132C175.776 182.592 168.028 189.876 159.341 195.516C145.019 204.916 128.114 210.556 109.566 210.556C59.0875 210.556 18 169.197 18 117.968C18 66.7386 59.0875 25.8494 109.566 25.8494C127.88 25.8494 144.784 31.2543 159.341 40.6541C168.263 46.294 175.776 53.5789 182.115 62.0387C193.619 77.7834 200.663 97.2881 200.663 118.203Z" fill="#F2F4F9"/>
<path d="M38.1933 211.026C40.0716 211.026 41.2455 209.616 41.2455 207.736C41.2455 205.856 39.8368 204.446 38.1933 204.446C36.5498 204.446 34.9062 205.856 34.9062 207.736C35.141 209.851 36.5498 211.026 38.1933 211.026Z" fill="#EE2D38"/>
<path d="M138.914 48.1742L193.384 102.928C200.193 109.743 200.193 120.788 193.384 127.603L108.157 212.906C105.34 215.726 101.818 217.371 98.296 217.841C92.896 218.546 87.4959 216.901 83.5046 212.906L29.0343 158.152C22.2255 151.337 22.2255 140.293 29.0343 133.243L114.027 47.9392C117.314 44.6493 121.775 43.0043 126.236 42.7693C130.931 42.7693 135.392 44.6493 138.914 48.1742Z" fill="white"/>
<path d="M156.993 66.2679L166.15 75.1977C166.15 75.4327 165.915 75.4327 165.915 75.4327L139.384 102.222L179.297 142.172L170.376 151.101C170.141 151.101 170.141 150.866 170.141 150.866L138.914 119.847L130.227 111.387L56.27 185.646L47.1133 176.481L120.601 102.457L90.079 71.9078L99.2357 62.7429L129.758 93.2924L156.993 66.2679C156.758 66.5029 156.993 66.5029 156.993 66.2679Z" fill="#F5CB35"/>
<path d="M110.505 210.557L108.157 212.907C105.34 215.727 101.818 217.372 98.296 217.842C92.896 218.547 87.4959 216.902 83.5046 212.907L29.0343 158.153C22.2255 151.338 22.2255 140.293 29.0343 133.243L44.5302 117.733" stroke="#2B2B36" stroke-miterlimit="10" stroke-linecap="round" stroke-linejoin="round"/>
<path d="M159.343 161.911L126.238 195.046" stroke="#2B2B36" stroke-miterlimit="10" stroke-linecap="round" stroke-linejoin="round"/>
<path d="M68.9492 93.0584L114.028 47.9392C117.315 44.6493 121.776 43.0043 126.237 42.7693C130.698 42.7693 135.394 44.4143 138.915 47.9392L193.386 102.693C200.194 109.508 200.194 120.553 193.386 127.368L169.672 151.102" stroke="#2B2B36" stroke-miterlimit="10" stroke-linecap="round" stroke-linejoin="round"/>
<path d="M44.5312 117.733L57.6792 104.573" stroke="#2B2B36" stroke-miterlimit="10" stroke-linecap="round" stroke-linejoin="round"/>
<path d="M51.5742 172.017L120.601 102.458L99.2356 80.8381" stroke="#2B2B36" stroke-miterlimit="10" stroke-linecap="round" stroke-linejoin="round"/>
<path d="M163.331 144.757L138.444 120.083L129.757 111.623L65.6602 176.247" stroke="#2B2B36" stroke-miterlimit="10" stroke-linecap="round" stroke-linejoin="round"/>
<path d="M104.637 67.913L129.994 93.2926L156.994 66.2681C156.759 66.5031 156.759 66.5031 156.994 66.2681L166.151 75.1979C166.151 75.4329 165.916 75.4329 165.916 75.4329L139.385 102.222L173.898 136.767" stroke="#2B2B36" stroke-miterlimit="10" stroke-linecap="round" stroke-linejoin="round"/>
<path d="M175.307 122.198L165.681 124.078L166.62 132.772V133.947L165.211 133.007L133.985 113.503L133.046 133.007L132.576 144.757L126.002 138.882L118.02 144.287L118.254 133.007L118.489 122.903L146.898 102.928L175.307 122.198Z" fill="#F5CB35"/>
<path d="M111.915 149.927L76.2278 185.647C75.2887 186.587 75.2887 187.996 76.2278 188.936C77.1669 189.876 78.5756 189.876 79.5147 188.936L114.967 153.217C115.907 152.277 115.907 150.867 114.967 149.927C114.028 148.987 112.62 148.987 111.915 149.927Z" fill="#DFE2E9"/>
<path d="M108.627 168.257L99.2356 177.657C98.2965 178.597 98.2965 180.007 99.2356 180.947C100.175 181.887 101.584 181.887 102.523 180.947L111.914 171.547C112.853 170.607 112.853 169.197 111.914 168.257C110.975 167.317 109.566 167.317 108.627 168.257Z" fill="#DFE2E9"/>
<path d="M94.5415 182.592L83.7415 193.402C82.8023 194.342 82.8023 195.752 83.7415 196.692C84.6806 197.632 86.0892 197.632 87.0284 196.692L97.8286 185.882C98.7677 184.942 98.7677 183.532 97.8286 182.592C96.6547 181.652 95.4807 181.652 94.5415 182.592Z" fill="#DFE2E9"/>
<path d="M116.375 100.109H126.94L135.627 110.918L130.697 114.443L119.192 130.423C116.609 133.948 111.209 133.713 109.331 129.718L98.0613 108.803C95.9482 104.809 98.7657 100.109 103.227 100.109H103.931" fill="#F5CB35"/>
<path d="M134.924 111.622L140.324 109.272L160.046 108.332C164.272 108.097 167.089 103.633 164.976 99.6376L153.707 78.723C151.594 74.7281 145.959 74.7281 143.611 78.253L130.463 98.2276L134.924 111.622Z" fill="#F5CB35"/>
<path d="M133.985 115.618L133.046 133.243L132.576 144.992L126.002 139.117L118.02 144.522L118.254 133.948" stroke="#2B2B36" stroke-miterlimit="10" stroke-linecap="round" stroke-linejoin="round"/>
<path d="M156.289 109.273L175.307 122.433L165.681 124.313L166.62 133.008V133.948L165.211 133.008L145.02 120.318" stroke="#2B2B36" stroke-miterlimit="10" stroke-linecap="round" stroke-linejoin="round"/>
<path d="M116.375 100.109H126.94L135.627 110.918L130.697 114.443L119.192 130.423C116.609 133.948 111.209 133.713 109.331 129.718L98.0613 108.803C95.9482 104.809 98.7657 100.109 103.227 100.109H103.931" stroke="#2B2B36" stroke-miterlimit="10" stroke-linecap="round" stroke-linejoin="round"/>
<path d="M134.924 111.622L140.324 109.272L160.046 108.332C164.272 108.097 167.089 103.633 164.976 99.6376L153.707 78.723C151.594 74.7281 145.959 74.7281 143.611 78.253L130.463 98.2276L134.924 111.622Z" stroke="#2B2B36" stroke-miterlimit="10" stroke-linecap="round" stroke-linejoin="round"/>
<path d="M122.48 106.453C120.367 101.753 122.246 96.3484 125.767 94.4684C129.993 91.8835 135.863 94.7034 139.15 100.343C142.202 105.748 141.028 112.328 136.802 114.678C133.515 116.323 129.759 115.618 126.941 113.033C124.593 111.153 123.889 109.508 122.48 106.453Z" fill="#F5CB35"/>
<path d="M122.48 106.453C120.367 101.753 122.246 96.3484 125.767 94.4684C129.993 91.8835 135.863 94.7034 139.15 100.343C141.028 103.633 141.498 107.628 140.089 111.153C138.446 114.913 134.22 116.558 130.463 115.148C126.472 113.738 124.124 110.213 122.48 106.453Z" stroke="#2B2B36" stroke-miterlimit="10" stroke-linecap="round" stroke-linejoin="round"/>
<path d="M108.159 40.1839C107.69 40.1839 107.22 39.9489 106.751 39.7139L106.046 39.2439C106.046 39.2439 105.811 39.2439 105.811 39.0089L95.9504 28.9041C95.0113 27.9641 95.0113 26.5541 95.9504 25.6142C96.8896 24.6742 98.2984 24.6742 99.0028 25.6142L109.333 35.954C110.272 36.659 110.272 38.0689 109.568 39.2439C109.333 39.9489 108.864 40.1839 108.159 40.1839Z" fill="#EE2D38"/>
<path d="M125.063 19.2697C123.889 19.2697 122.715 18.3297 122.715 16.9197V2.34996C122.715 1.17498 123.889 0 125.063 0C126.237 0 127.411 0.939983 127.411 2.34996V17.1547C127.411 18.3297 126.237 19.2697 125.063 19.2697Z" fill="#EE2D38"/>
<path d="M125.063 33.8389C123.889 33.8389 122.715 32.8989 122.715 31.4889V24.909C122.715 23.7341 123.889 22.5591 125.063 22.5591C126.237 22.5591 127.411 23.4991 127.411 24.909V31.4889C127.411 32.6639 126.237 33.8389 125.063 33.8389Z" fill="#EE2D38"/>
<path d="M142.438 36.894C141.968 36.894 141.499 36.659 140.794 36.189C139.855 35.2491 139.855 33.8391 140.794 32.8991L149.481 24.2043C150.42 23.2643 151.829 23.2643 152.768 24.2043C153.707 25.1442 153.707 26.5542 152.768 27.4942L144.081 36.189C143.612 36.894 142.907 36.894 142.438 36.894Z" fill="#EE2D38"/>
<path d="M204.878 200.301C207.589 197.824 207.778 193.619 205.301 190.908C202.824 188.197 198.618 188.008 195.908 190.485C193.197 192.962 193.008 197.168 195.485 199.878C197.962 202.589 202.167 202.778 204.878 200.301Z" fill="#F2F4F9"/>
<path d="M5.14289 146.024C6.83516 146.024 8.28564 144.809 8.28564 142.866C8.28564 141.165 7.07691 139.708 5.14289 139.708C3.20888 139.95 2 141.408 2 142.866C2 144.323 3.45063 146.024 5.14289 146.024Z" fill="#F5CB35"/>
<path d="M214.016 78.7318C215.709 78.7318 216.917 77.5171 216.917 75.8166C216.917 74.116 215.709 72.9014 214.016 72.9014C212.324 72.9014 211.115 74.116 211.115 75.8166C211.115 77.2742 212.324 78.7318 214.016 78.7318Z" fill="#F5CB35"/>
</g>
<defs>
<clipPath id="clip0">
<rect width="218" height="218" fill="white"/>
</clipPath>
</defs>
</svg>
