<?xml version="1.0" encoding="utf-8"?><svg xmlns="http://www.w3.org/2000/svg" xmlns:xlink="http://www.w3.org/1999/xlink"><symbol viewBox="0 0 24 24" id="fb" xmlns="http://www.w3.org/2000/svg"><path d="M13.859 24V13.053h3.673l.55-4.267H13.86V6.062c0-1.235.341-2.077 2.114-2.077l2.258-.001V.167c-.39-.05-1.73-.167-3.29-.167-3.258 0-5.488 1.988-5.488 5.64v3.146H5.769v4.267h3.684V24h4.406z"/></symbol><symbol viewBox="0 0 24 24" id="inst" xmlns="http://www.w3.org/2000/svg"><path d="M17.028 0H6.972A6.98 6.98 0 000 6.972v10.056A6.98 6.98 0 006.972 24h10.056A6.98 6.98 0 0024 17.028V6.972A6.98 6.98 0 0017.028 0zm5.097 17.028a5.102 5.102 0 01-5.097 5.097H6.972a5.102 5.102 0 01-5.097-5.097V6.972a5.102 5.102 0 015.097-5.097h10.056a5.102 5.102 0 015.097 5.097v10.056z"/><path d="M12 5.531A6.476 6.476 0 005.531 12 6.476 6.476 0 0012 18.469 6.476 6.476 0 0018.469 12 6.476 6.476 0 0012 5.531zm0 11.063A4.599 4.599 0 017.406 12 4.599 4.599 0 0112 7.406 4.599 4.599 0 0116.594 12 4.599 4.599 0 0112 16.594zm6.563-10.221a.937.937 0 100-1.874.937.937 0 000 1.874z"/></symbol><symbol viewBox="0 0 16 17" id="telegram" xmlns="http://www.w3.org/2000/svg"><g clip-path="url(#cclip0)"><path d="M6.054 10.473l-.255 3.59c.365 0 .523-.157.713-.346l1.712-1.636 3.547 2.598c.65.363 1.109.172 1.284-.598L15.384 3.17c.207-.962-.347-1.339-.981-1.103L.716 7.307c-.934.363-.92.884-.159 1.12l3.5 1.088 8.127-5.086c.383-.253.73-.113.444.14l-6.574 5.904z"/></g><defs><clipPath id="cclip0"><path transform="translate(0 .714)" d="M0 0h15.429v15.429H0z"/></clipPath></defs></symbol><symbol viewBox="0 0 20 20" id="tell" xmlns="http://www.w3.org/2000/svg"><path d="M19.456 14.678l-2.791-2.791c-.997-.997-2.692-.598-3.09.698-.3.897-1.296 1.395-2.193 1.196-1.994-.498-4.685-3.09-5.184-5.184-.299-.897.3-1.894 1.196-2.193 1.296-.398 1.695-2.093.698-3.09L5.301.524c-.797-.698-1.994-.698-2.691 0L.716 2.416C-1.178 4.411.915 9.694 5.6 14.38c4.685 4.685 9.968 6.878 11.962 4.884l1.894-1.894c.698-.797.698-1.993 0-2.691z"/></symbol><symbol viewBox="0 0 22 22" id="viber" xmlns="http://www.w3.org/2000/svg"><g clip-path="url(#eclip0)"><path d="M20.96 12.547c.64-5.381-.306-8.778-2.014-10.315l.001-.001C16.192-.393 6.887-.78 3.59 2.349 2.11 3.88 1.588 6.127 1.531 8.909c-.057 2.784-.125 7.997 4.733 9.411h.005l-.005 2.16s-.033.875.526 1.051c.64.207.929-.2 2.917-2.574 3.325.288 5.879-.372 6.169-.469.671-.225 4.47-.727 5.085-5.94zm-10.925 4.89s-2.105 2.624-2.76 3.306c-.213.221-.448.2-.445-.239 0-.288.016-3.585.016-3.585-4.118-1.18-3.875-5.62-3.83-7.942.044-2.324.469-4.226 1.722-5.508C7.63.758 15.788 1.364 17.867 3.318c2.541 2.252 1.637 8.617 1.642 8.834-.522 4.351-3.601 4.627-4.167 4.816-.242.08-2.488.658-5.307.47z"/><path d="M11.198 3.98c-.344 0-.344.535 0 .54 2.667.02 4.864 1.88 4.888 5.289 0 .36.527.355.522-.005C16.577 6.13 14.18 4 11.197 3.98z"/><path d="M14.707 9.244c-.008.355.518.372.523.012.043-2.026-1.206-3.695-3.553-3.87-.344-.025-.38.515-.037.54 2.036.154 3.108 1.544 3.067 3.318zm-.563 2.303c-.441-.255-.89-.096-1.076.155l-.388.503c-.198.255-.566.221-.566.221-2.692-.712-3.411-3.528-3.411-3.528s-.033-.38.213-.585l.486-.402c.243-.193.396-.657.149-1.113-.66-1.194-1.104-1.606-1.33-1.922-.238-.297-.595-.364-.966-.163h-.008c-.773.452-1.618 1.297-1.348 2.168.462.917 1.31 3.843 4.014 6.054 1.27 1.046 3.28 2.117 4.134 2.364l.008.013c.841.28 1.66-.598 2.096-1.394v-.006c.194-.385.13-.75-.154-.988-.501-.489-1.258-1.03-1.853-1.377z"/><path d="M12.044 7.379c.858.05 1.274.498 1.319 1.418.016.36.538.335.522-.025-.057-1.201-.684-1.871-1.812-1.934-.344-.02-.376.52-.029.54z"/></g><defs><clipPath id="eclip0"><path transform="translate(.286 .143)" d="M0 0h21.429v21.429H0z"/></clipPath></defs></symbol><symbol viewBox="0 0 24 24" id="vk" xmlns="http://www.w3.org/2000/svg"><g clip-path="url(#fclip0)"><path d="M19.915 13.028c-.388-.49-.277-.708 0-1.146.005-.005 3.208-4.431 3.538-5.932l.002-.001c.164-.547 0-.95-.793-.95h-2.624c-.668 0-.976.346-1.141.732 0 0-1.336 3.198-3.226 5.27-.61.6-.892.792-1.225.792-.164 0-.419-.192-.419-.74V5.95c0-.656-.187-.95-.74-.95H9.161c-.419 0-.668.307-.668.592 0 .622.945.765 1.043 2.515v3.797c0 .832-.151.985-.486.985-.892 0-3.057-3.211-4.34-6.886C4.451 5.289 4.198 5 3.525 5H.9c-.749 0-.9.345-.9.73 0 .683.892 4.074 4.148 8.554C6.318 17.343 9.374 19 12.154 19c1.671 0 1.875-.368 1.875-1.001 0-2.922-.151-3.198.686-3.198.388 0 1.056.192 2.616 1.667C19.114 18.217 19.407 19 20.405 19h2.624c.748 0 1.127-.368.909-1.094-.499-1.527-3.871-4.668-4.023-4.878z"/></g><defs><clipPath id="fclip0"><path d="M0 0h24v24H0z"/></clipPath></defs></symbol><symbol viewBox="0 0 20 20" id="whatsapp" xmlns="http://www.w3.org/2000/svg"><g clip-path="url(#gclip0)"><path fill-rule="evenodd" clip-rule="evenodd" d="M16.537 3.435A9.099 9.099 0 0010.059.749C5.01.749.902 4.857.9 9.907a9.14 9.14 0 001.223 4.578l-1.3 4.746 4.855-1.273a9.148 9.148 0 004.377 1.114h.004c5.047 0 9.156-4.108 9.158-9.158a9.102 9.102 0 00-2.68-6.48zm-6.478 14.09h-.004a7.602 7.602 0 01-3.874-1.06l-.278-.165-2.88.755.768-2.809-.18-.288a7.593 7.593 0 01-1.165-4.05c.002-4.198 3.417-7.612 7.616-7.612a7.56 7.56 0 015.381 2.232 7.567 7.567 0 012.228 5.386c-.002 4.197-3.417 7.612-7.612 7.612zm4.175-5.7c-.229-.115-1.354-.668-1.564-.745-.21-.076-.362-.114-.514.115-.153.229-.592.744-.725.897-.134.152-.267.172-.496.057-.229-.114-.966-.356-1.84-1.136-.68-.607-1.14-1.356-1.273-1.585-.134-.23-.001-.341.1-.467.248-.308.496-.63.572-.783.077-.152.038-.286-.019-.4-.057-.115-.515-1.241-.705-1.7-.186-.446-.375-.386-.515-.393a9.14 9.14 0 00-.439-.008.84.84 0 00-.61.287c-.21.229-.801.782-.801 1.909 0 1.126.82 2.214.934 2.367.115.153 1.614 2.464 3.91 3.455.545.236.972.377 1.304.482.548.175 1.047.15 1.441.091.44-.066 1.354-.554 1.545-1.088.19-.535.19-.993.133-1.088-.057-.096-.21-.153-.438-.268z"/></g><defs><clipPath id="gclip0"><path transform="translate(.143 .143)" d="M0 0h19.714v19.714H0z"/></clipPath></defs></symbol></svg>