<svg width="40" height="40" viewBox="0 0 40 40" fill="none" xmlns="http://www.w3.org/2000/svg">
<g clip-path="url(#clip0)">
<path d="M38.5928 23.1551C39.7861 13.11 38.0194 6.76838 34.8328 3.90004L34.8344 3.89838C29.6911 -0.999959 12.3211 -1.72496 6.16778 4.11838C3.40444 6.97671 2.43111 11.1717 2.32444 16.365C2.21778 21.5601 2.09111 31.2917 11.1594 33.9317H11.1678L11.1594 37.9634C11.1594 37.9634 11.0978 39.5967 12.1411 39.9251C13.3344 40.3117 13.8744 39.5534 17.5861 35.1201C23.7928 35.6584 28.5594 34.4251 29.1011 34.2451C30.3544 33.8251 37.4461 32.8867 38.5928 23.1551ZM18.1978 32.2834C18.1978 32.2834 14.2694 37.1817 13.0478 38.4534C12.6478 38.8667 12.2094 38.8284 12.2161 38.0084C12.2161 37.4701 12.2461 31.3151 12.2461 31.3151C4.55778 29.1117 5.01111 20.8251 5.09444 16.49C5.17778 12.1534 5.97111 8.60171 8.31111 6.21004C13.7094 1.14838 28.9378 2.28004 32.8178 5.92671C37.5611 10.1317 35.8728 22.0117 35.8828 22.4167C34.9078 30.5401 29.1611 31.0551 28.1044 31.4067C27.6528 31.5567 23.4611 32.6351 18.1978 32.2834Z" fill="#8E24AA"/>
<path d="M20.3699 7.16162C19.7283 7.16162 19.7283 8.16162 20.3699 8.16995C25.3483 8.20829 29.4483 11.6783 29.4933 18.0433C29.4933 18.715 30.4766 18.7066 30.4683 18.035H30.4666C30.4133 11.1766 25.9366 7.19995 20.3699 7.16162Z" fill="#8E24AA"/>
<path d="M26.9189 16.9884C26.9039 17.6517 27.8856 17.6834 27.8939 17.0117C27.9756 13.2301 25.6439 10.1151 21.2622 9.78673C20.6205 9.74006 20.5539 10.7484 21.1939 10.7951C24.9939 11.0834 26.9956 13.6767 26.9189 16.9884Z" fill="#8E24AA"/>
<path d="M25.869 21.29C25.0457 20.8133 24.2073 21.11 23.8607 21.5783L23.1357 22.5167C22.7673 22.9933 22.079 22.93 22.079 22.93C17.0557 21.6017 15.7123 16.345 15.7123 16.345C15.7123 16.345 15.6507 15.6333 16.1107 15.2517L17.0173 14.5017C17.4707 14.1417 17.7573 13.275 17.2957 12.4233C16.0623 10.195 15.234 9.42668 14.8123 8.83668C14.369 8.28168 13.7023 8.15668 13.009 8.53168H12.994C11.5523 9.37501 9.97402 10.9533 10.479 12.5783C11.3407 14.2917 12.924 19.7533 17.9707 23.88C20.3423 25.8317 24.0957 27.8317 25.689 28.2933L25.704 28.3167C27.274 28.84 28.8007 27.2 29.6157 25.715V25.7033C29.9773 24.985 29.8573 24.305 29.329 23.86C28.3923 22.9467 26.979 21.9383 25.869 21.29Z" fill="#8E24AA"/>
<path d="M21.9483 13.5065C23.5499 13.5998 24.3266 14.4365 24.4099 16.1548C24.4399 16.8265 25.4149 16.7798 25.3849 16.1081C25.2783 13.8648 24.1083 12.6148 22.0016 12.4981C21.3599 12.4598 21.2999 13.4681 21.9483 13.5065Z" fill="#8E24AA"/>
</g>
<defs>
<clipPath id="clip0">
<rect width="40" height="40" fill="white"/>
</clipPath>
</defs>
</svg>
