<svg width="40" height="40" viewBox="0 0 40 40" fill="none" xmlns="http://www.w3.org/2000/svg">
<path d="M38.0887 32.2699H1.91211C1.48062 32.2699 1.13086 31.9202 1.13086 31.4887V8.48633C1.13086 8.05484 1.48062 7.70508 1.91211 7.70508H38.0887C38.5202 7.70508 38.8699 8.05484 38.8699 8.48633V31.4887C38.8699 31.9202 38.5201 32.2699 38.0887 32.2699Z" fill="#FCE575"/>
<path d="M6.06578 31.4474V8.52758C6.06578 8.07336 6.43398 7.70508 6.88828 7.70508H1.95336C1.49914 7.70508 1.13086 8.07328 1.13086 8.52758V31.4475C1.13086 31.9017 1.49906 32.27 1.95336 32.27H6.88828C6.43406 32.2699 6.06578 31.9017 6.06578 31.4474Z" fill="#FFD551"/>
<path d="M1.13086 8.5827V10.7297L18.5085 20.991C19.4288 21.5344 20.5719 21.5344 21.4921 20.991L38.8699 10.7297V8.5827C38.8699 8.10613 38.4836 7.71973 38.007 7.71973H1.99383C1.51727 7.71973 1.13086 8.10613 1.13086 8.5827Z" fill="#FFC34C"/>
<path d="M25.3611 18.7012L21.4635 21.0027C20.5432 21.5461 19.4002 21.5461 18.4798 21.0027L14.6546 18.7439L1.54508 31.8534C1.38188 32.0166 1.49774 32.2956 1.72852 32.2953L38.2751 32.2397C38.5055 32.2394 38.6207 31.9607 38.4577 31.7977L25.3611 18.7012Z" fill="#FFD551"/>
<path d="M6.88888 32.2699C6.43466 32.2699 6.06638 31.9017 6.06638 31.4474V27.3315L1.54466 31.8533C1.46709 31.9308 1.4531 32.0344 1.48404 32.1219C1.61732 32.2149 1.77912 32.2699 1.95404 32.2699H6.88888Z" fill="#FFC34C"/>
<path d="M37.1387 15.5941C36.8798 15.5941 36.6699 15.3843 36.6699 15.1254V13.3159C36.6699 13.057 36.8798 12.8472 37.1387 12.8472C37.3975 12.8472 37.6074 13.057 37.6074 13.3159V15.1254C37.6074 15.3843 37.3976 15.5941 37.1387 15.5941Z" fill="#FFF4C1"/>
<path d="M36.9202 29.0283C36.9171 29.0283 36.9141 29.0283 36.9111 29.0282C36.6523 29.0233 36.4464 28.8095 36.4513 28.5507L36.6706 16.9262C36.6756 16.6674 36.8904 16.4612 37.1481 16.4664C37.407 16.4713 37.6128 16.6851 37.608 16.9439L37.3886 28.5684C37.3838 28.8242 37.1749 29.0283 36.9202 29.0283Z" fill="#FFF4C1"/>
<path d="M5.81836 10.7297V8.5827C5.81836 8.10613 6.20469 7.71973 6.68133 7.71973H1.99383C1.51727 7.71973 1.13086 8.10606 1.13086 8.5827V10.7297L18.5085 20.991C19.4288 21.5344 20.5719 21.5344 21.4921 20.991L22.3441 20.4879L5.81836 10.7297Z" fill="#FFB74B"/>
<path d="M9.16211 10.9932C9.80932 10.9932 10.334 10.4685 10.334 9.82129C10.334 9.17408 9.80932 8.64941 9.16211 8.64941C8.5149 8.64941 7.99023 9.17408 7.99023 9.82129C7.99023 10.4685 8.5149 10.9932 9.16211 10.9932Z" fill="#FFB74B"/>
</svg>
