<svg width="40" height="40" viewBox="0 0 40 40" fill="none" xmlns="http://www.w3.org/2000/svg">
<g clip-path="url(#clip0)">
<path d="M34.2 5.74833C30.4 2.075 25.4 0 20.075 0C4.79167 0 -4.805 16.5583 2.82667 29.73L0 40L10.5583 37.2467C15.1583 39.7317 18.9267 39.5117 20.085 39.6583C37.8067 39.6583 46.6283 18.2183 34.175 5.81333L34.2 5.74833Z" fill="#ECEFF1"/>
<path d="M20.1105 36.2515L20.1005 36.2499H20.0738C14.7705 36.2499 11.3822 33.7382 11.0488 33.5932L4.79883 35.2182L6.47383 29.1432L6.07549 28.5182C4.42549 25.8915 3.54883 22.8665 3.54883 19.7515C3.54883 5.09653 21.4572 -2.2318 31.8205 8.12653C42.1588 18.3765 34.9005 36.2515 20.1105 36.2515Z" fill="#4CAF50"/>
<path d="M29.1786 23.8451L29.1636 23.9701C28.6619 23.7201 26.2186 22.5251 25.7636 22.3601C24.7419 21.9818 25.0302 22.3001 23.0686 24.5468C22.7769 24.8718 22.4869 24.8968 21.9919 24.6718C21.4919 24.4218 19.8869 23.8968 17.9869 22.1968C16.5069 20.8718 15.5136 19.2468 15.2202 18.7468C14.7319 17.9035 15.7536 17.7835 16.6836 16.0235C16.8502 15.6735 16.7652 15.3985 16.6419 15.1501C16.5169 14.9001 15.5219 12.4501 15.1052 11.4735C14.7052 10.5001 14.2936 10.6235 13.9852 10.6235C13.0252 10.5401 12.3236 10.5535 11.7052 11.1968C9.01523 14.1535 9.69356 17.2035 11.9952 20.4468C16.5186 26.3668 18.9286 27.4568 23.3352 28.9701C24.5252 29.3485 25.6102 29.2951 26.4686 29.1718C27.4252 29.0201 29.4136 27.9701 29.8286 26.7951C30.2536 25.6201 30.2536 24.6451 30.1286 24.4201C30.0052 24.1951 29.6786 24.0701 29.1786 23.8451Z" fill="#FAFAFA"/>
</g>
<defs>
<clipPath id="clip0">
<rect width="40" height="40" fill="white"/>
</clipPath>
</defs>
</svg>
