<svg width="28" height="28" viewBox="0 0 28 28" fill="none" xmlns="http://www.w3.org/2000/svg">
<path d="M22.469 11.6636C22.498 8.37371 19.6936 5.35922 16.2226 4.93893C16.1502 4.93168 16.0777 4.91719 15.998 4.9027C15.8241 4.87371 15.6502 4.84473 15.469 4.84473C14.7589 4.84473 14.5705 5.34473 14.5197 5.64183C14.469 5.93168 14.5197 6.17806 14.6574 6.36647C14.8966 6.68531 15.3096 6.74328 15.6429 6.78676C15.7371 6.80125 15.8313 6.81574 15.911 6.83023C19.027 7.52589 20.0777 8.62009 20.5922 11.7143C20.6067 11.7868 20.6139 11.881 20.6139 11.9824C20.6357 12.352 20.6864 13.1201 21.5125 13.1201C21.5777 13.1201 21.6574 13.1128 21.7299 13.1056C22.498 12.9897 22.4763 12.2868 22.4618 11.9462C22.4618 11.852 22.4545 11.7578 22.4618 11.6998C22.469 11.6926 22.469 11.6781 22.469 11.6636Z" fill="#7940B5"/>
<path d="M15.2736 3.73578C15.3678 3.74303 15.4547 3.75027 15.5272 3.75752C20.6431 4.54737 22.9982 6.97491 23.6576 12.1343C23.6721 12.2213 23.6721 12.33 23.6721 12.4459C23.6794 12.8517 23.6939 13.6851 24.5924 13.7068H24.6214C24.904 13.7068 25.1286 13.6199 25.2881 13.4532C25.5707 13.1633 25.5489 12.7213 25.5344 12.3735C25.5272 12.2865 25.5272 12.2068 25.5272 12.1343C25.5924 6.85173 21.0199 2.06911 15.7446 1.88795C15.7228 1.88795 15.7011 1.88795 15.6794 1.88795C15.6721 1.88795 15.6504 1.88795 15.6141 1.88795C15.5634 1.88795 15.4982 1.8807 15.4257 1.8807C15.346 1.87346 15.2518 1.86621 15.1504 1.86621C14.3098 1.86621 14.1504 2.46041 14.1286 2.82273C14.0924 3.64882 14.8895 3.70679 15.2736 3.73578Z" fill="#7940B5"/>
<path d="M23.404 18.8078C23.2953 18.7281 23.1794 18.6411 23.0779 18.5542C22.52 18.1049 21.9258 17.6919 21.346 17.2861C21.2301 17.2064 21.1069 17.1194 20.991 17.0397C20.2518 16.5252 19.5924 16.2716 18.962 16.2716C18.1214 16.2716 17.3823 16.7353 16.7736 17.6556C16.5055 18.0614 16.1794 18.2643 15.7736 18.2643C15.5345 18.2643 15.2663 18.1991 14.9692 18.0614C12.5924 16.9817 10.8895 15.3296 9.91851 13.1411C9.4475 12.0832 9.59967 11.3948 10.4258 10.8368C10.8968 10.518 11.7663 9.92376 11.7084 8.78608C11.6359 7.49622 8.79532 3.61941 7.59242 3.17738C7.08518 2.98897 6.54895 2.98897 6.00547 3.17013C4.62866 3.6339 3.6359 4.4455 3.14315 5.52521C2.66489 6.56144 2.68663 7.78608 3.20837 9.05419C4.70112 12.7281 6.80982 15.9238 9.45474 18.5687C12.0489 21.1556 15.2374 23.2716 18.933 24.8658C19.2663 25.0107 19.6142 25.0904 19.8678 25.1411C19.9547 25.1629 20.0272 25.1774 20.0852 25.1919C20.1142 25.1991 20.1431 25.2064 20.1794 25.2064H20.2084C21.9475 25.2064 24.0345 23.6194 24.6721 21.8078C25.2591 20.2209 24.2301 19.4382 23.404 18.8078Z" fill="#7940B5"/>
<path d="M16.0413 7.93148C15.7442 7.93873 15.121 7.95322 14.9036 8.58366C14.8022 8.88076 14.8167 9.13438 14.9399 9.34452C15.121 9.65612 15.4761 9.75032 15.8022 9.80105C16.9688 9.98945 17.5703 10.6344 17.6862 11.83C17.7442 12.388 18.121 12.7793 18.5993 12.7793C18.6355 12.7793 18.6717 12.7793 18.708 12.7721C19.2877 12.6996 19.5703 12.2793 19.5413 11.5039C19.5485 10.6996 19.1283 9.78655 18.4109 9.05467C17.6935 8.32279 16.8312 7.90974 16.0413 7.93148Z" fill="#7940B5"/>
</svg>
