<svg width="28" height="28" viewBox="0 0 28 28" fill="none" xmlns="http://www.w3.org/2000/svg">
<path d="M20.5145 15.4156C20.465 15.3908 18.626 14.4868 18.3041 14.3692C18.1679 14.3197 18.0254 14.2763 17.8768 14.2763C17.6292 14.2763 17.4187 14.4002 17.2577 14.6416C17.0719 14.9141 16.5209 15.5642 16.3475 15.7561C16.3227 15.7809 16.2918 15.8118 16.2732 15.8118C16.2546 15.8118 15.9698 15.6942 15.8893 15.6571C13.9204 14.8026 12.422 12.7408 12.2177 12.3941C12.1867 12.3445 12.1867 12.3198 12.1867 12.3198C12.1929 12.295 12.261 12.2269 12.292 12.1897C12.3911 12.0907 12.5025 11.9606 12.6078 11.8368C12.6573 11.7749 12.7068 11.7192 12.7564 11.6634C12.9112 11.4839 12.9793 11.3477 13.0536 11.1867L13.0969 11.1062C13.2888 10.7223 13.1279 10.4065 13.0721 10.3013C13.0288 10.2146 12.2548 8.34472 12.1682 8.14659C11.97 7.66983 11.71 7.45312 11.3447 7.45312C11.3137 7.45312 11.3447 7.45312 11.2023 7.45932C11.0289 7.46551 10.0878 7.58934 9.67293 7.84939C9.23332 8.12801 8.48413 9.01342 8.48413 10.5675C8.48413 11.9668 9.37573 13.2918 9.75342 13.7934C9.7658 13.8058 9.77818 13.8305 9.80295 13.8677C11.2642 16.0038 13.0907 17.5889 14.9358 18.3257C16.7128 19.0377 17.5549 19.1182 18.0378 19.1182C18.2422 19.1182 18.4031 19.0996 18.5394 19.0872L18.6322 19.081C19.2452 19.0253 20.595 18.3257 20.9046 17.4712C21.146 16.7963 21.2079 16.0657 21.047 15.7995C20.9417 15.6199 20.7498 15.527 20.5145 15.4156Z" fill="#40A86F"/>
<path d="M14.6877 0.933594C7.86454 0.933594 2.31064 6.44416 2.31064 13.2178C2.31064 15.4097 2.89885 17.552 4.00715 19.428L1.88342 25.7002C1.84627 25.8178 1.87103 25.9478 1.95772 26.0345C2.01963 26.0964 2.10632 26.1336 2.193 26.1336C2.22396 26.1336 2.26111 26.1274 2.29206 26.1212L8.83044 24.0408C10.6198 24.9943 12.6445 25.502 14.6877 25.502C21.5109 25.502 27.0648 19.9915 27.0648 13.2178C27.0648 6.44416 21.5109 0.933594 14.6877 0.933594ZM14.6877 22.9449C12.7621 22.9449 10.8984 22.3876 9.29481 21.3351C9.23908 21.2979 9.17717 21.2793 9.11525 21.2793C9.08429 21.2793 9.04714 21.2855 9.01618 21.2917L5.74081 22.3319L6.79958 19.2113C6.83673 19.1123 6.81815 19.0008 6.75624 18.9141C5.53648 17.2486 4.89255 15.2734 4.89255 13.2116C4.89255 7.84966 9.28862 3.48455 14.6939 3.48455C20.0992 3.48455 24.4953 7.84966 24.4953 13.2116C24.4891 18.5798 20.093 22.9449 14.6877 22.9449Z" fill="#40A86F"/>
</svg>
