<svg width="24" height="24" viewBox="0 0 24 24" fill="none" xmlns="http://www.w3.org/2000/svg">
<g clip-path="url(#clip0)">
<path d="M19.915 13.0276C19.527 12.5376 19.638 12.3196 19.915 11.8816C19.92 11.8766 23.123 7.45063 23.453 5.94963L23.455 5.94863C23.619 5.40163 23.455 4.99963 22.662 4.99963H20.038C19.37 4.99963 19.062 5.34463 18.897 5.73063C18.897 5.73063 17.561 8.92863 15.671 11.0016C15.061 11.6006 14.779 11.7926 14.446 11.7926C14.282 11.7926 14.027 11.6006 14.027 11.0536V5.94863C14.027 5.29263 13.84 4.99963 13.287 4.99963H9.161C8.742 4.99963 8.493 5.30563 8.493 5.59063C8.493 6.21263 9.438 6.35563 9.536 8.10563V11.9026C9.536 12.7346 9.385 12.8876 9.05 12.8876C8.158 12.8876 5.993 9.67663 4.71 6.00163C4.451 5.28863 4.198 5.00063 3.525 5.00063H0.9C0.151 5.00063 0 5.34563 0 5.73163C0 6.41363 0.892 9.80463 4.148 14.2846C6.318 17.3426 9.374 18.9996 12.154 18.9996C13.825 18.9996 14.029 18.6316 14.029 17.9986C14.029 15.0766 13.878 14.8006 14.715 14.8006C15.103 14.8006 15.771 14.9926 17.331 16.4676C19.114 18.2166 19.407 18.9996 20.405 18.9996H23.029C23.777 18.9996 24.156 18.6316 23.938 17.9056C23.439 16.3786 20.067 13.2376 19.915 13.0276Z" fill="#1E1E1E"/>
</g>
<defs>
<clipPath id="clip0">
<rect width="24" height="24" fill="white"/>
</clipPath>
</defs>
</svg>
